<?xml version="1.0" encoding="UTF-8" standalone="no"?>
<svg
   xmlns:dc="http://purl.org/dc/elements/1.1/"
   xmlns:cc="http://creativecommons.org/ns#"
   xmlns:rdf="http://www.w3.org/1999/02/22-rdf-syntax-ns#"
   xmlns:svg="http://www.w3.org/2000/svg"
   xmlns="http://www.w3.org/2000/svg"
   version="1.1"
   id="svg2"
   viewBox="0 0 190 100"
   height="100"
   width="190">
  <defs
     id="defs4">
    <clipPath
       clipPathUnits="userSpaceOnUse"
       id="clipPath4239">
      <path
         d="m 0,141.732 255.118,0 L 255.118,0 0,0 0,141.732 Z"
         id="path4241" />
    </clipPath>
  </defs>
  <metadata
     id="metadata7">
    <rdf:RDF>
      <cc:Work
         rdf:about="">
        <dc:format>image/svg+xml</dc:format>
        <dc:type
           rdf:resource="http://purl.org/dc/dcmitype/StillImage" />
        <dc:title></dc:title>
      </cc:Work>
    </rdf:RDF>
  </metadata>
  <g
     transform="translate(0,-832.36216)"
     id="layer1">
    <g
       id="g4233"
       transform="matrix(1.25,0,0,-1.25,197.69323,452.37271)">
      <g
         transform="matrix(1.6328637,0,0,1.645705,-213.1226,-532.08767)"
         style="fill:#280b0b"
         clip-path="url(#clipPath4239)"
         id="g4237">
        <g
           style="fill:#e6e6e6"
           transform="matrix(0.51851861,0,0,0.51851861,85.593977,138.24561)"
           id="g4243">
          <path
             id="path4245"
             style="fill:#e6e6e6;fill-opacity:1;fill-rule:nonzero;stroke:none"
             d="m 0,0 -0.002,0.001 c -5.25,1 -8.683,0.786 -13.142,0.11 -22.532,-3.418 -37.664,-19.619 -41.31,-40.532 -0.143,-0.827 -0.259,-1.587 -0.211,-2.412 2.993,9.741 15.545,30.608 33.166,30.608 4.583,0 8.941,-0.929 12.913,-2.582 1.657,-1.895 4.086,-3.098 6.801,-3.098 4.993,0 9.041,4.049 9.041,9.042 C 7.256,-4.481 4.138,-0.829 0,0" />
        </g>
        <g
           style="fill:#ffffff"
           transform="matrix(0.51851861,0,0,0.51851861,36.779546,100.6431)"
           id="g4247">
          <path
             id="path4249"
             style="fill:#ffffff;fill-opacity:1;fill-rule:nonzero;stroke:none"
             d="m 0,0 -1.285,0.934 5.696,5.315 0.742,0.702 0.86,-0.557 c 3.23,-2.109 7.607,-3.507 12.204,-3.501 2.654,-0.006 4.698,0.503 5.96,1.253 1.261,0.771 1.736,1.581 1.754,2.617 -0.078,1.888 -1.021,3.233 -4.773,3.726 -2.072,0.216 -3.675,0.425 -6.029,0.679 -8.228,0.856 -13.278,5.591 -13.239,11.766 -0.019,3.564 1.566,6.743 4.405,8.874 2.833,2.146 6.829,3.314 11.731,3.314 5.882,0 11.08,-1.698 15.395,-4.029 l 0.712,-0.393 -0.345,-8.847 -1.829,0.952 c -3.074,1.624 -10.685,4.101 -14.248,4.059 -1.937,0.007 -3.607,-0.424 -4.685,-1.129 -1.068,-0.722 -1.6,-1.553 -1.625,-2.909 0,-1.199 0.993,-2.862 5.323,-3.471 1.202,-0.145 2.918,-0.358 5.073,-0.568 C 30.737,17.98 35.485,12.584 35.448,6.763 35.464,2.934 33.629,-0.271 30.539,-2.305 27.458,-4.356 23.218,-5.359 18.156,-5.369 11.229,-5.375 5.045,-3.633 0,0" />
        </g>
        <g
           style="fill:#ffffff"
           transform="matrix(0.51851861,0,0,0.51851861,84.630103,100.28003)"
           id="g4251">
          <path
             id="path4253"
             style="fill:#ffffff;fill-opacity:1;fill-rule:nonzero;stroke:none"
             d="m 0,0 -0.548,0.392 0.017,7.17 0.007,3.068 2.207,-2.134 C 5.18,5.025 12.229,3.56 16.854,3.593 c 2.652,-0.006 4.699,0.503 5.958,1.253 1.265,0.771 1.735,1.581 1.751,2.619 -0.071,1.887 -1.016,3.231 -4.776,3.729 -2.065,0.203 -3.668,0.42 -6.026,0.68 -8.222,0.851 -13.278,5.585 -13.24,11.76 -0.016,3.563 1.568,6.743 4.413,8.874 2.828,2.148 6.824,3.308 11.731,3.308 5.877,0 11.081,-1.691 15.39,-4.023 l 1.39,-0.756 -5.513,-6.693 -0.937,0.485 c -3.167,1.646 -6.876,2.735 -10.65,2.735 -1.934,0.006 -3.615,-0.423 -4.682,-1.128 -1.071,-0.719 -1.605,-1.559 -1.625,-2.91 0,-1.191 0.989,-2.862 5.317,-3.464 1.209,-0.159 2.92,-0.365 5.081,-0.57 8.935,-0.811 13.683,-6.21 13.645,-12.027 0.021,-3.831 -1.819,-7.036 -4.904,-9.069 -3.087,-2.047 -7.326,-3.06 -12.39,-3.065 l -0.163,0 C 9.895,-4.669 4.977,-3.604 0,0" />
        </g>
        <g
           style="fill:#ffffff"
           transform="matrix(0.51851861,0,0,0.51851861,77.319665,98.021676)"
           id="g4255">
          <path
             id="path4257"
             style="fill:#ffffff;fill-opacity:1;fill-rule:nonzero;stroke:none"
             d="m 0,0 0,16.273 -15.426,0 0,-16.273 -9.511,0 0,39.855 9.511,0 0,-15.95 15.426,0 0,15.95 9.513,0 L 9.513,0 0,0 Z" />
        </g>
        <g
           style="fill:#ffffff"
           transform="matrix(0.51851861,0,0,0.51851861,110.66792,106.29111)"
           id="g4259">
          <path
             id="path4261"
             style="fill:#ffffff;fill-opacity:1;fill-rule:nonzero;stroke:none"
             d="M 0,0 9.434,0 4.717,11.66 0,0 Z m 15.999,-15.948 -3.513,8.323 -15.539,0 -3.519,-8.323 -10.16,0 17.722,39.856 7.45,0 17.722,-39.856 -10.163,0 z" />
        </g>
        <g
           style="fill:#ffffff"
           transform="matrix(0.51851861,0,0,0.51851861,36.78411,91.09204)"
           id="g4263">
          <path
             id="path4265"
             style="fill:#ffffff;fill-opacity:1;fill-rule:nonzero;stroke:none"
             d="m 0,0 c 0,-0.796 0.622,-1.106 1.323,-1.106 0.454,0 1.161,0.134 1.161,0.742 0,0.644 -0.894,0.753 -1.77,0.992 -0.89,0.231 -1.782,0.578 -1.782,1.696 0,1.222 1.15,1.805 2.231,1.805 1.245,0 2.392,-0.542 2.392,-1.922 l -1.273,0 c -0.04,0.717 -0.553,0.9 -1.18,0.9 -0.416,0 -0.899,-0.168 -0.899,-0.674 0,-0.46 0.283,-0.519 1.777,-0.904 0.44,-0.113 1.771,-0.386 1.771,-1.74 0,-1.095 -0.858,-1.914 -2.48,-1.914 -1.323,0 -2.554,0.654 -2.541,2.125 L 0,0 Z" />
        </g>
        <path
           id="path4267"
           style="fill:#ffffff;fill-opacity:1;fill-rule:nonzero;stroke:none"
           d="m 39.239037,93.160566 0.680295,0 0,-3.098667 -0.680295,0 0,3.098667 z" />
        <g
           style="fill:#ffffff"
           transform="matrix(0.51851861,0,0,0.51851861,41.089214,91.09204)"
           id="g4269">
          <path
             id="path4271"
             style="fill:#ffffff;fill-opacity:1;fill-rule:nonzero;stroke:none"
             d="m 0,0 c 0,-0.796 0.616,-1.106 1.32,-1.106 0.459,0 1.162,0.134 1.162,0.742 0,0.644 -0.894,0.753 -1.771,0.992 -0.888,0.231 -1.783,0.578 -1.783,1.696 0,1.222 1.153,1.805 2.233,1.805 1.243,0 2.392,-0.542 2.392,-1.922 l -1.274,0 c -0.038,0.717 -0.549,0.9 -1.175,0.9 -0.42,0 -0.903,-0.168 -0.903,-0.674 0,-0.46 0.281,-0.519 1.781,-0.904 0.433,-0.113 1.771,-0.386 1.771,-1.74 0,-1.095 -0.86,-1.914 -2.483,-1.914 -1.321,0 -2.559,0.654 -2.541,2.125 L 0,0 Z" />
        </g>
        <g
           style="fill:#ffffff"
           transform="matrix(0.51851861,0,0,0.51851861,44.229207,92.587862)"
           id="g4273">
          <path
             id="path4275"
             style="fill:#ffffff;fill-opacity:1;fill-rule:nonzero;stroke:none"
             d="m 0,0 -1.79,0 0,1.104 4.889,0 0,-1.104 -1.787,0 0,-4.871 L 0,-4.871 0,0 Z" />
        </g>
        <g
           style="fill:#ffffff"
           transform="matrix(0.51851861,0,0,0.51851861,46.296697,93.160566)"
           id="g4277">
          <path
             id="path4279"
             style="fill:#ffffff;fill-opacity:1;fill-rule:nonzero;stroke:none"
             d="m 0,0 4.464,0 0,-1.104 -3.152,0 0,-1.279 2.896,0 0,-1.025 -2.896,0 0,-1.466 3.219,0 0,-1.102 L 0,-5.976 0,0 Z" />
        </g>
        <g
           style="fill:#ffffff"
           transform="matrix(0.51851861,0,0,0.51851861,49.210304,93.160566)"
           id="g4281">
          <path
             id="path4283"
             style="fill:#ffffff;fill-opacity:1;fill-rule:nonzero;stroke:none"
             d="m 0,0 1.848,0 1.401,-4.108 0.011,0 1.323,4.108 1.844,0 0,-5.976 -1.225,0 0,4.232 -0.016,0 -1.461,-4.232 -1.015,0 -1.46,4.194 -0.02,0 0,-4.194 -1.23,0 L 0,0 Z" />
        </g>
        <g
           style="fill:#ffffff"
           transform="matrix(0.51851861,0,0,0.51851861,54.02532,91.259625)"
           id="g4285">
          <path
             id="path4287"
             style="fill:#ffffff;fill-opacity:1;fill-rule:nonzero;stroke:none"
             d="M 0,0 1.546,0 0.8,2.191 0.778,2.191 0,0 Z m 0.126,3.666 1.35,0 2.23,-5.976 -1.362,0 -0.448,1.336 -2.235,0 -0.473,-1.336 -1.326,0 2.264,5.976 z" />
        </g>
        <g
           style="fill:#ffffff"
           transform="matrix(0.51851861,0,0,0.51851861,56.785033,91.09204)"
           id="g4289">
          <path
             id="path4291"
             style="fill:#ffffff;fill-opacity:1;fill-rule:nonzero;stroke:none"
             d="m 0,0 c 0,-0.796 0.618,-1.106 1.323,-1.106 0.457,0 1.156,0.134 1.156,0.742 0,0.644 -0.892,0.753 -1.77,0.992 -0.888,0.231 -1.781,0.578 -1.781,1.696 0,1.222 1.157,1.805 2.234,1.805 1.243,0 2.392,-0.542 2.392,-1.922 l -1.272,0 C 2.239,2.924 1.729,3.107 1.104,3.107 0.687,3.107 0.2,2.939 0.2,2.433 0.2,1.973 0.485,1.914 1.981,1.529 2.417,1.416 3.752,1.143 3.752,-0.211 c 0,-1.095 -0.856,-1.914 -2.481,-1.914 -1.323,0 -2.561,0.654 -2.543,2.125 L 0,0 Z" />
        </g>
        <g
           style="fill:#ffffff"
           transform="matrix(0.51851861,0,0,0.51851861,60.550877,93.160566)"
           id="g4293">
          <path
             id="path4295"
             style="fill:#ffffff;fill-opacity:1;fill-rule:nonzero;stroke:none"
             d="m 0,0 1.312,0 0,-2.297 2.418,0 0,2.297 1.314,0 0,-5.976 -1.314,0 0,2.577 -2.418,0 0,-2.577 L 0,-5.976 0,0 Z" />
        </g>
        <path
           id="path4297"
           style="fill:#ffffff;fill-opacity:1;fill-rule:nonzero;stroke:none"
           d="m 63.869708,93.160566 0.677704,0 0,-3.098667 -0.677704,0 0,3.098667 z" />
        <g
           style="fill:#ffffff"
           transform="matrix(0.51851861,0,0,0.51851861,65.93559,90.633255)"
           id="g4299">
          <path
             id="path4301"
             style="fill:#ffffff;fill-opacity:1;fill-rule:nonzero;stroke:none"
             d="M 0,0 1.17,0 C 1.932,0 2.655,0.469 2.655,1.795 2.655,2.996 2.241,3.77 0.936,3.77 L 0,3.77 0,0 Z m -1.316,4.874 2.578,0 c 1.547,0 2.707,-0.97 2.707,-2.956 0,-1.73 -0.886,-3.02 -2.707,-3.02 l -2.578,0 0,5.976 z" />
        </g>
        <g
           style="fill:#ffffff"
           transform="matrix(0.51851861,0,0,0.51851861,69.249753,91.758441)"
           id="g4303">
          <path
             id="path4305"
             style="fill:#ffffff;fill-opacity:1;fill-rule:nonzero;stroke:none"
             d="M 0,0 1.44,0 C 2.024,0 2.343,0.256 2.343,0.853 2.343,1.43 2.024,1.682 1.44,1.682 L 0,1.682 0,0 Z m -1.312,2.704 3.223,0 c 1.07,0 1.746,-0.75 1.746,-1.651 0,-0.701 -0.282,-1.227 -0.944,-1.496 l 0,-0.014 C 3.354,-0.63 3.54,-1.256 3.582,-1.854 3.604,-2.233 3.603,-2.938 3.83,-3.271 l -1.311,0 C 2.363,-2.896 2.377,-2.313 2.312,-1.84 2.22,-1.21 1.974,-0.939 1.313,-0.939 l -1.313,0 0,-2.332 -1.312,0 0,5.975 z" />
        </g>
        <g
           style="fill:#ffffff"
           transform="matrix(0.51851861,0,0,0.51851861,73.092028,93.435485)"
           id="g4307">
          <path
             id="path4309"
             style="fill:#ffffff;fill-opacity:1;fill-rule:nonzero;stroke:none"
             d="m 0,0 -0.826,0 0.804,1.192 1.314,0 L 0,0 Z m -0.979,-4.196 1.544,0 -0.75,2.191 -0.013,0 -0.781,-2.191 z m 0.13,3.666 1.344,0 2.234,-5.976 -1.367,0 -0.452,1.336 -2.231,0 -0.466,-1.336 -1.333,0 2.271,5.976 z" />
        </g>
        <g
           style="fill:#ffffff"
           transform="matrix(0.51851861,0,0,0.51851861,77.507058,91.232299)"
           id="g4311">
          <path
             id="path4313"
             style="fill:#ffffff;fill-opacity:1;fill-rule:nonzero;stroke:none"
             d="m 0,0 c 0,-1.608 -0.953,-2.396 -2.552,-2.396 -1.604,0 -2.543,0.777 -2.543,2.396 l 0,3.719 1.318,0 0,-3.719 c 0,-0.649 0.166,-1.294 1.225,-1.294 0.937,0 1.24,0.413 1.24,1.294 l 0,3.719 L 0,3.719 0,0 Z" />
        </g>
        <g
           style="fill:#ffffff"
           transform="matrix(0.51851861,0,0,0.51851861,78.196687,93.160566)"
           id="g4315">
          <path
             id="path4317"
             style="fill:#ffffff;fill-opacity:1;fill-rule:nonzero;stroke:none"
             d="m 0,0 1.312,0 0,-4.874 2.911,0 0,-1.102 L 0,-5.976 0,0 Z" />
        </g>
        <path
           id="path4319"
           style="fill:#ffffff;fill-opacity:1;fill-rule:nonzero;stroke:none"
           d="m 80.871414,93.160566 0.682889,0 0,-3.098667 -0.682889,0 0,3.098667 z" />
        <g
           style="fill:#ffffff"
           transform="matrix(0.51851861,0,0,0.51851861,84.323711,92.118966)"
           id="g4321">
          <path
             id="path4323"
             style="fill:#ffffff;fill-opacity:1;fill-rule:nonzero;stroke:none"
             d="m 0,0 c -0.089,0.59 -0.655,1.044 -1.31,1.044 -1.177,0 -1.62,-1.001 -1.62,-2.054 0,-0.987 0.443,-1.994 1.62,-1.994 0.805,0 1.253,0.555 1.357,1.335 l 1.268,0 c -0.13,-1.482 -1.16,-2.436 -2.625,-2.436 -1.848,0 -2.937,1.38 -2.937,3.095 0,1.776 1.089,3.157 2.937,3.157 C 0.005,2.147 1.106,1.379 1.268,0 L 0,0 Z" />
        </g>
        <g
           style="fill:#ffffff"
           transform="matrix(0.51851861,0,0,0.51851861,86.961879,90.561388)"
           id="g4325">
          <path
             id="path4327"
             style="fill:#ffffff;fill-opacity:1;fill-rule:nonzero;stroke:none"
             d="M 0,0 C 1.177,0 1.623,1.007 1.623,1.994 1.623,3.047 1.177,4.048 0,4.048 -1.179,4.048 -1.622,3.047 -1.622,1.994 -1.622,1.007 -1.179,0 0,0 m 0,5.152 c 1.847,0 2.937,-1.382 2.937,-3.158 0,-1.715 -1.09,-3.097 -2.937,-3.097 -1.848,0 -2.933,1.382 -2.933,3.097 0,1.776 1.085,3.158 2.933,3.158" />
        </g>
        <g
           style="fill:#ffffff"
           transform="matrix(0.51851861,0,0,0.51851861,89.516522,91.09204)"
           id="g4329">
          <path
             id="path4331"
             style="fill:#ffffff;fill-opacity:1;fill-rule:nonzero;stroke:none"
             d="m 0,0 c 0,-0.796 0.615,-1.106 1.32,-1.106 0.459,0 1.162,0.134 1.162,0.742 0,0.644 -0.895,0.753 -1.774,0.992 -0.889,0.231 -1.779,0.578 -1.779,1.696 0,1.222 1.153,1.805 2.231,1.805 1.249,0 2.391,-0.542 2.391,-1.922 l -1.27,0 c -0.037,0.717 -0.549,0.9 -1.178,0.9 -0.419,0 -0.906,-0.168 -0.906,-0.674 0,-0.46 0.283,-0.519 1.782,-0.904 0.435,-0.113 1.776,-0.386 1.776,-1.74 0,-1.095 -0.864,-1.914 -2.485,-1.914 -1.325,0 -2.561,0.654 -2.545,2.125 L 0,0 Z" />
        </g>
        <g
           style="fill:#ffffff"
           transform="matrix(0.51851861,0,0,0.51851861,94.082904,91.267247)"
           id="g4333">
          <path
             id="path4335"
             style="fill:#ffffff;fill-opacity:1;fill-rule:nonzero;stroke:none"
             d="m 0,0 -2.195,3.651 1.48,0 1.394,-2.361 1.389,2.361 1.461,0 -2.213,-3.678 0,-2.297 L 0,-2.324 0,0 Z" />
        </g>
        <g
           style="fill:#ffffff"
           transform="matrix(0.51851861,0,0,0.51851861,98.05486,91.09204)"
           id="g4337">
          <path
             id="path4339"
             style="fill:#ffffff;fill-opacity:1;fill-rule:nonzero;stroke:none"
             d="m 0,0 c 0,-0.796 0.618,-1.106 1.322,-1.106 0.459,0 1.16,0.134 1.16,0.742 0,0.644 -0.891,0.753 -1.771,0.992 -0.889,0.231 -1.783,0.578 -1.783,1.696 0,1.222 1.156,1.805 2.235,1.805 1.248,0 2.392,-0.542 2.392,-1.922 l -1.27,0 c -0.045,0.717 -0.555,0.9 -1.183,0.9 -0.415,0 -0.903,-0.168 -0.903,-0.674 0,-0.46 0.285,-0.519 1.784,-0.904 0.435,-0.113 1.772,-0.386 1.772,-1.74 0,-1.095 -0.861,-1.914 -2.484,-1.914 -1.324,0 -2.557,0.654 -2.544,2.125 L 0,0 Z" />
        </g>
        <g
           style="fill:#ffffff"
           transform="matrix(0.51851861,0,0,0.51851861,101.28902,91.259625)"
           id="g4341">
          <path
             id="path4343"
             style="fill:#ffffff;fill-opacity:1;fill-rule:nonzero;stroke:none"
             d="M 0,0 1.548,0 0.797,2.191 0.78,2.191 0,0 Z m 0.128,3.666 1.346,0 2.232,-5.976 -1.362,0 -0.452,1.336 -2.236,0 -0.464,-1.336 -1.335,0 2.271,5.976 z" />
        </g>
        <g
           style="fill:#ffffff"
           transform="matrix(0.51851861,0,0,0.51851861,103.58387,93.160566)"
           id="g4345">
          <path
             id="path4347"
             style="fill:#ffffff;fill-opacity:1;fill-rule:nonzero;stroke:none"
             d="m 0,0 1.305,0 2.492,-4.006 0.015,0 0,4.006 1.233,0 0,-5.976 -1.315,0 -2.487,4.001 -0.014,0 0,-4.001 L 0,-5.976 0,0 Z" />
        </g>
        <path
           id="path4349"
           style="fill:#ffffff;fill-opacity:1;fill-rule:nonzero;stroke:none"
           d="m 106.90052,93.160566 0.6803,0 0,-3.098667 -0.6803,0 0,3.098667 z" />
        <g
           style="fill:#ffffff"
           transform="matrix(0.51851861,0,0,0.51851861,108.97056,92.587862)"
           id="g4351">
          <path
             id="path4353"
             style="fill:#ffffff;fill-opacity:1;fill-rule:nonzero;stroke:none"
             d="m 0,0 -1.787,0 0,1.104 4.893,0 0,-1.104 -1.789,0 0,-4.871 L 0,-4.871 0,0 Z" />
        </g>
        <g
           style="fill:#ffffff"
           transform="matrix(0.51851861,0,0,0.51851861,111.49833,91.259625)"
           id="g4355">
          <path
             id="path4357"
             style="fill:#ffffff;fill-opacity:1;fill-rule:nonzero;stroke:none"
             d="M 0,0 1.551,0 0.796,2.191 0.779,2.191 0,0 Z m 0.127,3.666 1.348,0 2.231,-5.976 -1.358,0 -0.456,1.336 -2.232,0 -0.469,-1.336 -1.327,0 2.263,5.976 z" />
        </g>
        <g
           style="fill:#ffffff"
           transform="matrix(0.51851861,0,0,0.51851861,114.4753,91.758441)"
           id="g4359">
          <path
             id="path4361"
             style="fill:#ffffff;fill-opacity:1;fill-rule:nonzero;stroke:none"
             d="m 0,0 1.437,0 c 0.584,0 0.906,0.256 0.906,0.853 0,0.577 -0.322,0.829 -0.906,0.829 L 0,1.682 0,0 Z m -1.312,2.704 3.218,0 c 1.067,0 1.749,-0.75 1.749,-1.651 0,-0.701 -0.286,-1.227 -0.95,-1.496 l 0,-0.014 C 3.35,-0.63 3.533,-1.256 3.579,-1.854 3.604,-2.233 3.593,-2.938 3.827,-3.271 l -1.313,0 C 2.36,-2.896 2.374,-2.313 2.308,-1.84 2.213,-1.21 1.974,-0.939 1.313,-0.939 l -1.313,0 0,-2.332 -1.312,0 0,5.975 z" />
        </g>
        <path
           id="path4363"
           style="fill:#ffffff;fill-opacity:1;fill-rule:nonzero;stroke:none"
           d="m 117.02978,93.160566 0.68029,0 0,-3.098667 -0.68029,0 0,3.098667 z" />
        <g
           style="fill:#ffffff"
           transform="matrix(0.51851861,0,0,0.51851861,119.80074,90.561388)"
           id="g4365">
          <path
             id="path4367"
             style="fill:#ffffff;fill-opacity:1;fill-rule:nonzero;stroke:none"
             d="M 0,0 C 1.179,0 1.626,1.007 1.626,1.994 1.626,3.047 1.179,4.048 0,4.048 -1.178,4.048 -1.623,3.047 -1.623,1.994 -1.623,1.007 -1.178,0 0,0 m 0,5.152 c 1.851,0 2.938,-1.382 2.938,-3.158 0,-1.715 -1.087,-3.097 -2.938,-3.097 -1.847,0 -2.934,1.382 -2.934,3.097 0,1.776 1.087,3.158 2.934,3.158" />
        </g>
        <g
           style="fill:#ffffff"
           transform="matrix(0.51851861,0,0,0.51851861,122.35584,91.09204)"
           id="g4369">
          <path
             id="path4371"
             style="fill:#ffffff;fill-opacity:1;fill-rule:nonzero;stroke:none"
             d="m 0,0 c 0,-0.796 0.617,-1.106 1.323,-1.106 0.457,0 1.156,0.134 1.156,0.742 0,0.644 -0.894,0.753 -1.77,0.992 -0.888,0.231 -1.78,0.578 -1.78,1.696 0,1.222 1.154,1.805 2.231,1.805 1.248,0 2.391,-0.542 2.391,-1.922 l -1.267,0 C 2.239,2.924 1.734,3.107 1.099,3.107 0.683,3.107 0.2,2.939 0.2,2.433 0.2,1.973 0.481,1.914 1.979,1.529 2.414,1.416 3.753,1.143 3.753,-0.211 c 0,-1.095 -0.861,-1.914 -2.482,-1.914 -1.324,0 -2.559,0.654 -2.545,2.125 L 0,0 Z" />
        </g>
        <g
           style="fill:#ffffff"
           transform="matrix(0.51851861,0,0,0.51851861,57.215974,98.021676)"
           id="g4373">
          <path
             id="path4375"
             style="fill:#ffffff;fill-opacity:1;fill-rule:nonzero;stroke:none"
             d="m 0,0 0,29.708 c 0,0 0.508,2.872 3.191,6.442 3.377,4.493 6.325,3.705 6.325,3.705 L 9.516,0 0,0 Z" />
        </g>
        <g
           style="fill:#f2f2f2"
           transform="matrix(0.51851861,0,0,0.51851861,97.176341,130.44222)"
           id="g4377">
          <path
             id="path4379"
             style="fill:#f2f2f2;fill-opacity:1;fill-rule:nonzero;stroke:none"
             d="m 0,0 c -8.005,4.951 -17.434,7.815 -27.535,7.815 -22.071,0 -40.418,-12.468 -48.483,-32.872 5.337,13.085 17.237,22.431 32.147,22.431 4.159,0 8.282,-0.341 12.271,-1.142 7.101,-1.283 13.558,-4.406 18.86,-8.865 2.531,-1.908 5.742,-4.167 7.951,-4.609 4.81,-0.961 10.358,2.426 10.358,8.107 C 5.569,-5.156 3.06,-1.944 0,0" />
        </g>
        <g
           style="fill:#cccccc"
           transform="matrix(0.51851861,0,0,0.51851861,70.529301,125.4186)"
           id="g4381">
          <path
             id="path4383"
             style="fill:#cccccc;fill-opacity:1;fill-rule:nonzero;stroke:none"
             d="m 0,0 c 4.729,0 9.173,-1.218 13.04,-3.353 0.645,-0.338 1.288,-0.717 1.933,-1.147 3.194,-2.13 4.745,-2.991 6.922,-3 3.162,-0.014 5.891,2.857 5.891,6.201 0,1.677 -0.645,3.194 -1.686,4.29 -0.675,0.798 -1.31,1.209 -1.334,1.225 -5.264,3.492 -10.28,4.207 -17.102,4.207 -15.455,0 -29.656,-12.393 -33.275,-26.518 0.091,0.172 0.195,0.343 0.29,0.514 C -21.492,-7.314 -11.602,0 0,0" />
        </g>
      </g>
    </g>
  </g>
</svg>
