<?xml version="1.0" encoding="utf-8"?>
<!-- Generator: Adobe Illustrator 16.0.0, SVG Export Plug-In . SVG Version: 6.00 Build 0)  -->
<!DOCTYPE svg PUBLIC "-//W3C//DTD SVG 1.1//EN" "http://www.w3.org/Graphics/SVG/1.1/DTD/svg11.dtd">
<svg version="1.1" id="Capa_1" xmlns="http://www.w3.org/2000/svg" xmlns:xlink="http://www.w3.org/1999/xlink" x="0px" y="0px"
	 width="174.5px" height="99px" viewBox="0 0 174.5 99" enable-background="new 0 0 174.5 99" xml:space="preserve">
<polygon fill="#7EA64B" points="8.9,88.3 6.6,88.3 3.3,81 3.3,88.3 0.7,88.3 0.7,76.6 3.4,76.6 7.7,86.6 11.9,76.6 14.5,76.6 
	14.5,88.3 12,88.3 12,81 "/>
<polygon fill="#7EA64B" points="33.9,78.1 28.2,78.1 28.2,81.3 32.7,81.3 32.7,82.8 28.2,82.8 28.2,86.8 34.1,86.8 34.1,88.3 
	25.7,88.3 25.7,76.6 33.9,76.6 "/>
<path fill="#7EA64B" d="M48.4,76.6c1.3,0,2.5,0.2,3.4,0.5c0.9,0.3,1.7,0.7,2.3,1.2c0.6,0.5,1,1.1,1.3,1.8c0.3,0.7,0.4,1.4,0.4,2.2
	c0,0.5-0.1,1.1-0.2,1.6c-0.1,0.5-0.3,1-0.5,1.4c-0.2,0.4-0.6,0.9-0.9,1.2c-0.4,0.4-0.9,0.7-1.4,1c-0.5,0.3-1.2,0.5-1.9,0.6
	c-0.7,0.1-1.5,0.2-2.5,0.2h-3.5V76.6H48.4z M47.3,78.1v8.7h0.8c0.7,0,1.4-0.1,2-0.3c0.6-0.2,1.1-0.5,1.6-0.8c0.4-0.4,0.8-0.9,1-1.4
	c0.3-0.6,0.4-1.2,0.4-2c0-0.5-0.1-1.1-0.3-1.6c-0.2-0.5-0.4-1-0.8-1.3c-0.4-0.4-0.9-0.7-1.5-0.9c-0.6-0.2-1.4-0.4-2.2-0.4H47.3z"/>
<polygon fill="#7EA64B" points="75,78.1 69.3,78.1 69.3,81.3 73.8,81.3 73.8,82.8 69.3,82.8 69.3,86.8 75.2,86.8 75.2,88.3 
	66.8,88.3 66.8,76.6 75,76.6 "/>
<polygon fill="#7EA64B" points="94.6,88.3 85.8,88.3 85.8,76.6 88.4,76.6 88.4,86.8 94.6,86.8 "/>
<polygon fill="#7EA64B" points="113.6,88.3 104.8,88.3 104.8,76.6 107.3,76.6 107.3,86.8 113.6,86.8 "/>
<path fill="#7EA64B" d="M123.1,75l3.2-3.2l1.8,1.6l-3.9,2.5L123.1,75z M123.8,76.6h2.6v11.8h-2.6V76.6z"/>
<polygon fill="#7EA64B" points="139.9,79.9 139.9,88.3 137.3,88.3 137.3,76.6 139.7,76.6 145.9,85 145.9,76.6 148.5,76.6 
	148.5,88.3 146.1,88.3 "/>
<path fill="#424243" d="M3.8,98.2c-0.2,0.2-0.4,0.4-0.6,0.6c-0.3,0.2-0.6,0.2-1,0.2c-0.6,0-1.2-0.3-1.5-0.7C0.2,97.7,0,97.1,0,96.3
	c0-0.7,0.2-1.4,0.6-1.9c0.4-0.5,0.9-0.8,1.6-0.8c0.3,0,0.6,0,0.8,0.1c0.2,0.1,0.4,0.2,0.7,0.5l-0.4,0.4c-0.2-0.2-0.3-0.3-0.5-0.4
	c-0.2-0.1-0.4-0.1-0.6-0.1c-0.5,0-0.9,0.2-1.1,0.6c-0.3,0.4-0.4,0.9-0.4,1.5c0,0.7,0.1,1.3,0.5,1.7c0.3,0.4,0.7,0.6,1.1,0.6
	c0.4,0,0.6-0.1,0.8-0.2c0.2-0.1,0.3-0.3,0.5-0.5L3.8,98.2z"/>
<polygon fill="#424243" points="8.4,94.2 6.2,94.2 6.2,96 7.9,96 7.9,96.4 6.2,96.4 6.2,98.5 8.5,98.5 8.5,98.9 5.6,98.9 5.6,93.8 
	8.4,93.8 "/>
<polygon fill="#424243" points="10.9,94.7 10.9,98.9 10.3,98.9 10.3,93.8 10.9,93.8 13.4,98 13.4,93.8 14,93.8 14,98.9 13.5,98.9 
	"/>
<polygon fill="#424243" points="19.4,94.2 17.8,94.2 17.8,98.9 17.3,98.9 17.3,94.2 15.7,94.2 15.7,93.8 19.4,93.8 "/>
<path fill="#424243" d="M21.7,98.9h-0.6v-5.1h1.4c0.5,0,1,0.1,1.2,0.4c0.3,0.3,0.4,0.6,0.4,1.1c0,0.3-0.1,0.6-0.3,0.8
	c-0.2,0.3-0.5,0.4-0.7,0.5l1.4,2.3h-0.7l-1.3-2.2c0,0-0.3,0-0.9,0V98.9z M21.7,96.3h0.5c0.4,0,0.8-0.1,1-0.3
	c0.2-0.2,0.4-0.5,0.4-0.8c0-0.3-0.1-0.6-0.3-0.8c-0.2-0.2-0.5-0.2-1-0.2h-0.6V96.3z"/>
<path fill="#424243" d="M28.4,99c-0.7,0-1.3-0.3-1.7-0.7c-0.4-0.5-0.6-1.2-0.6-2c0-0.7,0.2-1.4,0.7-1.9c0.4-0.5,1-0.7,1.6-0.7
	c0.7,0,1.3,0.2,1.7,0.7c0.4,0.5,0.6,1.2,0.6,2c0,0.8-0.2,1.4-0.6,1.9C29.6,98.7,29,99,28.4,99 M28.4,98.5c0.4,0,0.8-0.2,1.1-0.6
	c0.3-0.4,0.5-1,0.5-1.8c0-0.5-0.1-1-0.4-1.4c-0.3-0.5-0.7-0.7-1.2-0.7c-0.5,0-1,0.2-1.3,0.6c-0.3,0.4-0.5,0.9-0.5,1.5
	c0,0.7,0.2,1.3,0.5,1.7C27.5,98.3,27.9,98.5,28.4,98.5"/>
<path fill="#424243" d="M36.1,93.8c0.8,0,1.4,0.2,1.8,0.7c0.4,0.4,0.6,1.1,0.6,1.8c0,0.9-0.2,1.5-0.6,2c-0.4,0.5-1,0.7-1.8,0.7H35
	v-5.1H36.1z M35.6,94.2v4.3H36c0.6,0,1.1-0.2,1.4-0.6c0.3-0.4,0.5-0.9,0.5-1.7c0-0.6-0.2-1.2-0.5-1.5c-0.3-0.4-0.8-0.5-1.5-0.5H35.6
	z"/>
<polygon fill="#424243" points="43.3,94.2 41.1,94.2 41.1,96 42.8,96 42.8,96.4 41.1,96.4 41.1,98.5 43.4,98.5 43.4,98.9 40.5,98.9 
	40.5,93.8 43.3,93.8 "/>
<rect x="47.6" y="93.8" fill="#424243" width="0.6" height="5.1"/>
<polygon fill="#424243" points="50.8,94.7 50.8,98.9 50.2,98.9 50.2,93.8 50.8,93.8 53.3,98 53.3,93.8 53.9,93.8 53.9,98.9 
	53.4,98.9 "/>
<polygon fill="#424243" points="56.5,94.7 56.5,98.9 56,98.9 56,93.8 56.5,93.8 59.1,98 59.1,93.8 59.6,93.8 59.6,98.9 59.1,98.9 
	"/>
<path fill="#424243" d="M63.9,99c-0.7,0-1.3-0.3-1.7-0.7c-0.4-0.5-0.6-1.2-0.6-2c0-0.7,0.2-1.4,0.7-1.9c0.4-0.5,1-0.7,1.6-0.7
	c0.7,0,1.3,0.2,1.7,0.7c0.4,0.5,0.6,1.2,0.6,2c0,0.8-0.2,1.4-0.6,1.9C65.1,98.7,64.6,99,63.9,99 M63.9,98.5c0.4,0,0.8-0.2,1.2-0.6
	c0.3-0.4,0.5-1,0.5-1.8c0-0.5-0.1-1-0.4-1.4c-0.3-0.5-0.7-0.7-1.2-0.7c-0.5,0-1,0.2-1.3,0.6c-0.3,0.4-0.5,0.9-0.5,1.5
	c0,0.7,0.2,1.3,0.5,1.7C63.1,98.3,63.4,98.5,63.9,98.5"/>
<polygon fill="#424243" points="71.1,93.8 71.6,93.8 70,98.9 69.4,98.9 67.8,93.8 68.4,93.8 69.7,98.1 "/>
<path fill="#424243" d="M74.7,93.8h0.5l1.7,5.1h-0.6l-0.5-1.8H74l-0.6,1.8h-0.5L74.7,93.8z M74.2,96.8h1.5l-0.7-2.3L74.2,96.8z"/>
<path fill="#424243" d="M82.3,98.2c-0.2,0.2-0.4,0.4-0.6,0.6c-0.2,0.2-0.6,0.2-1.1,0.2c-0.6,0-1.2-0.3-1.5-0.7
	c-0.4-0.5-0.6-1.2-0.6-1.9c0-0.7,0.2-1.4,0.5-1.9c0.4-0.5,0.9-0.8,1.6-0.8c0.3,0,0.6,0,0.8,0.1c0.2,0.1,0.4,0.2,0.6,0.5l-0.3,0.4
	c-0.1-0.2-0.3-0.3-0.5-0.4c-0.2-0.1-0.4-0.1-0.6-0.1c-0.5,0-0.9,0.2-1.1,0.6c-0.3,0.4-0.4,0.9-0.4,1.5c0,0.7,0.2,1.3,0.5,1.7
	c0.3,0.4,0.7,0.6,1,0.6c0.4,0,0.7-0.1,0.8-0.2c0.2-0.1,0.3-0.3,0.5-0.5L82.3,98.2z"/>
<rect x="84.2" y="93.8" fill="#424243" width="0.6" height="5.1"/>
<path fill="#424243" d="M89,99c-0.7,0-1.3-0.3-1.7-0.7c-0.4-0.5-0.6-1.2-0.6-2c0-0.7,0.2-1.4,0.7-1.9c0.4-0.5,1-0.7,1.6-0.7
	c0.7,0,1.3,0.2,1.7,0.7c0.4,0.5,0.6,1.2,0.6,2c0,0.8-0.2,1.4-0.6,1.9C90.2,98.7,89.6,99,89,99 M89,98.5c0.4,0,0.8-0.2,1.1-0.6
	c0.3-0.4,0.5-1,0.5-1.8c0-0.5-0.1-1-0.4-1.4c-0.3-0.5-0.7-0.7-1.2-0.7c-0.5,0-1,0.2-1.3,0.6c-0.3,0.4-0.5,0.9-0.5,1.5
	c0,0.7,0.2,1.3,0.5,1.7C88.1,98.3,88.5,98.5,89,98.5 M88.6,93.2l1-1.1l0.4,0.4l-1.2,0.9L88.6,93.2z"/>
<polygon fill="#424243" points="93.8,94.7 93.8,98.9 93.3,98.9 93.3,93.8 93.8,93.8 96.4,98 96.4,93.8 96.9,93.8 96.9,98.9 
	96.4,98.9 "/>
<polygon fill="#424243" points="102.5,98.9 102.5,96.6 101,93.8 101.6,93.8 102.8,96.1 104,93.8 104.6,93.8 103.1,96.5 103.1,98.9 
	"/>
<polygon fill="#424243" points="109.2,94.7 109.2,98.9 108.7,98.9 108.7,93.8 109.2,93.8 111.8,98 111.8,93.8 112.3,93.8 
	112.3,98.9 111.8,98.9 "/>
<polygon fill="#424243" points="117.2,94.2 115,94.2 115,96 116.7,96 116.7,96.4 115,96.4 115,98.5 117.2,98.5 117.2,98.9 
	114.4,98.9 114.4,93.8 117.2,93.8 "/>
<path fill="#424243" d="M122.9,98.7c-0.2,0.1-0.4,0.1-0.7,0.2c-0.3,0.1-0.6,0.1-1,0.1c-0.7,0-1.2-0.3-1.5-0.7
	c-0.4-0.5-0.6-1.2-0.6-1.9c0-0.7,0.2-1.4,0.5-1.9c0.4-0.5,0.9-0.8,1.5-0.8c0.4,0,0.7,0,0.9,0.1c0.2,0.1,0.4,0.2,0.6,0.5l-0.4,0.4
	c-0.2-0.2-0.3-0.3-0.5-0.4c-0.2-0.1-0.4-0.1-0.7-0.1c-0.4,0-0.8,0.2-1.1,0.6c-0.3,0.4-0.4,0.9-0.4,1.5c0,0.7,0.2,1.3,0.5,1.7
	c0.3,0.4,0.7,0.6,1.1,0.6c0.2,0,0.4,0,0.6,0c0.2,0,0.4-0.1,0.5-0.1v-1.9h0.6V98.7z"/>
<path fill="#424243" d="M126.9,99c-0.7,0-1.3-0.3-1.7-0.7c-0.4-0.5-0.6-1.2-0.6-2c0-0.7,0.2-1.4,0.7-1.9c0.4-0.5,1-0.7,1.6-0.7
	c0.7,0,1.3,0.2,1.6,0.7c0.4,0.5,0.6,1.2,0.6,2c0,0.8-0.2,1.4-0.7,1.9C128.1,98.7,127.5,99,126.9,99 M126.9,98.5
	c0.4,0,0.8-0.2,1.1-0.6c0.4-0.4,0.5-1,0.5-1.8c0-0.5-0.1-1-0.4-1.4c-0.3-0.5-0.7-0.7-1.2-0.7c-0.5,0-1,0.2-1.3,0.6
	c-0.3,0.4-0.5,0.9-0.5,1.5c0,0.7,0.2,1.3,0.5,1.7C126,98.3,126.4,98.5,126.9,98.5"/>
<path fill="#424243" d="M134.9,98.2c-0.2,0.2-0.4,0.4-0.6,0.6c-0.3,0.2-0.6,0.2-1.1,0.2c-0.6,0-1.2-0.3-1.5-0.7
	c-0.4-0.5-0.6-1.2-0.6-1.9c0-0.7,0.2-1.4,0.5-1.9c0.4-0.5,0.9-0.8,1.6-0.8c0.3,0,0.6,0,0.8,0.1c0.2,0.1,0.4,0.2,0.7,0.5l-0.3,0.4
	c-0.2-0.2-0.3-0.3-0.5-0.4c-0.2-0.1-0.4-0.1-0.6-0.1c-0.5,0-0.9,0.2-1.1,0.6c-0.3,0.4-0.4,0.9-0.4,1.5c0,0.7,0.2,1.3,0.5,1.7
	c0.3,0.4,0.7,0.6,1,0.6c0.4,0,0.7-0.1,0.8-0.2c0.2-0.1,0.3-0.3,0.5-0.5L134.9,98.2z"/>
<rect x="136.7" y="93.8" fill="#424243" width="0.6" height="5.1"/>
<path fill="#424243" d="M141.5,99c-0.7,0-1.3-0.3-1.7-0.7c-0.4-0.5-0.6-1.2-0.6-2c0-0.7,0.2-1.4,0.7-1.9c0.4-0.5,1-0.7,1.6-0.7
	c0.7,0,1.3,0.2,1.6,0.7c0.4,0.5,0.6,1.2,0.6,2c0,0.8-0.2,1.4-0.6,1.9C142.7,98.7,142.2,99,141.5,99 M141.6,98.5
	c0.4,0,0.8-0.2,1.1-0.6c0.3-0.4,0.5-1,0.5-1.8c0-0.5-0.1-1-0.4-1.4c-0.3-0.5-0.7-0.7-1.2-0.7c-0.5,0-1,0.2-1.3,0.6
	c-0.3,0.4-0.5,0.9-0.5,1.5c0,0.7,0.2,1.3,0.5,1.7C140.7,98.3,141.1,98.5,141.6,98.5"/>
<path fill="#424243" d="M146,97.9c0.2,0.2,0.3,0.3,0.6,0.5c0.2,0.1,0.5,0.2,0.8,0.2c0.3,0,0.6-0.1,0.8-0.2c0.2-0.2,0.3-0.4,0.3-0.7
	c0-0.3-0.1-0.5-0.3-0.7c-0.2-0.1-0.5-0.3-0.8-0.4l-0.3-0.1c-0.4-0.1-0.7-0.3-1-0.6c-0.3-0.2-0.4-0.5-0.4-0.9c0-0.4,0.2-0.7,0.5-0.9
	c0.3-0.2,0.7-0.3,1.1-0.3c0.3,0,0.7,0.1,0.9,0.2c0.2,0.1,0.4,0.3,0.6,0.4l-0.3,0.4c-0.1-0.1-0.3-0.3-0.5-0.4
	c-0.2-0.1-0.4-0.1-0.7-0.1c-0.3,0-0.6,0.1-0.8,0.2c-0.2,0.1-0.3,0.3-0.3,0.5c0,0.3,0.1,0.5,0.3,0.6c0.2,0.2,0.5,0.3,0.7,0.4l0.5,0.2
	c0.5,0.2,0.8,0.4,1,0.6c0.2,0.2,0.3,0.5,0.3,0.8c0,0.5-0.2,0.8-0.5,1.1c-0.3,0.3-0.7,0.4-1.2,0.4c-0.2,0-0.4,0-0.5,0
	c-0.2,0-0.3-0.1-0.5-0.1c-0.1-0.1-0.3-0.1-0.4-0.2c-0.1-0.1-0.3-0.2-0.4-0.3L146,97.9z"/>
<path fill="#424243" d="M0.6,30.2v37.1h9.3V30.2c0-4.2,1.9-6.1,6.1-6.1h10.1v-9.4H16C5.7,14.8,0.6,20,0.6,30.2 M149.6,36.3v-6.1
	c0-10.3-5.2-15.5-15.5-15.5H95.5V0.1L86.2,0v14.8H68.9V52c0,4-1.9,5.9-6.1,5.9H45.4c-4.2,0-6.1-1.9-6.1-6.1V14.8H30v37.1
	c0,10.3,5.2,15.5,15.4,15.5h17.3c10.3,0,15.5-5.1,15.5-15.3V24.1h7.9v43.2h9.3V24.1h38.7c4.2,0,6.1,1.9,6.1,6.1v6.1h-23.4
	c-10.3,0-15.5,4.9-15.5,14.4v2c0,9.7,5.2,14.6,15.5,14.6h17.2c10.3,0,15.5-5.2,15.5-15.5v-6.1H165l9.6-9.4H149.6z M140.3,51.8
	c0,4.2-2,6.1-6.1,6.1h-17.2c-4.2,0-6.1-1.7-6.1-5.2v-2c0-3.4,2-5,6.1-5h23.4V51.8z"/>
<path fill="#7EA64B" d="M172.2,9.4l1.2,0.4c-0.7,1.8-1.6,3.2-2.6,4c-1,0.9-2,1.3-3,1.3c-0.9,0-1.5-0.2-2-0.7
	c-0.5-0.5-0.7-1.1-0.7-1.9c0-0.7,0.2-1.8,0.7-3.4c0.7-2.3,1-3.7,1.2-4.3c0.1-0.5,0.2-1,0.2-1.3c0-0.4-0.1-0.7-0.3-0.9
	c-0.2-0.2-0.4-0.3-0.7-0.3c-0.5,0-1,0.2-1.6,0.6c-0.9,0.7-1.8,1.7-2.6,3c-0.8,1.3-1.4,2.7-1.8,4.1l-1.3,4.7l-4,0.2l3.1-11.7
	c0-0.1,0-0.2,0-0.3c0-0.3-0.1-0.5-0.3-0.7C157.4,2.1,157,2,156.4,2h-0.8l0.2-1.4l6.5-0.3l-1.2,4.9c2.2-3.4,4.4-5.1,6.5-5.1
	c1,0,1.7,0.3,2.4,0.9c0.6,0.6,0.9,1.3,0.9,2.2c0,0.7-0.1,1.6-0.4,2.7l-1.4,5.1c-0.3,0.8-0.4,1.3-0.4,1.5c0,0.1,0.1,0.3,0.1,0.3
	c0.1,0.1,0.2,0.1,0.3,0.1c0.3,0,0.7-0.2,1.1-0.6C170.9,11.7,171.6,10.7,172.2,9.4"/>
</svg>
