<?xml version="1.0" encoding="UTF-8" standalone="no"?>
<svg
   xmlns:dc="http://purl.org/dc/elements/1.1/"
   xmlns:cc="http://creativecommons.org/ns#"
   xmlns:rdf="http://www.w3.org/1999/02/22-rdf-syntax-ns#"
   xmlns:svg="http://www.w3.org/2000/svg"
   xmlns="http://www.w3.org/2000/svg"
   xml:space="preserve"
   enable-background="new 0 0 174.5 99"
   viewBox="0 0 174.5 99"
   height="99px"
   width="174.5px"
   y="0px"
   x="0px"
   id="Capa_1"
   version="1.1"><metadata
     id="metadata81"><rdf:RDF><cc:Work
         rdf:about=""><dc:format>image/svg+xml</dc:format><dc:type
           rdf:resource="http://purl.org/dc/dcmitype/StillImage" /><dc:title></dc:title></cc:Work></rdf:RDF></metadata><defs
     id="defs79" /><polygon
     style="fill:#ffffff"
     transform="matrix(0.85910653,0,0,0.85910653,15.198387,8.3335107)"
     id="polygon3"
     points="3.3,81 3.3,88.3 0.7,88.3 0.7,76.6 3.4,76.6 7.7,86.6 11.9,76.6 14.5,76.6 14.5,88.3 12,88.3 12,81 8.9,88.3 6.6,88.3 " /><polygon
     style="fill:#ffffff"
     transform="matrix(0.85910653,0,0,0.85910653,15.198387,8.3335107)"
     id="polygon5"
     points="28.2,81.3 32.7,81.3 32.7,82.8 28.2,82.8 28.2,86.8 34.1,86.8 34.1,88.3 25.7,88.3 25.7,76.6 33.9,76.6 33.9,78.1 28.2,78.1 " /><path
     style="fill:#ffffff"
     id="path7"
     d="m 56.779143,74.141071 c 1.116839,0 2.147766,0.171821 2.920962,0.429553 0.773196,0.257732 1.460481,0.601375 1.975945,1.030928 0.515464,0.429553 0.859107,0.945017 1.116839,1.546392 0.257732,0.601375 0.343642,1.202749 0.343642,1.890034 0,0.429554 -0.08591,0.945017 -0.171821,1.374571 -0.08591,0.429553 -0.257732,0.859106 -0.429553,1.202749 -0.171822,0.343643 -0.515464,0.773196 -0.773196,1.030928 -0.343643,0.343642 -0.773196,0.601374 -1.202749,0.859106 -0.429554,0.257732 -1.030928,0.429554 -1.632303,0.515464 -0.601374,0.08591 -1.288659,0.171821 -2.147766,0.171821 l -3.006873,0 0,-10.051546 3.006873,0 z m -0.945017,1.28866 0,7.474227 0.687285,0 c 0.601375,0 1.202749,-0.08591 1.718213,-0.257732 0.515464,-0.171822 0.945017,-0.429554 1.374571,-0.687285 0.343642,-0.343643 0.687285,-0.773196 0.859106,-1.20275 0.257732,-0.515464 0.343643,-1.030927 0.343643,-1.718213 0,-0.429553 -0.08591,-0.945017 -0.257732,-1.37457 -0.171822,-0.429553 -0.343643,-0.859107 -0.687285,-1.116839 -0.343643,-0.343642 -0.773196,-0.601374 -1.28866,-0.773196 -0.515464,-0.171821 -1.202749,-0.343642 -1.890035,-0.343642 l -0.859106,0 z" /><polygon
     style="fill:#ffffff"
     transform="matrix(0.85910653,0,0,0.85910653,15.198387,8.3335107)"
     id="polygon9"
     points="69.3,81.3 73.8,81.3 73.8,82.8 69.3,82.8 69.3,86.8 75.2,86.8 75.2,88.3 66.8,88.3 66.8,76.6 75,76.6 75,78.1 69.3,78.1 " /><polygon
     style="fill:#ffffff"
     transform="matrix(0.85910653,0,0,0.85910653,15.198387,8.3335107)"
     id="polygon11"
     points="85.8,76.6 88.4,76.6 88.4,86.8 94.6,86.8 94.6,88.3 85.8,88.3 " /><polygon
     style="fill:#ffffff"
     transform="matrix(0.85910653,0,0,0.85910653,15.198387,8.3335107)"
     id="polygon13"
     points="104.8,76.6 107.3,76.6 107.3,86.8 113.6,86.8 113.6,88.3 104.8,88.3 " /><path
     style="fill:#ffffff"
     id="path15"
     d="m 120.9544,72.766501 2.74914,-2.749141 1.5464,1.37457 -3.35052,2.147767 -0.94502,-0.773196 z m 0.60138,1.37457 2.23368,0 0,10.137457 -2.23368,0 0,-10.137457 z" /><polygon
     style="fill:#ffffff"
     transform="matrix(0.85910653,0,0,0.85910653,15.198387,8.3335107)"
     id="polygon17"
     points="137.3,88.3 137.3,76.6 139.7,76.6 145.9,85 145.9,76.6 148.5,76.6 148.5,88.3 146.1,88.3 139.9,79.9 139.9,88.3 " /><path
     style="fill:#ffffff"
     id="path19"
     d="m 18.462992,92.697772 c -0.171821,0.171821 -0.343643,0.343643 -0.515464,0.515464 -0.257732,0.171821 -0.515464,0.171821 -0.859107,0.171821 -0.515464,0 -1.030927,-0.257732 -1.288659,-0.601374 -0.429554,-0.515464 -0.601375,-1.030928 -0.601375,-1.718213 0,-0.601375 0.171821,-1.202749 0.515464,-1.632303 0.343643,-0.429553 0.773196,-0.687285 1.37457,-0.687285 0.257732,0 0.515464,0 0.687286,0.08591 0.171821,0.08591 0.343642,0.171821 0.601374,0.429553 l -0.343642,0.343644 c -0.171822,-0.171822 -0.257732,-0.257732 -0.429554,-0.343643 -0.171821,-0.08591 -0.343642,-0.08591 -0.515464,-0.08591 -0.429553,0 -0.773195,0.171822 -0.945017,0.515464 -0.257732,0.343643 -0.343642,0.773196 -0.343642,1.28866 0,0.601375 0.08591,1.116839 0.429553,1.460481 0.257732,0.343643 0.601374,0.515464 0.945017,0.515464 0.343643,0 0.515464,-0.08591 0.687285,-0.171821 0.171822,-0.08591 0.257732,-0.257732 0.429554,-0.429553 l 0.171821,0.343642 z" /><polygon
     style="fill:#ffffff"
     transform="matrix(0.85910653,0,0,0.85910653,15.198387,8.3335107)"
     id="polygon21"
     points="6.2,96 7.9,96 7.9,96.4 6.2,96.4 6.2,98.5 8.5,98.5 8.5,98.9 5.6,98.9 5.6,93.8 8.4,93.8 8.4,94.2 6.2,94.2 " /><polygon
     style="fill:#ffffff"
     transform="matrix(0.85910653,0,0,0.85910653,15.198387,8.3335107)"
     id="polygon23"
     points="10.3,98.9 10.3,93.8 10.9,93.8 13.4,98 13.4,93.8 14,93.8 14,98.9 13.5,98.9 10.9,94.7 10.9,98.9 " /><polygon
     style="fill:#ffffff"
     transform="matrix(0.85910653,0,0,0.85910653,15.198387,8.3335107)"
     id="polygon25"
     points="17.8,98.9 17.3,98.9 17.3,94.2 15.7,94.2 15.7,93.8 19.4,93.8 19.4,94.2 17.8,94.2 " /><path
     style="fill:#ffffff"
     id="path27"
     d="m 33.840999,93.299147 -0.515464,0 0,-4.381444 1.202749,0 c 0.429553,0 0.859106,0.08591 1.030928,0.343643 0.257732,0.257732 0.343642,0.515464 0.343642,0.945017 0,0.257732 -0.08591,0.515464 -0.257732,0.687285 -0.171821,0.257732 -0.429553,0.343643 -0.601374,0.429554 l 1.202749,1.975945 -0.601375,0 -1.116838,-1.890035 c 0,0 -0.257732,0 -0.773196,0 l 0,1.890035 z m 0,-2.233677 0.429553,0 c 0.343643,0 0.687285,-0.08591 0.859106,-0.257732 0.171822,-0.171822 0.343643,-0.429554 0.343643,-0.687285 0,-0.257732 -0.08591,-0.515464 -0.257732,-0.687286 -0.171821,-0.171821 -0.429553,-0.171821 -0.859106,-0.171821 l -0.515464,0 0,1.804124 z" /><path
     style="fill:#ffffff"
     id="path29"
     d="m 39.597012,93.385057 c -0.601374,0 -1.116838,-0.257732 -1.460481,-0.601374 -0.343642,-0.429553 -0.515464,-1.030928 -0.515464,-1.718213 0,-0.601375 0.171822,-1.202749 0.601375,-1.632303 0.343643,-0.429553 0.859107,-0.601374 1.37457,-0.601374 0.601375,0 1.116839,0.171821 1.460482,0.601374 0.343642,0.429554 0.515463,1.030928 0.515463,1.718213 0,0.687286 -0.171821,1.20275 -0.515463,1.632303 -0.429554,0.343642 -0.945018,0.601374 -1.460482,0.601374 m 0,-0.429553 c 0.343643,0 0.687286,-0.171821 0.945018,-0.515464 0.257732,-0.343642 0.429553,-0.859106 0.429553,-1.546392 0,-0.429553 -0.08591,-0.859106 -0.343643,-1.202749 -0.257732,-0.429553 -0.601374,-0.601374 -1.030928,-0.601374 -0.429553,0 -0.859106,0.171821 -1.116838,0.515464 -0.257732,0.343642 -0.429553,0.773195 -0.429553,1.288659 0,0.601375 0.171821,1.116839 0.429553,1.460482 0.343643,0.429553 0.687285,0.601374 1.116838,0.601374" /><path
     style="fill:#ffffff"
     id="path31"
     d="m 46.212133,88.917703 c 0.687285,0 1.202749,0.171822 1.546391,0.601375 0.343643,0.343643 0.515464,0.945017 0.515464,1.546392 0,0.773196 -0.171821,1.28866 -0.515464,1.718213 -0.343642,0.429553 -0.859106,0.601374 -1.546391,0.601374 l -0.945017,0 0,-4.381443 0.945017,0 z m -0.429554,0.343643 0,3.694158 0.343643,0 c 0.515464,0 0.945017,-0.171821 1.202749,-0.515464 0.257732,-0.343642 0.429553,-0.773196 0.429553,-1.460481 0,-0.515464 -0.171821,-1.030928 -0.429553,-1.28866 -0.257732,-0.343642 -0.687285,-0.429553 -1.28866,-0.429553 l -0.257732,0 z" /><polygon
     style="fill:#ffffff"
     transform="matrix(0.85910653,0,0,0.85910653,15.198387,8.3335107)"
     id="polygon33"
     points="41.1,96 42.8,96 42.8,96.4 41.1,96.4 41.1,98.5 43.4,98.5 43.4,98.9 40.5,98.9 40.5,93.8 43.3,93.8 43.3,94.2 41.1,94.2 " /><rect
     style="fill:#ffffff"
     id="rect35"
     height="4.381443"
     width="0.51546395"
     y="88.917702"
     x="56.091858" /><polygon
     style="fill:#ffffff"
     transform="matrix(0.85910653,0,0,0.85910653,15.198387,8.3335107)"
     id="polygon37"
     points="50.2,98.9 50.2,93.8 50.8,93.8 53.3,98 53.3,93.8 53.9,93.8 53.9,98.9 53.4,98.9 50.8,94.7 50.8,98.9 " /><polygon
     style="fill:#ffffff"
     transform="matrix(0.85910653,0,0,0.85910653,15.198387,8.3335107)"
     id="polygon39"
     points="56,98.9 56,93.8 56.5,93.8 59.1,98 59.1,93.8 59.6,93.8 59.6,98.9 59.1,98.9 56.5,94.7 56.5,98.9 " /><path
     style="fill:#ffffff"
     id="path41"
     d="m 70.095294,93.385057 c -0.601374,0 -1.116838,-0.257732 -1.460481,-0.601374 -0.343642,-0.429553 -0.515464,-1.030928 -0.515464,-1.718213 0,-0.601375 0.171822,-1.202749 0.601375,-1.632303 0.343642,-0.429553 0.859106,-0.601374 1.37457,-0.601374 0.601375,0 1.116839,0.171821 1.460481,0.601374 0.343643,0.429554 0.515464,1.030928 0.515464,1.718213 0,0.687286 -0.171821,1.20275 -0.515464,1.632303 -0.429553,0.343642 -0.859106,0.601374 -1.460481,0.601374 m 0,-0.429553 c 0.343643,0 0.687285,-0.171821 1.030928,-0.515464 0.257732,-0.343642 0.429553,-0.859106 0.429553,-1.546392 0,-0.429553 -0.08591,-0.859106 -0.343642,-1.202749 -0.257732,-0.429553 -0.601375,-0.601374 -1.030928,-0.601374 -0.429553,0 -0.859107,0.171821 -1.116839,0.515464 -0.257732,0.343642 -0.429553,0.773195 -0.429553,1.288659 0,0.601375 0.171821,1.116839 0.429553,1.460482 0.343643,0.429553 0.601375,0.601374 1.030928,0.601374" /><polygon
     style="fill:#ffffff"
     transform="matrix(0.85910653,0,0,0.85910653,15.198387,8.3335107)"
     id="polygon43"
     points="70,98.9 69.4,98.9 67.8,93.8 68.4,93.8 69.7,98.1 71.1,93.8 71.6,93.8 " /><path
     style="fill:#ffffff"
     id="path45"
     d="m 79.373645,88.917703 0.429553,0 1.460481,4.381444 -0.515464,0 -0.429553,-1.546392 -1.546392,0 -0.515464,1.546392 -0.429553,0 1.546392,-4.381444 z m -0.429554,2.57732 1.28866,0 -0.601374,-1.975945 -0.687286,1.975945 z" /><path
     style="fill:#ffffff"
     id="path47"
     d="m 85.902854,92.697772 c -0.171821,0.171821 -0.343642,0.343643 -0.515464,0.515464 -0.171821,0.171821 -0.515463,0.171821 -0.945017,0.171821 -0.515464,0 -1.030928,-0.257732 -1.28866,-0.601374 -0.343642,-0.429553 -0.515463,-1.030928 -0.515463,-1.632303 0,-0.601374 0.171821,-1.202749 0.429553,-1.632302 0.343642,-0.429553 0.773196,-0.687285 1.37457,-0.687285 0.257732,0 0.515464,0 0.687285,0.08591 0.171822,0.08591 0.343643,0.171822 0.515464,0.429554 l -0.257732,0.343642 c -0.08591,-0.171821 -0.257732,-0.257732 -0.429553,-0.343642 -0.171821,-0.08591 -0.343642,-0.08591 -0.515464,-0.08591 -0.429553,0 -0.773196,0.171821 -0.945017,0.515464 -0.257732,0.343643 -0.343643,0.773196 -0.343643,1.28866 0,0.601374 0.171822,1.116838 0.429554,1.460481 0.257732,0.343642 0.601374,0.515464 0.859106,0.515464 0.343643,0 0.601375,-0.08591 0.687285,-0.171822 0.171822,-0.08591 0.257732,-0.257732 0.429554,-0.429553 l 0.343642,0.257732 z" /><rect
     style="fill:#ffffff"
     id="rect49"
     height="4.381443"
     width="0.51546395"
     y="88.917702"
     x="87.535156" /><path
     style="fill:#ffffff"
     id="path51"
     d="m 91.658868,93.385057 c -0.601374,0 -1.116838,-0.257732 -1.460481,-0.601374 -0.343643,-0.429553 -0.515464,-1.030928 -0.515464,-1.718213 0,-0.601375 0.171821,-1.202749 0.601375,-1.632303 0.343642,-0.429553 0.859106,-0.601374 1.37457,-0.601374 0.601375,0 1.116839,0.171821 1.460481,0.601374 0.343643,0.429554 0.515464,1.030928 0.515464,1.718213 0,0.687286 -0.171821,1.20275 -0.515464,1.632303 -0.429553,0.343642 -0.945017,0.601374 -1.460481,0.601374 m 0,-0.429553 c 0.343643,0 0.687285,-0.171821 0.945017,-0.515464 0.257732,-0.343642 0.429554,-0.859106 0.429554,-1.546392 0,-0.429553 -0.08591,-0.859106 -0.343643,-1.202749 -0.257732,-0.429553 -0.601375,-0.601374 -1.030928,-0.601374 -0.429553,0 -0.859106,0.171821 -1.116838,0.515464 -0.257732,0.343642 -0.429554,0.773195 -0.429554,1.288659 0,0.601375 0.171822,1.116839 0.429554,1.460482 0.343642,0.429553 0.687285,0.601374 1.116838,0.601374 m -0.343643,-4.553265 0.859107,-0.945017 0.343643,0.343643 -1.030928,0.773196 -0.171822,-0.171822 z" /><polygon
     style="fill:#ffffff"
     transform="matrix(0.85910653,0,0,0.85910653,15.198387,8.3335107)"
     id="polygon53"
     points="93.3,98.9 93.3,93.8 93.8,93.8 96.4,98 96.4,93.8 96.9,93.8 96.9,98.9 96.4,98.9 93.8,94.7 93.8,98.9 " /><polygon
     style="fill:#ffffff"
     transform="matrix(0.85910653,0,0,0.85910653,15.198387,8.3335107)"
     id="polygon55"
     points="101,93.8 101.6,93.8 102.8,96.1 104,93.8 104.6,93.8 103.1,96.5 103.1,98.9 102.5,98.9 102.5,96.6 " /><polygon
     style="fill:#ffffff"
     transform="matrix(0.85910653,0,0,0.85910653,15.198387,8.3335107)"
     id="polygon57"
     points="108.7,98.9 108.7,93.8 109.2,93.8 111.8,98 111.8,93.8 112.3,93.8 112.3,98.9 111.8,98.9 109.2,94.7 109.2,98.9 " /><polygon
     style="fill:#ffffff"
     transform="matrix(0.85910653,0,0,0.85910653,15.198387,8.3335107)"
     id="polygon59"
     points="115,96 116.7,96 116.7,96.4 115,96.4 115,98.5 117.2,98.5 117.2,98.9 114.4,98.9 114.4,93.8 117.2,93.8 117.2,94.2 115,94.2 " /><path
     style="fill:#ffffff"
     id="path61"
     d="m 120.78258,93.127325 c -0.17182,0.08591 -0.34364,0.08591 -0.60137,0.171822 -0.25773,0.08591 -0.51547,0.08591 -0.85911,0.08591 -0.60137,0 -1.03093,-0.257732 -1.28866,-0.601374 -0.34364,-0.429553 -0.51546,-1.030928 -0.51546,-1.632303 0,-0.601374 0.17182,-1.202749 0.42955,-1.632302 0.34364,-0.429553 0.7732,-0.687285 1.28866,-0.687285 0.34364,0 0.60138,0 0.7732,0.08591 0.17182,0.08591 0.34364,0.171822 0.51546,0.429554 l -0.34364,0.343642 c -0.17182,-0.171821 -0.25773,-0.257732 -0.42956,-0.343642 -0.17182,-0.08591 -0.34364,-0.08591 -0.60137,-0.08591 -0.34364,0 -0.68729,0.171821 -0.94502,0.515464 -0.25773,0.343643 -0.34364,0.773196 -0.34364,1.28866 0,0.601374 0.17182,1.116838 0.42955,1.460481 0.25774,0.343642 0.60138,0.515464 0.94502,0.515464 0.17182,0 0.34364,0 0.51546,0 0.17183,0 0.34365,-0.08591 0.42956,-0.08591 l 0,-1.632302 0.51546,0 0,1.804123 z" /><path
     style="fill:#ffffff"
     id="path63"
     d="m 124.21901,93.385057 c -0.60138,0 -1.11684,-0.257732 -1.46048,-0.601374 -0.34365,-0.429553 -0.51547,-1.030928 -0.51547,-1.718213 0,-0.601375 0.17182,-1.202749 0.60138,-1.632303 0.34364,-0.429553 0.8591,-0.601374 1.37457,-0.601374 0.60137,0 1.11684,0.171821 1.37457,0.601374 0.34364,0.429554 0.51546,1.030928 0.51546,1.718213 0,0.687286 -0.17182,1.20275 -0.60137,1.632303 -0.25773,0.343642 -0.7732,0.601374 -1.28866,0.601374 m 0,-0.429553 c 0.34364,0 0.68728,-0.171821 0.94502,-0.515464 0.34364,-0.343642 0.42955,-0.859106 0.42955,-1.546392 0,-0.429553 -0.0859,-0.859106 -0.34364,-1.202749 -0.25774,-0.429553 -0.60138,-0.601374 -1.03093,-0.601374 -0.42955,0 -0.85911,0.171821 -1.11684,0.515464 -0.25773,0.343642 -0.42955,0.773195 -0.42955,1.288659 0,0.601375 0.17182,1.116839 0.42955,1.460482 0.34364,0.429553 0.68729,0.601374 1.11684,0.601374" /><path
     style="fill:#ffffff"
     id="path65"
     d="m 131.09186,92.697772 c -0.17182,0.171821 -0.34364,0.343643 -0.51546,0.515464 -0.25774,0.171821 -0.51547,0.171821 -0.94502,0.171821 -0.51546,0 -1.03093,-0.257732 -1.28866,-0.601374 -0.34364,-0.429553 -0.51546,-1.030928 -0.51546,-1.632303 0,-0.601374 0.17182,-1.202749 0.42955,-1.632302 0.34364,-0.429553 0.7732,-0.687285 1.37457,-0.687285 0.25773,0 0.51546,0 0.68728,0.08591 0.17183,0.08591 0.34365,0.171822 0.60138,0.429554 l -0.25773,0.343642 c -0.17182,-0.171821 -0.25773,-0.257732 -0.42956,-0.343642 -0.17182,-0.08591 -0.34364,-0.08591 -0.51546,-0.08591 -0.42955,0 -0.7732,0.171821 -0.94502,0.515464 -0.25773,0.343643 -0.34364,0.773196 -0.34364,1.28866 0,0.601374 0.17182,1.116838 0.42955,1.460481 0.25774,0.343642 0.60138,0.515464 0.85911,0.515464 0.34364,0 0.60137,-0.08591 0.68729,-0.171822 0.17182,-0.08591 0.25773,-0.257732 0.42955,-0.429553 l 0.25773,0.257732 z" /><rect
     style="fill:#ffffff"
     id="rect67"
     height="4.381443"
     width="0.51546395"
     y="88.917702"
     x="132.63824" /><path
     style="fill:#ffffff"
     id="path69"
     d="m 136.76196,93.385057 c -0.60137,0 -1.11683,-0.257732 -1.46048,-0.601374 -0.34364,-0.429553 -0.51546,-1.030928 -0.51546,-1.718213 0,-0.601375 0.17182,-1.202749 0.60137,-1.632303 0.34365,-0.429553 0.85911,-0.601374 1.37457,-0.601374 0.60138,0 1.11684,0.171821 1.37457,0.601374 0.34365,0.429554 0.51547,1.030928 0.51547,1.718213 0,0.687286 -0.17182,1.20275 -0.51547,1.632303 -0.34364,0.343642 -0.77319,0.601374 -1.37457,0.601374 m 0.0859,-0.429553 c 0.34365,0 0.68729,-0.171821 0.94502,-0.515464 0.25773,-0.343642 0.42955,-0.859106 0.42955,-1.546392 0,-0.429553 -0.0859,-0.859106 -0.34364,-1.202749 -0.25773,-0.429553 -0.60137,-0.601374 -1.03093,-0.601374 -0.42955,0 -0.8591,0.171821 -1.11683,0.515464 -0.25774,0.343642 -0.42956,0.773195 -0.42956,1.288659 0,0.601375 0.17182,1.116839 0.42956,1.460482 0.34364,0.429553 0.68728,0.601374 1.11683,0.601374" /><path
     style="fill:#ffffff"
     id="path71"
     d="m 140.62794,92.44004 c 0.17182,0.171821 0.25774,0.257732 0.51547,0.429553 0.17182,0.08591 0.42955,0.171822 0.68728,0.171822 0.25773,0 0.51547,-0.08591 0.68729,-0.171822 0.17182,-0.171821 0.25773,-0.343642 0.25773,-0.601374 0,-0.257732 -0.0859,-0.429553 -0.25773,-0.601375 -0.17182,-0.08591 -0.42956,-0.257732 -0.68729,-0.343642 l -0.25773,-0.08591 c -0.34364,-0.08591 -0.60137,-0.257732 -0.85911,-0.515464 -0.25773,-0.171821 -0.34364,-0.429553 -0.34364,-0.773196 0,-0.343642 0.17182,-0.601374 0.42955,-0.773196 0.25774,-0.171821 0.60138,-0.257732 0.94502,-0.257732 0.25773,0 0.60138,0.08591 0.7732,0.171822 0.17182,0.08591 0.34364,0.257732 0.51546,0.343642 l -0.25773,0.343643 c -0.0859,-0.08591 -0.25773,-0.257732 -0.42955,-0.343643 -0.17182,-0.08591 -0.34365,-0.08591 -0.60138,-0.08591 -0.25773,0 -0.51546,0.08591 -0.68728,0.171821 -0.17182,0.08591 -0.25774,0.257732 -0.25774,0.429553 0,0.257732 0.0859,0.429553 0.25774,0.515464 0.17182,0.171821 0.42955,0.257732 0.60137,0.343643 l 0.42955,0.171821 c 0.42956,0.171821 0.68729,0.343643 0.85911,0.515464 0.17182,0.171821 0.25773,0.429553 0.25773,0.687285 0,0.429553 -0.17182,0.687285 -0.42955,0.945017 -0.25773,0.257732 -0.60137,0.343643 -1.03093,0.343643 -0.17182,0 -0.34364,0 -0.42955,0 -0.17182,0 -0.25773,-0.08591 -0.42955,-0.08591 -0.0859,-0.08591 -0.25774,-0.08591 -0.34365,-0.171821 -0.0859,-0.08591 -0.25773,-0.171821 -0.34364,-0.257732 l 0.42955,-0.515464 z" /><path
     style="fill:#ffffff"
     id="path73"
     d="m 15.713851,34.278528 0,31.872852 7.989691,0 0,-31.872852 c 0,-3.608247 1.632302,-5.24055 5.240549,-5.24055 l 8.676976,0 0,-8.075601 -8.676976,0 c -8.848797,0.08591 -13.23024,4.553265 -13.23024,13.316151 m 128.006879,5.24055 0,-5.24055 c 0,-8.848797 -4.46736,-13.316151 -13.31615,-13.316151 l -33.161519,0 0,-12.5429553 -7.989691,-0.08591 0,12.7147773 -14.862543,0 0,31.958762 c 0,3.436427 -1.632303,5.068729 -5.24055,5.068729 l -14.948454,0 c -3.608247,0 -5.240549,-1.632302 -5.240549,-5.24055 l 0,-31.786941 -7.989691,0 0,31.872852 c 0,8.848797 4.467354,13.316151 13.23024,13.316151 l 14.862543,0 c 8.848798,0 13.316152,-4.381443 13.316152,-13.14433 l 0,-24.054983 6.786941,0 0,37.113402 7.989691,0 0,-37.113402 33.24743,0 c 3.60824,0 5.24055,1.632303 5.24055,5.24055 l 0,5.24055 -20.1031,0 c -8.8488,0 -13.31615,4.209622 -13.31615,12.371134 l 0,1.718213 c 0,8.333333 4.46735,12.542955 13.31615,12.542955 l 14.77663,0 c 8.8488,0 13.31616,-4.467354 13.31616,-13.316151 l 0,-5.24055 13.31615,0 8.24742,-8.075602 -21.47766,0 z m -7.98969,13.316151 c 0,3.608248 -1.71822,5.24055 -5.24055,5.24055 l -14.77664,0 c -3.60825,0 -5.24055,-1.460481 -5.24055,-4.467354 l 0,-1.718213 c 0,-2.920962 1.71821,-4.295533 5.24055,-4.295533 l 20.1031,0 0,5.24055 z" /><path
     style="fill:#ffffff"
     id="path75"
     d="m 163.13653,16.409112 1.03093,0.343643 c -0.60137,1.546392 -1.37457,2.749141 -2.23367,3.436426 -0.85911,0.773196 -1.71822,1.116839 -2.57732,1.116839 -0.7732,0 -1.28866,-0.171822 -1.71822,-0.601375 -0.42955,-0.429553 -0.60137,-0.945017 -0.60137,-1.632302 0,-0.601375 0.17182,-1.546392 0.60137,-2.920963 0.60138,-1.975945 0.85911,-3.178694 1.03093,-3.694158 0.0859,-0.429553 0.17182,-0.859106 0.17182,-1.116838 0,-0.343643 -0.0859,-0.601375 -0.25773,-0.773196 -0.17182,-0.171821 -0.34364,-0.257732 -0.60137,-0.257732 -0.42956,0 -0.85911,0.171821 -1.37458,0.515464 -0.77319,0.601374 -1.54639,1.460481 -2.23367,2.577319 -0.68729,1.116839 -1.20275,2.319588 -1.54639,3.522337 l -1.11684,4.037801 -3.43643,0.171821 2.66323,-10.051546 c 0,-0.08591 0,-0.171821 0,-0.257732 0,-0.257732 -0.0859,-0.429553 -0.25773,-0.601375 -0.25773,-0.08591 -0.60137,-0.171821 -1.11684,-0.171821 l -0.68728,0 0.17182,-1.2027493 5.58419,-0.257732 -1.03093,4.2096223 c 1.89004,-2.9209623 3.78007,-4.3814433 5.58419,-4.3814433 0.85911,0 1.46049,0.257732 2.06186,0.773195 0.51546,0.515464 0.7732,1.1168393 0.7732,1.8900353 0,0.601374 -0.0859,1.37457 -0.34365,2.319587 l -1.20275,4.381444 c -0.25773,0.687285 -0.34364,1.116838 -0.34364,1.28866 0,0.08591 0.0859,0.257732 0.0859,0.257732 0.0859,0.08591 0.17182,0.08591 0.25773,0.08591 0.25774,0 0.60138,-0.171821 0.94502,-0.515464 0.60138,-0.515464 1.20275,-1.37457 1.71821,-2.491409" /></svg>