<?xml version="1.0" encoding="UTF-8" standalone="no"?>
<svg
   xmlns:dc="http://purl.org/dc/elements/1.1/"
   xmlns:cc="http://creativecommons.org/ns#"
   xmlns:rdf="http://www.w3.org/1999/02/22-rdf-syntax-ns#"
   xmlns:svg="http://www.w3.org/2000/svg"
   xmlns="http://www.w3.org/2000/svg"
   version="1.1"
   id="svg2"
   viewBox="0 0 550.00001 160"
   height="160"
   width="550">
  <defs
     id="defs4" />
  <metadata
     id="metadata7">
    <rdf:RDF>
      <cc:Work
         rdf:about="">
        <dc:format>image/svg+xml</dc:format>
        <dc:type
           rdf:resource="http://purl.org/dc/dcmitype/StillImage" />
        <dc:title></dc:title>
      </cc:Work>
    </rdf:RDF>
  </metadata>
  <g
     transform="translate(0,-892.36216)"
     id="layer1">
    <path
       id="path4201"
       d="m 84.881187,1042.1834 c -5.181575,-0.8408 -10.036687,-3.5084 -13.374112,-7.3482 -3.025313,-3.4807 -4.861938,-7.6109 -5.448713,-12.253 -0.17955,-1.4204 -0.4382,-1.9615 -2.205262,-4.6129 -2.351125,-3.5275 -5.095038,-6.787 -8.618312,-10.2378 -7.864325,-7.7028 -16.796938,-12.67557 -23.911738,-13.31165 -1.790949,-0.1601 -2.654487,-0.0528 -3.806074,0.47293 -2.237813,1.02159 -5.665538,1.30685 -8.086488,0.67298 -4.555075,-1.19264 -8.08815,-4.78179 -9.164487,-9.30992 -0.263463,-1.10836 -0.2989877,-1.6019 -0.243688,-3.38758 0.05862,-1.88506 0.111125,-2.22806 0.537863,-3.49477 1.069425,-3.17441 3.354837,-5.81996 6.3049,-7.29835 0.923125,-0.46263 3.15525,-1.17047 3.698712,-1.17291 0.407575,-0.002 2.07585,-1.25956 3.341975,-2.51959 6.129725,-6.10035 13.572212,-21.08301 15.825687,-31.85937 0.565075,-2.70229 0.721175,-4.34007 0.629825,-6.60797 -0.104125,-2.58401 -0.354462,-3.62537 -1.097425,-4.56526 -0.8456,-1.06983 -1.383987,-2.08533 -1.911437,-3.60539 -0.459463,-1.32395 -0.474163,-1.43818 -0.474163,-3.67289 0,-2.23258 0.01487,-2.35027 0.4732,-3.67588 1.36255,-3.94336 4.379288,-6.77428 8.314775,-7.80262 1.6254,-0.42471 4.304213,-0.42199 5.910188,0.006 3.663275,0.97619 6.659274,3.59989 7.997674,7.0038 0.524038,1.33282 1.778613,2.31299 4.220388,3.29739 6.579562,2.65251 18.28785,2.71104 29.361586,0.14679 1.233487,-0.28563 2.956275,-0.73608 3.828387,-1.001 2.842263,-0.86342 2.615375,-0.72145 3.161642,-1.9781 0.97518,-2.24317 2.66822,-4.59378 4.64388,-6.4474 2.66657,-2.50191 6.11853,-4.23721 9.93047,-4.99207 1.78237,-0.35295 5.83371,-0.35574 7.60165,-0.005 8.02226,1.59049 14.05171,7.62088 15.62321,15.62567 0.34825,1.77413 0.34842,5.83528 1.7e-4,7.58875 -0.82398,4.14945 -2.63261,7.55428 -5.56255,10.47206 -2.01888,2.01055 -3.94432,3.29671 -6.65175,4.44334 -1.1858,0.50221 -4.26851,4.1174 -6.96421,8.16713 -6.825,10.25333 -11.54352,24.07002 -12.9227,37.84 -0.0831,0.83248 -0.1897,3.29749 -0.23625,5.47779 -0.11034,5.17161 0.15383,8.73739 0.97501,13.15949 0.2471,1.3305 0.37897,1.695 0.91272,2.5227 1.35318,2.0982 2.36626,4.6042 2.99337,7.4047 0.29251,1.3062 0.3339,1.8753 0.3339,4.5904 0,2.715 -0.0411,3.284 -0.3339,4.5903 -2.01652,9.0048 -8.36762,15.3845 -17.396837,17.4753 -1.732675,0.4011 -6.293349,0.5136 -8.211174,0.2023 z M 73.7084,1000.6813 c 3.69145,-0.1841 6.87925,-1.63992 10.388437,-4.74416 7.520624,-6.6528 14.697461,-20.03703 18.138403,-33.82683 2.41902,-9.69443 2.79212,-17.94297 1.09926,-24.3033 -0.88778,-3.33543 -2.75538,-6.05431 -5.339864,-7.774 -4.093425,-2.72363 -10.236274,-4.67924 -17.515661,-5.57619 -2.375275,-0.29268 -10.693025,-0.24514 -12.973713,0.0741 -4.333437,0.60666 -8.582962,1.73971 -11.460137,3.0556 -1.709312,0.7818 -3.392375,1.96273 -5.010075,3.51548 -7.3962,7.099 -15.128925,23.19456 -17.321325,36.0536 -0.765012,4.48725 -0.6412,7.54377 0.446513,11.02345 1.445412,4.62411 6.183362,9.99306 12.65915,14.34514 5.969775,4.012 12.853924,6.77393 19.604724,7.86541 1.433075,0.2317 4.717125,0.478 5.40575,0.4054 0.198188,-0.021 1.043525,-0.072 1.878538,-0.1137 z m -7.716713,-28.12792 c -1.436925,-0.35875 -3.129,-1.28813 -4.2756,-2.34846 -2.099737,-1.94166 -3.137662,-4.18219 -3.2592,-7.03543 -0.08663,-2.04111 0.186463,-3.34375 1.073538,-5.11576 1.15675,-2.31068 3.292187,-4.11958 5.884637,-4.98482 1.02585,-0.34237 1.368238,-0.38446 3.09925,-0.38093 1.707388,0.003 2.087575,0.0505 3.099338,0.38347 4.218987,1.38841 6.998075,5.22331 6.988887,9.64393 0,1.67079 -0.3171,2.99915 -1.066625,4.51783 -1.15325,2.3369 -3.236275,4.19116 -5.667025,5.04476 -0.962062,0.33785 -1.394837,0.40029 -3.066262,0.44236 -1.390813,0.035 -2.192838,-0.0126 -2.810938,-0.16695 z m 281.604133,11.07168 c 0,-20.70773 0.0333,-24.32652 0.21429,-25.19063 0.77831,-3.70864 2.99363,-6.06594 6.89858,-7.34062 2.62264,-0.85612 2.98087,-0.87607 15.73277,-0.87607 8.79602,0 11.9889,0.0459 12.94335,0.18632 5.04052,0.74121 8.24596,2.6009 9.74179,5.65186 1.03532,2.1117 1.02822,2.00812 1.02582,14.96849 -0.003,12.47522 0,12.445 -0.80952,14.04493 -1.79769,3.55546 -6.05034,5.88764 -11.49302,6.30284 -1.04186,0.0795 -7.00271,0.14468 -13.24636,0.14487 l -11.35199,2.9e-4 0,8.1446 0,8.14456 -4.82912,0 -4.82904,0 0,-24.1815 z m 32.60101,0.47582 c 2.05118,-0.43472 3.41128,-1.46419 3.99473,-3.02347 0.30835,-0.82423 0.31036,-0.90312 0.27168,-10.51142 l -0.0394,-9.68097 -0.35656,-0.69808 c -0.4452,-0.87146 -1.10933,-1.46222 -2.23143,-1.98467 -1.64736,-0.76706 -2.68424,-0.84898 -10.74614,-0.84898 -8.11658,0 -9.09081,0.0791 -10.81141,0.87822 -1.66722,0.77429 -2.58755,1.97568 -2.87621,3.75456 -0.092,0.56665 -0.14919,4.71781 -0.14971,10.8636 0,11.12251 -0.0403,10.68401 1.00773,11.20762 0.46629,0.23292 1.28118,0.25187 10.7394,0.24976 8.26613,-0.002 10.41985,-0.0415 11.19685,-0.20617 z m -213.37058,7.3241 c -6.31803,-0.67506 -10.04185,-2.96011 -11.48692,-7.04862 l -0.40565,-1.14772 -0.042,-11.50757 c -0.0473,-13.0626 -0.0429,-13.13539 0.96312,-15.159 1.2313,-2.4769 3.75856,-4.45294 6.79078,-5.30954 2.67584,-0.75592 2.47433,-0.74648 15.92885,-0.74648 12.52598,0 12.54304,4.3e-4 14.02748,0.32884 2.90946,0.64375 4.77024,1.58675 6.44245,3.265 1.14354,1.14758 1.93182,2.56048 2.29792,4.11831 0.32944,1.40183 0.33399,24.30461 0.009,25.5928 -0.47346,1.85441 -1.50333,3.41217 -3.10668,4.69893 -1.6709,1.34099 -3.23103,2.03217 -5.89978,2.61384 -1.31609,0.28685 -1.82971,0.29958 -13.18992,0.3268 -6.50125,0.0156 -12.04753,0.004 -12.32508,-0.0255 z m 20.6542,-7.32732 c 1.74098,-0.36891 3.28203,-1.42712 3.96558,-2.72313 l 0.39069,-0.74063 0,-9.58614 c 0,-9.44266 -0.009,-9.59595 -0.30354,-10.24214 -0.43881,-0.9484 -1.12043,-1.65876 -2.12817,-2.21814 -1.86918,-1.03747 -1.65883,-1.01796 -10.97451,-1.01796 -7.56307,0 -8.45023,0.0244 -9.29784,0.25613 -2.0062,0.5484 -3.34259,1.48948 -3.9914,2.81081 l -0.40521,0.82517 0,9.58613 0,9.58614 0.38718,0.73374 c 0.47207,0.8946 1.14529,1.50463 2.30904,2.09209 1.59285,0.80406 1.88169,0.82631 10.85411,0.83608 6.61982,0.007 8.40665,-0.0313 9.19407,-0.19815 z m 30.69613,-8.47306 0.0402,-15.8928 0.40434,-1.292 c 1.34129,-4.28521 4.14453,-6.65326 9.1812,-7.75568 1.30655,-0.28597 1.87941,-0.30234 12.46919,-0.35627 7.637,-0.0389 11.54939,-0.006 12.5412,0.10583 5.05697,0.56951 8.41312,2.54419 10.07501,5.9279 0.69563,1.41624 0.99523,2.40842 1.23541,4.09098 0.0884,0.61946 0.14508,6.81153 0.14692,16.03695 l 0,15.02789 -4.82913,0 -4.82904,0 0,-13.58636 c 0,-8.43914 -0.0577,-13.82072 -0.14621,-14.20498 -0.38211,-1.65665 -1.4098,-2.93449 -2.93317,-3.64741 -1.74187,-0.81508 -2.33538,-0.87832 -8.9642,-0.95522 -8.10373,-0.094 -10.26463,0.12214 -12.13223,1.21347 -0.86459,0.50518 -1.84012,1.64733 -2.2288,2.60927 l -0.33215,0.8219 -0.0402,13.87466 -0.0403,13.87467 -4.82921,0 -4.82913,0 0.0403,-15.8928 z m 75.01148,15.67155 c -5.31808,-0.73534 -8.98905,-3.14116 -10.3481,-6.78166 -0.30345,-0.81292 -0.32104,-1.10637 -0.3703,-6.18786 -0.0577,-5.93719 0.0131,-6.64415 0.83256,-8.36175 1.45355,-3.0456 4.55919,-4.96611 9.36906,-5.7937 1.17714,-0.20254 3.1556,-0.24378 14.09091,-0.29368 l 12.72145,-0.058 0,-0.40943 c 0,-0.22519 -0.097,-0.91671 -0.21568,-1.53671 -0.49797,-2.6024 -1.50413,-3.60214 -4.18215,-4.15529 -0.92042,-0.19012 -3.23812,-0.22057 -16.78653,-0.22057 l -15.71867,0 0,-3.60381 0,-3.60381 16.63436,0 c 10.50236,0 17.18456,0.0555 18.12711,0.15043 6.70845,0.67598 10.6393,3.37697 11.57301,7.95206 0.32699,1.6023 0.33627,23.42405 0.0105,24.98048 -0.78907,3.77104 -3.94283,6.5817 -8.69338,7.74748 -1.22325,0.30018 -1.54517,0.30834 -13.43414,0.34053 -9.67146,0.0262 -12.47531,-0.008 -13.6101,-0.16466 z m 22.51611,-7.32275 c 1.73932,-0.45908 2.76124,-1.18023 3.29411,-2.32455 0.33303,-0.71508 0.33836,-0.80082 0.33976,-5.38504 0,-2.70948 -0.0569,-4.76677 -0.1372,-4.91744 -0.34895,-0.65193 -0.4732,-0.65898 -11.60976,-0.65898 -9.5298,0 -10.60815,0.0235 -11.42391,0.24922 -1.19963,0.33194 -2.00961,0.7515 -2.67925,1.38777 -1.17075,1.11258 -1.44891,2.31115 -1.36745,5.89361 0.0464,2.05761 0.099,2.51211 0.35184,3.0646 0.66666,1.45636 2.55841,2.54952 4.97927,2.87727 0.50251,0.0681 4.61125,0.10769 9.13036,0.0881 7.11419,-0.0308 8.33823,-0.0676 9.12223,-0.27458 z m 95.31621,3.94933 0,-3.60497 14.45127,-0.0407 c 13.82904,-0.0389 14.48232,-0.0526 15.17203,-0.31636 2.13724,-0.81745 2.80841,-2.0201 2.85161,-5.10966 0.0156,-1.11271 -0.0309,-1.36564 -0.38272,-2.08479 -0.60633,-1.23928 -1.79876,-1.94007 -3.83833,-2.25578 -0.53577,-0.0829 -4.06644,-0.1455 -8.24534,-0.14613 -5.66027,-8.6e-4 -7.68012,-0.0498 -8.95697,-0.2172 -5.42076,-0.71059 -9.55195,-3.3542 -10.61375,-6.79188 -0.26547,-0.85951 -0.29366,-1.33374 -0.29366,-4.94155 0,-5.39474 0.20739,-6.13432 2.30815,-8.23178 1.72122,-1.71852 3.60001,-2.69255 6.44359,-3.34059 1.4068,-0.32059 1.4591,-0.3217 17.52003,-0.36976 l 16.10903,-0.0482 0,3.52797 0,3.52797 -13.87466,0.0566 c -12.21568,0.0499 -13.99247,0.0848 -14.85992,0.29239 -1.9164,0.45856 -3.17608,1.23745 -3.71743,2.29857 -0.25759,0.50493 -0.2876,0.79144 -0.24594,2.34859 0.0456,1.70563 0.0641,1.79739 0.48447,2.39794 0.59209,0.84603 1.54469,1.45472 2.90023,1.85317 1.11013,0.32632 1.30269,0.33451 10.21306,0.4343 9.73167,0.109 9.90892,0.12218 12.15707,0.904 2.6268,0.91352 4.966,2.80321 6.00156,4.84828 0.73325,1.44803 0.83071,2.04737 0.9044,5.56152 0.0976,4.6524 -0.15046,6.00279 -1.46593,7.98152 -1.09482,1.64686 -2.93323,3.22038 -4.73443,4.05229 -2.06248,0.95257 -1.33346,0.91661 -19.67386,0.97042 l -16.61356,0.0487 0,-3.60497 z m 59.10247,-16.94704 0,-20.54172 4.90118,0 4.90118,0 0,20.54172 0,20.54171 -4.90118,0 -4.90118,0 0,-20.54171 z m 27.96555,16.94357 0,-3.60948 14.0909,-0.002 c 11.93563,-0.002 14.2294,-0.0347 14.99639,-0.21561 2.58181,-0.6087 3.40834,-1.84673 3.41546,-5.1159 0.004,-1.50467 -0.0297,-1.71702 -0.35676,-2.2997 -0.47289,-0.84238 -1.37073,-1.50929 -2.56477,-1.90514 -0.94181,-0.31221 -1.19384,-0.32306 -9.68819,-0.41694 -8.00885,-0.0885 -8.83308,-0.12035 -10.09066,-0.3898 -5.41652,-1.16049 -8.91307,-3.93424 -9.52193,-7.55354 -0.10262,-0.61002 -0.14007,-2.32061 -0.10257,-4.68495 0.0539,-3.39767 0.087,-3.79991 0.37721,-4.58901 1.04397,-2.83823 4.03188,-5.21967 7.66161,-6.10649 2.32694,-0.56851 3.22042,-0.59659 18.9883,-0.59659 l 15.31997,0 0,3.52321 0,3.52321 -13.80259,0.0579 c -15.02033,0.063 -14.89766,0.0565 -16.65296,0.88689 -0.92005,0.43525 -1.78912,1.23465 -2.06807,1.90227 -0.25807,0.61764 -0.25372,3.10755 0.007,3.83729 0.33472,0.93793 0.88683,1.50398 1.99478,2.04509 1.80324,0.88067 2.57566,0.94563 11.26064,0.94697 4.21147,7.2e-4 8.21106,0.0647 8.88799,0.14223 1.90029,0.21777 3.3872,0.64914 5.03074,1.45944 1.27628,0.62923 1.69456,0.93017 2.75755,1.98399 0.85343,0.84605 1.39699,1.52914 1.70424,2.14173 0.76963,1.53435 0.87671,2.30489 0.87671,6.30814 0,4.01348 -0.10968,4.79544 -0.89702,6.39473 -0.8846,1.79691 -3.7168,4.38078 -5.55609,5.06895 -2.13369,0.79831 -1.34288,0.76482 -19.38193,0.82086 l -16.68564,0.0518 0,-3.60947 z m -27.53309,-47.35972 0,-3.67589 4.68495,0 4.68495,0 0,3.67589 0,3.67588 -4.68495,0 -4.68495,0 0,-3.67588 z"
       style="fill:#ffffff" />
  </g>
</svg>
