<?xml version="1.0" encoding="UTF-8" standalone="no"?>
<svg
   xmlns:dc="http://purl.org/dc/elements/1.1/"
   xmlns:cc="http://creativecommons.org/ns#"
   xmlns:rdf="http://www.w3.org/1999/02/22-rdf-syntax-ns#"
   xmlns:svg="http://www.w3.org/2000/svg"
   xmlns="http://www.w3.org/2000/svg"
   version="1.1"
   id="Layer_1"
   x="0px"
   y="0px"
   viewBox="0 0 261.99999 80"
   xml:space="preserve"
   width="262"
   height="80"><metadata
     id="metadata19"><rdf:RDF><cc:Work
         rdf:about=""><dc:format>image/svg+xml</dc:format><dc:type
           rdf:resource="http://purl.org/dc/dcmitype/StillImage" /><dc:title></dc:title></cc:Work></rdf:RDF></metadata><defs
     id="defs17" /><style
     type="text/css"
     id="style3">
	.st0{fill:#FFFFFF;}
</style><g
     id="g5"
     transform="matrix(0.8423586,0,0,0.8423586,5,4.9999998)"><path
       class="st0"
       d="M 9,58.2 C 11.9,50.3 17.3,44.2 25.4,40.1 33.4,36 43.2,34 54.5,34 l 24.7,0 c 3.8,0 7.4,-0.9 10.6,-2.9 3.2,-1.9 5.3,-4.2 6.3,-6.9 0.9,-2.6 0.4,-4.8 -1.5,-6.8 -1.9,-1.9 -4.7,-2.9 -8.3,-2.9 L 24.7,14.5 29.9,0 88.4,0 c 6.5,0 11.8,0.6 16,1.9 4.2,1.3 7.4,3 9.6,5.3 2.2,2.2 3.5,4.9 3.8,7.8 0.4,3 0,6.1 -1.2,9.5 -1,2.9 -2.7,5.8 -5.1,8.7 -2.3,2.9 -5.4,5.4 -9.2,7.7 -3.8,2.3 -8.3,4.1 -13.5,5.6 -5.2,1.4 -11.1,2.1 -17.9,2.1 l -25.2,0 c -3.6,0 -7,1 -10.1,3 -3.1,2 -5.2,4.3 -6.1,6.9 L 20.6,83 0,83 9,58.2 Z"
       id="path7"
       style="fill:#ffffff" /><path
       class="st0"
       d="m 208.9,58.7 c -3.6,8 -9.6,14.1 -18,18.2 -8.4,4.1 -18.4,6.2 -30.2,6.2 l -58.6,0 5.6,-14.5 63.4,0 c 3.6,0 7.1,-1 10.4,-2.9 3.3,-1.9 5.6,-4.3 6.8,-7.1 1.2,-2.6 1,-5 -0.5,-6.9 -1.6,-2 -4.1,-3 -7.7,-3 l -33.1,0 c -9.3,0 -19.4,-1.3 -23.6,-8 -4.1,-6.5 -4.6,-17.3 3.2,-26 7.2,-8 18.1,-12.1 24.8,-13.2 5.4,-0.9 10.6,-1.4 17.2,-1.4 l 57,0 -5,14.5 -61.7,0 c -3.6,0 -7.2,1 -10.7,2.9 -3.5,1.9 -5.8,4.2 -6.9,6.8 -1.2,2.7 -1,5 0.7,6.9 1.7,1.9 4.5,2.9 8.4,2.9 l 32.5,0 c 11.3,0 17.7,1 22.5,5 8.9,7.2 3.5,19.6 3.5,19.6"
       id="path9"
       style="fill:#ffffff" /><path
       class="st0"
       d="m 256.6,83 c -8.6,0 -15.8,-0.8 -21.7,-2.5 -5.9,-1.7 -10.4,-4.1 -13.6,-7.2 -3.2,-3.1 -5.1,-6.9 -5.7,-11.3 -0.6,-4.4 0.1,-9.4 2.1,-14.9 L 234.8,0 l 20.6,0 -17,47.2 c -2.4,6.7 -1.6,11.9 2.4,15.7 4,3.7 10.9,5.6 20.6,5.6 l 38.3,0 -5.3,14.5 -37.8,0 z"
       id="path11"
       style="fill:#ffffff" /><path
       class="st0"
       d="m 259.7,5.1 c 0,-2.3 1.9,-4.2 4.2,-4.2 2.3,0 4.2,1.9 4.2,4.2 0,2.3 -1.9,4.2 -4.2,4.2 -2.3,0.1 -4.2,-1.8 -4.2,-4.2 m 7.5,0 c 0,-1.9 -1.4,-3.2 -3.2,-3.2 -1.8,0 -3.2,1.4 -3.2,3.2 0,1.9 1.4,3.2 3.2,3.2 1.8,0.1 3.2,-1.3 3.2,-3.2 m -1.2,2.2 -1.1,0 -1,-1.9 -0.7,0 0,1.9 -1,0 0,-4.4 2.1,0 c 1,0 1.7,0.2 1.7,1.3 0,0.8 -0.4,1.1 -1.2,1.2 l 1.2,1.9 z m -1.6,-2.5 c 0.5,0 0.8,-0.1 0.8,-0.7 0,-0.5 -0.6,-0.5 -1,-0.5 l -1,0 0,1.1 1.2,0 z"
       id="path13"
       style="fill:#ffffff" /></g></svg>