<?xml version="1.0" encoding="UTF-8" standalone="no"?>
<svg
   xmlns:dc="http://purl.org/dc/elements/1.1/"
   xmlns:cc="http://creativecommons.org/ns#"
   xmlns:rdf="http://www.w3.org/1999/02/22-rdf-syntax-ns#"
   xmlns:svg="http://www.w3.org/2000/svg"
   xmlns="http://www.w3.org/2000/svg"
   width="331"
   height="130"
   viewBox="0 0 331 130"
   id="svg2"
   version="1.1">
  <defs
     id="defs4" />
  <metadata
     id="metadata7">
    <rdf:RDF>
      <cc:Work
         rdf:about="">
        <dc:format>image/svg+xml</dc:format>
        <dc:type
           rdf:resource="http://purl.org/dc/dcmitype/StillImage" />
        <dc:title></dc:title>
      </cc:Work>
    </rdf:RDF>
  </metadata>
  <g
     id="layer1"
     transform="matrix(1.2471197,0,0,1.2471197,10,-1184.9422)">
    <path
       style="fill:#ffffff"
       d="m 229.56125,1046.3216 c -0.61483,-0.04 -1.16591,-0.1017 -1.22462,-0.138 -0.0641,-0.04 -0.10675,-0.4619 -0.10675,-1.0563 l 0,-0.9903 1.43276,0.062 c 1.28049,0.055 1.50654,0.04 2.12686,-0.1489 0.95843,-0.2909 1.43884,-0.8313 1.43884,-1.6183 l 0,-0.2877 -0.44161,0.1953 c -0.6637,0.2934 -1.9093,0.4319 -2.80673,0.312 -1.44434,-0.1929 -2.51942,-0.9096 -3.07962,-2.0531 -0.35239,-0.7193 -0.44573,-1.4519 -0.36744,-2.8842 0.0565,-1.0342 0.0989,-1.2355 0.38042,-1.807 0.52098,-1.0577 1.59697,-1.8584 2.91603,-2.1699 0.63444,-0.1498 2.25171,-0.1541 2.90335,-0.01 0.28141,0.063 0.48062,0.065 0.54059,0.01 0.0522,-0.052 0.76202,-0.095 1.57729,-0.095 l 1.48232,0 -0.0278,4.8212 -0.0278,4.8211 -0.26472,0.5644 c -0.37204,0.7931 -0.9591,1.3381 -1.93258,1.7941 -1.36637,0.64 -2.50263,0.8113 -4.51886,0.6814 z m 3.24222,-5.5851 0.42487,-0.1928 0,-2.6002 0,-2.6002 -0.29494,-0.1525 c -0.34026,-0.1759 -1.26155,-0.2014 -1.67294,-0.046 -0.45038,0.1697 -0.91593,0.6909 -1.1314,1.2665 -0.28394,0.7585 -0.28327,2.4935 10e-4,3.2535 0.11052,0.2953 0.30204,0.6318 0.42558,0.7478 0.55953,0.5254 1.50396,0.6617 2.24757,0.3243 z m 8.42242,5.1251 c 0,-0.037 0.26607,-0.5208 0.59126,-1.0742 0.32519,-0.5533 0.7491,-1.2942 0.94201,-1.6464 l 0.35075,-0.6404 -2.0439,-4.0848 -2.04392,-4.0848 1.27685,-0.6026 c 0.98757,-0.466 1.29535,-0.5726 1.35857,-0.4706 0.045,0.072 0.70421,1.5421 1.46499,3.2657 1.12342,2.5451 1.40177,3.0988 1.48182,2.9476 0.0542,-0.1024 0.71477,-1.5126 1.46793,-3.1338 0.75316,-1.6212 1.42672,-3.0073 1.4968,-3.0802 0.10523,-0.1095 0.32567,-0.034 1.26579,0.4361 0.6261,0.3127 1.15033,0.5792 1.16495,0.5921 0.0146,0.013 -0.74323,1.5928 -1.68413,3.5108 -0.94089,1.918 -1.89315,3.8681 -2.11613,4.3335 -0.22297,0.4655 -0.69874,1.3872 -1.05725,2.0484 -0.35851,0.6611 -0.71486,1.3257 -0.79189,1.4769 l -0.14007,0.2747 -1.49221,0 c -0.82073,0 -1.49222,-0.031 -1.49222,-0.068 z m -182.296373,-2.6739 c -0.293939,-0.1236 -0.882009,-0.7093 -0.966513,-0.9626 -0.02902,-0.087 -0.349572,0.039 -1.021306,0.4022 l -0.979019,0.5291 -0.764705,-0.049 c -1.380226,-0.088 -2.465353,-0.7052 -3.237276,-1.8402 -0.579432,-0.8519 -0.792606,-1.6692 -0.784779,-3.0087 0.0036,-0.6195 0.0587,-1.3389 0.122393,-1.5987 0.302177,-1.2327 1.384964,-2.6432 2.416647,-3.1481 1.210198,-0.5923 2.646177,-0.5716 3.87517,0.056 l 0.657618,0.3357 0.591998,-0.2267 c 0.609283,-0.2333 1.100372,-0.292 1.312967,-0.1569 0.09014,0.057 0.12852,0.9628 0.149953,3.5384 0.02768,3.3273 0.03688,3.4725 0.237088,3.7435 0.114564,0.1551 0.349012,0.3718 0.52099,0.4818 0.171987,0.1099 0.314423,0.2253 0.316542,0.2564 0.0035,0.052 -1.792369,1.5568 -2.038773,1.7082 -0.05925,0.036 -0.243296,0.01 -0.408995,-0.06 z m -1.672106,-2.7886 0.3249,-0.17 0,-2.0271 0,-2.0271 -0.274915,-0.2622 c -0.364259,-0.3473 -0.728347,-0.4747 -1.356094,-0.4745 -0.985027,0 -1.640036,0.5771 -1.925708,1.6959 -0.347454,1.3607 0.06423,2.7282 0.998633,3.3173 0.256451,0.1617 0.444273,0.1882 1.108529,0.1562 0.49105,-0.024 0.925166,-0.1041 1.124655,-0.2085 z m -23.841416,2.6814 c -1.670417,-0.3627 -3.049363,-1.5933 -3.535724,-3.1551 -0.267198,-0.8581 -0.263689,-2.6273 0.007,-3.5026 0.39088,-1.2642 1.337899,-2.3487 2.581287,-2.9561 l 0.771273,-0.3768 1.39957,0 c 1.376707,0 1.410997,0.01 2.099355,0.3308 1.517534,0.7174 2.496093,2.365 2.70066,4.547 l 0.07198,0.7677 -3.510671,0 c -3.996812,0 -3.748119,-0.067 -3.210394,0.8698 0.773832,1.3486 2.692703,1.5312 5.123066,0.4875 l 0.374885,-0.1609 0,1.2332 0,1.2333 -0.474854,0.2111 c -1.295392,0.5759 -3.049483,0.7638 -4.397389,0.4711 z m 3.372704,-5.8978 c 0,-0.2269 -0.341575,-0.8547 -0.639104,-1.1748 -0.614511,-0.6611 -1.745454,-0.8574 -2.563732,-0.445 -0.32553,0.1641 -0.533836,0.3722 -0.770944,0.77 -0.178695,0.2998 -0.3249,0.6483 -0.3249,0.7744 l 0,0.2292 2.14934,0 c 1.868586,0 2.14934,-0.02 2.14934,-0.1538 z m 29.386602,5.8032 c -0.933563,-0.4862 -1.703046,-1.612 -1.890309,-2.7655 -0.05676,-0.3496 -0.103538,-1.5886 -0.103958,-2.7532 l -10e-4,-2.1176 -0.424869,-0.031 -0.42487,-0.031 0,-0.8494 0,-0.8493 0.42487,-0.031 0.424869,-0.031 0,-1.5342 0,-1.5343 0.374885,-0.055 c 0.206187,-0.03 0.835993,-0.084 1.39957,-0.1195 l 1.024685,-0.065 0,1.6594 0,1.6595 0.699785,0 0.699786,0 0,0.8992 0,0.8993 -0.699786,0 -0.699785,0 0.001,1.8735 c 0,1.0594 0.04856,2.0464 0.111036,2.2713 0.161091,0.5799 0.65142,1.2368 1.147897,1.5376 0.238517,0.1446 0.435087,0.2868 0.436826,0.316 0.0034,0.057 -1.958588,1.8985 -2.013721,1.8906 -0.01787,0 -0.236887,-0.1111 -0.486711,-0.2412 z m 15.149719,0.1511 c -0.274916,-0.045 -0.762226,-0.1744 -1.082918,-0.2883 -1.297761,-0.4609 -1.970874,-1.0699 -2.547817,-2.3051 -0.333138,-0.7132 -0.35723,-0.8339 -0.398858,-1.998 -0.02777,-0.7766 0.0016,-1.4478 0.07862,-1.7985 0.29451,-1.3409 1.414806,-2.7405 2.66884,-3.3342 0.678022,-0.3209 0.692098,-0.323 2.236743,-0.323 l 1.554423,0 0.771253,0.3809 c 0.980809,0.4843 1.647674,1.1445 2.112031,2.0908 0.414213,0.8441 0.555859,1.5001 0.555859,2.5743 0,2.4795 -1.140259,4.107 -3.356859,4.7913 -0.74835,0.231 -1.891598,0.3236 -2.591313,0.2098 z m 1.665408,-2.2199 c 0.880519,-0.2637 1.363911,-1.0556 1.456792,-2.3865 0.123592,-1.7707 -0.741072,-3.1211 -2.087388,-3.26 -0.607914,-0.063 -1.049828,0.081 -1.554023,0.5062 -0.756698,0.6377 -1.003522,2.5752 -0.477373,3.747 0.338696,0.7543 0.802673,1.2024 1.415635,1.3671 0.614281,0.1651 0.771473,0.1684 1.246357,0.026 z m 30.143882,2.2158 c -1.91999,-0.3438 -3.1496,-1.2817 -3.78653,-2.8883 -0.30463,-0.7685 -0.332,-3.058 -0.0467,-3.9073 0.41867,-1.2464 1.47107,-2.4256 2.66452,-2.9856 0.5164,-0.2423 0.64408,-0.2581 2.09936,-0.2599 1.54618,0 1.55102,0 2.24364,0.3267 0.91261,0.4319 1.49607,0.9222 1.97038,1.6557 0.58534,0.9052 0.78491,1.6701 0.78201,2.9973 -0.003,1.2722 -0.0946,1.7654 -0.472,2.5358 -0.53545,1.0929 -1.42806,1.843 -2.7085,2.276 -0.7788,0.2634 -2.03275,0.3773 -2.74617,0.2496 z m 1.65815,-2.2053 c 0.37698,-0.1046 1.07194,-0.6292 1.07194,-0.8091 0,-0.052 0.0949,-0.3033 0.21082,-0.5577 0.18066,-0.3963 0.20456,-0.5993 0.16705,-1.4183 -0.0357,-0.7795 -0.0941,-1.0595 -0.31644,-1.5176 -0.49301,-1.0157 -0.9511,-1.3258 -1.96816,-1.3325 -0.59934,0 -0.6978,0.026 -1.12008,0.3455 -0.7088,0.5354 -0.92116,1.0896 -0.92161,2.4051 0,0.9779 0.0219,1.0995 0.29954,1.6389 0.36151,0.7023 0.85706,1.1255 1.45533,1.2427 0.61876,0.1213 0.69478,0.1215 1.12161,0 z m 36.38015,2.109 c -0.98716,-0.2681 -1.65881,-0.645 -2.33171,-1.3086 -0.6335,-0.6246 -1.01551,-1.3023 -1.25136,-2.2197 -0.2197,-0.8547 -0.1392,-2.3958 0.16825,-3.2209 0.48618,-1.3049 1.60644,-2.4598 2.87345,-2.9624 0.49361,-0.1958 0.75788,-0.2275 1.92189,-0.2303 1.68991,0 2.21532,0.171 3.08949,1.0295 1.00618,0.9882 1.55531,2.2287 1.67489,3.7837 l 0.0636,0.8275 -3.52041,0 -3.52041,0 0.0687,0.2248 c 0.25856,0.8462 0.60802,1.2643 1.3333,1.5951 0.82419,0.376 2.87458,0.1578 4.02354,-0.428 l 0.38615,-0.1969 0,1.2421 0,1.2421 -0.42487,0.2048 c -1.13309,0.5461 -3.33662,0.7479 -4.55454,0.4172 z m 3.43389,-5.9749 c -0.18391,-0.7468 -0.74443,-1.3714 -1.44348,-1.6084 -1.07962,-0.366 -2.14441,0.095 -2.6214,1.1338 -0.36064,0.7858 -0.45651,0.7494 1.97236,0.7494 l 2.16018,0 -0.0677,-0.2748 z m 8.85087,6.0178 c -2.05017,-0.3709 -3.49039,-1.7859 -3.79847,-3.7321 -0.12426,-0.7849 0.0133,-2.4068 0.25661,-3.0247 0.57549,-1.4616 1.76245,-2.6311 3.13439,-3.0882 0.57298,-0.1909 0.79755,-0.2103 1.89942,-0.1643 0.74727,0.031 1.48069,0.1215 1.82444,0.2247 l 0.57482,0.1726 0,1.4776 0,1.4776 -0.56174,-0.3381 c -0.90938,-0.5474 -2.40024,-0.6712 -3.07348,-0.2553 -0.72691,0.449 -1.16376,1.3451 -1.16274,2.385 0.001,0.7819 0.1387,1.2137 0.53598,1.6776 0.91681,1.0705 2.51997,1.1673 3.96656,0.2395 0.25458,-0.1633 0.49268,-0.2969 0.5291,-0.2969 0.0364,0 0.0662,0.5508 0.0661,1.224 l 0,1.2241 -0.42469,0.2677 c -0.55717,0.3514 -1.77928,0.6838 -2.47205,0.6725 -0.30352,-0.01 -0.88583,-0.07 -1.29402,-0.1433 z m 35.4162,0.049 c -1.24882,-0.2234 -2.55234,-0.951 -3.12059,-1.7419 -0.61283,-0.8529 -0.83856,-1.5717 -0.89149,-2.8387 -0.0297,-0.7111 -0.001,-1.3473 0.076,-1.6987 0.30672,-1.3953 1.44759,-2.8106 2.77054,-3.4369 0.67616,-0.3201 0.692,-0.3224 2.23052,-0.3224 l 1.54952,0 0.75449,0.3687 c 0.96518,0.4717 1.68929,1.187 2.1479,2.1218 0.40602,0.8276 0.54655,1.4869 0.54655,2.5642 0,2.4453 -1.16862,4.1071 -3.3651,4.7852 -0.76597,0.2364 -1.98559,0.3263 -2.69836,0.1987 z m 1.72165,-2.2462 c 0.63446,-0.1946 0.89589,-0.4215 1.17037,-1.0159 0.18723,-0.4055 0.22235,-0.6554 0.22235,-1.5827 0,-1.0461 -0.0167,-1.1351 -0.33316,-1.7777 -0.40487,-0.822 -0.84344,-1.1542 -1.63111,-1.2354 -0.95558,-0.099 -1.73273,0.4022 -2.0882,1.3457 -0.2824,0.7494 -0.30448,1.9529 -0.0498,2.7128 0.2446,0.7297 0.95482,1.4493 1.56475,1.5853 0.60979,0.136 0.59542,0.1364 1.14477,-0.032 z m 7.34089,-4.2952 0,-6.6446 1.6495,0 1.64949,0 0,6.6446 0,6.6447 -1.64949,0 -1.6495,0 0,-6.6447 z m 10.44679,6.5488 c -1.09665,-0.1808 -2.22715,-0.7146 -2.86651,-1.3537 -0.45478,-0.4545 -0.93078,-1.3405 -1.12914,-2.1017 -0.20153,-0.7733 -0.18722,-2.219 0.0302,-3.0515 0.34647,-1.3266 1.43819,-2.6261 2.71384,-3.2303 0.64124,-0.3038 0.6769,-0.3088 2.20132,-0.3088 l 1.54953,0 0.74977,0.3585 c 1.01093,0.4833 1.58521,1.0633 2.08154,2.1023 0.4607,0.9643 0.61763,1.6184 0.61763,2.5741 0,1.4065 -0.71664,3.1957 -1.55743,3.8884 -1.06983,0.8814 -2.94534,1.361 -4.39075,1.1227 z m 2.00276,-2.3604 c 0.69997,-0.332 1.04487,-1.1766 1.04575,-2.5609 0.001,-1.3574 -0.54682,-2.4979 -1.36333,-2.8389 -0.64981,-0.2714 -1.66618,-0.1115 -2.16718,0.3409 -0.10418,0.094 -0.30825,0.3959 -0.45352,0.6707 -0.24121,0.4563 -0.26411,0.5992 -0.26411,1.6487 0,1.0897 0.0155,1.177 0.29991,1.6908 0.64069,1.1573 1.79455,1.5741 2.90248,1.0487 z m -202.316211,2.1993 -0.274915,-0.1491 0,-6.6414 0,-6.6415 1.347666,0 1.347676,0 0.0269,2.1894 0.02691,2.1894 0.399877,-0.1946 c 1.000103,-0.4868 1.507297,-0.6094 2.368903,-0.5727 0.698405,0.03 0.94369,0.089 1.500759,0.3633 1.075069,0.5293 1.872444,1.5851 2.242501,2.9696 0.173376,0.6486 0.171597,2.4551 -0.0031,3.1107 -0.353032,1.3252 -1.370829,2.5895 -2.533802,3.1474 -0.562617,0.2699 -0.823667,0.3317 -1.554113,0.3679 -0.959985,0.047 -1.869415,-0.091 -2.576428,-0.3939 l -0.45526,-0.1947 -0.713901,0.3036 c -0.818239,0.3481 -0.785829,0.3439 -1.149727,0.1466 z m 5.397272,-2.2619 c 0.251023,-0.166 0.490629,-0.4462 0.638754,-0.7469 0.205907,-0.418 0.237027,-0.6256 0.236897,-1.5803 0,-1.2267 -0.124761,-1.5884 -0.807292,-2.3435 -0.603724,-0.6679 -1.806845,-0.758 -2.719015,-0.2035 l -0.322361,0.1959 0,2.2471 0,2.2471 0.324901,0.1692 c 0.493788,0.2571 0.861135,0.3273 1.585563,0.3029 0.524369,-0.018 0.743801,-0.077 1.062553,-0.288 z M 0,1036.2874 l 0,-6.7446 1.5495241,0 1.5495239,0 0,5.5455 0,5.5456 2.6491862,0 2.6491864,0 0,1.199 0,1.1991 -4.1987104,0 -4.1987102,0 0,-6.7446 z m 11.29653,2.012 0,-4.7327 0.463807,-0.063 c 0.255102,-0.035 0.884908,-0.064 1.39957,-0.064 l 0.935763,0 0,4.7962 0,4.7962 -1.39957,0 -1.39957,0 0,-4.7326 z m 30.99048,-0.01 0,-4.7383 0.274915,-0.052 c 0.151204,-0.029 0.755878,-0.081 1.343727,-0.1171 l 1.068812,-0.065 0.03085,0.4542 0.03085,0.4542 0.549831,-0.3447 c 0.71823,-0.4502 1.383265,-0.6455 2.192477,-0.6438 1.184386,0 1.10651,-0.1149 1.10651,1.6673 0,0.85 -0.03374,1.5281 -0.07498,1.5069 -1.245807,-0.641 -2.50635,-0.6238 -3.493047,0.048 l -0.329419,0.2241 -10e-4,3.1724 -10e-4,3.1725 -1.349586,0 -1.349585,0 0,-4.7382 z m 28.991094,0.01 0,-4.7327 0.463808,-0.063 c 0.255102,-0.035 0.884909,-0.064 1.39957,-0.064 l 0.935764,0 0,4.7962 0,4.7962 -1.399571,0 -1.399571,0 0,-4.7326 z m 19.060817,4.6659 c -0.03666,-0.037 -0.06665,-2.151 -0.06665,-4.6987 l 0,-4.6321 0.224931,-0.084 c 0.123712,-0.046 0.753518,-0.1157 1.39957,-0.1547 l 1.174639,-0.071 0,0.4498 0,0.4498 1.004681,-0.5175 c 0.954727,-0.4918 1.048918,-0.5193 1.894239,-0.5523 1.475486,-0.058 2.331123,0.3765 2.952473,1.4977 l 0.296718,0.5354 0.03033,3.9219 0.03034,3.9219 -1.404919,0 -1.404908,0 0,-3.1525 c 0,-3.5429 -0.0065,-3.5794 -0.690738,-3.8878 -0.695676,-0.3136 -1.763498,-0.084 -2.483287,0.5342 -0.224441,0.1928 -0.224931,0.2001 -0.224931,3.3496 l 0,3.1565 -1.33292,0 c -0.733115,0 -1.362922,-0.03 -1.39957,-0.067 z m 31.723569,-3.7803 0,-3.8469 -0.39987,0 -0.39988,0 0,-0.8993 0,-0.8992 0.38825,0 0.38825,0 0.043,-0.9742 c 0.0517,-1.1712 0.25596,-1.6829 0.94109,-2.358 0.62401,-0.6149 1.30392,-0.8666 2.31687,-0.8576 0.42406,0 1.06342,0.082 1.42081,0.1748 l 0.6498,0.1681 0,1.0161 c 0,0.5588 -0.0225,1.036 -0.05,1.0604 -0.0275,0.024 -0.39395,8e-4 -0.81436,-0.052 -0.59645,-0.075 -0.82705,-0.067 -1.04968,0.039 -0.37305,0.1771 -0.63485,0.7168 -0.63504,1.3093 l 0,0.4746 0.84974,0 0.84974,0 0,0.8992 0,0.8993 -0.84974,0 -0.84974,0 0,3.8469 0,3.847 -1.39957,0 -1.39957,0 0,-3.847 z m 17.09475,-1.6935 0,-5.5456 -1.57451,-0.027 -1.57452,-0.027 -0.0282,-1.1741 -0.0282,-1.174 4.75172,0 4.75171,0 0,1.199 0,1.1991 -1.54868,0 -1.54868,0 -0.0258,5.5205 -0.0258,5.5206 -1.57451,0.027 -1.57452,0.028 0,-5.5455 z m 31.29039,-1.2041 0,-6.7446 1.39957,0 1.39957,0 0,2.345 0,2.3449 0.62053,-0.3635 c 0.84934,-0.4975 1.65013,-0.7293 2.51961,-0.7293 1.32132,0 2.20288,0.5096 2.72697,1.5763 l 0.281,0.572 0.0294,3.8746 0.0294,3.8747 -1.42897,-0.028 -1.42897,-0.028 -0.05,-3.1974 c -0.0365,-2.3355 -0.0845,-3.2578 -0.17791,-3.4213 -0.40204,-0.7032 -1.69006,-0.6902 -2.7264,0.028 l -0.39468,0.2734 0,3.1838 0,3.1839 -1.39957,0 -1.39957,0 0,-6.7446 z m 12.39619,2.0072 0,-4.7375 0.37489,-0.054 c 0.20618,-0.03 0.85848,-0.083 1.44955,-0.1183 l 1.07467,-0.064 0,0.4176 c 0,0.2297 0.0337,0.4027 0.075,0.3843 0.0412,-0.018 0.47366,-0.2342 0.96094,-0.4798 0.83661,-0.4217 0.94056,-0.4488 1.86579,-0.4859 0.87566,-0.035 1.0366,-0.013 1.5139,0.205 0.61989,0.2837 1.09892,0.7295 1.41146,1.3135 0.21589,0.4035 0.22176,0.5061 0.25037,4.3849 l 0.0293,3.9719 -1.40387,0 -1.40388,0 0,-3.1225 c 0,-2.9207 -0.013,-3.1432 -0.19552,-3.4424 -0.48781,-0.7996 -1.7736,-0.8334 -2.77133,-0.073 l -0.33177,0.253 0,3.1923 0,3.1924 -1.44955,0 -1.44956,0 0,-4.7374 z m -171.54729,-7.1531 0,-1.299 1.39957,0 1.39957,0 0,1.299 0,1.299 -1.39957,0 -1.39957,0 0,-1.299 z m 59.981574,0 0,-1.299 1.399571,0 1.399571,0 0,1.299 0,1.299 -1.399571,0 -1.399571,0 0,-1.299 z m -43.736565,-13.2933 c -1.129263,-0.2313 -1.971064,-0.7181 -2.812056,-1.626 -1.680144,-1.8139 -1.970494,-4.7031 -0.723158,-7.1959 0.438956,-0.8772 2.08429,-3.4519 3.364267,-5.2646 l 1.092454,-1.547 -1.910313,-0.059 c -1.521372,-0.047 -2.093487,-0.1052 -2.810027,-0.2873 -1.841904,-0.4684 -3.062489,-1.345 -3.717818,-2.6704 -0.351182,-0.7102 -0.372885,-0.8113 -0.412473,-1.9212 -0.03422,-0.9593 -0.0037,-1.3223 0.168688,-2.0035 0.375145,-1.48276 1.275629,-3.17797 2.433693,-4.5816 l 0.603284,-0.73121 -0.496607,0.30542 c -1.278157,0.78606 -3.431636,1.642 -4.91685,1.95427 -0.937522,0.19711 -2.786514,0.19769 -3.562865,10e-4 -0.824757,-0.20884 -2.097226,-0.85228 -2.697771,-1.36416 -1.5061073,-1.28374 -2.1467506,-2.58782 -2.1467506,-4.36987 0,-1.10928 0.2094257,-1.93664 0.7993646,-3.15785 0.732984,-1.51736 1.609475,-2.64941 3.582319,-4.62687 6.31698,-6.33174 12.757121,-11.2182 20.760593,-15.75211 1.289004,-0.73021 6.174193,-3.16655 7.597666,-3.78909 2.119369,-0.92689 2.384837,-1.00166 3.548909,-0.99956 0.895905,0.002 1.14162,0.0396 1.677355,0.25918 1.374398,0.56333 2.427964,1.40892 3.234447,2.59593 0.894605,1.31671 1.312856,2.64408 1.316195,4.17705 0.006,2.76827 -1.536288,4.9172 -4.554931,6.34645 -0.52054,0.24645 -0.996024,0.4481 -1.056625,0.4481 -0.06061,0 0.241316,0.34847 0.670944,0.77438 0.544303,0.53959 0.876521,0.9713 1.095703,1.42386 1.430731,2.95407 -0.253362,6.89515 -4.995615,11.69064 l -1.136321,1.14908 0.74977,0.37059 c 3.166077,1.5649 4.646532,5.33142 3.425987,8.71627 -0.509403,1.4127 -5.290604,9.4014 -8.555142,14.2944 -3.05872,4.5845 -3.57944,5.2394 -4.992186,6.2787 -1.292903,0.9511 -3.250621,1.4429 -4.62413,1.1614 z m 96.980421,-1.878 c -0.0285,-0.046 -0.0239,-12.4808 0.0103,-27.63256 0.0567,-25.1031 0.0763,-27.54199 0.22079,-27.47406 0.0872,0.041 1.57562,0.105 3.30759,0.14223 10.57593,0.22735 19.65517,1.58222 26.29244,3.92356 5.63541,1.98793 9.35032,4.13993 12.58933,7.29285 4.15603,4.04557 6.2389,9.02324 6.46667,15.4541 0.13705,3.86958 -0.47035,7.31878 -1.88273,10.69138 -1.65753,3.9581 -4.85823,7.5437 -9.09336,10.1869 -1.27971,0.7986 -3.96204,2.1576 -5.08783,2.5776 -0.46379,0.173 -1.3381,0.5004 -1.94292,0.7275 -3.84287,1.4429 -10.19646,2.7651 -16.04507,3.3389 -3.83902,0.3766 -9.22029,0.6521 -12.77764,0.6542 -0.89713,5e-4 -1.71537,0.046 -1.81839,0.1011 -0.103,0.055 -0.21064,0.062 -0.23919,0.016 z m 13.5856,-9.8552 c 3.05919,-0.4821 6.87734,-1.3158 9.54707,-2.0845 5.11173,-1.472 8.84653,-3.8856 10.84962,-7.0117 0.88062,-1.3743 1.69333,-3.51005 1.99616,-5.24577 0.21901,-1.25536 0.30037,-3.78444 0.16447,-5.11262 -0.46743,-4.56857 -2.32231,-7.81274 -5.96241,-10.42825 -1.11187,-0.79891 -3.87975,-2.18589 -5.5483,-2.78024 -2.73635,-0.9747 -5.95256,-1.77757 -10.24685,-2.55792 -0.93471,-0.16986 -1.82319,-0.3338 -1.97439,-0.36431 l -0.27492,-0.0555 0,17.9544 0,17.95441 0.22493,-0.055 c 0.12371,-0.03 0.67479,-0.1261 1.22462,-0.2128 z m -74.427122,-17.68929 0,-27.52794 5.896808,0 5.896811,0 0.02637,10.31888 0.02637,10.31888 0.326979,0.66382 c 0.437976,0.88916 1.099522,1.60491 1.802097,1.94975 l 0.570095,0.27982 11.321522,0.0275 11.32152,0.0275 0,-11.79303 0,-11.79302 5.89818,0 5.89819,0 0,27.52794 0,27.52799 -5.89639,0 -5.89639,0 -0.0268,-10.4667 -0.0268,-10.4666 -0.32746,-0.6032 c -0.40235,-0.74107 -1.003135,-1.37278 -1.66835,-1.75415 l -0.503425,-0.28862 -11.421492,-9e-4 -11.421491,-0.001 0,11.79057 0,11.7905 -5.89819,0 -5.898188,0 0,-27.52791 z m 116.664152,0 0,-27.52794 21.29346,0 21.29346,0 0,4.54636 0,4.54635 -15.34529,0 -15.34529,0 0,6.94444 0,6.94444 12.6961,0 12.6961,0 0,4.54635 0,4.54636 -12.6961,0 -12.6961,0 0,6.94443 0,6.9444 15.34529,0 15.34529,0 0,4.5464 0,4.5464 -21.29346,0 -21.29346,0 0,-27.52799 z"
       id="path4217" />
  </g>
</svg>
