<?xml version="1.0" encoding="UTF-8" standalone="no"?>
<svg
   xmlns:dc="http://purl.org/dc/elements/1.1/"
   xmlns:cc="http://creativecommons.org/ns#"
   xmlns:rdf="http://www.w3.org/1999/02/22-rdf-syntax-ns#"
   xmlns:svg="http://www.w3.org/2000/svg"
   xmlns="http://www.w3.org/2000/svg"
   width="21mm"
   height="21mm"
   viewBox="0 0 21 21"
   version="1.1"
   id="svg8">
  <defs
     id="defs2">
    <filter
       style="color-interpolation-filters:sRGB"
       id="filter1771"
       x="-0.90400022"
       width="2.8080006"
       y="-0.93740577"
       height="2.8748114">
      <feGaussianBlur
         stdDeviation="1.3144052"
         id="feGaussianBlur1773" />
    </filter>
    <filter
       style="color-interpolation-filters:sRGB"
       id="filter1771-3"
       x="-0.90400022"
       width="2.8080006"
       y="-0.93740577"
       height="2.8748114">
      <feGaussianBlur
         stdDeviation="1.3144052"
         id="feGaussianBlur1773-9" />
    </filter>
    <filter
       style="color-interpolation-filters:sRGB"
       id="filter2189"
       x="-0.8976"
       width="2.7952001"
       y="-0.8976"
       height="2.7952001">
      <feGaussianBlur
         stdDeviation="2.6049839"
         id="feGaussianBlur2191" />
    </filter>
    <filter
       style="color-interpolation-filters:sRGB"
       id="filter2189-2"
       x="-0.8976"
       width="2.7952001"
       y="-0.8976"
       height="2.7952001">
      <feGaussianBlur
         stdDeviation="2.6049839"
         id="feGaussianBlur2191-99" />
    </filter>
    <filter
       style="color-interpolation-filters:sRGB"
       id="filter2415"
       x="-0.10040138"
       width="1.2008028"
       y="-0.8058452"
       height="2.6116903">
      <feGaussianBlur
         stdDeviation="2.55546"
         id="feGaussianBlur2417" />
    </filter>
    <radialGradient
       gradientTransform="matrix(0.26458333,0,0,0.26458333,-142.55137,-74.790073)"
       id="XMLID_530_"
       cx="363.58209"
       cy="64.204697"
       r="10.2828"
       gradientUnits="userSpaceOnUse">
      <stop
         offset="0.4021"
         style="stop-color:#5DECFF"
         id="stop2822" />
      <stop
         offset="1"
         style="stop-color:#03E3FF"
         id="stop2824" />
    </radialGradient>
    <radialGradient
       gradientTransform="matrix(0.26458333,0,0,0.26458333,-142.55137,-74.790073)"
       id="XMLID_531_"
       cx="212.3847"
       cy="153.76379"
       r="6.6336002"
       gradientUnits="userSpaceOnUse">
      <stop
         offset="0.4021"
         style="stop-color:#5DECFF"
         id="stop2828" />
      <stop
         offset="1"
         style="stop-color:#03E3FF"
         id="stop2830" />
    </radialGradient>
    <radialGradient
       gradientTransform="matrix(0.26458333,0,0,0.26458333,-142.55137,-74.790073)"
       id="XMLID_532_"
       cx="260.26379"
       cy="33.066299"
       r="10.2827"
       gradientUnits="userSpaceOnUse">
      <stop
         offset="0.4021"
         style="stop-color:#5DECFF"
         id="stop2834" />
      <stop
         offset="1"
         style="stop-color:#03E3FF"
         id="stop2836" />
    </radialGradient>
    <radialGradient
       gradientTransform="matrix(0.26458333,0,0,0.26458333,-142.55137,-74.790073)"
       id="XMLID_533_"
       cx="289.4577"
       cy="173.125"
       r="6.6345"
       gradientUnits="userSpaceOnUse">
      <stop
         offset="0.4021"
         style="stop-color:#5DECFF"
         id="stop2840" />
      <stop
         offset="1"
         style="stop-color:#03E3FF"
         id="stop2842" />
    </radialGradient>
    <filter
       height="1.952681"
       y="-0.4763405"
       width="1.9452767"
       x="-0.47263837"
       id="filter10314"
       style="color-interpolation-filters:sRGB">
      <feGaussianBlur
         id="feGaussianBlur10316"
         stdDeviation="7.6016004" />
    </filter>
    <filter
       height="17.585304"
       y="-8.292652"
       width="11.425073"
       x="-5.2125366"
       id="filter10318"
       style="color-interpolation-filters:sRGB">
      <feGaussianBlur
         id="feGaussianBlur10320"
         stdDeviation="0.69935735" />
    </filter>
    <filter
       height="27.062602"
       y="-13.031301"
       width="25.325121"
       x="-12.16256"
       id="filter10322"
       style="color-interpolation-filters:sRGB">
      <feGaussianBlur
         id="feGaussianBlur10324"
         stdDeviation="0.69935735" />
    </filter>
    <filter
       height="31.406841"
       y="-15.203421"
       width="17.585468"
       x="-8.2927339"
       id="filter10326"
       style="color-interpolation-filters:sRGB">
      <feGaussianBlur
         id="feGaussianBlur10328"
         stdDeviation="0.69935735" />
    </filter>
    <filter
       height="46.610262"
       y="-22.805131"
       width="27.064828"
       x="-13.032414"
       id="filter10330"
       style="color-interpolation-filters:sRGB">
      <feGaussianBlur
         id="feGaussianBlur10332"
         stdDeviation="0.69935735" />
    </filter>
    <filter
       height="7.5156632"
       y="-3.2578316"
       width="2.6892443"
       x="-0.84462215"
       id="filter10334"
       style="color-interpolation-filters:sRGB">
      <feGaussianBlur
         id="feGaussianBlur10336"
         stdDeviation="0.69935735" />
    </filter>
    <filter
       height="3.8505978"
       y="-1.4252989"
       width="2.1158315"
       x="-0.55791576"
       id="filter10338"
       style="color-interpolation-filters:sRGB">
      <feGaussianBlur
         id="feGaussianBlur10340"
         stdDeviation="0.69935735" />
    </filter>
    <filter
       height="3.7027916"
       y="-1.3513958"
       width="2.3926647"
       x="-0.69633237"
       id="filter10342"
       style="color-interpolation-filters:sRGB">
      <feGaussianBlur
         id="feGaussianBlur10344"
         stdDeviation="0.69935735" />
    </filter>
    <filter
       height="2.3224984"
       y="-0.66124922"
       width="1.796058"
       x="-0.39802898"
       id="filter10346"
       style="color-interpolation-filters:sRGB">
      <feGaussianBlur
         id="feGaussianBlur10348"
         stdDeviation="0.69935735" />
    </filter>
    <filter
       height="8.6016002"
       y="-3.8008001"
       width="9.1084127"
       x="-4.0542063"
       id="filter10350"
       style="color-interpolation-filters:sRGB">
      <feGaussianBlur
         id="feGaussianBlur10352"
         stdDeviation="0.69935735" />
    </filter>
    <filter
       height="7.290981"
       y="-3.1454905"
       width="14.513988"
       x="-6.7569942"
       id="filter10354"
       style="color-interpolation-filters:sRGB">
      <feGaussianBlur
         id="feGaussianBlur10356"
         stdDeviation="0.69935735" />
    </filter>
    <filter
       height="18.375158"
       y="-8.687579"
       width="15.595093"
       x="-7.2975467"
       id="filter10358"
       style="color-interpolation-filters:sRGB">
      <feGaussianBlur
         id="feGaussianBlur10360"
         stdDeviation="0.69935735" />
    </filter>
    <filter
       height="10.60204"
       y="-4.8010198"
       width="7.7569806"
       x="-3.3784903"
       id="filter10362"
       style="color-interpolation-filters:sRGB">
      <feGaussianBlur
         id="feGaussianBlur10364"
         stdDeviation="0.69935735" />
    </filter>
    <filter
       height="5.2427529"
       y="-2.1213764"
       width="2.5140119"
       x="-0.75700594"
       id="filter10366"
       style="color-interpolation-filters:sRGB">
      <feGaussianBlur
         id="feGaussianBlur10368"
         stdDeviation="0.69935735" />
    </filter>
    <filter
       height="3.5336537"
       y="-1.2668268"
       width="2.5460885"
       x="-0.77304425"
       id="filter10370"
       style="color-interpolation-filters:sRGB">
      <feGaussianBlur
         id="feGaussianBlur10372"
         stdDeviation="0.69935735" />
    </filter>
    <filter
       height="3.4821539"
       y="-1.2410769"
       width="2.2495781"
       x="-0.62478904"
       id="filter10374"
       style="color-interpolation-filters:sRGB">
      <feGaussianBlur
         id="feGaussianBlur10376"
         stdDeviation="0.69935735" />
    </filter>
    <filter
       height="2.5033797"
       y="-0.75168987"
       width="1.6116047"
       x="-0.30580236"
       id="filter10378"
       style="color-interpolation-filters:sRGB">
      <feGaussianBlur
         id="feGaussianBlur10380"
         stdDeviation="0.69935735" />
    </filter>
    <filter
       height="12.770225"
       y="-5.8851126"
       width="17.585386"
       x="-8.292693"
       id="filter10382"
       style="color-interpolation-filters:sRGB">
      <feGaussianBlur
         id="feGaussianBlur10384"
         stdDeviation="0.69935735" />
    </filter>
    <filter
       height="11.135467"
       y="-5.0677334"
       width="14.513988"
       x="-6.7569942"
       id="filter10386"
       style="color-interpolation-filters:sRGB">
      <feGaussianBlur
         id="feGaussianBlur10388"
         stdDeviation="0.69935735" />
    </filter>
    <filter
       height="2.3268248"
       y="-0.66341242"
       width="2.9004013"
       x="-0.95020067"
       id="filter10390"
       style="color-interpolation-filters:sRGB">
      <feGaussianBlur
         id="feGaussianBlur10392"
         stdDeviation="0.69935735" />
    </filter>
    <filter
       height="2.697102"
       y="-0.848551"
       width="5.4497168"
       x="-2.2248584"
       id="filter10394"
       style="color-interpolation-filters:sRGB">
      <feGaussianBlur
         id="feGaussianBlur10396"
         stdDeviation="0.69935735" />
    </filter>
    <filter
       height="2.3125064"
       y="-0.65625322"
       width="3.3389536"
       x="-1.1694768"
       id="filter10398"
       style="color-interpolation-filters:sRGB">
      <feGaussianBlur
         id="feGaussianBlur10400"
         stdDeviation="0.69935735" />
    </filter>
    <filter
       height="1.9534338"
       y="-0.47671692"
       width="2.244351"
       x="-0.62217551"
       id="filter10402"
       style="color-interpolation-filters:sRGB">
      <feGaussianBlur
         id="feGaussianBlur10404"
         stdDeviation="0.69935735" />
    </filter>
    <filter
       height="31.406841"
       y="-15.203421"
       width="34.1711"
       x="-16.58555"
       id="filter10406"
       style="color-interpolation-filters:sRGB">
      <feGaussianBlur
         id="feGaussianBlur10408"
         stdDeviation="0.69935735" />
    </filter>
    <filter
       height="20.204024"
       y="-9.6020121"
       width="37.48821"
       x="-18.244105"
       id="filter10410"
       style="color-interpolation-filters:sRGB">
      <feGaussianBlur
         id="feGaussianBlur10412"
         stdDeviation="0.69935735" />
    </filter>
    <filter
       height="2.9938623"
       y="-0.99693117"
       width="6.1391136"
       x="-2.5695568"
       id="filter10414"
       style="color-interpolation-filters:sRGB">
      <feGaussianBlur
         id="feGaussianBlur10416"
         stdDeviation="0.69935735" />
    </filter>
    <filter
       height="2.6289142"
       y="-0.81445711"
       width="3.4325142"
       x="-1.2162571"
       id="filter10418"
       style="color-interpolation-filters:sRGB">
      <feGaussianBlur
         id="feGaussianBlur10420"
         stdDeviation="0.69935735" />
    </filter>
    <filter
       height="6.2125366"
       y="-2.6062683"
       width="7.2909881"
       x="-3.145494"
       id="filter10422"
       style="color-interpolation-filters:sRGB">
      <feGaussianBlur
         id="feGaussianBlur10424"
         stdDeviation="0.69935735" />
    </filter>
    <filter
       height="1.6725062"
       y="-0.33625311"
       width="3.2237924"
       x="-1.1118962"
       id="filter10426"
       style="color-interpolation-filters:sRGB">
      <feGaussianBlur
         id="feGaussianBlur10428"
         stdDeviation="0.69935735" />
    </filter>
    <filter
       height="3.6062643"
       y="-1.3031321"
       width="3.324056"
       x="-1.162028"
       id="filter10430"
       style="color-interpolation-filters:sRGB">
      <feGaussianBlur
         id="feGaussianBlur10432"
         stdDeviation="0.69935735" />
    </filter>
    <filter
       height="3.0270944"
       y="-1.0135472"
       width="3.2113746"
       x="-1.1056873"
       id="filter10434"
       style="color-interpolation-filters:sRGB">
      <feGaussianBlur
         id="feGaussianBlur10436"
         stdDeviation="0.69935735" />
    </filter>
    <filter
       height="3.2385076"
       y="-1.1192538"
       width="3.2248584"
       x="-1.1124292"
       id="filter10438"
       style="color-interpolation-filters:sRGB">
      <feGaussianBlur
         id="feGaussianBlur10440"
         stdDeviation="0.69935735" />
    </filter>
    <filter
       height="2.0425052"
       y="-0.52125258"
       width="2.2802695"
       x="-0.64013475"
       id="filter10442"
       style="color-interpolation-filters:sRGB">
      <feGaussianBlur
         id="feGaussianBlur10444"
         stdDeviation="0.69935735" />
    </filter>
    <filter
       height="1.880891"
       y="-0.44044551"
       width="1.4549638"
       x="-0.22748189"
       id="filter10446"
       style="color-interpolation-filters:sRGB">
      <feGaussianBlur
         id="feGaussianBlur10448"
         stdDeviation="0.69935735" />
    </filter>
    <filter
       height="3.266316"
       y="-1.133158"
       width="3.4005061"
       x="-1.2002531"
       id="filter10450"
       style="color-interpolation-filters:sRGB">
      <feGaussianBlur
         id="feGaussianBlur10452"
         stdDeviation="0.69935735" />
    </filter>
    <filter
       height="2.43066"
       y="-0.71533002"
       width="2.9641544"
       x="-0.98207721"
       id="filter10454"
       style="color-interpolation-filters:sRGB">
      <feGaussianBlur
         id="feGaussianBlur10456"
         stdDeviation="0.69935735" />
    </filter>
    <filter
       height="1.7300582"
       y="-0.36502909"
       width="1.3897399"
       x="-0.19486996"
       id="filter10458"
       style="color-interpolation-filters:sRGB">
      <feGaussianBlur
         id="feGaussianBlur10460"
         stdDeviation="0.69935735" />
    </filter>
    <filter
       height="2.6892451"
       y="-0.84462254"
       width="3.0731656"
       x="-1.0365828"
       id="filter10462"
       style="color-interpolation-filters:sRGB">
      <feGaussianBlur
         id="feGaussianBlur10464"
         stdDeviation="0.69935735" />
    </filter>
    <filter
       height="2.9938621"
       y="-0.99693105"
       width="2.8711629"
       x="-0.93558145"
       id="filter10466"
       style="color-interpolation-filters:sRGB">
      <feGaussianBlur
         id="feGaussianBlur10468"
         stdDeviation="0.69935735" />
    </filter>
    <filter
       height="3.8276613"
       y="-1.4138306"
       width="3.6525785"
       x="-1.3262892"
       id="filter10470"
       style="color-interpolation-filters:sRGB">
      <feGaussianBlur
         id="feGaussianBlur10472"
         stdDeviation="0.69935735" />
    </filter>
    <filter
       height="2.8369977"
       y="-0.91849883"
       width="2.7245149"
       x="-0.86225747"
       id="filter10474"
       style="color-interpolation-filters:sRGB">
      <feGaussianBlur
         id="feGaussianBlur10476"
         stdDeviation="0.69935735" />
    </filter>
    <filter
       height="3.8276631"
       y="-1.4138315"
       width="3.6525635"
       x="-1.3262817"
       id="filter10478"
       style="color-interpolation-filters:sRGB">
      <feGaussianBlur
         id="feGaussianBlur10480"
         stdDeviation="0.69935735" />
    </filter>
    <filter
       height="2.8369973"
       y="-0.91849867"
       width="2.7245155"
       x="-0.86225775"
       id="filter10482"
       style="color-interpolation-filters:sRGB">
      <feGaussianBlur
         id="feGaussianBlur10484"
         stdDeviation="0.69935735" />
    </filter>
  </defs>
  <metadata
     id="metadata5">
    <rdf:RDF>
      <cc:Work
         rdf:about="">
        <dc:format>image/svg+xml</dc:format>
        <dc:type
           rdf:resource="http://purl.org/dc/dcmitype/StillImage" />
        <dc:title></dc:title>
      </cc:Work>
    </rdf:RDF>
  </metadata>
  <style
     type="text/css"
     id="style2818">
	.st0{fill:none;}
	.st1{fill:url(#XMLID_530_);}
	.st2{fill:url(#XMLID_531_);}
	.st3{fill:url(#XMLID_532_);}
	.st4{fill:url(#XMLID_533_);}
	.st5{fill:#03E3FF;}
	.st6{fill:#FFFFFF;}
</style>
  <g
     transform="translate(-0.73600993,1.88066)"
     id="g10531">
    <path
       d="m 19.655896,3.6953271 c 0.368005,0.3220047 0.349605,0.9016132 -0.0368,1.2880188 -0.386405,0.3864056 -1.002814,0.4416064 -1.38002,0.1196016 -0.368005,-0.3220048 -0.349605,-0.9016132 0.0368,-1.2880188 0.386405,-0.3864056 1.002814,-0.4416064 1.38002,-0.1196016 z"
       class="st1"
       id="XMLID_1501_-4"
       style="fill:#3d148c;fill-opacity:0.98469388;stroke-width:0.09200133;filter:url(#filter10482)" />
    <path
       d="m 5.48769,12.187051 c 0.239204,0.211602 0.230004,0.579608 -0.02761,0.837212 -0.248402,0.248403 -0.653209,0.285204 -0.892414,0.0736 -0.239201,-0.211602 -0.23,-0.579608 0.02761,-0.837212 0.257606,-0.248403 0.653213,-0.285204 0.892414,-0.0736 z"
       class="st2"
       id="XMLID_1500_-4"
       style="fill:#3d148c;fill-opacity:0.98469388;stroke-width:0.09200133;filter:url(#filter10478)" />
    <path
       d="m 10.152158,0.8340858 c 0.368005,0.3220044 0.349605,0.9016128 -0.0368,1.2880184 C 9.7289522,2.5085098 9.112543,2.5637106 8.735337,2.2417062 8.367332,1.9197014 8.385733,1.340093 8.772137,0.9536874 9.158542,0.5672818 9.774952,0.512081 10.152158,0.8340858 Z"
       class="st3"
       id="XMLID_1499_-9"
       style="fill:#3d148c;fill-opacity:0.98469388;stroke-width:0.09200133;filter:url(#filter10474)" />
    <path
       d="m 12.580993,13.971876 c 0.239204,0.211603 0.230004,0.579609 -0.0276,0.837212 -0.248403,0.248404 -0.653209,0.285205 -0.892412,0.0736 -0.239204,-0.211603 -0.230004,-0.579608 0.0276,-0.837212 0.257604,-0.248403 0.65321,-0.285204 0.892412,-0.0736 z"
       class="st4"
       id="XMLID_1498_-9"
       style="fill:#3d148c;fill-opacity:0.98469388;stroke-width:0.09200133;filter:url(#filter10470)" />
    <path
       style="fill:#3d148c;fill-opacity:0.98469388;stroke-width:0.09200133;filter:url(#filter10466)"
       id="XMLID_1489_-3"
       class="st5"
       d="m 11.65178,4.8821443 c -0.0368,-0.073601 -0.0828,-0.147202 -0.119602,-0.2208032 -0.579609,0.5244076 -1.131617,1.0764156 -1.6744242,1.6376236 0.064401,0.018401 0.1288016,0.036801 0.1932032,0.046001 0.515207,-0.5060074 1.048815,-0.9936146 1.600823,-1.4628214 z" />
    <path
       style="fill:#3d148c;fill-opacity:0.98469388;stroke-width:0.09200133;filter:url(#filter10462)"
       id="XMLID_1488_-6"
       class="st5"
       d="m 8.348932,8.1389918 c -0.0184,-0.046001 -0.0368,-0.082802 -0.0552,-0.1288023 -0.542808,0.6348093 -1.058015,1.2880193 -1.564021,1.9412281 0.0368,0.0184 0.0736,0.0276 0.110401,0.046 C 7.318518,9.3626078 7.824525,8.7461998 8.348933,8.1389908 Z" />
    <path
       style="fill:#3d148c;fill-opacity:0.98469388;stroke-width:0.09200133;filter:url(#filter10458)"
       id="XMLID_1487_-0"
       class="st5"
       d="M 20.125102,0.8432858 C 19.9503,0.4936806 19.655896,0.2636774 19.26949,0.1992766 18.331076,0.0520742 17.300662,0.5672818 16.50025,0.9904878 c -1.38922,0.7360108 -2.668039,1.6928248 -3.864056,2.7048393 -0.331205,0.276004 -0.653209,0.561208 -0.975214,0.8556124 0.046,0.073601 0.0828,0.147202 0.128802,0.2208032 0.975214,-0.828012 2.005629,-1.5824229 3.091245,-2.2632329 0.772811,-0.4876068 1.591623,-0.9476136 2.456435,-1.251218 0.496807,-0.1748024 1.168417,-0.3772056 1.683624,-0.147202 0.349606,0.156402 0.506008,0.5336076 0.515208,0.9016128 0.0092,0.2852044 -0.046,0.5612084 -0.119602,0.8372124 -0.046,0.1656024 -0.101201,0.3312045 -0.165602,0.4876069 -0.0276,0.064401 -0.110402,0.1932028 -0.110402,0.2576036 -0.046,0.055201 -0.0276,0.082801 0.0552,0.073601 0.046,0.018401 0.101201,0.0368 0.147202,0.064401 0.0276,0.0092 0.524408,-0.6440093 0.552008,-0.7084101 0.276005,-0.6532096 0.561209,-1.4996216 0.230004,-2.1804316 z" />
    <path
       style="fill:#3d148c;fill-opacity:0.98469388;stroke-width:0.09200133;filter:url(#filter10454)"
       id="XMLID_1486_-5"
       class="st5"
       d="m 6.591706,10.144621 c -0.285205,0.368005 -0.552008,0.745211 -0.818812,1.122416 -0.110401,0.165602 -0.220803,0.322005 -0.331204,0.487607 -0.0644,0.101202 -0.138001,0.202403 -0.202402,0.312805 -0.02761,0.0368 -0.046,0.0736 -0.0736,0.119602 -0.0644,0.101201 -0.110402,0.101201 0.02761,0.156402 0.0368,0.0184 0.515209,-0.64401 0.552008,-0.70841 0.331205,-0.552008 0.690012,-1.076416 1.067217,-1.591624 -0.0368,-0.0184 -0.0736,-0.0368 -0.110402,-0.046 -0.02761,0.046 -0.0736,0.101201 -0.110402,0.147202 z" />
    <path
       style="fill:#3d148c;fill-opacity:0.98469388;stroke-width:0.09200133;filter:url(#filter10450)"
       id="XMLID_1485_-0"
       class="st5"
       d="M 9.664551,6.6853703 C 9.60015,6.7773723 9.526549,6.8693731 9.443748,6.9521743 9.544949,6.8509727 9.6369506,6.7497715 9.7381518,6.6485699 9.6737508,6.6393699 9.6185502,6.6209709 9.5541494,6.6117699 9.204544,6.9889751 8.854939,7.3661807 8.523734,7.7525863 c -0.0644,0.073601 -0.119601,0.138002 -0.184002,0.2116032 0.0184,0.046 0.0368,0.082801 0.046,0.1288016 C 8.726136,7.7065855 9.075741,7.3293803 9.443747,6.9521747 9.526548,6.8693737 9.6001488,6.7773723 9.66455,6.6853707 Z" />
    <path
       style="fill:#3d148c;fill-opacity:0.98469388;stroke-width:0.09200133;filter:url(#filter10446)"
       id="XMLID_1484_-2"
       class="st5"
       d="M 4.383674,16.575514 C 3.840866,16.051106 4.006469,14.873489 4.73328,13.355467 c -0.046,-0.0092 -0.0828,-0.0276 -0.119602,-0.046 -0.837213,1.665224 -1.058016,2.962442 -0.469205,3.523651 0.94761,0.910813 4.066457,-0.984415 7.0473,-3.523651 -0.0092,-0.0184 -0.0276,-0.0368 -0.0368,-0.0552 -3.128046,2.741639 -5.823685,4.241261 -6.771299,3.321248 z" />
    <path
       style="fill:#3d148c;fill-opacity:0.98469388;stroke-width:0.09200133;filter:url(#filter10442)"
       id="XMLID_1483_-9"
       class="st5"
       d="m 18.404678,5.4801531 c -0.0644,-0.027599 -0.128802,-0.055201 -0.193203,-0.092002 -0.653209,0.9752144 -1.472021,2.0424296 -2.428835,3.1556467 0.0368,0.0184 0.0736,0.046 0.119601,0.0644 1.039615,-1.1684177 1.867627,-2.2080329 2.502437,-3.1280461 z" />
    <path
       style="fill:#3d148c;fill-opacity:0.98469388;stroke-width:0.09200133;filter:url(#filter10438)"
       id="XMLID_1482_-4"
       class="st5"
       d="m 12.626994,11.883446 c 0.0368,0.0092 0.0736,0.0184 0.110401,0.0276 0.423206,-0.404806 0.837212,-0.809612 1.232818,-1.214418 0.0552,-0.0552 0.110402,-0.119602 0.165603,-0.174803 -0.0092,-0.0368 -0.0276,-0.0736 -0.0368,-0.110401 -0.0644,0.0736 -0.138002,0.147202 -0.202403,0.211603 -0.423206,0.432406 -0.846412,0.855612 -1.269618,1.260418 z" />
    <path
       style="fill:#3d148c;fill-opacity:0.98469388;stroke-width:0.09200133;filter:url(#filter10434)"
       id="XMLID_1481_-3"
       class="st5"
       d="m 14.264618,10.227422 c 0.0092,0.0276 0.0184,0.0644 0.0276,0.092 0,0.0092 0.0092,0.0184 0.0092,0.0276 0.533608,-0.5612082 1.030415,-1.0948162 1.481222,-1.6008232 -0.0368,-0.0184 -0.0736,-0.0368 -0.119602,-0.0552 -0.432406,0.496807 -0.901613,1.021215 -1.39842,1.5364232 z" />
    <path
       style="fill:#3d148c;fill-opacity:0.98469388;stroke-width:0.09200133;filter:url(#filter10430)"
       id="XMLID_1480_-5"
       class="st5"
       d="m 11.210173,13.199065 c 0.0092,0.0184 0.0276,0.0368 0.0368,0.0552 0.478407,-0.404806 0.947613,-0.828012 1.40762,-1.260418 -0.0368,-0.0092 -0.0736,-0.0184 -0.110401,-0.0276 -0.450807,0.432406 -0.901614,0.846412 -1.33402,1.232818 z" />
    <path
       style="fill:#3d148c;fill-opacity:0.98469388;stroke-width:0.09200133;filter:url(#filter10426)"
       id="XMLID_1479_-1"
       class="st5"
       d="m 7.695723,0.9996882 c 0.211602,-0.1012016 0.460006,-0.092002 0.73601,0.018401 0.0276,-0.0368 0.0552,-0.082801 0.0828,-0.1196016 C 8.201729,0.797286 7.916525,0.8064864 7.658921,0.9260896 6.803307,1.3216953 6.812508,3.2813237 7.539319,5.8021601 c 0.0368,0.0092 0.0736,0.0092 0.101202,0.018401 C 7.014912,3.4837275 6.88611,1.3676971 7.695721,0.9996919 Z" />
    <path
       style="fill:#3d148c;fill-opacity:0.98469388;stroke-width:0.09200133;filter:url(#filter10422)"
       id="XMLID_1478_-7"
       class="st5"
       d="m 11.65178,13.898275 c 0.0276,-0.0184 0.046,-0.0368 0.0736,-0.0552 -0.156402,-0.184002 -0.312805,-0.377205 -0.469207,-0.588808 -0.0184,0.0184 -0.0368,0.0368 -0.0644,0.0552 0.147202,0.202402 0.303604,0.404806 0.460007,0.588808 z" />
    <path
       style="fill:#3d148c;fill-opacity:0.98469388;stroke-width:0.09200133;filter:url(#filter10418)"
       id="XMLID_1477_-4"
       class="st5"
       d="m 9.9037542,11.211836 c -0.027602,-0.0092 -0.055201,-0.0184 -0.082801,-0.0276 0.4324068,0.763611 0.8832128,1.462821 1.3248188,2.06083 0.0184,-0.0184 0.0368,-0.0368 0.0552,-0.0552 -0.432405,-0.561208 -0.864811,-1.232817 -1.2972178,-1.978028 z" />
    <path
       style="fill:#3d148c;fill-opacity:0.98469388;stroke-width:0.09200133;filter:url(#filter10414)"
       id="XMLID_1476_-3"
       class="st5"
       d="m 7.787724,6.3449655 c -0.0276,0 -0.0644,-0.0092 -0.092,-0.0092 0.174802,0.5428076 0.377205,1.104016 0.607209,1.6836244 0.0184,-0.018401 0.0276,-0.036801 0.046,-0.046001 C 8.13733,7.4305804 7.953327,6.8877728 7.787724,6.3449655 Z" />
    <path
       style="fill:#3d148c;fill-opacity:0.98469388;stroke-width:0.09200133;filter:url(#filter10410)"
       id="XMLID_1475_-1"
       class="st5"
       d="m 8.394933,8.0929907 c -0.0184,-0.046 -0.0368,-0.082801 -0.046,-0.1288016 -0.0184,0.018401 -0.0276,0.0368 -0.046,0.046 0.0184,0.046001 0.0368,0.082801 0.0552,0.1288027 0.0092,-0.0092 0.0184,-0.027599 0.0368,-0.046001 z" />
    <path
       style="fill:#3d148c;fill-opacity:0.98469388;stroke-width:0.09200133;filter:url(#filter10406)"
       id="XMLID_1474_-4"
       class="st5"
       d="m 11.145772,13.254266 c 0.0092,0.0184 0.0276,0.0368 0.0368,0.0552 0.0184,-0.0184 0.0368,-0.0368 0.0644,-0.0552 -0.0092,-0.0184 -0.0276,-0.0368 -0.0368,-0.0552 -0.0184,0.0184 -0.046,0.0368 -0.0644,0.0552 z" />
    <path
       style="fill:#3d148c;fill-opacity:0.98469388;stroke-width:0.09200133;filter:url(#filter10402)"
       id="XMLID_1473_-6"
       class="st5"
       d="m 14.687824,12.711458 c 0.101201,0.644009 0.220803,1.444421 -0.0736,2.06083 -0.128802,0.266804 -0.349605,0.460007 -0.64401,0.487607 -0.239203,0.0276 -0.478407,-0.0552 -0.69921,-0.156402 -0.147202,-0.0736 -0.285204,-0.156403 -0.414006,-0.248404 -0.0644,-0.046 -0.147202,-0.128802 -0.220803,-0.165602 -0.110402,-0.046 -0.0644,-0.0828 -0.174803,0.0092 -0.0092,0.0092 0.294405,0.404806 0.322005,0.432407 0.450807,0.395605 1.315619,1.104016 1.950428,0.671609 0.331205,-0.230003 0.395606,-0.71761 0.414006,-1.085615 0.046,-0.745211 -0.0552,-1.508822 -0.230003,-2.254033 -0.092,-0.0184 -0.193203,-0.0368 -0.294404,-0.046 0.0276,0.101202 0.046,0.202403 0.0644,0.294405 z" />
    <path
       style="fill:#3d148c;fill-opacity:0.98469388;stroke-width:0.09200133;filter:url(#filter10398)"
       id="XMLID_1472_-9"
       class="st5"
       d="m 12.148587,5.8113579 c 0.239203,0.4692068 0.469207,0.9384136 0.69001,1.4168204 0.0828,0.027599 0.174802,0.064401 0.257604,0.1012016 -0.404806,-0.8648128 -0.837212,-1.7204252 -1.306419,-2.5576372 -0.046,0.0368 -0.092,0.073601 -0.128802,0.1104016 0.165602,0.3128044 0.331205,0.6164088 0.487607,0.9292136 z" />
    <path
       style="fill:#3d148c;fill-opacity:0.98469388;stroke-width:0.09200133;filter:url(#filter10394)"
       id="XMLID_1471_-4"
       class="st5"
       d="m 14.605023,12.279052 c 0.092,0.0184 0.193202,0.0276 0.285204,0.046 -0.165603,-0.680809 -0.377206,-1.343219 -0.588809,-1.978028 -0.0552,0.0552 -0.110401,0.119601 -0.165602,0.174802 0.193203,0.579609 0.349605,1.159217 0.469207,1.757226 z" />
    <path
       style="fill:#3d148c;fill-opacity:0.98469388;stroke-width:0.09200133;filter:url(#filter10390)"
       id="XMLID_1470_-2"
       class="st5"
       d="m 10.621365,2.9133158 c -0.0184,-0.027602 -0.0368,-0.055201 -0.0552,-0.082801 -0.0184,-0.018401 -0.0276,-0.046001 -0.046,-0.064401 -0.0552,-0.073601 -0.110402,-0.1472024 -0.156403,-0.2208032 -0.092,-0.128802 -0.193203,-0.257604 -0.294404,-0.3864056 -0.0092,-0.0092 -0.0184,-0.018401 -0.0276,-0.027599 -0.046,0.036801 -0.092001,0.073601 -0.1380024,0.1012013 0,0 0.2944044,0.3864056 0.3220044,0.4232063 0.138002,0.1748025 0.276004,0.3496049 0.404806,0.5336077 0.0276,0.046 0.0644,0.092001 0.092,0.138002 0.294404,0.432406 0.561208,0.8740124 0.818812,1.3340192 0.046,-0.0368 0.0828,-0.073601 0.128802,-0.1104016 -0.331205,-0.561208 -0.68081,-1.113216 -1.048815,-1.6376236 z" />
    <path
       style="fill:#3d148c;fill-opacity:0.98469388;stroke-width:0.09200133;filter:url(#filter10386)"
       id="XMLID_1469_-2"
       class="st5"
       d="m 11.532178,4.6613411 c 0.0368,0.073601 0.0828,0.147202 0.119602,0.2208032 0.046,-0.0368 0.092,-0.073601 0.128801,-0.1104016 -0.046,-0.073601 -0.0828,-0.147202 -0.128801,-0.2208032 -0.0368,0.0368 -0.0736,0.073601 -0.119602,0.1104016 z" />
    <path
       style="fill:#3d148c;fill-opacity:0.98469388;stroke-width:0.09200133;filter:url(#filter10382)"
       id="XMLID_1468_-6"
       class="st5"
       d="m 14.264618,10.227422 c -0.0552,0.0552 -0.110402,0.119602 -0.165603,0.174803 0.0092,0.0368 0.0276,0.0736 0.0368,0.110401 0.0552,-0.0552 0.110401,-0.119601 0.165602,-0.174802 0,-0.0092 -0.0092,-0.0184 -0.0092,-0.0276 -0.0092,-0.0184 -0.0184,-0.046 -0.0276,-0.0828 z" />
    <path
       style="fill:#3d148c;fill-opacity:0.98469388;stroke-width:0.09200133;filter:url(#filter10378)"
       id="XMLID_1467_-4"
       class="st5"
       d="M 7.53932,5.8113579 C 6.932111,5.7101563 6.324902,5.6457555 5.708493,5.5997547 4.816079,5.5445537 3.813268,5.5169537 2.966854,5.8389583 2.69085,5.9493599 2.387244,6.1149623 2.258445,6.3909663 2.010039,6.9337739 2.580449,7.4673819 2.966854,7.7985867 c 0.0092,-0.064401 0.0368,-0.128802 0.0828,-0.1748028 0.101205,-0.1012012 0.239205,-0.1012012 0.358807,-0.046 C 3.325661,7.4213811 3.252059,7.2465787 3.288859,7.0901763 3.436059,6.6485699 3.97887,6.4645671 4.383674,6.3633659 5.119686,6.1793631 5.993698,6.2069635 6.748107,6.2437639 7.060913,6.2621649 7.373718,6.2897649 7.686522,6.3173649 7.640522,6.1517625 7.585321,5.9861601 7.53932,5.8113579 Z" />
    <path
       style="fill:#3d148c;fill-opacity:0.98469388;stroke-width:0.09200133;filter:url(#filter10374)"
       id="XMLID_1466_-1"
       class="st5"
       d="m 13.252603,7.6605847 c 0.0368,0.018401 0.0828,0.027599 0.119602,0.046 0.607208,0.2208032 1.196017,0.4692071 1.784826,0.7360111 0.174802,0.0828 0.340405,0.165603 0.515207,0.248404 0.0368,-0.046 0.0736,-0.092 0.110402,-0.128802 -0.552008,-0.303605 -1.122417,-0.5796091 -1.711225,-0.8280127 -0.322005,-0.138002 -0.65321,-0.2668036 -0.975214,-0.3956056 0.0276,0.055201 0.0552,0.1196016 0.0828,0.1840028 0.0276,0.0368 0.046,0.082801 0.0736,0.138002 z" />
    <path
       style="fill:#3d148c;fill-opacity:0.98469388;stroke-width:0.09200133;filter:url(#filter10370)"
       id="XMLID_1465_-2"
       class="st5"
       d="m 16.095444,8.8934028 c 0.138002,0.0736 0.276004,0.147202 0.414006,0.220803 0.0552,0.0368 0.119602,0.0644 0.174803,0.101201 0.0184,0.0092 0.0276,0.0184 0.046,0.0276 0.248403,0.147202 1.159216,0.7084098 1.168416,0.6992098 0.0184,-0.0368 0.046,-0.0736 0.0644,-0.101201 -0.0184,-0.0184 -0.487607,-0.2944048 -0.506007,-0.3128048 -0.515208,-0.312804 -1.030415,-0.625609 -1.554823,-0.910813 -0.0368,0.046 -0.0736,0.0828 -0.110401,0.128802 0.092,0.046 0.202403,0.101201 0.303604,0.147202 z" />
    <path
       style="fill:#3d148c;fill-opacity:0.98469388;stroke-width:0.09200133;filter:url(#filter10366)"
       id="XMLID_1464_-8"
       class="st5"
       d="M 9.5541494,6.6209695 C 9.6553506,6.5105679 9.7565522,6.4093663 9.8577538,6.3081651 9.8209528,6.2989651 9.7933528,6.2897641 9.7565522,6.2805661 9.057342,6.1057636 8.358132,5.9493616 7.640522,5.8297596 c 0.046,0.1748028 0.092,0.3404052 0.147202,0.5152076 0.588808,0.064401 1.177617,0.1564024 1.7664254,0.276004 z" />
    <path
       style="fill:#3d148c;fill-opacity:0.98469388;stroke-width:0.09200133;filter:url(#filter10362)"
       id="XMLID_1463_-8"
       class="st5"
       d="M 9.7381518,6.6577699 C 9.8393534,6.5565687 9.940555,6.4553671 10.041756,6.3541655 9.9773552,6.3357645 9.9129546,6.3173655 9.8485534,6.3081655 9.7473522,6.4093667 9.6461506,6.5197683 9.544949,6.6209699 c 0.073601,0.0092 0.138002,0.018401 0.1932028,0.0368 z" />
    <path
       style="fill:#3d148c;fill-opacity:0.98469388;stroke-width:0.09200133;filter:url(#filter10358)"
       id="XMLID_1462_-9"
       class="st5"
       d="m 15.78264,8.7370008 c 0.0368,-0.046 0.0736,-0.0828 0.110401,-0.128802 -0.0368,-0.0184 -0.0736,-0.046 -0.119601,-0.0644 -0.0368,0.046 -0.0736,0.092 -0.110402,0.128801 0.046,0.0276 0.0828,0.046 0.119602,0.0644 z" />
    <path
       style="fill:#3d148c;fill-opacity:0.98469388;stroke-width:0.09200133;filter:url(#filter10354)"
       id="XMLID_1461_-2"
       class="st5"
       d="m 7.640522,5.8297579 c -0.0368,-0.0092 -0.0736,-0.0092 -0.101202,-0.018401 0.046,0.1748024 0.101202,0.3496048 0.156403,0.5244076 0.0276,0 0.0644,0.0092 0.092,0.0092 C 7.741723,6.1701624 7.686521,5.9953596 7.640521,5.8297579 Z" />
    <path
       style="fill:#3d148c;fill-opacity:0.98469388;stroke-width:0.09200133;filter:url(#filter10350)"
       id="XMLID_1460_-8"
       class="st5"
       d="m 12.985799,7.5685831 c 0.0828,0.027599 0.174802,0.064401 0.257604,0.092002 -0.0276,-0.055201 -0.046,-0.1012016 -0.0736,-0.1564024 -0.0276,-0.064401 -0.0552,-0.1196016 -0.0828,-0.1840028 -0.0828,-0.0368 -0.174803,-0.064401 -0.257604,-0.1012012 0.0552,0.1196016 0.110401,0.2300032 0.156402,0.3496048 z" />
    <path
       d="m 19.076287,11.727044 c 0.138002,-0.450807 -0.193203,-1.002815 -0.864812,-1.600823 -0.0276,0.0276 -0.0644,0.0552 -0.092,0.0828 0.653209,0.561208 1.012014,1.085615 0.883212,1.499621 -0.239203,0.791212 -1.849226,0.947614 -4.112459,0.616409 0.0092,0.0552 0.0276,0.101202 0.0368,0.156403 2.576038,0.414006 3.891657,0.110401 4.14926,-0.754411 z"
       class="st5"
       id="XMLID_1459_-8"
       style="fill:#3d148c;fill-opacity:0.98469388;stroke-width:0.09200133;filter:url(#filter10346)" />
    <path
       d="m 4.328473,8.7554008 c -0.0092,0.0092 -0.0092,0.0092 -0.0092,0.0184 0.377205,0.239204 1.932028,1.012015 2.392036,1.2236178 0.0092,-0.0092 0.01839,-0.0184 0.01839,-0.0276 C 6.26049,9.7582158 4.714868,8.9762048 4.328462,8.7554008 Z"
       class="st5"
       id="XMLID_1457_-8"
       style="fill:#3d148c;fill-opacity:0.98469388;stroke-width:0.09200133;filter:url(#filter10342)" />
    <path
       d="m 6.840111,10.006619 c -0.0092,0.0092 -0.01839,0.0184 -0.01839,0.0276 0.956813,0.423206 1.996428,0.818811 3.0084428,1.150016 -0.018401,-0.0368 -0.036801,-0.0644 -0.055201,-0.101201 C 8.707748,10.751828 7.723334,10.383822 6.84012,10.006617 Z"
       class="st5"
       id="XMLID_1455_-6"
       style="fill:#3d148c;fill-opacity:0.98469388;stroke-width:0.09200133;filter:url(#filter10338)" />
    <path
       d="m 12.737395,11.911047 c -0.0276,0.0276 -0.0552,0.0552 -0.092,0.0828 0.726811,0.184002 1.38922,0.322004 1.987229,0.432406 -0.0092,-0.046 -0.0184,-0.101202 -0.0276,-0.147202 -0.579608,-0.092 -1.205217,-0.220803 -1.867627,-0.368005 z"
       class="st5"
       id="XMLID_1453_-8"
       style="fill:#3d148c;fill-opacity:0.98469388;stroke-width:0.09200133;filter:url(#filter10334)" />
    <path
       d="m 6.72971,9.9606176 c -0.0092,0.0092 -0.01839,0.0184 -0.01839,0.0276 0.0368,0.0184 0.0736,0.0368 0.110401,0.046 0.0092,-0.0092 0.01839,-0.0184 0.01839,-0.0276 -0.0368,-0.0092 -0.0736,-0.0276 -0.110401,-0.046 z"
       class="st5"
       id="XMLID_1451_-3"
       style="fill:#3d148c;fill-opacity:0.98469388;stroke-width:0.09200133;filter:url(#filter10330)" />
    <path
       d="m 12.626994,11.883446 c -0.0276,0.0276 -0.0552,0.0552 -0.0828,0.0828 0.0368,0.0092 0.0736,0.0184 0.110401,0.0276 0.0276,-0.0276 0.0552,-0.0552 0.092,-0.0828 -0.046,-0.0092 -0.0828,-0.0184 -0.119601,-0.0276 z"
       class="st5"
       id="XMLID_1449_-8"
       style="fill:#3d148c;fill-opacity:0.98469388;stroke-width:0.09200133;filter:url(#filter10326)" />
    <path
       d="m 9.8485534,11.110635 c -0.027599,-0.0092 -0.055201,-0.0184 -0.082801,-0.0276 0.018401,0.0368 0.036801,0.0644 0.055201,0.101202 0.027599,0.0092 0.055201,0.0184 0.082801,0.0276 -0.018401,-0.0276 -0.0368,-0.0644 -0.055201,-0.101201 z"
       class="st5"
       id="XMLID_1447_-3"
       style="fill:#3d148c;fill-opacity:0.98469388;stroke-width:0.09200133;filter:url(#filter10322)" />
    <path
       d="m 14.641823,12.426254 c 0.101202,0.0184 0.193203,0.0368 0.294404,0.046 -0.0092,-0.0552 -0.0276,-0.101202 -0.0368,-0.156403 -0.092,-0.0092 -0.184003,-0.0276 -0.285204,-0.046 0.0092,0.0552 0.0184,0.110401 0.0276,0.156403 z"
       class="st5"
       id="XMLID_1445_-3"
       style="fill:#3d148c;fill-opacity:0.98469388;stroke-width:0.09200133;filter:url(#filter10318)" />
    <g
       id="XMLID_1435_-3"
       transform="matrix(0.09200133,0,0,0.09200133,-14.504201,-1.5027482)"
       style="fill:#3d148c;fill-opacity:0.98469388;filter:url(#filter10314)">
      <path
         style="fill:#3d148c;fill-opacity:0.98469388"
         id="XMLID_1439_-8"
         class="st6"
         d="m 279.9,96.4 c -9.8,0 -9.1,4.1 -9.1,4.1 v 4.3 h 9.5 v 1 h -13.2 c 0,0 -6.3,-0.5 -6.3,9.3 0,9.8 5.5,9.7 5.5,9.7 h 3 v -4.4 c 0,0 0.1,-5.6 5.7,-5.6 h 9.2 c 0,0 5.1,0.3 5.1,-4.8 v -8.4 c 0,-0.1 0.8,-5.2 -9.4,-5.2 z m -5.1,3 c 0.9,0 1.7,0.7 1.7,1.7 0,0.9 -0.7,1.7 -1.7,1.7 -1,0 -1.7,-0.7 -1.7,-1.7 0.1,-1 0.8,-1.7 1.7,-1.7 z" />
      <path
         style="fill:#3d148c;fill-opacity:0.98469388"
         id="XMLID_1436_-0"
         class="st6"
         d="m 280,134.7 c 9.8,0 9.3,-4.4 9.3,-4.4 l 0.1,-4.5 h -9.1 v -1 h 12.8 c 0,0 6.3,0.5 6.3,-9.3 0,-9.8 -5.5,-9.7 -5.5,-9.7 h -2.6 v 4.9 c 0,0 -0.5,5.1 -6,5.1 H 276 c 0,0 -5.7,0.2 -5.7,5.4 v 8.4 c 0,0 -0.5,5.1 9.7,5.1 z m 5.4,-2.9 c -0.9,0 -1.7,-0.7 -1.7,-1.7 0,-0.9 0.7,-1.7 1.7,-1.7 1,0 1.7,0.7 1.7,1.7 0,0.9 -0.8,1.7 -1.7,1.7 z" />
    </g>
  </g>
  <rect
     height="58.208332"
     width="128.32292"
     class="st0"
     x="-142.55136"
     id="XMLID_529_"
     y="-74.790077"
     style="fill:none;stroke-width:0.26458332" />
  <g
     id="g1103">
    <path
       d="m 18.919886,5.5813533 c 0.368005,0.3220047 0.349605,0.9016132 -0.0368,1.2880188 -0.386405,0.3864056 -1.002814,0.4416064 -1.38002,0.1196016 -0.368005,-0.3220048 -0.349605,-0.9016132 0.0368,-1.2880188 0.386405,-0.3864056 1.002814,-0.4416064 1.38002,-0.1196016 z"
       class="st1"
       id="XMLID_1501_"
       style="fill:#3d148c;stroke-width:0.09200133;fill-opacity:1" />
    <path
       d="m 4.7516797,14.073077 c 0.2392047,0.211602 0.2300039,0.579608 -0.027609,0.837212 -0.2484018,0.248403 -0.6532089,0.285204 -0.8924135,0.0736 -0.2392011,-0.211602 -0.2300004,-0.579608 0.027609,-0.837212 0.2576061,-0.248403 0.6532124,-0.285204 0.8924135,-0.0736 z"
       class="st2"
       id="XMLID_1500_"
       style="fill:#3d148c;stroke-width:0.09200133;fill-opacity:1" />
    <path
       d="M 9.4161477,2.720112 C 9.7841533,3.0421164 9.7657529,3.6217248 9.3793473,4.0081304 8.9929417,4.394536 8.3765329,4.4497368 7.9993273,4.1277324 7.6313221,3.8057276 7.6497225,3.2261192 8.0361277,2.8397136 8.4225333,2.453308 9.0389425,2.3981072 9.4161477,2.720112 Z"
       class="st3"
       id="XMLID_1499_"
       style="fill:#3d148c;stroke-width:0.09200133;fill-opacity:1" />
    <path
       d="m 11.844983,15.857902 c 0.239204,0.211603 0.230004,0.579609 -0.0276,0.837212 -0.248403,0.248404 -0.653209,0.285205 -0.892412,0.0736 -0.239204,-0.211603 -0.230004,-0.579608 0.0276,-0.837212 0.257604,-0.248403 0.65321,-0.285204 0.892412,-0.0736 z"
       class="st4"
       id="XMLID_1498_"
       style="fill:#3d148c;stroke-width:0.09200133;fill-opacity:1" />
    <path
       style="fill:#3d148c;stroke-width:0.09200133;fill-opacity:1"
       id="XMLID_1489_"
       class="st5"
       d="m 10.91577,6.7681705 c -0.0368,-0.073601 -0.0828,-0.147202 -0.119602,-0.2208032 -0.579609,0.5244076 -1.1316167,1.0764156 -1.6744243,1.6376236 0.064401,0.018401 0.1288016,0.036801 0.1932028,0.046001 C 9.8301537,7.7249845 10.363762,7.2373773 10.91577,6.7681705 Z" />
    <path
       style="fill:#3d148c;stroke-width:0.09200133;fill-opacity:1"
       id="XMLID_1488_"
       class="st5"
       d="m 7.6129217,10.025018 c -0.018401,-0.046001 -0.0368,-0.082801 -0.055201,-0.1288023 -0.5428076,0.6348093 -1.0580152,1.2880193 -1.5640214,1.9412283 0.036799,0.0184 0.073599,0.0276 0.1104016,0.046 0.4784058,-0.63481 0.984413,-1.251218 1.5088206,-1.858427 z" />
    <path
       style="fill:#3d148c;stroke-width:0.09200133;fill-opacity:1"
       id="XMLID_1487_"
       class="st5"
       d="M 19.389092,2.729312 C 19.21429,2.3797068 18.919886,2.1497036 18.53348,2.0853028 17.595066,1.9381004 16.564652,2.453308 15.76424,2.876514 c -1.38922,0.7360108 -2.668039,1.6928248 -3.864056,2.7048393 -0.331205,0.276004 -0.653209,0.561208 -0.975214,0.8556124 0.046,0.073601 0.0828,0.147202 0.128802,0.2208032 0.975214,-0.828012 2.005629,-1.5824229 3.091245,-2.2632329 0.772811,-0.4876068 1.591623,-0.9476136 2.456435,-1.251218 0.496807,-0.1748024 1.168417,-0.3772056 1.683624,-0.147202 0.349606,0.156402 0.506008,0.5336076 0.515208,0.9016128 0.0092,0.2852044 -0.046,0.5612084 -0.119602,0.8372124 -0.046,0.1656024 -0.101201,0.3312045 -0.165602,0.4876069 -0.0276,0.064401 -0.110402,0.1932028 -0.110402,0.2576036 -0.046,0.055201 -0.0276,0.082801 0.0552,0.073601 0.046,0.018401 0.101201,0.0368 0.147202,0.064401 0.0276,0.0092 0.524408,-0.6440093 0.552008,-0.7084101 C 19.435093,4.256534 19.720297,3.410122 19.389092,2.729312 Z" />
    <path
       style="fill:#3d148c;stroke-width:0.09200133;fill-opacity:1"
       id="XMLID_1486_"
       class="st5"
       d="m 5.8556957,12.030647 c -0.2852047,0.368005 -0.552008,0.745211 -0.8188113,1.122416 -0.1104016,0.165602 -0.2208032,0.322005 -0.3312048,0.487607 -0.064401,0.101202 -0.1380002,0.202403 -0.2024017,0.312805 -0.027609,0.0368 -0.046,0.0736 -0.073602,0.119602 -0.064401,0.101201 -0.1104016,0.101201 0.027609,0.156402 0.036799,0.0184 0.5152087,-0.64401 0.552008,-0.70841 0.3312048,-0.552008 0.6900118,-1.076416 1.0672167,-1.591624 -0.036803,-0.0184 -0.073602,-0.0368 -0.1104016,-0.046 -0.027609,0.046 -0.073602,0.101201 -0.1104016,0.147202 z" />
    <path
       style="fill:#3d148c;stroke-width:0.09200133;fill-opacity:1"
       id="XMLID_1485_"
       class="st5"
       d="m 8.9285409,8.5713965 c -0.064401,0.092002 -0.138002,0.1840028 -0.2208032,0.266804 0.1012012,-0.1012016 0.1932028,-0.2024028 0.294404,-0.3036044 -0.064401,-0.0092 -0.1196016,-0.027599 -0.1840024,-0.0368 -0.3496052,0.3772052 -0.6992104,0.7544108 -1.0304152,1.1408164 -0.064401,0.073601 -0.1196016,0.138002 -0.1840024,0.2116032 0.018401,0.046 0.0368,0.082801 0.046001,0.1288016 0.3404046,-0.3864056 0.6900094,-0.7636108 1.058015,-1.1408164 0.082801,-0.082801 0.156402,-0.1748024 0.2208032,-0.266804 z" />
    <path
       style="fill:#3d148c;stroke-width:0.09200133;fill-opacity:1"
       id="XMLID_1484_"
       class="st5"
       d="m 3.6476637,18.46154 c -0.5428073,-0.524408 -0.3772049,-1.702025 0.3496062,-3.220047 -0.046,-0.0092 -0.082803,-0.0276 -0.1196023,-0.046 -0.8372127,1.665224 -1.0580159,2.962442 -0.469205,3.523651 0.9476108,0.910813 4.0664571,-0.984415 7.0473004,-3.523651 -0.0092,-0.0184 -0.0276,-0.0368 -0.0368,-0.0552 -3.1280457,2.741639 -5.823685,4.241261 -6.7712993,3.321248 z" />
    <path
       style="fill:#3d148c;stroke-width:0.09200133;fill-opacity:1"
       id="XMLID_1483_"
       class="st5"
       d="m 17.668668,7.3661793 c -0.0644,-0.027599 -0.128802,-0.055201 -0.193203,-0.092002 -0.653209,0.9752144 -1.472021,2.0424296 -2.428835,3.1556467 0.0368,0.0184 0.0736,0.046 0.119601,0.0644 1.039615,-1.1684177 1.867627,-2.2080329 2.502437,-3.1280461 z" />
    <path
       style="fill:#3d148c;stroke-width:0.09200133;fill-opacity:1"
       id="XMLID_1482_"
       class="st5"
       d="m 11.890984,13.769472 c 0.0368,0.0092 0.0736,0.0184 0.110401,0.0276 0.423206,-0.404806 0.837212,-0.809612 1.232818,-1.214418 0.0552,-0.0552 0.110402,-0.119602 0.165603,-0.174803 -0.0092,-0.0368 -0.0276,-0.0736 -0.0368,-0.110401 -0.0644,0.0736 -0.138002,0.147202 -0.202403,0.211603 -0.423206,0.432406 -0.846412,0.855612 -1.269618,1.260418 z" />
    <path
       style="fill:#3d148c;stroke-width:0.09200133;fill-opacity:1"
       id="XMLID_1481_"
       class="st5"
       d="m 13.528608,12.113448 c 0.0092,0.0276 0.0184,0.0644 0.0276,0.092 0,0.0092 0.0092,0.0184 0.0092,0.0276 0.533608,-0.561208 1.030415,-1.094816 1.481222,-1.600823 -0.0368,-0.0184 -0.0736,-0.0368 -0.119602,-0.0552 -0.432406,0.496807 -0.901613,1.021215 -1.39842,1.536423 z" />
    <path
       style="fill:#3d148c;stroke-width:0.09200133;fill-opacity:1"
       id="XMLID_1480_"
       class="st5"
       d="m 10.474163,15.085091 c 0.0092,0.0184 0.0276,0.0368 0.0368,0.0552 0.478407,-0.404806 0.947613,-0.828012 1.40762,-1.260418 -0.0368,-0.0092 -0.0736,-0.0184 -0.110401,-0.0276 -0.450807,0.432406 -0.901614,0.846412 -1.33402,1.232818 z" />
    <path
       style="fill:#3d148c;stroke-width:0.09200133;fill-opacity:1"
       id="XMLID_1479_"
       class="st5"
       d="m 6.9597125,2.8857144 c 0.2116028,-0.1012016 0.4600064,-0.092002 0.7360104,0.018401 0.027599,-0.0368 0.055201,-0.082801 0.082801,-0.1196016 C 7.4657197,2.6833126 7.1805157,2.692513 6.9229117,2.8121163 6.0672982,3.207722 6.0764989,5.1673504 6.8033101,7.6881868 c 0.0368,0.0092 0.073601,0.0092 0.1012016,0.018401 C 6.2789025,5.3697542 6.1501005,3.2537238 6.9597125,2.8857186 Z" />
    <path
       style="fill:#3d148c;stroke-width:0.09200133;fill-opacity:1"
       id="XMLID_1478_"
       class="st5"
       d="m 10.91577,15.784301 c 0.0276,-0.0184 0.046,-0.0368 0.0736,-0.0552 -0.156402,-0.184002 -0.312805,-0.377205 -0.469207,-0.588808 -0.0184,0.0184 -0.0368,0.0368 -0.0644,0.0552 0.147202,0.202402 0.303604,0.404806 0.460007,0.588808 z" />
    <path
       style="fill:#3d148c;stroke-width:0.09200133;fill-opacity:1"
       id="XMLID_1477_"
       class="st5"
       d="m 9.1677441,13.097862 c -0.027602,-0.0092 -0.055201,-0.0184 -0.082801,-0.0276 0.4324064,0.763611 0.8832129,1.462821 1.3248189,2.06083 0.0184,-0.0184 0.0368,-0.0368 0.0552,-0.0552 -0.432405,-0.561208 -0.8648115,-1.232817 -1.2972179,-1.978028 z" />
    <path
       style="fill:#3d148c;stroke-width:0.09200133;fill-opacity:1"
       id="XMLID_1476_"
       class="st5"
       d="m 7.0517137,8.2309917 c -0.027599,0 -0.064401,-0.0092 -0.092001,-0.0092 0.1748024,0.5428076 0.3772052,1.104016 0.6072088,1.6836244 0.018401,-0.018401 0.027599,-0.036801 0.046,-0.046001 C 7.4013189,9.3166066 7.2173161,8.773799 7.0517137,8.2309917 Z" />
    <path
       style="fill:#3d148c;stroke-width:0.09200133;fill-opacity:1"
       id="XMLID_1475_"
       class="st5"
       d="m 7.6589225,9.9790169 c -0.018401,-0.046 -0.0368,-0.082801 -0.046001,-0.1288016 -0.018401,0.018401 -0.027599,0.0368 -0.046,0.046 0.018401,0.046001 0.0368,0.082801 0.055201,0.1288027 0.0092,-0.0092 0.018401,-0.027599 0.0368,-0.046001 z" />
    <path
       style="fill:#3d148c;stroke-width:0.09200133;fill-opacity:1"
       id="XMLID_1474_"
       class="st5"
       d="m 10.409762,15.140292 c 0.0092,0.0184 0.0276,0.0368 0.0368,0.0552 0.0184,-0.0184 0.0368,-0.0368 0.0644,-0.0552 -0.0092,-0.0184 -0.0276,-0.0368 -0.0368,-0.0552 -0.0184,0.0184 -0.046,0.0368 -0.0644,0.0552 z" />
    <path
       style="fill:#3d148c;stroke-width:0.09200133;fill-opacity:1"
       id="XMLID_1473_"
       class="st5"
       d="m 13.951814,14.597484 c 0.101201,0.644009 0.220803,1.444421 -0.0736,2.06083 -0.128802,0.266804 -0.349605,0.460007 -0.64401,0.487607 -0.239203,0.0276 -0.478407,-0.0552 -0.69921,-0.156402 -0.147202,-0.0736 -0.285204,-0.156403 -0.414006,-0.248404 -0.0644,-0.046 -0.147202,-0.128802 -0.220803,-0.165602 -0.110402,-0.046 -0.0644,-0.0828 -0.174803,0.0092 -0.0092,0.0092 0.294405,0.404806 0.322005,0.432407 0.450807,0.395605 1.315619,1.104016 1.950428,0.671609 0.331205,-0.230003 0.395606,-0.71761 0.414006,-1.085615 0.046,-0.745211 -0.0552,-1.508822 -0.230003,-2.254033 -0.092,-0.0184 -0.193203,-0.0368 -0.294404,-0.046 0.0276,0.101202 0.046,0.202403 0.0644,0.294405 z" />
    <path
       style="fill:#3d148c;stroke-width:0.09200133;fill-opacity:1"
       id="XMLID_1472_"
       class="st5"
       d="m 11.412577,7.6973841 c 0.239203,0.4692068 0.469207,0.9384136 0.69001,1.4168204 0.0828,0.027599 0.174802,0.064401 0.257604,0.1012016 -0.404806,-0.8648128 -0.837212,-1.7204252 -1.306419,-2.5576372 -0.046,0.0368 -0.092,0.073601 -0.128802,0.1104016 0.165602,0.3128044 0.331205,0.6164088 0.487607,0.9292136 z" />
    <path
       style="fill:#3d148c;stroke-width:0.09200133;fill-opacity:1"
       id="XMLID_1471_"
       class="st5"
       d="m 13.869013,14.165078 c 0.092,0.0184 0.193202,0.0276 0.285204,0.046 -0.165603,-0.680809 -0.377206,-1.343219 -0.588809,-1.978028 -0.0552,0.0552 -0.110401,0.119601 -0.165602,0.174802 0.193203,0.579609 0.349605,1.159217 0.469207,1.757226 z" />
    <path
       style="fill:#3d148c;stroke-width:0.09200133;fill-opacity:1"
       id="XMLID_1470_"
       class="st5"
       d="M 9.8853545,4.799342 C 9.8669531,4.7717399 9.8485541,4.7441412 9.8301537,4.7165408 9.8117523,4.6981394 9.8025551,4.67054 9.7841533,4.65214 9.7289525,4.5785388 9.6737517,4.5049376 9.6277509,4.4313368 9.5357497,4.3025348 9.4345481,4.1737328 9.3333465,4.0449312 c -0.0092,-0.0092 -0.018401,-0.018401 -0.027599,-0.027599 -0.046,0.036801 -0.092001,0.073601 -0.138002,0.1012013 0,0 0.2944044,0.3864056 0.3220048,0.4232063 0.138002,0.1748025 0.276004,0.3496049 0.404806,0.5336077 0.027602,0.046 0.064401,0.092001 0.092001,0.138002 0.2944037,0.432406 0.5612077,0.8740124 0.8188117,1.3340192 0.046,-0.0368 0.0828,-0.073601 0.128802,-0.1104016 -0.331205,-0.561208 -0.68081,-1.113216 -1.0488153,-1.6376236 z" />
    <path
       style="fill:#3d148c;stroke-width:0.09200133;fill-opacity:1"
       id="XMLID_1469_"
       class="st5"
       d="m 10.796168,6.5473673 c 0.0368,0.073601 0.0828,0.147202 0.119602,0.2208032 0.046,-0.0368 0.092,-0.073601 0.128801,-0.1104016 -0.046,-0.073601 -0.0828,-0.147202 -0.128801,-0.2208032 -0.0368,0.0368 -0.0736,0.073601 -0.119602,0.1104016 z" />
    <path
       style="fill:#3d148c;stroke-width:0.09200133;fill-opacity:1"
       id="XMLID_1468_"
       class="st5"
       d="m 13.528608,12.113448 c -0.0552,0.0552 -0.110402,0.119602 -0.165603,0.174803 0.0092,0.0368 0.0276,0.0736 0.0368,0.110401 0.0552,-0.0552 0.110401,-0.119601 0.165602,-0.174802 0,-0.0092 -0.0092,-0.0184 -0.0092,-0.0276 -0.0092,-0.0184 -0.0184,-0.046 -0.0276,-0.0828 z" />
    <path
       style="fill:#3d148c;stroke-width:0.09200133;fill-opacity:1"
       id="XMLID_1467_"
       class="st5"
       d="M 6.8033101,7.6973841 C 6.1961013,7.5961825 5.5888924,7.5317817 4.9724829,7.4857809 4.0800694,7.4305801 3.0772578,7.4029797 2.2308443,7.7249845 1.9548403,7.8353861 1.6512342,8.0009885 1.5224346,8.2769925 1.2740293,8.8198001 1.8444387,9.3534081 2.2308443,9.6846129 c 0.00921,-0.064401 0.036799,-0.128802 0.0828,-0.1748028 0.1012043,-0.1012012 0.2392046,-0.1012012 0.3588069,-0.046 C 2.5896478,9.3074073 2.516049,9.1326049 2.5528484,8.9762025 2.7000494,8.5345961 3.2428602,8.3505933 3.6476637,8.2493921 4.3836755,8.0653893 5.2576876,8.0929897 6.0120974,8.1297901 c 0.3128058,0.018401 0.6256103,0.046001 0.9384147,0.073601 -0.046,-0.1656024 -0.1012012,-0.3312048 -0.147202,-0.5060072 z" />
    <path
       style="fill:#3d148c;stroke-width:0.09200133;fill-opacity:1"
       id="XMLID_1466_"
       class="st5"
       d="m 12.516593,9.5466109 c 0.0368,0.018401 0.0828,0.027599 0.119602,0.046 0.607208,0.2208032 1.196017,0.4692071 1.784826,0.7360111 0.174802,0.0828 0.340405,0.165603 0.515207,0.248404 0.0368,-0.046 0.0736,-0.092 0.110402,-0.128802 C 14.494622,10.144619 13.924213,9.8686149 13.335405,9.6202113 13.0134,9.4822093 12.682195,9.3534077 12.360191,9.2246057 c 0.0276,0.055201 0.0552,0.1196016 0.0828,0.1840028 0.0276,0.0368 0.046,0.082801 0.0736,0.138002 z" />
    <path
       style="fill:#3d148c;stroke-width:0.09200133;fill-opacity:1"
       id="XMLID_1465_"
       class="st5"
       d="m 15.359434,10.779429 c 0.138002,0.0736 0.276004,0.147202 0.414006,0.220803 0.0552,0.0368 0.119602,0.0644 0.174803,0.101201 0.0184,0.0092 0.0276,0.0184 0.046,0.0276 0.248403,0.147202 1.159216,0.70841 1.168416,0.69921 0.0184,-0.0368 0.046,-0.0736 0.0644,-0.101201 -0.0184,-0.0184 -0.487607,-0.294405 -0.506007,-0.312805 -0.515208,-0.312804 -1.030415,-0.625609 -1.554823,-0.910813 -0.0368,0.046 -0.0736,0.0828 -0.110401,0.128802 0.092,0.046 0.202403,0.101201 0.303604,0.147202 z" />
    <path
       style="fill:#3d148c;stroke-width:0.09200133;fill-opacity:1"
       id="XMLID_1464_"
       class="st5"
       d="M 8.8181393,8.5069957 C 8.9193405,8.3965941 9.0205421,8.2953925 9.1217437,8.1941913 9.0849429,8.1849906 9.0573425,8.1757899 9.0205421,8.1665926 8.3213321,7.9917898 7.6221221,7.8353878 6.9045117,7.7157858 c 0.046,0.1748028 0.092001,0.3404052 0.147202,0.5152076 0.5888084,0.064401 1.1776168,0.1564024 1.7664256,0.276004 z" />
    <path
       style="fill:#3d148c;stroke-width:0.09200133;fill-opacity:1"
       id="XMLID_1463_"
       class="st5"
       d="M 9.0021417,8.5437961 C 9.1033433,8.4425949 9.2045449,8.3413933 9.3057461,8.2401917 c -0.064401,-0.018401 -0.1288016,-0.0368 -0.1932028,-0.046 -0.1012012,0.1012012 -0.2024028,0.2116028 -0.3036044,0.3128044 0.073601,0.0092 0.138002,0.018401 0.1932028,0.0368 z" />
    <path
       style="fill:#3d148c;stroke-width:0.09200133;fill-opacity:1"
       id="XMLID_1462_"
       class="st5"
       d="m 15.04663,10.623027 c 0.0368,-0.046 0.0736,-0.0828 0.110401,-0.128802 -0.0368,-0.0184 -0.0736,-0.046 -0.119601,-0.0644 -0.0368,0.046 -0.0736,0.092 -0.110402,0.128801 0.046,0.0276 0.0828,0.046 0.119602,0.0644 z" />
    <path
       style="fill:#3d148c;stroke-width:0.09200133;fill-opacity:1"
       id="XMLID_1461_"
       class="st5"
       d="m 6.9045117,7.7157841 c -0.036801,-0.0092 -0.073601,-0.0092 -0.1012016,-0.018401 0.046001,0.1748024 0.1012016,0.3496048 0.1564024,0.5244076 0.027599,0 0.064401,0.0092 0.092001,0.0092 C 7.0057129,8.0561886 6.9505121,7.8813858 6.9045117,7.7157841 Z" />
    <path
       style="fill:#3d148c;stroke-width:0.09200133;fill-opacity:1"
       id="XMLID_1460_"
       class="st5"
       d="m 12.249789,9.4546093 c 0.0828,0.027599 0.174802,0.064401 0.257604,0.092002 -0.0276,-0.055201 -0.046,-0.1012016 -0.0736,-0.1564024 -0.0276,-0.064401 -0.0552,-0.1196016 -0.0828,-0.1840028 -0.0828,-0.0368 -0.174803,-0.064401 -0.257604,-0.1012012 0.0552,0.1196016 0.110401,0.2300032 0.156402,0.3496048 z" />
    <path
       d="m 18.340277,13.61307 c 0.138002,-0.450807 -0.193203,-1.002815 -0.864812,-1.600823 -0.0276,0.0276 -0.0644,0.0552 -0.092,0.0828 0.653209,0.561208 1.012014,1.085615 0.883212,1.499621 -0.239203,0.791212 -1.849226,0.947614 -4.112459,0.616409 0.0092,0.0552 0.0276,0.101202 0.0368,0.156403 2.576038,0.414006 3.891657,0.110401 4.14926,-0.754411 z"
       class="st5"
       id="XMLID_1459_"
       style="fill:#3d148c;stroke-width:0.09200133;fill-opacity:1" />
    <path
       d="m 3.5924629,10.641427 c -0.00921,0.0092 -0.00921,0.0092 -0.00921,0.0184 0.3772049,0.239204 1.932028,1.012015 2.3920358,1.223618 0.00921,-0.0092 0.018394,-0.0184 0.018394,-0.0276 -0.4692085,-0.211603 -2.014831,-0.993614 -2.4012366,-1.214418 z"
       class="st5"
       id="XMLID_1457_"
       style="fill:#3d148c;stroke-width:0.09200133;fill-opacity:1" />
    <path
       d="m 6.1041011,11.892645 c -0.00921,0.0092 -0.018395,0.0184 -0.018395,0.0276 0.956813,0.423206 1.9964278,0.818811 3.0084426,1.150016 -0.018401,-0.0368 -0.036801,-0.0644 -0.055201,-0.101201 C 7.9717328,12.637854 6.9873188,12.269848 6.1041046,11.892643 Z"
       class="st5"
       id="XMLID_1455_"
       style="fill:#3d148c;stroke-width:0.09200133;fill-opacity:1" />
    <path
       d="m 12.001385,13.797073 c -0.0276,0.0276 -0.0552,0.0552 -0.092,0.0828 0.726811,0.184002 1.38922,0.322004 1.987229,0.432406 -0.0092,-0.046 -0.0184,-0.101202 -0.0276,-0.147202 -0.579608,-0.092 -1.205217,-0.220803 -1.867627,-0.368005 z"
       class="st5"
       id="XMLID_1453_"
       style="fill:#3d148c;stroke-width:0.09200133;fill-opacity:1" />
    <path
       d="m 5.9936995,11.846644 c -0.00921,0.0092 -0.018394,0.0184 -0.018394,0.0276 0.036799,0.0184 0.073599,0.0368 0.1104016,0.046 0.00921,-0.0092 0.018395,-0.0184 0.018395,-0.0276 -0.036803,-0.0092 -0.073602,-0.0276 -0.1104016,-0.046 z"
       class="st5"
       id="XMLID_1451_"
       style="fill:#3d148c;stroke-width:0.09200133;fill-opacity:1" />
    <path
       d="m 11.890984,13.769472 c -0.0276,0.0276 -0.0552,0.0552 -0.0828,0.0828 0.0368,0.0092 0.0736,0.0184 0.110401,0.0276 0.0276,-0.0276 0.0552,-0.0552 0.092,-0.0828 -0.046,-0.0092 -0.0828,-0.0184 -0.119601,-0.0276 z"
       class="st5"
       id="XMLID_1449_"
       style="fill:#3d148c;stroke-width:0.09200133;fill-opacity:1" />
    <path
       d="m 9.1125433,12.996661 c -0.027599,-0.0092 -0.055201,-0.0184 -0.082801,-0.0276 0.018401,0.0368 0.036801,0.0644 0.055201,0.101202 0.027599,0.0092 0.055201,0.0184 0.082801,0.0276 -0.018401,-0.0276 -0.0368,-0.0644 -0.055201,-0.101201 z"
       class="st5"
       id="XMLID_1447_"
       style="fill:#3d148c;stroke-width:0.09200133;fill-opacity:1" />
    <path
       d="m 13.905813,14.31228 c 0.101202,0.0184 0.193203,0.0368 0.294404,0.046 -0.0092,-0.0552 -0.0276,-0.101202 -0.0368,-0.156403 -0.092,-0.0092 -0.184003,-0.0276 -0.285204,-0.046 0.0092,0.0552 0.0184,0.110401 0.0276,0.156403 z"
       class="st5"
       id="XMLID_1445_"
       style="fill:#3d148c;stroke-width:0.09200133;fill-opacity:1" />
    <g
       id="XMLID_1435_"
       transform="matrix(0.09200133,0,0,0.09200133,-15.240211,0.38327796)"
       style="fill:#3d148c;fill-opacity:1">
      <path
         style="fill:#3d148c;fill-opacity:1"
         id="XMLID_1439_"
         class="st6"
         d="m 279.9,96.4 c -9.8,0 -9.1,4.1 -9.1,4.1 v 4.3 h 9.5 v 1 h -13.2 c 0,0 -6.3,-0.5 -6.3,9.3 0,9.8 5.5,9.7 5.5,9.7 h 3 v -4.4 c 0,0 0.1,-5.6 5.7,-5.6 h 9.2 c 0,0 5.1,0.3 5.1,-4.8 v -8.4 c 0,-0.1 0.8,-5.2 -9.4,-5.2 z m -5.1,3 c 0.9,0 1.7,0.7 1.7,1.7 0,0.9 -0.7,1.7 -1.7,1.7 -1,0 -1.7,-0.7 -1.7,-1.7 0.1,-1 0.8,-1.7 1.7,-1.7 z" />
      <path
         style="fill:#3d148c;fill-opacity:1"
         id="XMLID_1436_"
         class="st6"
         d="m 280,134.7 c 9.8,0 9.3,-4.4 9.3,-4.4 l 0.1,-4.5 h -9.1 v -1 h 12.8 c 0,0 6.3,0.5 6.3,-9.3 0,-9.8 -5.5,-9.7 -5.5,-9.7 h -2.6 v 4.9 c 0,0 -0.5,5.1 -6,5.1 H 276 c 0,0 -5.7,0.2 -5.7,5.4 v 8.4 c 0,0 -0.5,5.1 9.7,5.1 z m 5.4,-2.9 c -0.9,0 -1.7,-0.7 -1.7,-1.7 0,-0.9 0.7,-1.7 1.7,-1.7 1,0 1.7,0.7 1.7,1.7 0,0.9 -0.8,1.7 -1.7,1.7 z" />
    </g>
  </g>
</svg>
