<?xml version="1.0" encoding="UTF-8" standalone="no"?>
<svg
   xmlns:dc="http://purl.org/dc/elements/1.1/"
   xmlns:cc="http://creativecommons.org/ns#"
   xmlns:rdf="http://www.w3.org/1999/02/22-rdf-syntax-ns#"
   xmlns:svg="http://www.w3.org/2000/svg"
   xmlns="http://www.w3.org/2000/svg"
   id="svg8"
   version="1.1"
   viewBox="0 0 21 21"
   height="21mm"
   width="21mm">
  <defs
     id="defs2">
    <filter
       height="2.8748114"
       y="-0.93740577"
       width="2.8080006"
       x="-0.90400022"
       id="filter1771"
       style="color-interpolation-filters:sRGB">
      <feGaussianBlur
         id="feGaussianBlur1773"
         stdDeviation="1.3144052" />
    </filter>
    <filter
       height="2.8748114"
       y="-0.93740577"
       width="2.8080006"
       x="-0.90400022"
       id="filter1771-3"
       style="color-interpolation-filters:sRGB">
      <feGaussianBlur
         id="feGaussianBlur1773-9"
         stdDeviation="1.3144052" />
    </filter>
    <filter
       height="2.7952001"
       y="-0.8976"
       width="2.7952001"
       x="-0.8976"
       id="filter2189"
       style="color-interpolation-filters:sRGB">
      <feGaussianBlur
         id="feGaussianBlur2191"
         stdDeviation="2.6049839" />
    </filter>
    <filter
       height="2.7952001"
       y="-0.8976"
       width="2.7952001"
       x="-0.8976"
       id="filter2189-2"
       style="color-interpolation-filters:sRGB">
      <feGaussianBlur
         id="feGaussianBlur2191-99"
         stdDeviation="2.6049839" />
    </filter>
    <filter
       height="2.6116903"
       y="-0.8058452"
       width="1.2008028"
       x="-0.10040138"
       id="filter2415"
       style="color-interpolation-filters:sRGB">
      <feGaussianBlur
         id="feGaussianBlur2417"
         stdDeviation="2.55546" />
    </filter>
  </defs>
  <metadata
     id="metadata5">
    <rdf:RDF>
      <cc:Work
         rdf:about="">
        <dc:format>image/svg+xml</dc:format>
        <dc:type
           rdf:resource="http://purl.org/dc/dcmitype/StillImage" />
        <dc:title></dc:title>
      </cc:Work>
    </rdf:RDF>
  </metadata>
  <g
     transform="translate(1.9525884,-9.4998772)"
     id="g1524">
    <path
       d="M 12.03001,19.99988 A 3.4825988,3.4825988 0 0 1 8.7719085,23.47523 3.4825988,3.4825988 0 0 1 5.0937556,20.44794 3.4825988,3.4825988 0 0 1 7.8776499,16.58229 3.4825988,3.4825988 0 0 1 11.914717,19.1112 l -3.367306,0.88868 z"
       id="path1007-9-9-0"
       style="display:inline;opacity:1;fill:#03e3ff;fill-opacity:1;stroke:#ffffff;stroke-width:0.73710442;stroke-miterlimit:4;stroke-dasharray:none;stroke-dashoffset:0;stroke-opacity:1;filter:url(#filter2189-2)" />
    <ellipse
       cx="8.5473194"
       cy="19.999786"
       rx="2.5390606"
       ry="7.1494594"
       id="path984-1-2"
       style="opacity:1;fill:none;fill-opacity:1;stroke:#ffffff;stroke-width:0.2;stroke-miterlimit:4;stroke-dasharray:none;stroke-dashoffset:0;stroke-opacity:1" />
    <ellipse
       transform="rotate(120)"
       cx="13.046659"
       cy="-17.402084"
       rx="2.5390606"
       ry="7.1494598"
       id="path984-3-9-7"
       style="display:inline;opacity:1;fill:none;fill-opacity:1;stroke:#ffffff;stroke-width:0.2;stroke-miterlimit:4;stroke-dasharray:none;stroke-dashoffset:0;stroke-opacity:1" />
    <ellipse
       transform="rotate(60)"
       cx="21.617628"
       cy="2.6386099"
       rx="2.5390606"
       ry="7.1494598"
       id="path984-7-0-6"
       style="display:inline;opacity:1;fill:none;fill-opacity:1;stroke:#ffffff;stroke-width:0.2;stroke-miterlimit:4;stroke-dasharray:none;stroke-dashoffset:0;stroke-opacity:1" />
    <path
       d="m 9.4922827,19.99982 a 0.94494045,0.94494045 0 0 1 -0.884027,0.94297 0.94494045,0.94494045 0 0 1 -0.9980006,-0.8214 0.94494045,0.94494045 0 0 1 0.7553596,-1.04887 0.94494045,0.94494045 0 0 1 1.0953855,0.68617 l -0.9136579,0.24113 z"
       id="path1007-9-1"
       style="opacity:1;fill:#ffffff;fill-opacity:1;stroke:#ffffff;stroke-width:0.2;stroke-miterlimit:4;stroke-dasharray:none;stroke-dashoffset:0;stroke-opacity:1" />
    <path
       d="m 9.7533976,26.23053 a 0.25056517,0.25056517 0 0 1 -0.2344131,0.25004 0.25056517,0.25056517 0 0 1 -0.2646348,-0.2178 0.25056517,0.25056517 0 0 1 0.2002949,-0.27813 0.25056517,0.25056517 0 0 1 0.2904579,0.18195 l -0.2422701,0.0639 z"
       id="path1009-88-3"
       style="opacity:1;fill:#ffffff;fill-opacity:1;stroke:#ffffff;stroke-width:0.2;stroke-miterlimit:4;stroke-dasharray:none;stroke-dashoffset:0;stroke-opacity:1" />
    <path
       d="m 12.201968,19.29819 a 0.25056517,0.25056517 0 0 1 -0.234413,0.25004 0.25056517,0.25056517 0 0 1 -0.264635,-0.21781 0.25056517,0.25056517 0 0 1 0.200295,-0.27812 0.25056517,0.25056517 0 0 1 0.290458,0.18195 l -0.24227,0.0639 z"
       id="path1009-8-5-2"
       style="display:inline;opacity:1;fill:#ffffff;fill-opacity:1;stroke:#ffffff;stroke-width:0.2;stroke-miterlimit:4;stroke-dasharray:none;stroke-dashoffset:0;stroke-opacity:1" />
    <path
       d="M 5.2529551,15.95734 A 0.25056517,0.25056517 0 0 1 5.018542,16.20738 0.25056517,0.25056517 0 0 1 4.7539072,15.98957 0.25056517,0.25056517 0 0 1 4.9542021,15.71145 0.25056517,0.25056517 0 0 1 5.24466,15.8934 l -0.2422701,0.0639 z"
       id="path1009-7-8-1"
       style="display:inline;opacity:1;fill:#ffffff;fill-opacity:1;stroke:#ffffff;stroke-width:0.2;stroke-miterlimit:4;stroke-dasharray:none;stroke-dashoffset:0;stroke-opacity:1" />
  </g>
</svg>
