<?xml version="1.0" encoding="UTF-8" standalone="no"?>
<!-- Created with Inkscape (http://www.inkscape.org/) -->

<svg
   xmlns:dc="http://purl.org/dc/elements/1.1/"
   xmlns:cc="http://creativecommons.org/ns#"
   xmlns:rdf="http://www.w3.org/1999/02/22-rdf-syntax-ns#"
   xmlns:svg="http://www.w3.org/2000/svg"
   xmlns="http://www.w3.org/2000/svg"
   xmlns:sodipodi="http://sodipodi.sourceforge.net/DTD/sodipodi-0.dtd"
   xmlns:inkscape="http://www.inkscape.org/namespaces/inkscape"
   width="110mm"
   height="110mm"
   viewBox="0 0 110 110"
   version="1.1"
   id="svg8"
   inkscape:version="0.92.2 (5c3e80d, 2017-08-06)"
   sodipodi:docname="empty-photo.svg">
  <defs
     id="defs2" />
  <sodipodi:namedview
     id="base"
     pagecolor="#ffffff"
     bordercolor="#666666"
     borderopacity="1.0"
     inkscape:pageopacity="0.0"
     inkscape:pageshadow="2"
     inkscape:zoom="0.35"
     inkscape:cx="541.6215"
     inkscape:cy="258.98432"
     inkscape:document-units="mm"
     inkscape:current-layer="layer1"
     showgrid="false"
     inkscape:window-width="1366"
     inkscape:window-height="707"
     inkscape:window-x="0"
     inkscape:window-y="32"
     inkscape:window-maximized="1" />
  <metadata
     id="metadata5">
    <rdf:RDF>
      <cc:Work
         rdf:about="">
        <dc:format>image/svg+xml</dc:format>
        <dc:type
           rdf:resource="http://purl.org/dc/dcmitype/StillImage" />
        <dc:title></dc:title>
      </cc:Work>
    </rdf:RDF>
  </metadata>
  <g
     inkscape:label="Layer 1"
     inkscape:groupmode="layer"
     id="layer1"
     transform="translate(0,-187)">
    <path
       style="fill:#410c88;fill-opacity:1;stroke-width:0.26458335"
       d="m 27.412611,269.28666 c -0.19675,-0.89806 0.22661,-3.23164 0.78069,-4.30309 0.22687,-0.43874 0.97411,-1.20601 1.660518,-1.70507 2.32607,-1.69117 9.45868,-4.96985 15.19502,-6.98478 l 2.30534,-0.80976 1.48582,0.51119 c 3.689163,1.26926 8.242103,1.21837 11.967173,-0.13376 1.17851,-0.42778 1.85323,-0.54691 2.14634,-0.37897 0.23512,0.13472 2.86827,1.15105 5.85145,2.25851 6.37963,2.36836 10.29306,4.18987 11.80668,5.49543 1.19926,1.03441 1.52976,1.92989 1.84239,4.99196 l 0.18234,1.78594 H 55.104192 27.572011 Z m 24.750761,-19.78085 c -5.479333,-1.21817 -9.491853,-6.90154 -10.996613,-15.57569 -0.93486,-5.38901 -0.0793,-9.73013 2.734,-13.87296 2.70237,-3.97943 7.464683,-6.44926 11.615423,-6.024 3.40446,0.3488 6.31957,1.89014 8.99266,4.75479 4.66032,4.99432 5.51093,11.31091 2.6762,19.87319 -2.67568,8.08184 -8.50842,12.29271 -15.02167,10.84467 z"
       id="path830"
       inkscape:connector-curvature="0" />
  </g>
</svg>
