<?xml version="1.0" encoding="UTF-8" standalone="no"?>
<svg
   xmlns:dc="http://purl.org/dc/elements/1.1/"
   xmlns:cc="http://creativecommons.org/ns#"
   xmlns:rdf="http://www.w3.org/1999/02/22-rdf-syntax-ns#"
   xmlns:svg="http://www.w3.org/2000/svg"
   xmlns="http://www.w3.org/2000/svg"
   width="132mm"
   height="40mm"
   viewBox="0 0 132 40"
   version="1.1"
   id="svg8">
  <defs
     id="defs2">
    <filter
       style="color-interpolation-filters:sRGB"
       id="filter1771"
       x="-0.90400025"
       width="2.8080005"
       y="-0.93740577"
       height="2.8748115">
      <feGaussianBlur
         stdDeviation="1.3144052"
         id="feGaussianBlur1773" />
    </filter>
    <filter
       style="color-interpolation-filters:sRGB"
       id="filter1771-3"
       x="-0.90400022"
       width="2.8080006"
       y="-0.93740577"
       height="2.8748114">
      <feGaussianBlur
         stdDeviation="1.3144052"
         id="feGaussianBlur1773-9" />
    </filter>
    <filter
       style="color-interpolation-filters:sRGB"
       id="filter2189"
       x="-0.8976"
       width="2.7952"
       y="-0.8976"
       height="2.7952">
      <feGaussianBlur
         stdDeviation="2.6049839"
         id="feGaussianBlur2191" />
    </filter>
    <filter
       style="color-interpolation-filters:sRGB"
       id="filter2189-2"
       x="-0.8976"
       width="2.7952001"
       y="-0.8976"
       height="2.7952001">
      <feGaussianBlur
         stdDeviation="2.6049839"
         id="feGaussianBlur2191-99" />
    </filter>
    <filter
       style="color-interpolation-filters:sRGB"
       id="filter2415"
       x="-0.10040138"
       width="1.2008028"
       y="-0.80584521"
       height="2.6116904">
      <feGaussianBlur
         stdDeviation="2.55546"
         id="feGaussianBlur2417" />
    </filter>
  </defs>
  <metadata
     id="metadata5">
    <rdf:RDF>
      <cc:Work
         rdf:about="">
        <dc:format>image/svg+xml</dc:format>
        <dc:type
           rdf:resource="http://purl.org/dc/dcmitype/StillImage" />
        <dc:title></dc:title>
      </cc:Work>
    </rdf:RDF>
  </metadata>
  <g
     transform="translate(0,-257)"
     id="g2442">
    <path
       style="display:inline;opacity:1;fill:#03e3ff;fill-opacity:1;stroke:#ffffff;stroke-width:0.73710442;stroke-miterlimit:4;stroke-dasharray:none;stroke-dashoffset:0;stroke-opacity:1;filter:url(#filter2189)"
       id="path1007-9-9"
       d="m 126.93519,276.19818 a 3.4825988,3.4825988 0 0 1 -3.2581,3.47536 3.4825988,3.4825988 0 0 1 -3.67815,-3.0273 3.4825988,3.4825988 0 0 1 2.78389,-3.86565 3.4825988,3.4825988 0 0 1 4.03707,2.52892 l -3.36731,0.88867 z" />
    <ellipse
       style="opacity:1;fill:none;fill-opacity:1;stroke:#ffffff;stroke-width:0.2;stroke-miterlimit:4;stroke-dasharray:none;stroke-dashoffset:0;stroke-opacity:1"
       id="path984-1"
       ry="7.1494594"
       rx="2.5390606"
       cy="276.19809"
       cx="123.4525" />
    <ellipse
       style="display:inline;opacity:1;fill:none;fill-opacity:1;stroke:#ffffff;stroke-width:0.2;stroke-miterlimit:4;stroke-dasharray:none;stroke-dashoffset:0;stroke-opacity:1"
       id="path984-3-9"
       ry="7.1494598"
       rx="2.5390606"
       cy="-245.01204"
       cx="177.46831"
       transform="rotate(120)" />
    <ellipse
       style="display:inline;opacity:1;fill:none;fill-opacity:1;stroke:#ffffff;stroke-width:0.2;stroke-miterlimit:4;stroke-dasharray:none;stroke-dashoffset:0;stroke-opacity:1"
       id="path984-7-0"
       ry="7.1494598"
       rx="2.5390606"
       cy="31.226955"
       cx="300.94446"
       transform="rotate(60)" />
    <path
       style="opacity:1;fill:#ffffff;fill-opacity:1;stroke:#ffffff;stroke-width:0.2;stroke-miterlimit:4;stroke-dasharray:none;stroke-dashoffset:0;stroke-opacity:1"
       id="path1007-9"
       d="m 124.39746,276.19812 a 0.94494045,0.94494045 0 0 1 -0.88402,0.94298 0.94494045,0.94494045 0 0 1 -0.998,-0.82141 0.94494045,0.94494045 0 0 1 0.75535,-1.04887 0.94494045,0.94494045 0 0 1 1.09539,0.68617 l -0.91366,0.24113 z" />
    <path
       style="opacity:1;fill:#ffffff;fill-opacity:1;stroke:#ffffff;stroke-width:0.2;stroke-miterlimit:4;stroke-dasharray:none;stroke-dashoffset:0;stroke-opacity:1"
       id="path1009-88"
       d="m 124.65858,282.42883 a 0.25056517,0.25056517 0 0 1 -0.23442,0.25005 0.25056517,0.25056517 0 0 1 -0.26463,-0.21781 0.25056517,0.25056517 0 0 1 0.20029,-0.27812 0.25056517,0.25056517 0 0 1 0.29046,0.18194 l -0.24227,0.0639 z" />
    <path
       style="display:inline;opacity:1;fill:#ffffff;fill-opacity:1;stroke:#ffffff;stroke-width:0.2;stroke-miterlimit:4;stroke-dasharray:none;stroke-dashoffset:0;stroke-opacity:1"
       id="path1009-8-5"
       d="m 127.10715,275.49649 a 0.25056517,0.25056517 0 0 1 -0.23442,0.25004 0.25056517,0.25056517 0 0 1 -0.26463,-0.2178 0.25056517,0.25056517 0 0 1 0.20029,-0.27813 0.25056517,0.25056517 0 0 1 0.29046,0.18195 l -0.24227,0.0639 z" />
  </g>
  <path
     d="m 120.15814,15.15564 a 0.25056517,0.25056517 0 0 1 -0.23442,0.25004 0.25056517,0.25056517 0 0 1 -0.26463,-0.2178 0.25056517,0.25056517 0 0 1 0.20029,-0.27813 0.25056517,0.25056517 0 0 1 0.29046,0.18195 l -0.24227,0.0639 z"
     id="path1009-7-8"
     style="display:inline;opacity:1;fill:#ffffff;fill-opacity:1;stroke:#ffffff;stroke-width:0.2;stroke-miterlimit:4;stroke-dasharray:none;stroke-dashoffset:0;stroke-opacity:1" />
  <rect
     y="6.5817261"
     x="26.495491"
     height="6.2366071"
     width="78.997025"
     id="rect840"
     style="opacity:1;fill:none;fill-opacity:0.32000002;stroke:#ffffff;stroke-width:0.5;stroke-miterlimit:4;stroke-dasharray:none;stroke-opacity:1" />
  <path
     id="rect838"
     d="m 20.164542,2.99114 v 11.71918 a 5.1026787,5.1026787 0 0 1 0.05633,-0.002 5.1026787,5.1026787 0 0 1 5.103048,5.10253 5.1026787,5.1026787 0 0 1 -5.103048,5.10305 5.1026787,5.1026787 0 0 1 -0.05633,-0.003 V 37.00887 H 111.82355 V 24.52332 a 5.1026787,5.1026787 0 0 1 -4.85707,-5.09012 5.1026787,5.1026787 0 0 1 4.85707,-5.09427 V 2.99135 Z"
     style="opacity:1;fill:none;fill-opacity:0.32000002;stroke:#ffffff;stroke-width:0.5;stroke-miterlimit:4;stroke-dasharray:none;stroke-opacity:1" />
  <rect
     y="26.897949"
     x="26.495491"
     height="6.2366071"
     width="78.997025"
     id="rect840-9"
     style="display:inline;opacity:1;fill:none;fill-opacity:0.32000002;stroke:#ffffff;stroke-width:0.5;stroke-miterlimit:4;stroke-dasharray:none;stroke-opacity:1" />
  <path
     id="path948"
     d="M 28.668855,30.29973 103.31916,29.73277"
     style="fill:none;fill-rule:evenodd;stroke:#03e3ff;stroke-width:0.5;stroke-linecap:butt;stroke-linejoin:miter;stroke-miterlimit:4;stroke-dasharray:0.5, 1.5;stroke-dashoffset:0;stroke-opacity:1" />
  <path
     id="path948-9"
     d="M 28.668854,9.98351 103.31916,9.41655"
     style="display:inline;fill:none;fill-rule:evenodd;stroke:#03e3ff;stroke-width:0.5;stroke-linecap:butt;stroke-linejoin:miter;stroke-miterlimit:4;stroke-dasharray:0.50000001, 1.50000002;stroke-dashoffset:0;stroke-opacity:1" />
  <g
     id="text859-3"
     style="font-style:normal;font-variant:normal;font-weight:normal;font-stretch:normal;font-size:7.05555534px;line-height:7.37269545px;font-family:sans-serif;-inkscape-font-specification:'sans-serif, Normal';font-variant-ligatures:normal;font-variant-caps:normal;font-variant-numeric:normal;font-feature-settings:normal;text-align:start;letter-spacing:0px;word-spacing:0px;writing-mode:lr-tb;text-anchor:start;display:inline;fill:#03e2ff;fill-opacity:1;stroke:none;stroke-width:0.29490781px;stroke-linecap:butt;stroke-linejoin:miter;stroke-opacity:1;filter:url(#filter2415)"
     transform="matrix(0.9321755,0,0,1.0727594,-2.0119131,-257)"
     aria-label="Compra tu entrada">
    <path
       id="path1711"
       style=""
       d="m 44.025057,255.22962 v 0.7338 q -0.3514,-0.32728 -0.751031,-0.4892 -0.396186,-0.16192 -0.844048,-0.16192 -0.881945,0 -1.350478,0.54088 -0.468533,0.53743 -0.468533,1.55718 0,1.01631 0.468533,1.55719 0.468533,0.53743 1.350478,0.53743 0.447862,0 0.844048,-0.16192 0.399631,-0.16192 0.751031,-0.4892 v 0.72691 q -0.36518,0.24805 -0.775147,0.37207 -0.406521,0.12403 -0.861273,0.12403 -1.167888,0 -1.839681,-0.71314 -0.671794,-0.71658 -0.671794,-1.95337 0,-1.24023 0.671794,-1.95337 0.671793,-0.71658 1.839681,-0.71658 0.461642,0 0.868164,0.12403 0.409966,0.12058 0.768256,0.36518 z" />
    <path
       id="path1713"
       style=""
       d="m 46.574428,256.56287 q -0.509874,0 -0.806153,0.39963 -0.296278,0.39619 -0.296278,1.08865 0,0.69247 0.292833,1.0921 0.296278,0.39618 0.809598,0.39618 0.506429,0 0.802707,-0.39963 0.296278,-0.39963 0.296278,-1.08865 0,-0.68557 -0.296278,-1.0852 -0.296278,-0.40308 -0.802707,-0.40308 z m 0,-0.53744 q 0.826823,0 1.298801,0.53744 0.471978,0.53743 0.471978,1.48828 0,0.9474 -0.471978,1.48828 -0.471978,0.53744 -1.298801,0.53744 -0.830268,0 -1.302246,-0.53744 -0.468533,-0.54088 -0.468533,-1.48828 0,-0.95085 0.468533,-1.48828 0.471978,-0.53744 1.302246,-0.53744 z" />
    <path
       id="path1715"
       style=""
       d="m 52.396639,256.85915 q 0.237712,-0.42719 0.568441,-0.63045 0.330729,-0.20327 0.778591,-0.20327 0.602892,0 0.930176,0.42375 0.327284,0.4203 0.327284,1.19889 v 2.32889 h -0.637342 v -2.30821 q 0,-0.55467 -0.196371,-0.82338 -0.19637,-0.26872 -0.599446,-0.26872 -0.492649,0 -0.778592,0.32728 -0.285943,0.32729 -0.285943,0.89228 v 2.18075 h -0.637343 v -2.30821 q 0,-0.55811 -0.19637,-0.82338 -0.19637,-0.26872 -0.606337,-0.26872 -0.485758,0 -0.771701,0.33073 -0.285943,0.32728 -0.285943,0.88883 v 2.18075 H 49.3684 v -3.85851 h 0.637343 v 0.59945 q 0.217041,-0.35485 0.520209,-0.52366 0.303169,-0.16881 0.720025,-0.16881 0.420302,0 0.713135,0.2136 0.296278,0.2136 0.437527,0.62012 z" />
    <path
       id="path1717"
       style=""
       d="m 56.882153,259.39818 v 2.04639 h -0.637342 v -5.32612 h 0.637342 v 0.58567 q 0.199816,-0.34451 0.502984,-0.50988 0.306614,-0.16881 0.730361,-0.16881 0.702799,0 1.140326,0.55811 0.440972,0.55811 0.440972,1.46761 0,0.90951 -0.440972,1.46761 -0.437527,0.55811 -1.140326,0.55811 -0.423747,0 -0.730361,-0.16537 -0.303168,-0.16881 -0.502984,-0.51332 z m 2.15663,-1.34703 q 0,-0.69935 -0.289388,-1.09554 -0.285943,-0.39963 -0.788927,-0.39963 -0.502984,0 -0.792372,0.39963 -0.285943,0.39619 -0.285943,1.09554 0,0.69936 0.285943,1.09899 0.289388,0.39618 0.792372,0.39618 0.502984,0 0.788927,-0.39618 0.289388,-0.39963 0.289388,-1.09899 z" />
    <path
       id="path1719"
       style=""
       d="m 62.983418,256.71101 q -0.106798,-0.062 -0.234267,-0.0896 -0.124023,-0.031 -0.275607,-0.031 -0.537435,0 -0.826823,0.3514 -0.285943,0.34795 -0.285943,1.00252 v 2.03261 h -0.637343 v -3.85851 h 0.637343 v 0.59945 q 0.199815,-0.3514 0.520209,-0.52021 0.320394,-0.17226 0.778592,-0.17226 0.06546,0 0.144694,0.0103 0.07924,0.007 0.1757,0.0241 z" />
    <path
       id="path1721"
       style=""
       d="m 65.408764,258.03737 q -0.768256,0 -1.064535,0.1757 -0.296278,0.1757 -0.296278,0.59945 0,0.33762 0.220486,0.53743 0.223931,0.19637 0.606337,0.19637 0.5271,0 0.844048,-0.37207 0.320394,-0.37551 0.320394,-0.99563 v -0.14125 z m 1.26435,-0.26183 v 2.20142 h -0.633898 v -0.58567 q -0.217041,0.3514 -0.54088,0.52021 -0.323839,0.16537 -0.792372,0.16537 -0.592556,0 -0.943956,-0.33073 -0.347954,-0.33418 -0.347954,-0.89228 0,-0.65112 0.434082,-0.98185 0.437527,-0.33073 1.302246,-0.33073 h 0.888834 v -0.062 q 0,-0.43753 -0.289388,-0.67524 -0.285943,-0.24116 -0.806152,-0.24116 -0.330729,0 -0.644233,0.0792 -0.313504,0.0792 -0.602892,0.23771 v -0.58567 q 0.347955,-0.13436 0.675239,-0.19981 0.327284,-0.0689 0.637343,-0.0689 0.837158,0 1.250569,0.43409 0.413412,0.43408 0.413412,1.31602 z" />
    <path
       id="path1723"
       style=""
       d="m 70.85546,255.02291 v 1.09554 h 1.305691 v 0.49265 H 70.85546 v 2.09462 q 0,0.47198 0.127468,0.60634 0.130914,0.13435 0.5271,0.13435 h 0.651123 v 0.53055 h -0.651123 q -0.733805,0 -1.012858,-0.27216 -0.279053,-0.27561 -0.279053,-0.99908 v -2.09462 h -0.465088 v -0.49265 h 0.465088 v -1.09554 z" />
    <path
       id="path1725"
       style=""
       d="m 72.932851,258.45423 v -2.33578 h 0.633898 v 2.31166 q 0,0.54777 0.213596,0.82338 0.213596,0.27216 0.640787,0.27216 0.51332,0 0.809598,-0.32728 0.299723,-0.32729 0.299723,-0.89228 v -2.18764 h 0.633898 v 3.85851 h -0.633898 v -0.59256 q -0.230821,0.3514 -0.537435,0.52366 -0.303168,0.16881 -0.706244,0.16881 -0.664904,0 -1.009413,-0.41341 -0.34451,-0.41342 -0.34451,-1.20923 z m 1.595079,-2.4288 z" />
    <path
       id="path1727"
       style=""
       d="m 83.023536,257.88923 v 0.31006 h -2.914551 q 0.04134,0.65457 0.392741,0.99908 0.354845,0.34106 0.985298,0.34106 0.36518,0 0.706244,-0.0896 0.34451,-0.0896 0.682129,-0.26872 v 0.59945 q -0.341064,0.14469 -0.699354,0.22048 -0.35829,0.0758 -0.726915,0.0758 -0.923286,0 -1.464166,-0.53744 -0.537435,-0.53743 -0.537435,-1.45383 0,-0.9474 0.509874,-1.50206 0.513319,-0.55811 1.381483,-0.55811 0.778592,0 1.2299,0.50299 0.454752,0.49954 0.454752,1.36081 z m -0.633897,-0.18603 q -0.0069,-0.52021 -0.292834,-0.83027 -0.282497,-0.31006 -0.75103,-0.31006 -0.530545,0 -0.850939,0.29972 -0.316949,0.29973 -0.36518,0.84405 z" />
    <path
       id="path1729"
       style=""
       d="m 87.271339,257.64807 v 2.32889 h -0.633898 v -2.30821 q 0,-0.54777 -0.213596,-0.81994 -0.213596,-0.27216 -0.640787,-0.27216 -0.51332,0 -0.809598,0.32728 -0.296278,0.32729 -0.296278,0.89228 v 2.18075 h -0.637343 v -3.85851 h 0.637343 v 0.59945 q 0.227376,-0.34796 0.53399,-0.52021 0.310058,-0.17226 0.713135,-0.17226 0.664903,0 1.005967,0.41342 0.341065,0.40996 0.341065,1.20922 z" />
    <path
       id="path1731"
       style=""
       d="m 89.169589,255.02291 v 1.09554 h 1.305691 v 0.49265 h -1.305691 v 2.09462 q 0,0.47198 0.127468,0.60634 0.130914,0.13435 0.5271,0.13435 h 0.651123 v 0.53055 h -0.651123 q -0.733806,0 -1.012858,-0.27216 -0.279053,-0.27561 -0.279053,-0.99908 v -2.09462 h -0.465088 v -0.49265 h 0.465088 v -1.09554 z" />
    <path
       id="path1733"
       style=""
       d="m 93.548304,256.71101 q -0.106798,-0.062 -0.234267,-0.0896 -0.124023,-0.031 -0.275607,-0.031 -0.537435,0 -0.826823,0.3514 -0.285943,0.34795 -0.285943,1.00252 v 2.03261 h -0.637343 v -3.85851 h 0.637343 v 0.59945 q 0.199815,-0.3514 0.520209,-0.52021 0.320394,-0.17226 0.778592,-0.17226 0.06546,0 0.144694,0.0103 0.07924,0.007 0.1757,0.0241 z" />
    <path
       id="path1735"
       style=""
       d="m 95.973652,258.03737 q -0.768256,0 -1.064535,0.1757 -0.296278,0.1757 -0.296278,0.59945 0,0.33762 0.220486,0.53743 0.223931,0.19637 0.606337,0.19637 0.5271,0 0.844048,-0.37207 0.320394,-0.37551 0.320394,-0.99563 v -0.14125 z m 1.26435,-0.26183 v 2.20142 h -0.633898 v -0.58567 q -0.217041,0.3514 -0.54088,0.52021 -0.323839,0.16537 -0.792372,0.16537 -0.592556,0 -0.943956,-0.33073 -0.347954,-0.33418 -0.347954,-0.89228 0,-0.65112 0.434082,-0.98185 0.437527,-0.33073 1.302246,-0.33073 h 0.888834 v -0.062 q 0,-0.43753 -0.289388,-0.67524 -0.285943,-0.24116 -0.806152,-0.24116 -0.330729,0 -0.644233,0.0792 -0.313504,0.0792 -0.602892,0.23771 v -0.58567 q 0.347955,-0.13436 0.675239,-0.19981 0.327284,-0.0689 0.637343,-0.0689 0.837158,0 1.250569,0.43409 0.413412,0.43408 0.413412,1.31602 z" />
    <path
       id="path1737"
       style=""
       d="m 101.08617,256.70412 v -2.08773 h 0.6339 v 5.36057 h -0.6339 v -0.57878 q -0.19981,0.34451 -0.50643,0.51332 -0.30317,0.16537 -0.730358,0.16537 -0.699354,0 -1.140326,-0.55811 -0.437528,-0.5581 -0.437528,-1.46761 0,-0.9095 0.437528,-1.46761 0.440972,-0.55811 1.140326,-0.55811 0.427188,0 0.730358,0.16881 0.30662,0.16537 0.50643,0.50988 z m -2.160073,1.34703 q 0,0.69936 0.285942,1.09899 0.289388,0.39618 0.792371,0.39618 0.50299,0 0.79237,-0.39618 0.28939,-0.39963 0.28939,-1.09899 0,-0.69935 -0.28939,-1.09554 -0.28938,-0.39963 -0.79237,-0.39963 -0.502983,0 -0.792371,0.39963 -0.285942,0.39619 -0.285942,1.09554 z" />
    <path
       id="path1739"
       style=""
       d="m 104.77932,258.03737 q -0.76826,0 -1.06454,0.1757 -0.29628,0.1757 -0.29628,0.59945 0,0.33762 0.22049,0.53743 0.22393,0.19637 0.60634,0.19637 0.5271,0 0.84404,-0.37207 0.3204,-0.37551 0.3204,-0.99563 v -0.14125 z m 1.26435,-0.26183 v 2.20142 h -0.6339 v -0.58567 q -0.21704,0.3514 -0.54088,0.52021 -0.32384,0.16537 -0.79237,0.16537 -0.59256,0 -0.94396,-0.33073 -0.34795,-0.33418 -0.34795,-0.89228 0,-0.65112 0.43408,-0.98185 0.43752,-0.33073 1.30224,-0.33073 h 0.88884 v -0.062 q 0,-0.43753 -0.28939,-0.67524 -0.28594,-0.24116 -0.80615,-0.24116 -0.33073,0 -0.64423,0.0792 -0.31351,0.0792 -0.6029,0.23771 v -0.58567 q 0.34796,-0.13436 0.67524,-0.19981 0.32729,-0.0689 0.63734,-0.0689 0.83716,0 1.25057,0.43409 0.41342,0.43408 0.41342,1.31602 z" />
  </g>
  <g
     id="text859"
     style="font-style:normal;font-weight:normal;font-size:10.58333302px;line-height:6.61458302px;font-family:sans-serif;letter-spacing:0px;word-spacing:0px;fill:#000000;fill-opacity:1;stroke:none;stroke-width:0.26458332px;stroke-linecap:butt;stroke-linejoin:miter;stroke-opacity:1"
     aria-label="Compra tu entrada">
    <path
       id="path1742"
       style="font-style:normal;font-variant:normal;font-weight:normal;font-stretch:normal;font-size:6.3499999px;font-family:sans-serif;-inkscape-font-specification:'sans-serif, Normal';font-variant-ligatures:normal;font-variant-caps:normal;font-variant-numeric:normal;font-feature-settings:normal;text-align:start;writing-mode:lr-tb;text-anchor:start;fill:#f9f9f9;fill-opacity:1;stroke-width:0.26458332px"
       d="m 39.95818,17.239172 v 0.660425 q -0.31626,-0.294555 -0.675928,-0.440283 -0.356567,-0.145728 -0.759643,-0.145728 -0.79375,0 -1.21543,0.486792 -0.421679,0.483692 -0.421679,1.401465 0,0.914673 0.421679,1.401465 0.42168,0.483692 1.21543,0.483692 0.403076,0 0.759643,-0.145728 0.359668,-0.145728 0.675928,-0.440283 v 0.654223 q -0.328662,0.223243 -0.697632,0.334864 -0.365869,0.111621 -0.775146,0.111621 -1.051099,0 -1.655713,-0.641822 -0.604614,-0.644921 -0.604614,-1.758032 0,-1.116211 0.604614,-1.758032 0.604614,-0.644922 1.655713,-0.644922 0.415478,0 0.781348,0.111621 0.368969,0.108521 0.69143,0.328662 z" />
    <path
       id="path1744"
       style="font-style:normal;font-variant:normal;font-weight:normal;font-stretch:normal;font-size:6.3499999px;font-family:sans-serif;-inkscape-font-specification:'sans-serif, Normal';font-variant-ligatures:normal;font-variant-caps:normal;font-variant-numeric:normal;font-feature-settings:normal;text-align:start;writing-mode:lr-tb;text-anchor:start;fill:#f9f9f9;fill-opacity:1;stroke-width:0.26458332px"
       d="m 42.252614,18.439099 q -0.458887,0 -0.725537,0.359668 -0.266651,0.356568 -0.266651,0.979785 0,0.623218 0.26355,0.982886 0.266651,0.356567 0.728638,0.356567 0.455786,0 0.722436,-0.359668 0.266651,-0.359668 0.266651,-0.979785 0,-0.617016 -0.266651,-0.976684 -0.26665,-0.362769 -0.722436,-0.362769 z m 0,-0.483691 q 0.744141,0 1.168921,0.483691 0.42478,0.483692 0.42478,1.339453 0,0.852661 -0.42478,1.339453 -0.42478,0.483692 -1.168921,0.483692 -0.747241,0 -1.172022,-0.483692 -0.421679,-0.486792 -0.421679,-1.339453 0,-0.855761 0.421679,-1.339453 0.424781,-0.483691 1.172022,-0.483691 z" />
    <path
       id="path1746"
       style="font-style:normal;font-variant:normal;font-weight:normal;font-stretch:normal;font-size:6.3499999px;font-family:sans-serif;-inkscape-font-specification:'sans-serif, Normal';font-variant-ligatures:normal;font-variant-caps:normal;font-variant-numeric:normal;font-feature-settings:normal;text-align:start;writing-mode:lr-tb;text-anchor:start;fill:#f9f9f9;fill-opacity:1;stroke-width:0.26458332px"
       d="m 47.492604,18.70575 q 0.213941,-0.384473 0.511597,-0.567408 0.297656,-0.182934 0.700732,-0.182934 0.542603,0 0.837158,0.381372 0.294556,0.378271 0.294556,1.079004 v 2.095996 h -0.573608 v -2.077393 q 0,-0.499194 -0.176734,-0.74104 -0.176733,-0.241845 -0.539502,-0.241845 -0.443383,0 -0.700732,0.294555 -0.257349,0.294556 -0.257349,0.803052 v 1.962671 h -0.573608 v -2.077393 q 0,-0.502295 -0.176733,-0.74104 -0.176734,-0.241845 -0.545704,-0.241845 -0.437182,0 -0.694531,0.297656 -0.257348,0.294555 -0.257348,0.799951 v 1.962671 h -0.573609 v -3.472656 h 0.573609 v 0.539502 q 0.195337,-0.319361 0.468188,-0.47129 0.272852,-0.151928 0.648023,-0.151928 0.378271,0 0.641821,0.192236 0.26665,0.192236 0.393774,0.558106 z" />
    <path
       id="path1748"
       style="font-style:normal;font-variant:normal;font-weight:normal;font-stretch:normal;font-size:6.3499999px;font-family:sans-serif;-inkscape-font-specification:'sans-serif, Normal';font-variant-ligatures:normal;font-variant-caps:normal;font-variant-numeric:normal;font-feature-settings:normal;text-align:start;writing-mode:lr-tb;text-anchor:start;fill:#f9f9f9;fill-opacity:1;stroke-width:0.26458332px"
       d="m 51.529567,20.990881 v 1.841748 h -0.573608 v -4.793505 h 0.573608 v 0.527099 q 0.179834,-0.310058 0.452685,-0.458887 0.275953,-0.151928 0.657325,-0.151928 0.632519,0 1.026294,0.502295 0.396875,0.502295 0.396875,1.320849 0,0.818555 -0.396875,1.32085 -0.393775,0.502295 -1.026294,0.502295 -0.381372,0 -0.657325,-0.148828 -0.272851,-0.151929 -0.452685,-0.461988 z m 1.940967,-1.212329 q 0,-0.629419 -0.26045,-0.985986 -0.257348,-0.359668 -0.710034,-0.359668 -0.452685,0 -0.713134,0.359668 -0.257349,0.356567 -0.257349,0.985986 0,0.629419 0.257349,0.989087 0.260449,0.356568 0.713134,0.356568 0.452686,0 0.710034,-0.356568 0.26045,-0.359668 0.26045,-0.989087 z" />
    <path
       id="path1750"
       style="font-style:normal;font-variant:normal;font-weight:normal;font-stretch:normal;font-size:6.3499999px;font-family:sans-serif;-inkscape-font-specification:'sans-serif, Normal';font-variant-ligatures:normal;font-variant-caps:normal;font-variant-numeric:normal;font-feature-settings:normal;text-align:start;writing-mode:lr-tb;text-anchor:start;fill:#f9f9f9;fill-opacity:1;stroke-width:0.26458332px"
       d="m 57.020705,18.572424 q -0.09612,-0.05581 -0.21084,-0.08062 -0.111621,-0.02791 -0.248047,-0.02791 -0.483691,0 -0.744141,0.31626 -0.257348,0.313159 -0.257348,0.90227 V 21.51178 H 54.98672 v -3.472656 h 0.573609 v 0.539502 q 0.179834,-0.31626 0.468188,-0.468189 0.288355,-0.155029 0.700733,-0.155029 0.05891,0 0.130224,0.0093 0.07131,0.0062 0.15813,0.0217 z" />
    <path
       id="path1752"
       style="font-style:normal;font-variant:normal;font-weight:normal;font-stretch:normal;font-size:6.3499999px;font-family:sans-serif;-inkscape-font-specification:'sans-serif, Normal';font-variant-ligatures:normal;font-variant-caps:normal;font-variant-numeric:normal;font-feature-settings:normal;text-align:start;writing-mode:lr-tb;text-anchor:start;fill:#f9f9f9;fill-opacity:1;stroke-width:0.26458332px"
       d="m 59.203516,19.76615 q -0.69143,0 -0.958081,0.15813 -0.26665,0.15813 -0.26665,0.539502 0,0.303857 0.198437,0.483691 0.201539,0.176734 0.545704,0.176734 0.474389,0 0.759643,-0.334864 0.288355,-0.337964 0.288355,-0.896069 V 19.76615 Z m 1.137915,-0.235645 v 1.981275 h -0.570507 v -0.5271 q -0.195337,0.31626 -0.486792,0.468189 -0.291455,0.148828 -0.713135,0.148828 -0.533301,0 -0.849561,-0.297656 -0.313159,-0.300757 -0.313159,-0.803052 0,-0.586011 0.390674,-0.883667 0.393774,-0.297656 1.172021,-0.297656 h 0.799952 v -0.05581 q 0,-0.393774 -0.26045,-0.607715 -0.257348,-0.217041 -0.725537,-0.217041 -0.297656,0 -0.579809,0.07131 -0.282154,0.07131 -0.542603,0.21394 v -0.5271 q 0.313159,-0.120922 0.607715,-0.179834 0.294556,-0.06201 0.573608,-0.06201 0.753443,0 1.125513,0.390674 0.37207,0.390673 0.37207,1.184423 z" />
    <path
       id="path1754"
       style="font-style:normal;font-variant:normal;font-weight:normal;font-stretch:normal;font-size:6.3499999px;font-family:sans-serif;-inkscape-font-specification:'sans-serif, Normal';font-variant-ligatures:normal;font-variant-caps:normal;font-variant-numeric:normal;font-feature-settings:normal;text-align:start;writing-mode:lr-tb;text-anchor:start;fill:#f9f9f9;fill-opacity:1;stroke-width:0.26458332px"
       d="m 64.105543,17.053137 v 0.985987 h 1.175122 v 0.443383 h -1.175122 v 1.885157 q 0,0.42478 0.114722,0.545703 0.117822,0.120923 0.474389,0.120923 h 0.586011 v 0.47749 h -0.586011 q -0.660424,0 -0.911572,-0.244947 -0.251147,-0.248046 -0.251147,-0.899169 v -1.885157 h -0.418579 v -0.443383 h 0.418579 v -0.985987 z" />
    <path
       id="path1756"
       style="font-style:normal;font-variant:normal;font-weight:normal;font-stretch:normal;font-size:6.3499999px;font-family:sans-serif;-inkscape-font-specification:'sans-serif, Normal';font-variant-ligatures:normal;font-variant-caps:normal;font-variant-numeric:normal;font-feature-settings:normal;text-align:start;writing-mode:lr-tb;text-anchor:start;fill:#f9f9f9;fill-opacity:1;stroke-width:0.26458332px"
       d="m 65.975196,20.141321 v -2.102197 h 0.570507 v 2.080493 q 0,0.492993 0.192237,0.74104 0.192236,0.244946 0.576709,0.244946 0.461987,0 0.728637,-0.294556 0.269751,-0.294555 0.269751,-0.803051 v -1.968872 h 0.570508 v 3.472656 h -0.570508 v -0.533301 q -0.207739,0.31626 -0.483691,0.471289 -0.272852,0.151929 -0.63562,0.151929 -0.598413,0 -0.908472,-0.372071 -0.310058,-0.37207 -0.310058,-1.088305 z m 1.435571,-2.185913 z" />
    <path
       id="path1758"
       style="font-style:normal;font-variant:normal;font-weight:normal;font-stretch:normal;font-size:6.3499999px;font-family:sans-serif;-inkscape-font-specification:'sans-serif, Normal';font-variant-ligatures:normal;font-variant-caps:normal;font-variant-numeric:normal;font-feature-settings:normal;text-align:start;writing-mode:lr-tb;text-anchor:start;fill:#f9f9f9;fill-opacity:1;stroke-width:0.26458332px"
       d="m 75.056811,19.632825 v 0.279052 h -2.623095 q 0.03721,0.589112 0.353467,0.89917 0.31936,0.306958 0.886767,0.306958 0.328662,0 0.63562,-0.08062 0.310059,-0.08061 0.613916,-0.241846 v 0.539502 q -0.306958,0.130225 -0.629419,0.198438 -0.322461,0.06821 -0.654223,0.06821 -0.830957,0 -1.317749,-0.483692 -0.483692,-0.483691 -0.483692,-1.308447 0,-0.852661 0.458887,-1.351855 0.461987,-0.502295 1.243335,-0.502295 0.700732,0 1.106909,0.452685 0.409277,0.449585 0.409277,1.224732 z m -0.570507,-0.167432 q -0.0062,-0.468188 -0.26355,-0.747241 -0.254248,-0.279053 -0.675928,-0.279053 -0.47749,0 -0.765845,0.269751 -0.285253,0.269751 -0.328662,0.759644 z" />
    <path
       id="path1760"
       style="font-style:normal;font-variant:normal;font-weight:normal;font-stretch:normal;font-size:6.3499999px;font-family:sans-serif;-inkscape-font-specification:'sans-serif, Normal';font-variant-ligatures:normal;font-variant-caps:normal;font-variant-numeric:normal;font-feature-settings:normal;text-align:start;writing-mode:lr-tb;text-anchor:start;fill:#f9f9f9;fill-opacity:1;stroke-width:0.26458332px"
       d="m 78.879834,19.415784 v 2.095996 h -0.570508 v -2.077393 q 0,-0.492993 -0.192236,-0.737939 -0.192237,-0.244946 -0.576709,-0.244946 -0.461987,0 -0.728638,0.294555 -0.26665,0.294556 -0.26665,0.803052 v 1.962671 h -0.573609 v -3.472656 h 0.573609 v 0.539502 q 0.204638,-0.31316 0.480591,-0.468189 0.279052,-0.155029 0.641821,-0.155029 0.598413,0 0.905371,0.37207 0.306958,0.36897 0.306958,1.088306 z" />
    <path
       id="path1762"
       style="font-style:normal;font-variant:normal;font-weight:normal;font-stretch:normal;font-size:6.3499999px;font-family:sans-serif;-inkscape-font-specification:'sans-serif, Normal';font-variant-ligatures:normal;font-variant-caps:normal;font-variant-numeric:normal;font-feature-settings:normal;text-align:start;writing-mode:lr-tb;text-anchor:start;fill:#f9f9f9;fill-opacity:1;stroke-width:0.26458332px"
       d="m 80.588257,17.053137 v 0.985987 h 1.175122 v 0.443383 h -1.175122 v 1.885157 q 0,0.42478 0.114721,0.545703 0.117823,0.120923 0.47439,0.120923 h 0.586011 v 0.47749 h -0.586011 q -0.660425,0 -0.911572,-0.244947 -0.251148,-0.248046 -0.251148,-0.899169 v -1.885157 h -0.418579 v -0.443383 h 0.418579 v -0.985987 z" />
    <path
       id="path1764"
       style="font-style:normal;font-variant:normal;font-weight:normal;font-stretch:normal;font-size:6.3499999px;font-family:sans-serif;-inkscape-font-specification:'sans-serif, Normal';font-variant-ligatures:normal;font-variant-caps:normal;font-variant-numeric:normal;font-feature-settings:normal;text-align:start;writing-mode:lr-tb;text-anchor:start;fill:#f9f9f9;fill-opacity:1;stroke-width:0.26458332px"
       d="m 84.529101,18.572424 q -0.09612,-0.05581 -0.21084,-0.08062 -0.111621,-0.02791 -0.248047,-0.02791 -0.483691,0 -0.744141,0.31626 -0.257348,0.313159 -0.257348,0.90227 v 1.829346 h -0.573609 v -3.472656 h 0.573609 v 0.539502 q 0.179834,-0.31626 0.468188,-0.468189 0.288355,-0.155029 0.700733,-0.155029 0.05891,0 0.130224,0.0093 0.07131,0.0062 0.15813,0.0217 z" />
    <path
       id="path1766"
       style="font-style:normal;font-variant:normal;font-weight:normal;font-stretch:normal;font-size:6.3499999px;font-family:sans-serif;-inkscape-font-specification:'sans-serif, Normal';font-variant-ligatures:normal;font-variant-caps:normal;font-variant-numeric:normal;font-feature-settings:normal;text-align:start;writing-mode:lr-tb;text-anchor:start;fill:#f9f9f9;fill-opacity:1;stroke-width:0.26458332px"
       d="m 86.711916,19.76615 q -0.69143,0 -0.958081,0.15813 -0.26665,0.15813 -0.26665,0.539502 0,0.303857 0.198437,0.483691 0.201538,0.176734 0.545704,0.176734 0.474389,0 0.759643,-0.334864 0.288355,-0.337964 0.288355,-0.896069 V 19.76615 Z m 1.137915,-0.235645 v 1.981275 h -0.570507 v -0.5271 q -0.195337,0.31626 -0.486792,0.468189 -0.291456,0.148828 -0.713135,0.148828 -0.533301,0 -0.849561,-0.297656 -0.313159,-0.300757 -0.313159,-0.803052 0,-0.586011 0.390674,-0.883667 0.393774,-0.297656 1.172021,-0.297656 h 0.799952 v -0.05581 q 0,-0.393774 -0.26045,-0.607715 -0.257348,-0.217041 -0.725537,-0.217041 -0.297656,0 -0.579809,0.07131 -0.282154,0.07131 -0.542603,0.21394 v -0.5271 q 0.313159,-0.120922 0.607715,-0.179834 0.294556,-0.06201 0.573608,-0.06201 0.753443,0 1.125513,0.390674 0.37207,0.390673 0.37207,1.184423 z" />
    <path
       id="path1768"
       style="font-style:normal;font-variant:normal;font-weight:normal;font-stretch:normal;font-size:6.3499999px;font-family:sans-serif;-inkscape-font-specification:'sans-serif, Normal';font-variant-ligatures:normal;font-variant-caps:normal;font-variant-numeric:normal;font-feature-settings:normal;text-align:start;writing-mode:lr-tb;text-anchor:start;fill:#f9f9f9;fill-opacity:1;stroke-width:0.26458332px"
       d="m 91.313183,18.566223 v -1.878955 h 0.570508 v 4.824512 h -0.570508 v -0.520899 q -0.179834,0.310059 -0.455786,0.461988 -0.272852,0.148828 -0.657325,0.148828 -0.629418,0 -1.026293,-0.502295 -0.393775,-0.502295 -0.393775,-1.32085 0,-0.818554 0.393775,-1.320849 0.396875,-0.502295 1.026293,-0.502295 0.384473,0 0.657325,0.151928 0.275952,0.148829 0.455786,0.458887 z m -1.944068,1.212329 q 0,0.629419 0.257349,0.989087 0.260449,0.356568 0.713135,0.356568 0.452685,0 0.713135,-0.356568 0.260449,-0.359668 0.260449,-0.989087 0,-0.629419 -0.260449,-0.985986 -0.26045,-0.359668 -0.713135,-0.359668 -0.452686,0 -0.713135,0.359668 -0.257349,0.356567 -0.257349,0.985986 z" />
    <path
       id="path1770"
       style="font-style:normal;font-variant:normal;font-weight:normal;font-stretch:normal;font-size:6.3499999px;font-family:sans-serif;-inkscape-font-specification:'sans-serif, Normal';font-variant-ligatures:normal;font-variant-caps:normal;font-variant-numeric:normal;font-feature-settings:normal;text-align:start;writing-mode:lr-tb;text-anchor:start;fill:#f9f9f9;fill-opacity:1;stroke-width:0.26458332px"
       d="m 94.637011,19.76615 q -0.691431,0 -0.958081,0.15813 -0.266651,0.15813 -0.266651,0.539502 0,0.303857 0.198438,0.483691 0.201538,0.176734 0.545703,0.176734 0.47439,0 0.759644,-0.334864 0.288354,-0.337964 0.288354,-0.896069 V 19.76615 Z m 1.137915,-0.235645 v 1.981275 h -0.570508 v -0.5271 q -0.195337,0.31626 -0.486792,0.468189 -0.291455,0.148828 -0.713135,0.148828 -0.5333,0 -0.84956,-0.297656 -0.313159,-0.300757 -0.313159,-0.803052 0,-0.586011 0.390674,-0.883667 0.393774,-0.297656 1.172021,-0.297656 h 0.799951 v -0.05581 q 0,-0.393774 -0.260449,-0.607715 -0.257349,-0.217041 -0.725537,-0.217041 -0.297656,0 -0.57981,0.07131 -0.282153,0.07131 -0.542602,0.21394 v -0.5271 q 0.313159,-0.120922 0.607715,-0.179834 0.294555,-0.06201 0.573608,-0.06201 0.753442,0 1.125513,0.390674 0.37207,0.390673 0.37207,1.184423 z" />
  </g>
  <path
     d="m 32.481388,21.589643 -1.104928,-0.576058 -1.051543,0.668547 0.205994,-1.228927 -0.960772,-0.79349 1.232441,-0.183847 0.457753,-1.158948 0.555691,1.115311 1.243687,0.07721 -0.889007,0.873148 z"
     id="path910"
     style="display:inline;opacity:1;fill:#03e3ff;fill-opacity:1;stroke:none;stroke-width:0.5;stroke-miterlimit:4;stroke-dasharray:none;stroke-opacity:1" />
  <path
     transform="rotate(27.673361,465.02145,49.58963)"
     d="m 68.955752,225.6773 -1.246073,0.003 -0.620764,1.08044 -0.38832,-1.18402 -1.21939,-0.25651 1.006078,-0.7352 -0.132861,-1.23897 1.01011,0.72965 1.137278,-0.50923 -0.381796,1.18615 z"
     id="path910-0"
     style="display:inline;opacity:1;fill:#03e3ff;fill-opacity:1;stroke:none;stroke-width:0.5;stroke-miterlimit:4;stroke-dasharray:none;stroke-opacity:1;filter:url(#filter1771)" />
  <path
     d="m 101.84002,21.589642 -1.10492,-0.576057 -1.051546,0.668546 0.205994,-1.228927 -0.960772,-0.793489 1.232444,-0.183848 0.45775,-1.158948 0.55569,1.115311 1.24369,0.07721 -0.88901,0.873148 z"
     id="path910-7"
     style="display:inline;opacity:1;fill:#03e3ff;fill-opacity:1;stroke:none;stroke-width:0.5;stroke-miterlimit:4;stroke-dasharray:none;stroke-opacity:1" />
  <path
     transform="rotate(27.673361,500.21032,190.44108)"
     d="m 68.955752,225.6773 -1.246073,0.003 -0.620764,1.08044 -0.38832,-1.18402 -1.21939,-0.25651 1.006078,-0.7352 -0.132861,-1.23897 1.01011,0.72965 1.137278,-0.50923 -0.381796,1.18615 z"
     id="path910-0-1"
     style="display:inline;opacity:1;fill:#03e3ff;fill-opacity:1;stroke:none;stroke-width:0.5;stroke-miterlimit:4;stroke-dasharray:none;stroke-opacity:1;filter:url(#filter1771-3)" />
  <g
     transform="translate(0,-257)"
     id="g2452">
    <path
       style="display:inline;opacity:1;fill:#03e3ff;fill-opacity:1;stroke:#ffffff;stroke-width:0.73710442;stroke-miterlimit:4;stroke-dasharray:none;stroke-dashoffset:0;stroke-opacity:1;filter:url(#filter2189-2)"
       id="path1007-9-9-0"
       d="m 12.03001,276.99988 a 3.4825988,3.4825988 0 0 1 -3.2581015,3.47535 3.4825988,3.4825988 0 0 1 -3.6781529,-3.02729 3.4825988,3.4825988 0 0 1 2.7838943,-3.86565 3.4825988,3.4825988 0 0 1 4.0370671,2.52891 l -3.367306,0.88868 z" />
    <ellipse
       style="opacity:1;fill:none;fill-opacity:1;stroke:#ffffff;stroke-width:0.2;stroke-miterlimit:4;stroke-dasharray:none;stroke-dashoffset:0;stroke-opacity:1"
       id="path984-1-2"
       ry="7.1494594"
       rx="2.5390606"
       cy="276.99979"
       cx="8.5473194" />
    <ellipse
       style="display:inline;opacity:1;fill:none;fill-opacity:1;stroke:#ffffff;stroke-width:0.2;stroke-miterlimit:4;stroke-dasharray:none;stroke-dashoffset:0;stroke-opacity:1"
       id="path984-3-9-7"
       ry="7.1494598"
       rx="2.5390606"
       cy="-145.90208"
       cx="235.61519"
       transform="rotate(120)" />
    <ellipse
       style="display:inline;opacity:1;fill:none;fill-opacity:1;stroke:#ffffff;stroke-width:0.2;stroke-miterlimit:4;stroke-dasharray:none;stroke-dashoffset:0;stroke-opacity:1"
       id="path984-7-0-6"
       ry="7.1494598"
       rx="2.5390606"
       cy="131.13861"
       cx="244.18616"
       transform="rotate(60)" />
    <path
       style="opacity:1;fill:#ffffff;fill-opacity:1;stroke:#ffffff;stroke-width:0.2;stroke-miterlimit:4;stroke-dasharray:none;stroke-dashoffset:0;stroke-opacity:1"
       id="path1007-9-1"
       d="m 9.4922827,276.99982 a 0.94494045,0.94494045 0 0 1 -0.884027,0.94297 0.94494045,0.94494045 0 0 1 -0.9980006,-0.8214 0.94494045,0.94494045 0 0 1 0.7553596,-1.04887 0.94494045,0.94494045 0 0 1 1.0953855,0.68617 l -0.9136579,0.24113 z" />
    <path
       style="opacity:1;fill:#ffffff;fill-opacity:1;stroke:#ffffff;stroke-width:0.2;stroke-miterlimit:4;stroke-dasharray:none;stroke-dashoffset:0;stroke-opacity:1"
       id="path1009-88-3"
       d="m 9.7533976,283.23053 a 0.25056517,0.25056517 0 0 1 -0.2344131,0.25004 0.25056517,0.25056517 0 0 1 -0.2646348,-0.2178 0.25056517,0.25056517 0 0 1 0.2002949,-0.27813 0.25056517,0.25056517 0 0 1 0.2904579,0.18195 l -0.2422701,0.0639 z" />
    <path
       style="display:inline;opacity:1;fill:#ffffff;fill-opacity:1;stroke:#ffffff;stroke-width:0.2;stroke-miterlimit:4;stroke-dasharray:none;stroke-dashoffset:0;stroke-opacity:1"
       id="path1009-8-5-2"
       d="m 12.201968,276.29819 a 0.25056517,0.25056517 0 0 1 -0.234413,0.25004 0.25056517,0.25056517 0 0 1 -0.264635,-0.21781 0.25056517,0.25056517 0 0 1 0.200295,-0.27812 0.25056517,0.25056517 0 0 1 0.290458,0.18195 l -0.24227,0.0639 z" />
    <path
       style="display:inline;opacity:1;fill:#ffffff;fill-opacity:1;stroke:#ffffff;stroke-width:0.2;stroke-miterlimit:4;stroke-dasharray:none;stroke-dashoffset:0;stroke-opacity:1"
       id="path1009-7-8-1"
       d="m 5.2529551,272.95734 a 0.25056517,0.25056517 0 0 1 -0.2344131,0.25004 0.25056517,0.25056517 0 0 1 -0.2646348,-0.21781 0.25056517,0.25056517 0 0 1 0.2002949,-0.27812 0.25056517,0.25056517 0 0 1 0.2904579,0.18195 l -0.2422701,0.0639 z" />
  </g>
</svg>
