<?xml version="1.0" encoding="UTF-8" standalone="no"?>
<svg
   xmlns:dc="http://purl.org/dc/elements/1.1/"
   xmlns:cc="http://creativecommons.org/ns#"
   xmlns:rdf="http://www.w3.org/1999/02/22-rdf-syntax-ns#"
   xmlns:svg="http://www.w3.org/2000/svg"
   xmlns="http://www.w3.org/2000/svg"
   version="1.1"
   overflow="visible"
   width="464"
   height="200"
   viewBox="0 0 371.2 159.99999"
   id="svg2"
   style="overflow:visible;fill-rule:evenodd;stroke-width:0.50099999;stroke-linejoin:bevel">
  <metadata
     id="metadata165">
    <rdf:RDF>
      <cc:Work
         rdf:about="">
        <dc:format>image/svg+xml</dc:format>
        <dc:type
           rdf:resource="http://purl.org/dc/dcmitype/StillImage" />
        <dc:title></dc:title>
      </cc:Work>
    </rdf:RDF>
  </metadata>
  <defs
     id="defs4">
    <marker
       id="DefaultArrow2"
       markerUnits="strokeWidth"
       viewBox="0 0 1 1"
       markerWidth="1"
       markerHeight="1"
       overflow="visible"
       orient="auto"
       style="overflow:visible">
      <!-- REF_ARROW_STRAIGHT (-2) -->
      <g
         transform="scale(0.00925926,0.00925926)"
         id="g7">
        <!-- 1/108 -->
        <path
           d="M -9,54 -9,-54 117,0 Z"
           id="path9" />
      </g>
    </marker>
    <marker
       id="DefaultArrow3"
       markerUnits="strokeWidth"
       viewBox="0 0 1 1"
       markerWidth="1"
       markerHeight="1"
       overflow="visible"
       orient="auto"
       style="overflow:visible">
      <!-- REF_ARROW_ANGLED -->
      <g
         transform="scale(0.00925926,0.00925926)"
         id="g12">
        <path
           d="M -27,54 -9,0 -27,-54 135,0 Z"
           id="path14" />
      </g>
    </marker>
    <marker
       id="DefaultArrow4"
       markerUnits="strokeWidth"
       viewBox="0 0 1 1"
       markerWidth="1"
       markerHeight="1"
       overflow="visible"
       orient="auto"
       style="overflow:visible">
      <!-- REF_ARROW_ROUNDED -->
      <g
         transform="scale(0.00925926,0.00925926)"
         id="g17">
        <path
           d="m -9,0 0,-45 c 0,-6.708 11.808,-11.58 18,-9 l 108,45 c 3.916,1.631 9,4.758 9,9 0,4.242 -5.084,7.369 -9,9 L 9,54 C 2.808,56.58 -9,51.708 -9,45 Z"
           id="path19" />
      </g>
    </marker>
    <marker
       id="DefaultArrow5"
       markerUnits="strokeWidth"
       viewBox="0 0 1 1"
       markerWidth="1"
       markerHeight="1"
       overflow="visible"
       orient="auto"
       style="overflow:visible">
      <!-- REF_ARROW_SPOT -->
      <g
         transform="scale(0.00925926,0.00925926)"
         id="g22">
        <path
           d="M -54,0 C -54,29.807 -29.807,54 0,54 29.807,54 54,29.807 54,0 54,-29.807 29.807,-54 0,-54 -29.807,-54 -54,-29.807 -54,0 Z"
           id="path24" />
      </g>
    </marker>
    <marker
       id="DefaultArrow6"
       markerUnits="strokeWidth"
       viewBox="0 0 1 1"
       markerWidth="1"
       markerHeight="1"
       overflow="visible"
       orient="auto"
       style="overflow:visible">
      <!-- REF_ARROW_DIAMOND -->
      <g
         transform="scale(0.00925926,0.00925926)"
         id="g27">
        <path
           d="M -63,0 0,63 63,0 0,-63 Z"
           id="path29" />
      </g>
    </marker>
    <marker
       id="DefaultArrow7"
       markerUnits="strokeWidth"
       viewBox="0 0 1 1"
       markerWidth="1"
       markerHeight="1"
       overflow="visible"
       orient="auto"
       style="overflow:visible">
      <!-- REF_ARROW_FEATHER -->
      <g
         transform="scale(0.00925926,0.00925926)"
         id="g32">
        <path
           d="m 18,-54 90,0 L 63,0 108,54 18,54 -36,0 Z"
           id="path34" />
      </g>
    </marker>
    <marker
       id="DefaultArrow8"
       markerUnits="strokeWidth"
       viewBox="0 0 1 1"
       markerWidth="1"
       markerHeight="1"
       overflow="visible"
       orient="auto"
       style="overflow:visible">
      <!-- REF_ARROW_FEATHER2 -->
      <g
         transform="scale(0.00925926,0.00925926)"
         id="g37">
        <path
           d="m -36,0 54,-54 36,0 -36,36 9,0 36,-36 36,0 -36,36 9,0 36,-36 36,0 -54,54 54,54 -36,0 -36,-36 -9,0 36,36 -36,0 -36,-36 -9,0 36,36 -36,0 z"
           id="path39" />
      </g>
    </marker>
    <marker
       id="DefaultArrow9"
       markerUnits="strokeWidth"
       viewBox="0 0 1 1"
       markerWidth="1"
       markerHeight="1"
       overflow="visible"
       orient="auto"
       style="overflow:visible">
      <!-- REF_ARROW_HOLLOWDIAMOND -->
      <g
         transform="scale(0.00925926,0.00925926)"
         id="g42">
        <path
           d="M 0,45 -45,0 0,-45 45,0 Z M 0,63 -63,0 0,-63 63,0 Z"
           id="path44" />
      </g>
    </marker>
    <filter
       id="StainedFilter">
      <feBlend
         mode="multiply"
         in2="BackgroundImage"
         in="SourceGraphic"
         result="blend"
         id="feBlend47" />
      <feComposite
         in="blend"
         in2="SourceAlpha"
         operator="in"
         result="comp"
         id="feComposite49" />
    </filter>
    <filter
       id="BleachFilter">
      <feBlend
         mode="screen"
         in2="BackgroundImage"
         in="SourceGraphic"
         result="blend"
         id="feBlend52" />
      <feComposite
         in="blend"
         in2="SourceAlpha"
         operator="in"
         result="comp"
         id="feComposite54" />
    </filter>
    <filter
       id="InvertTransparencyBitmapFilter">
      <feComponentTransfer
         id="feComponentTransfer57">
        <feFuncR
           type="gamma"
           amplitude="1.055"
           exponent=".416666666"
           offset="-0.055"
           id="feFuncR59" />
        <feFuncG
           type="gamma"
           amplitude="1.055"
           exponent=".416666666"
           offset="-0.055"
           id="feFuncG61" />
        <feFuncB
           type="gamma"
           amplitude="1.055"
           exponent=".416666666"
           offset="-0.055"
           id="feFuncB63" />
      </feComponentTransfer>
      <feComponentTransfer
         id="feComponentTransfer65">
        <feFuncR
           type="linear"
           slope="-1"
           intercept="1"
           id="feFuncR67" />
        <feFuncG
           type="linear"
           slope="-1"
           intercept="1"
           id="feFuncG69" />
        <feFuncB
           type="linear"
           slope="-1"
           intercept="1"
           id="feFuncB71" />
        <feFuncA
           type="linear"
           slope="1"
           intercept="0"
           id="feFuncA73" />
      </feComponentTransfer>
      <feComponentTransfer
         id="feComponentTransfer75">
        <feFuncR
           type="gamma"
           amplitude="1"
           exponent="2.4"
           offset="0"
           id="feFuncR77" />
        <feFuncG
           type="gamma"
           amplitude="1"
           exponent="2.4"
           offset="0"
           id="feFuncG79" />
        <feFuncB
           type="gamma"
           amplitude="1"
           exponent="2.4"
           offset="0"
           id="feFuncB81" />
      </feComponentTransfer>
    </filter>
    <linearGradient
       id="LinearGradient"
       gradientUnits="userSpaceOnUse"
       x1="0"
       y1="0"
       x2="673.55902"
       y2="0"
       gradientTransform="matrix(0.75496944,-0.65575997,0.65575997,0.75496944,275.246,1340.66)">
      <stop
         offset="0"
         stop-color="#5a9fd4"
         id="stop84" />
      <stop
         offset="1"
         stop-color="#306998"
         id="stop86" />
    </linearGradient>
    <linearGradient
       id="LinearGradient_1"
       gradientUnits="userSpaceOnUse"
       x1="0"
       y1="0"
       x2="316.62201"
       y2="0"
       gradientTransform="matrix(-0.57351925,0.81919209,-0.81919209,-0.57351925,855.108,531.862)">
      <stop
         offset="0"
         stop-color="#ffd43b"
         id="stop89" />
      <stop
         offset="1"
         stop-color="#ffe873"
         id="stop91" />
    </linearGradient>
    <linearGradient
       id="LinearGradient_2"
       gradientUnits="userSpaceOnUse"
       x1="0"
       y1="0"
       x2="742.276"
       y2="0"
       gradientTransform="matrix(0,-1,1,-1.52588e-4,-0.009,0.017)">
      <stop
         offset="0"
         stop-color="#4c8cbf"
         id="stop94" />
      <stop
         offset="1"
         stop-color="#306898"
         id="stop96" />
    </linearGradient>
    <filter
       style="color-interpolation-filters:sRGB"
       id="filter4345"
       x="-0.021085988"
       width="1.042172"
       y="-0.051970166"
       height="1.1039403">
      <feGaussianBlur
         stdDeviation="3.1182104"
         id="feGaussianBlur4347" />
    </filter>
  </defs>
  <path
     style="fill:#ffffff"
     d="m 8.1200428,151.05176 c -0.2394,-0.62386 -0.109365,-2.11389 0.288975,-3.31113 0.71783,-2.15755 0.824169,-2.18844 12.0022192,-3.48598 15.050551,-1.74703 42.272327,-4.33389 60.556095,-5.75454 63.949088,-4.9689 139.252628,-4.95683 203.370078,0.0326 17.46947,1.35942 53.92151,4.82068 64.53089,6.12745 l 7.43081,0.91527 0.24182,3.345 c 0.22704,3.14047 0.1315,3.31964 -1.56439,2.9302 -4.25393,-0.97694 -36.45818,-4.44024 -58.12405,-6.25076 -76.4789,-6.391 -134.13316,-7.07595 -198.67692,-2.36041 -34.420559,2.51477 -85.175984,7.44411 -88.6129072,8.60602 -0.554042,0.1872 -1.20322,-0.16997 -1.44262,-0.79375 z M 345.73951,138.36275 c -3.55682,-1.30022 -7.03972,-6.46381 -7.03972,-10.4368 0,-6.26426 4.83089,-10.9122 11.3418,-10.9122 11.51707,0 15.48499,14.36148 5.62839,20.37144 -2.38602,1.45484 -7.30122,1.93869 -9.93047,0.97756 z m 9.89518,-3.11656 c 0.9378,-0.61446 2.25662,-2.49566 2.93074,-4.18043 1.64523,-4.11186 0.3635,-8.1936 -3.35972,-10.69909 -4.07853,-2.7446 -8.19621,-2.43275 -11.49989,0.87092 -2.16995,2.16996 -2.65946,3.25688 -2.65946,5.90529 0,5.24458 2.00758,8.01254 7.03975,9.70619 1.63868,0.55152 5.51758,-0.27213 7.54858,-1.60288 z m -9.89518,-7.67282 0,-5.86646 3.75454,0 c 2.06498,0 4.17691,0.42238 4.69315,0.93864 1.36011,1.3601 1.15109,4.34006 -0.36391,5.18791 -1.18317,0.66215 -1.1422,0.93273 0.44724,2.95337 1.17159,1.48946 1.4401,2.32767 0.81254,2.53685 -0.51547,0.17186 -1.79819,-0.78771 -2.85048,-2.13231 -2.53592,-3.24029 -4.92868,-3.28793 -4.92868,-0.0982 0,1.29062 -0.35199,2.34658 -0.78219,2.34658 -0.45194,0 -0.78221,-2.47693 -0.78221,-5.86642 z m 6.8647,-1.31112 c 1.35691,-1.35693 -0.3091,-2.99097 -3.04951,-2.99097 -1.87939,0 -2.25079,0.3227 -2.25079,1.95549 0,1.62026 0.37545,1.95548 2.19014,1.95548 1.20458,0 2.60414,-0.414 3.11016,-0.92 z M 77.446392,121.54579 c 6.05e-4,-0.30373 1.10021,-2.41564 2.443568,-4.69315 7.53332,-12.77178 24.90745,-44.952284 31.69912,-58.713342 l 3.77106,-7.64085 17.11314,0.210013 17.11313,0.210031 4.62069,12.906173 c 5.19543,14.511584 11.04161,30.229224 17.38968,46.752675 l 4.28863,11.16295 -14.86602,-0.21223 -14.86601,-0.21223 -2.19603,-6.64865 c -1.20784,-3.65676 -2.62476,-7.80155 -3.14872,-9.21069 l -0.95266,-2.56203 -11.65447,0.21546 -11.65447,0.21547 -4.1237,8.99521 -4.12365,8.99523 -15.42717,0.39108 c -8.484963,0.21509 -15.426706,0.14268 -15.426118,-0.16104 z M 133.68717,78.568089 c -1.23427,-3.936866 -2.40497,-7.318783 -2.60153,-7.515362 -0.19661,-0.196579 -0.86875,0.824589 -1.49366,2.269252 -0.62494,1.44468 -2.05351,4.660635 -3.17461,7.146589 -1.12107,2.485951 -2.03835,4.685873 -2.03835,4.888686 0,0.202851 2.59928,0.368811 5.77614,0.368811 l 5.77615,0 -2.24414,-7.157976 z m 130.04297,43.316441 -14.34971,-0.21348 0.44781,-4.47969 c 1.40854,-14.08925 2.82468,-41.306522 2.82759,-54.344436 l 0.002,-12.319524 14.86165,0 c 8.17392,0 14.85432,0.263993 14.84537,0.586648 -0.009,0.322655 -0.52644,6.746401 -1.14994,14.275008 -0.62352,7.528605 -1.37651,23.29405 -1.67328,35.034294 -0.2968,11.74029 -0.74725,21.41991 -1.00108,21.51031 -0.25383,0.0904 -6.91887,0.0682 -14.8112,-0.0491 z m 42.12588,-0.95982 c 0.005,-0.6453 0.50492,-6.45308 1.10969,-12.90617 0.60477,-6.45308 1.34561,-17.821237 1.64633,-25.262551 l 0.54676,-13.529693 -11.6285,0.116716 -11.6285,0.116715 0.0391,-2.817588 c 0.0214,-1.549686 0.10951,-5.809491 0.19555,-9.466239 l 0.15651,-6.648633 37.60176,0 37.60172,0 -0.5482,9.190764 c -0.30149,5.054912 -0.66331,9.321842 -0.80405,9.482042 -0.14078,0.160105 -5.46325,0.336183 -11.82782,0.391092 l -11.572,0.09985 -0.50222,5.866429 c -0.83207,9.719167 -1.41102,24.007833 -1.43274,35.360816 l -0.0204,10.72176 -14.47145,0.22893 c -12.44739,0.19695 -14.47006,0.0648 -14.46137,-0.94433 z M 9.6616228,117.20931 c 0.268267,-2.47368 1.0215502,-9.42543 1.6739622,-15.44831 0.652413,-6.022881 1.419522,-20.014357 1.704686,-31.092146 l 0.518481,-20.141454 32.139909,-0.0015 32.139901,-0.0015 -0.241541,9.387779 -0.241541,9.387797 -18.335528,0 -18.335528,0 0,3.519854 0,3.519872 14.498667,0 14.498671,0 -0.458795,7.235281 c -0.252336,3.979403 -0.632931,8.379228 -0.845746,9.777416 l -0.386949,2.54211 -14.435113,0 -14.435118,0 -0.0108,1.75994 c -0.0059,0.96797 -0.237852,2.609021 -0.515509,3.646771 l -0.50483,1.88684 18.724734,-0.47693 18.724729,-0.47693 -0.236106,5.62984 c -0.129846,3.09639 -0.429637,7.47773 -0.666171,9.73631 l -0.43007,4.10652 -32.516134,0 -32.5161352,0 0.487755,-4.49761 z m 170.2622672,2.34657 c 0.004,-1.18305 0.50932,-7.43082 1.12054,-13.88392 0.61125,-6.453071 1.31588,-16.836688 1.56588,-23.074675 0.24996,-6.237986 0.66177,-16.005602 0.91507,-21.705843 l 0.46054,-10.364042 31.98977,0 31.98978,0 0,5.757272 c 0,3.166505 -0.22384,7.390327 -0.49743,9.386302 l -0.4974,3.629046 -17.80197,0 -17.80195,0 -0.30225,3.169403 c -0.16616,1.743177 -0.14456,3.32712 0.0482,3.519872 0.19281,0.192751 6.85268,0.35045 14.79979,0.35045 l 14.44931,0 -0.3926,8.895753 c -0.2159,4.892667 -0.63777,9.292491 -0.93746,9.777411 -0.37235,0.60251 -5.11196,0.88164 -14.96927,0.88164 l -14.42441,0 0,12.906191 0,12.90617 -14.86164,0 -14.86168,0 0.009,-2.15103 z M 19.041693,37.323852 C 14.11445,35.019607 13.833771,34.009093 14.476872,20.889308 14.784939,14.604449 15.196655,9.1983064 15.391794,8.8756514 c 0.195137,-0.322653 2.62332,-0.586643 5.395959,-0.586643 l 5.041165,0 -0.506149,10.0006446 c -0.565669,11.176654 -0.0373,12.682932 4.448799,12.682932 3.669046,0 4.664398,-2.454022 5.285055,-13.030186 l 0.543551,-9.2622936 5.394889,-0.233915 5.394889,-0.233915 -0.537978,11.5757066 C 45.274386,32.215904 44.885469,33.42926 40.408043,36.77214 37.224448,39.149036 23.691748,39.498471 19.041693,37.323852 Z M 51.277856,24.128406 c 0.295274,-8.066361 0.793832,-14.9459006 1.107905,-15.2878546 0.314074,-0.341936 3.353546,-0.517928 6.754393,-0.391097 l 6.18333,0.230651 4.393808,8.9952116 4.393792,8.995215 0.590868,-9.225609 0.590868,-9.2255896 4.791711,0.230375 4.791731,0.230397 -0.302239,5.8664426 c -0.166225,3.226544 -0.517733,9.914289 -0.781157,14.861651 l -0.478955,8.995214 -6.648637,0 -6.648636,0 -4.377852,-8.506476 -4.377874,-8.506477 -0.510829,3.726952 c -0.280965,2.049812 -0.510851,5.965723 -0.510851,8.702018 l 0,4.97508 -4.749116,0 -4.749121,0 0.536861,-14.666104 z m 38.236124,7.821919 c 0.27482,-3.764301 0.65773,-10.540037 0.85087,-15.057201 l 0.35116,-8.2130186 5.48642,-0.229751 5.4864,-0.22975 -0.45344,14.3092156 c -0.24941,7.870062 -0.58885,14.749191 -0.75435,15.286948 -0.20395,0.662766 -2.0994,0.977742 -5.88383,0.977742 l -5.58291,0 0.49968,-6.844185 z m 26.5115,5.897162 c -0.91095,-1.186596 -9.65545,-27.132941 -9.64442,-28.6164856 0.005,-0.751765 1.36605,-0.953746 5.26822,-0.782191 l 5.2607,0.231295 2.51953,8.6041156 c 1.38576,4.732265 2.53832,9.19931 2.56124,9.926786 0.10636,3.373924 1.59845,1.371432 5.35554,-7.187491 2.23986,-5.102572 4.07247,-9.616586 4.07247,-10.0311676 0,-0.414581 0.55678,-0.967433 1.23725,-1.22857 1.77398,-0.680741 10.50206,-0.587406 10.46219,0.111846 -0.017,0.322655 -3.27427,7.0983976 -7.23528,15.0572066 l -7.20183,14.470556 -5.94073,0.226267 c -4.15444,0.15823 -6.17349,-0.07697 -6.71488,-0.782194 z m 30.07191,0.379474 c -0.16445,-0.333157 0.0735,-7.117493 0.52869,-15.076294 l 0.82764,-14.4705616 12.75427,-0.215144 12.7543,-0.215121 -0.23921,3.6550676 -0.2392,3.655068 -7.23528,-0.162701 -7.23528,-0.162701 0,2.393644 0,2.393668 5.91141,0 5.91143,0 -0.24052,3.324315 -0.24053,3.324319 -6.06199,0.228441 c -5.85504,0.220655 -6.06201,0.294084 -6.06201,2.151034 0,1.907834 0.0572,1.92258 7.47369,1.92258 l 7.47369,0 -0.23841,3.715415 -0.2384,3.715414 -12.65266,0.214645 c -6.95897,0.118061 -12.7872,-0.05794 -12.95163,-0.391097 z m 31.74479,-5.494443 c 0.26185,-3.334096 0.70714,-10.197829 0.98955,-15.252749 l 0.51343,-9.1907606 9.47554,0.01955 c 5.21153,0.0099 10.88349,0.343811 12.60432,0.741243 4.21532,0.9735156 6.64864,3.9046666 6.64864,8.0089286 0,2.699013 -0.47364,3.656809 -2.99367,6.054072 l -2.99366,2.847807 1.82036,5.396463 c 1.00122,2.968059 1.82039,5.855886 1.82039,6.417397 0,1.249461 -9.80447,1.460557 -10.56655,0.227505 -0.2697,-0.436382 -1.30413,-4.159523 -2.29872,-8.273644 -1.25803,-5.20371 -1.53943,-7.560905 -0.92464,-7.745365 0.48603,-0.145876 1.82822,-0.47135 2.98263,-0.723392 2.71135,-0.591944 3.73703,-3.445814 1.7584,-4.892616 -0.78024,-0.57053 -2.9353,-1.037343 -4.78901,-1.037343 l -3.37036,0 -0.0326,5.279801 c -0.04,6.453831 -0.66135,15.879659 -1.13446,17.208241 -0.22742,0.638709 -2.01902,0.977742 -5.16687,0.977742 l -4.81869,0 0.47609,-6.061992 z m 35.90237,5.545437 c -1.56478,-0.332923 -1.75993,-0.848511 -1.75993,-4.649619 0,-3.823995 0.14456,-4.19931 1.36883,-3.556299 2.89942,1.522714 7.56955,1.7966 9.19077,0.539004 1.51995,-1.179069 1.4387,-1.329967 -2.86145,-5.314703 -6.3287,-5.864451 -7.33881,-8.497213 -4.9974,-13.025051 1.62843,-3.1490276 5.24681,-4.3924606 12.40253,-4.2620896 3.35947,0.0612 6.30463,0.307813 6.54482,0.548005 0.2402,0.240191 0.61388,2.0085126 0.83043,3.9295976 l 0.39369,3.492881 -4.68019,-0.424379 c -6.97601,-0.63256 -7.46337,1.574574 -1.3216,5.985259 6.36038,4.567692 7.41777,9.268055 3.13615,13.941118 l -2.67701,2.921734 -6.90486,0.124484 c -3.79768,0.06847 -7.69682,-0.04399 -8.66478,-0.249949 z m 26.78865,-0.267936 c -0.26664,-0.431469 -0.29009,-2.279398 -0.0521,-4.10651 0.23805,-1.827112 0.60201,-8.249826 0.80881,-14.27271 l 0.37599,-10.9506936 5.30082,0 5.30079,0 -0.18987,7.0397316 c -0.1044,3.871852 -0.40229,10.647595 -0.66192,15.0572 l -0.47203,8.017473 -4.96282,0 c -2.72955,0 -5.181,-0.353022 -5.44767,-0.784491 z m 17.22085,-0.193261 c -0.1819,-0.537757 -0.083,-7.3135 0.2201,-15.057209 l 0.55092,-14.0794646 11.48074,0 c 10.45004,0 11.67893,0.147827 13.68837,1.6461436 3.74364,2.791527 5.26735,6.26544 5.26735,12.008982 0,8.277483 -4.06624,14.115634 -10.94219,15.71036 -4.81606,1.116981 -19.86744,0.947038 -20.26529,-0.228812 z m 17.89944,-8.648747 c 2.33619,-2.336211 3.21758,-6.92506 1.87008,-9.736516 -1.24815,-2.604211 -4.75965,-4.410528 -7.32329,-3.767096 -1.84202,0.462314 -1.89782,0.694351 -1.89782,7.892243 l 0,7.415933 2.77323,0 c 1.85336,0 3.37182,-0.598581 4.5778,-1.804564 z m 12.98598,8.481059 c 0,-0.629985 1.96587,-4.745198 4.3686,-9.144912 2.40273,-4.399726 5.75732,-10.761572 7.45469,-14.137438 l 3.08611,-6.1379416 6.81301,0.225663 6.81303,0.225643 1.48569,4.3020586 c 0.81712,2.366132 3.18533,8.871277 5.26268,14.455857 2.07734,5.5846 3.48823,10.442565 3.13532,10.79549 -0.35293,0.35293 -2.84819,0.535535 -5.54502,0.405799 l -4.90334,-0.235885 -1.29437,-3.519867 -1.29437,-3.519865 -5.61514,-0.229087 -5.61507,-0.229085 -1.69689,3.944498 -1.69688,3.944502 -5.37902,0 c -4.20175,0 -5.37903,-0.250694 -5.37903,-1.14543 z m 23.46577,-13.990605 c 0,-0.58111 -0.38297,-2.253048 -0.85109,-3.715416 -0.46807,-1.462365 -1.01194,-3.168994 -1.20855,-3.792499 -0.32959,-1.045127 -4.19791,6.197762 -4.19791,7.859959 0,0.38748 1.40796,0.704523 3.12879,0.704523 2.10605,0 3.12876,-0.345358 3.12876,-1.056567 z m 19.37219,14.705807 c -0.31555,-0.322773 -0.36805,-4.669851 -0.11672,-9.660174 0.25136,-4.990333 0.50954,-11.537226 0.57373,-14.548668 l 0.11672,-5.4753456 11.48074,0 c 13.17377,0 14.50777,0.503556 17.65591,6.6646116 2.85602,5.589335 2.13166,12.337896 -1.90838,17.779729 -3.22846,4.348673 -5.73644,5.158813 -17.05977,5.510701 -5.59268,0.173804 -10.42668,0.05191 -10.74223,-0.270854 z m 17.74427,-9.151631 c 2.88362,-2.531118 3.52953,-8.037031 1.27762,-10.890645 -0.90756,-1.150038 -2.76404,-2.335628 -4.12553,-2.634659 -3.65035,-0.801768 -4.54522,0.92803 -4.54522,8.786095 l 0,6.499143 2.69405,0 c 1.67828,0 3.45003,-0.663563 4.69908,-1.759934 z"
     id="path4566" />
</svg>
