<?xml version="1.0" encoding="UTF-8" standalone="no"?>
<svg
   xmlns:dc="http://purl.org/dc/elements/1.1/"
   xmlns:cc="http://creativecommons.org/ns#"
   xmlns:rdf="http://www.w3.org/1999/02/22-rdf-syntax-ns#"
   xmlns:svg="http://www.w3.org/2000/svg"
   xmlns="http://www.w3.org/2000/svg"
   style="overflow:visible;fill-rule:evenodd;stroke-width:0.50099999;stroke-linejoin:bevel"
   id="svg2"
   viewBox="0 0 272 199.99999"
   height="250"
   width="340"
   overflow="visible"
   version="1.1">
  <metadata
     id="metadata165">
    <rdf:RDF>
      <cc:Work
         rdf:about="">
        <dc:format>image/svg+xml</dc:format>
        <dc:type
           rdf:resource="http://purl.org/dc/dcmitype/StillImage" />
        <dc:title></dc:title>
      </cc:Work>
    </rdf:RDF>
  </metadata>
  <defs
     id="defs4">
    <marker
       style="overflow:visible"
       orient="auto"
       overflow="visible"
       markerHeight="1"
       markerWidth="1"
       viewBox="0 0 1 1"
       markerUnits="strokeWidth"
       id="DefaultArrow2">
      <!-- REF_ARROW_STRAIGHT (-2) -->
      <g
         id="g7"
         transform="scale(0.00925926,0.00925926)">
        <!-- 1/108 -->
        <path
           id="path9"
           d="M -9,54 -9,-54 117,0 Z" />
      </g>
    </marker>
    <marker
       style="overflow:visible"
       orient="auto"
       overflow="visible"
       markerHeight="1"
       markerWidth="1"
       viewBox="0 0 1 1"
       markerUnits="strokeWidth"
       id="DefaultArrow3">
      <!-- REF_ARROW_ANGLED -->
      <g
         id="g12"
         transform="scale(0.00925926,0.00925926)">
        <path
           id="path14"
           d="M -27,54 -9,0 -27,-54 135,0 Z" />
      </g>
    </marker>
    <marker
       style="overflow:visible"
       orient="auto"
       overflow="visible"
       markerHeight="1"
       markerWidth="1"
       viewBox="0 0 1 1"
       markerUnits="strokeWidth"
       id="DefaultArrow4">
      <!-- REF_ARROW_ROUNDED -->
      <g
         id="g17"
         transform="scale(0.00925926,0.00925926)">
        <path
           id="path19"
           d="m -9,0 0,-45 c 0,-6.708 11.808,-11.58 18,-9 l 108,45 c 3.916,1.631 9,4.758 9,9 0,4.242 -5.084,7.369 -9,9 L 9,54 C 2.808,56.58 -9,51.708 -9,45 Z" />
      </g>
    </marker>
    <marker
       style="overflow:visible"
       orient="auto"
       overflow="visible"
       markerHeight="1"
       markerWidth="1"
       viewBox="0 0 1 1"
       markerUnits="strokeWidth"
       id="DefaultArrow5">
      <!-- REF_ARROW_SPOT -->
      <g
         id="g22"
         transform="scale(0.00925926,0.00925926)">
        <path
           id="path24"
           d="M -54,0 C -54,29.807 -29.807,54 0,54 29.807,54 54,29.807 54,0 54,-29.807 29.807,-54 0,-54 -29.807,-54 -54,-29.807 -54,0 Z" />
      </g>
    </marker>
    <marker
       style="overflow:visible"
       orient="auto"
       overflow="visible"
       markerHeight="1"
       markerWidth="1"
       viewBox="0 0 1 1"
       markerUnits="strokeWidth"
       id="DefaultArrow6">
      <!-- REF_ARROW_DIAMOND -->
      <g
         id="g27"
         transform="scale(0.00925926,0.00925926)">
        <path
           id="path29"
           d="M -63,0 0,63 63,0 0,-63 Z" />
      </g>
    </marker>
    <marker
       style="overflow:visible"
       orient="auto"
       overflow="visible"
       markerHeight="1"
       markerWidth="1"
       viewBox="0 0 1 1"
       markerUnits="strokeWidth"
       id="DefaultArrow7">
      <!-- REF_ARROW_FEATHER -->
      <g
         id="g32"
         transform="scale(0.00925926,0.00925926)">
        <path
           id="path34"
           d="m 18,-54 90,0 L 63,0 108,54 18,54 -36,0 Z" />
      </g>
    </marker>
    <marker
       style="overflow:visible"
       orient="auto"
       overflow="visible"
       markerHeight="1"
       markerWidth="1"
       viewBox="0 0 1 1"
       markerUnits="strokeWidth"
       id="DefaultArrow8">
      <!-- REF_ARROW_FEATHER2 -->
      <g
         id="g37"
         transform="scale(0.00925926,0.00925926)">
        <path
           id="path39"
           d="m -36,0 54,-54 36,0 -36,36 9,0 36,-36 36,0 -36,36 9,0 36,-36 36,0 -54,54 54,54 -36,0 -36,-36 -9,0 36,36 -36,0 -36,-36 -9,0 36,36 -36,0 z" />
      </g>
    </marker>
    <marker
       style="overflow:visible"
       orient="auto"
       overflow="visible"
       markerHeight="1"
       markerWidth="1"
       viewBox="0 0 1 1"
       markerUnits="strokeWidth"
       id="DefaultArrow9">
      <!-- REF_ARROW_HOLLOWDIAMOND -->
      <g
         id="g42"
         transform="scale(0.00925926,0.00925926)">
        <path
           id="path44"
           d="M 0,45 -45,0 0,-45 45,0 Z M 0,63 -63,0 0,-63 63,0 Z" />
      </g>
    </marker>
    <filter
       id="StainedFilter">
      <feBlend
         id="feBlend47"
         result="blend"
         in="SourceGraphic"
         in2="BackgroundImage"
         mode="multiply" />
      <feComposite
         id="feComposite49"
         result="comp"
         operator="in"
         in2="SourceAlpha"
         in="blend" />
    </filter>
    <filter
       id="BleachFilter">
      <feBlend
         id="feBlend52"
         result="blend"
         in="SourceGraphic"
         in2="BackgroundImage"
         mode="screen" />
      <feComposite
         id="feComposite54"
         result="comp"
         operator="in"
         in2="SourceAlpha"
         in="blend" />
    </filter>
    <filter
       id="InvertTransparencyBitmapFilter">
      <feComponentTransfer
         id="feComponentTransfer57">
        <feFuncR
           id="feFuncR59"
           offset="-0.055"
           exponent=".416666666"
           amplitude="1.055"
           type="gamma" />
        <feFuncG
           id="feFuncG61"
           offset="-0.055"
           exponent=".416666666"
           amplitude="1.055"
           type="gamma" />
        <feFuncB
           id="feFuncB63"
           offset="-0.055"
           exponent=".416666666"
           amplitude="1.055"
           type="gamma" />
      </feComponentTransfer>
      <feComponentTransfer
         id="feComponentTransfer65">
        <feFuncR
           id="feFuncR67"
           intercept="1"
           slope="-1"
           type="linear" />
        <feFuncG
           id="feFuncG69"
           intercept="1"
           slope="-1"
           type="linear" />
        <feFuncB
           id="feFuncB71"
           intercept="1"
           slope="-1"
           type="linear" />
        <feFuncA
           id="feFuncA73"
           intercept="0"
           slope="1"
           type="linear" />
      </feComponentTransfer>
      <feComponentTransfer
         id="feComponentTransfer75">
        <feFuncR
           id="feFuncR77"
           offset="0"
           exponent="2.4"
           amplitude="1"
           type="gamma" />
        <feFuncG
           id="feFuncG79"
           offset="0"
           exponent="2.4"
           amplitude="1"
           type="gamma" />
        <feFuncB
           id="feFuncB81"
           offset="0"
           exponent="2.4"
           amplitude="1"
           type="gamma" />
      </feComponentTransfer>
    </filter>
    <linearGradient
       gradientTransform="matrix(0.75496944,-0.65575997,0.65575997,0.75496944,275.246,1340.66)"
       y2="0"
       x2="673.55902"
       y1="0"
       x1="0"
       gradientUnits="userSpaceOnUse"
       id="LinearGradient">
      <stop
         id="stop84"
         stop-color="#5a9fd4"
         offset="0" />
      <stop
         id="stop86"
         stop-color="#306998"
         offset="1" />
    </linearGradient>
    <linearGradient
       gradientTransform="matrix(-0.57351925,0.81919209,-0.81919209,-0.57351925,855.108,531.862)"
       y2="0"
       x2="316.62201"
       y1="0"
       x1="0"
       gradientUnits="userSpaceOnUse"
       id="LinearGradient_1">
      <stop
         id="stop89"
         stop-color="#ffd43b"
         offset="0" />
      <stop
         id="stop91"
         stop-color="#ffe873"
         offset="1" />
    </linearGradient>
    <linearGradient
       gradientTransform="matrix(0,-1,1,-1.52588e-4,-0.009,0.017)"
       y2="0"
       x2="742.276"
       y1="0"
       x1="0"
       gradientUnits="userSpaceOnUse"
       id="LinearGradient_2">
      <stop
         id="stop94"
         stop-color="#4c8cbf"
         offset="0" />
      <stop
         id="stop96"
         stop-color="#306898"
         offset="1" />
    </linearGradient>
    <filter
       height="1.1039402"
       y="-0.051970165"
       width="1.042172"
       x="-0.021085989"
       id="filter4345"
       style="color-interpolation-filters:sRGB">
      <feGaussianBlur
         id="feGaussianBlur4347"
         stdDeviation="3.1182104" />
    </filter>
    <clipPath
       clipPathUnits="userSpaceOnUse"
       id="clipPath4310">
      <path
         d="m 0,115.232 143.046,0 L 143.046,0 0,0 0,115.232 Z"
         id="path4312" />
    </clipPath>
  </defs>
  <g
     style="fill:#ffffff"
     id="g4304"
     transform="matrix(2.2647408,0,0,-2.2647408,-28.190785,223.66356)">
    <g
       style="fill:#ffffff"
       id="g4306">
      <g
         style="fill:#ffffff"
         id="g4308"
         clip-path="url(#clipPath4310)">
        <g
           style="fill:#ffffff"
           id="g4314"
           transform="translate(128.606,74.312)">
          <path
             d="m 0,0 c -2.073,0.14 -4.278,0.209 -7.493,0.209 -0.448,-4.925 -0.695,-9.883 -0.797,-16.94 l -9.155,0 c 0.656,5.609 1,11.222 1.035,16.94 -5.325,0 -6.348,-0.139 -7.487,-0.209 l 0.316,6.237 23.89,0 L 0,0 Z m -35.331,-16.731 c 0.453,6.608 1.042,12.913 1.042,22.968 l 9.333,0 c -0.587,-7.476 -1,-12.638 -1,-22.968 l -9.375,0 z M -36.099,0.07 c -2.175,0.105 -4.604,0.139 -6.779,0.139 l -4.777,0 -0.168,-2.287 c 3.101,0 6.442,-0.052 9.544,0 l -0.381,-6.185 -9.444,0 c -0.092,-2.815 -0.183,-5.646 -0.204,-8.468 l -9.507,0 c 0.624,4.231 1.449,17.078 1.343,22.968 l 20.684,0 -0.311,-6.167 z m -32.325,-16.801 9.468,0 c -3.007,7.57 -5.836,15.252 -8.501,22.968 l -10.751,0 c -3.038,-6.404 -9.402,-18.047 -12.34,-22.968 l 9.849,0 2.717,6.035 7.608,0 c 0.699,-1.989 1.437,-3.989 1.95,-6.035 m -4.842,16.765 1.6,-5.282 -4.011,0 2.411,5.282 z M -90.599,0.07 c -2.171,0.105 -4.597,0.139 -6.777,0.139 l -4.772,0 -0.172,-2.287 c 3.105,0 6.196,-0.052 9.297,0 l -0.373,-6.185 -9.374,0 -0.169,-2.445 c 3.95,0 7.876,0.101 11.818,0.309 l -0.316,-6.332 -20.874,0 c 1.093,7.424 1.475,15.464 1.343,22.968 l 20.682,0 -0.313,-6.167 z"
             style="fill:#ffffff;fill-opacity:1;fill-rule:evenodd;stroke:none"
             id="path4316" />
        </g>
        <g
           style="fill:#ffffff"
           id="g4318"
           transform="translate(124.4168,55.913)">
          <path
             d="M 0,0 1.083,0 C 1.319,0 1.499,0.019 1.627,0.071 1.756,0.121 1.858,0.196 1.923,0.3 1.996,0.401 2.025,0.519 2.025,0.644 2.025,0.82 1.962,0.969 1.829,1.086 1.697,1.204 1.493,1.264 1.209,1.264 L 0,1.264 0,0 Z m -0.507,-2.137 0,3.82 1.697,0 C 1.525,1.683 1.787,1.652 1.964,1.581 2.142,1.514 2.28,1.394 2.392,1.217 2.497,1.046 2.547,0.855 2.547,0.644 2.547,0.371 2.457,0.147 2.283,-0.044 2.11,-0.231 1.838,-0.345 1.471,-0.399 1.608,-0.462 1.707,-0.528 1.775,-0.587 1.923,-0.723 2.064,-0.895 2.193,-1.095 l 0.667,-1.042 -0.638,0 -0.503,0.794 C 1.573,-1.109 1.452,-0.934 1.355,-0.814 1.26,-0.692 1.171,-0.609 1.1,-0.559 1.022,-0.513 0.947,-0.481 0.865,-0.457 0.808,-0.445 0.716,-0.442 0.585,-0.442 l -0.585,0 0,-1.695 -0.507,0 z"
             style="fill:#ffffff;fill-opacity:1;fill-rule:nonzero;stroke:none"
             id="path4320" />
        </g>
        <g
           style="fill:#ffffff"
           id="g4322"
           transform="translate(125.3383,58.7242)">
          <path
             d="m 0,0 0,0 -0.005,0 c -0.832,0 -1.59,-0.343 -2.141,-0.889 -0.547,-0.547 -0.889,-1.307 -0.889,-2.146 l 0.004,0 0,-0.002 -0.004,0 c 0,-0.833 0.342,-1.592 0.889,-2.135 0.551,-0.55 1.309,-0.893 2.141,-0.893 l 0,0.002 0.008,0 0,-0.002 c 0.832,0 1.592,0.343 2.139,0.886 0.551,0.55 0.889,1.309 0.889,2.144 l -0.005,0 0,0.008 0.005,0 c 0,0.831 -0.338,1.591 -0.889,2.138 C 1.595,-0.343 0.835,0 0,0 M -0.005,0.552 0,0.552 0,0.547 c 0.986,0 1.88,-0.402 2.532,-1.048 0.644,-0.642 1.045,-1.542 1.045,-2.526 l 0,-0.008 c 0,-0.988 -0.401,-1.883 -1.045,-2.53 C 1.88,-6.211 0.995,-6.613 0.003,-6.618 l -0.008,0 c -0.988,0 -1.884,0.407 -2.532,1.053 -0.644,0.647 -1.047,1.542 -1.047,2.528 l 0,0.002 c 0,0.992 0.403,1.892 1.047,2.534 l 0.007,0 c 0.643,0.65 1.537,1.048 2.525,1.048 l 0,0.005 z"
             style="fill:#ffffff;fill-opacity:1;fill-rule:nonzero;stroke:none"
             id="path4324" />
        </g>
        <g
           style="fill:#ffffff"
           id="g4326"
           transform="translate(71.7601,51.0149)">
          <path
             d="m 0,0 c 19.531,-0.208 38.546,-1.596 55.651,-3.81 l 0.086,1.914 C 38.546,0.278 19.55,1.554 0,1.765 -19.55,1.554 -38.518,0.278 -55.705,-1.896 L -55.78,-3.81 C -37.286,-1.458 -18.645,-0.201 0,0"
             style="fill:#ffffff;fill-opacity:1;fill-rule:evenodd;stroke:none"
             id="path4328" />
        </g>
        <g
           style="fill:#ffffff"
           id="g4330"
           transform="translate(21.5582,92.9455)">
          <path
             d="m 0,0 c 0.054,0.695 0.111,1.399 0.148,2.05 l -3.417,0 c -0.045,-1.707 -0.145,-3.182 -0.235,-4.417 -0.078,-1.062 -0.139,-1.948 -0.139,-2.636 0,-0.734 0.343,-1.469 1.234,-1.981 0.762,-0.446 1.921,-0.731 3.591,-0.731 2.334,0 3.611,0.585 4.306,1.304 0.685,0.7 0.806,1.524 0.813,2.041 0.042,1.883 0.313,5.487 0.382,6.42 l -3.488,0 C 3.164,0.84 3.082,-2.003 2.788,-3.839 2.708,-4.335 2.588,-4.687 2.345,-4.926 2.101,-5.172 1.751,-5.278 1.207,-5.278 c -0.523,0 -0.882,0.208 -1.105,0.56 -0.211,0.331 -0.292,0.78 -0.292,1.285 0,0.959 0.093,2.187 0.19,3.433"
             style="fill:#ffffff;fill-opacity:1;fill-rule:evenodd;stroke:none"
             id="path4332" />
        </g>
        <g
           style="fill:#ffffff"
           id="g4334"
           transform="translate(29.9094,90.3392)">
          <path
             d="m 0,0 c -0.109,-1.995 -0.257,-3.81 -0.371,-4.913 l 3.059,0 c 0.017,1.797 0.09,3.218 0.133,4.235 0.02,0.418 0.035,0.761 0.047,1.027 L 2.872,0.541 2.877,1.057 C 3.229,0.505 3.489,-0.062 3.768,-0.651 4.301,-1.795 4.903,-2.957 5.5,-4.113 c 0.122,-0.229 0.24,-0.449 0.418,-0.8 l 4.191,0 c 0.039,1.603 0.112,3.199 0.207,4.796 0.096,1.58 0.216,3.172 0.356,4.774 l -3.164,0 C 7.498,3.786 7.477,2.924 7.447,2.072 7.411,1.11 7.365,0.169 7.305,-0.748 L 7.29,-0.94 7.263,-1.513 C 7.001,-1.027 6.77,-0.53 6.54,-0.026 6.239,0.653 5.927,1.333 5.607,2.013 5.192,2.888 4.767,3.774 4.325,4.657 l -4.179,0 C 0.146,3.161 0.087,1.534 0,0"
             style="fill:#ffffff;fill-opacity:1;fill-rule:evenodd;stroke:none"
             id="path4336" />
        </g>
        <g
           style="fill:#ffffff"
           id="g4338"
           transform="translate(42.0279,86.5632)">
          <path
             d="m 0,0 c -0.027,-0.386 -0.054,-0.766 -0.083,-1.137 l 3.626,0 c 0.007,4.253 0.175,6.48 0.41,9.57 l -3.606,0 C 0.34,4.859 0.17,2.379 0,0"
             style="fill:#ffffff;fill-opacity:1;fill-rule:evenodd;stroke:none"
             id="path4340" />
        </g>
        <g
           style="fill:#ffffff"
           id="g4342"
           transform="translate(50.4777,85.4257)">
          <path
             d="m 0,0 4.024,0 4.754,9.57 -3.525,0 C 4.862,8.538 4.417,7.528 3.973,6.52 3.509,5.454 3.035,4.395 2.637,3.304 2.513,2.98 2.384,2.656 2.248,2.333 2.152,2.645 2.071,2.95 1.993,3.267 1.722,4.414 1.387,5.566 1.056,6.723 0.779,7.665 0.5,8.614 0.265,9.57 l -3.507,0 C -3.025,8.942 -2.778,8.23 -2.532,7.528 -1.658,5.023 -0.789,2.517 0,0"
             style="fill:#ffffff;fill-opacity:1;fill-rule:evenodd;stroke:none"
             id="path4344" />
        </g>
        <g
           style="fill:#ffffff"
           id="g4346"
           transform="translate(67.4671,92.7703)">
          <path
             d="m 0,0 c 0.398,-0.012 0.792,-0.02 1.19,-0.043 l 0.121,2.269 -8.28,0 c 0.014,-1.231 -0.059,-3.035 -0.158,-4.801 -0.109,-1.895 -0.257,-3.739 -0.386,-4.77 l 8.305,0 0.157,2.333 c -0.602,-0.031 -1.165,-0.063 -1.84,-0.082 -0.761,-0.024 -1.649,-0.04 -2.86,-0.04 l -0.215,0 0.017,0.215 0.073,1.063 0.012,0.191 0.187,0 3.794,0 0.133,2.268 C 0.009,-1.403 -0.24,-1.414 -0.496,-1.423 -1.001,-1.438 -1.501,-1.457 -1.977,-1.457 l -1.512,0 -0.211,0 0.016,0.218 0.073,1.062 0.012,0.189 0.183,0 2.034,0 C -0.945,0.012 -0.486,0.007 0,0"
             style="fill:#ffffff;fill-opacity:1;fill-rule:evenodd;stroke:none"
             id="path4348" />
        </g>
        <g
           style="fill:#ffffff"
           id="g4350"
           transform="translate(73.5741,88.9383)">
          <path
             d="m 0,0 c 0.044,1.25 0.099,2.492 0.18,3.729 l 0.014,0.19 0.183,0 0.886,0 0.039,0 c 0.852,0 1.774,0 1.774,-0.982 C 3.076,2.492 2.877,2.191 2.581,1.992 2.227,1.749 1.732,1.671 1.307,1.671 1.197,1.671 1.086,1.68 0.971,1.687 L 0.947,1.692 C 1.17,0.859 1.38,0.019 1.583,-0.831 1.799,-1.727 1.998,-2.617 2.2,-3.513 l 3.574,0 C 5.631,-3.11 5.486,-2.703 5.342,-2.297 5.014,-1.37 4.68,-0.445 4.391,0.505 L 4.342,0.672 4.497,0.741 c 0.61,0.277 1.079,0.641 1.387,1.105 0.296,0.451 0.449,0.993 0.449,1.646 0,1.2 -0.585,1.836 -1.319,2.171 -0.762,0.352 -1.68,0.395 -2.282,0.395 l -5.665,0 c 0,-1.602 -0.022,-3.198 -0.093,-4.808 -0.07,-1.59 -0.192,-3.18 -0.379,-4.763 l 3.325,0 C -0.065,-2.345 -0.037,-1.17 0,0"
             style="fill:#ffffff;fill-opacity:1;fill-rule:evenodd;stroke:none"
             id="path4352" />
        </g>
        <g
           style="fill:#ffffff"
           id="g4354"
           transform="translate(87.5611,92.7976)">
          <path
             d="m 0,0 c 0.299,-0.071 0.587,-0.156 0.862,-0.258 l -0.184,2.41 c -0.428,0.087 -0.87,0.155 -1.312,0.204 -0.454,0.05 -0.91,0.073 -1.367,0.073 -1.296,0 -2.2,-0.285 -2.8,-0.719 -0.74,-0.523 -1.029,-1.268 -1.029,-1.941 0,-1.383 1.168,-2.282 2.071,-2.977 0.634,-0.495 1.144,-0.894 1.144,-1.365 0,-0.653 -0.913,-0.653 -1.312,-0.653 -0.453,0 -0.985,0.109 -1.503,0.262 -0.391,0.108 -0.779,0.238 -1.109,0.359 l 0.23,-2.599 c 0.461,-0.067 0.979,-0.145 1.496,-0.207 0.576,-0.066 1.159,-0.112 1.668,-0.112 1.372,0 2.312,0.309 2.929,0.773 0.774,0.578 1.054,1.398 1.054,2.148 0,1.164 -1.124,2.026 -2.02,2.703 -0.654,0.497 -1.198,0.911 -1.198,1.363 0,0.348 0.265,0.516 0.578,0.598 0.258,0.062 0.539,0.071 0.695,0.071 C -0.74,0.133 -0.364,0.085 0,0"
             style="fill:#ffffff;fill-opacity:1;fill-rule:evenodd;stroke:none"
             id="path4356" />
        </g>
        <g
           style="fill:#ffffff"
           id="g4358"
           transform="translate(90.2712,86.558)">
          <path
             d="m 0,0 c -0.024,-0.381 -0.058,-0.763 -0.082,-1.132 l 3.571,0 c 0.003,4.254 0.171,6.481 0.409,9.57 l -3.553,0 C 0.337,4.864 0.163,2.384 0,0"
             style="fill:#ffffff;fill-opacity:1;fill-rule:evenodd;stroke:none"
             id="path4360" />
        </g>
        <g
           style="fill:#ffffff"
           id="g4362"
           transform="translate(101.606,88.2242)">
          <path
             d="m 0,0 c -0.464,-0.442 -1.093,-0.588 -1.765,-0.588 -0.097,0 -0.207,0.005 -0.311,0.016 -0.099,0.004 -0.197,0.015 -0.306,0.036 l -0.175,0.023 0.007,0.18 0.207,4.638 0.007,0.161 0.158,0.026 c 0.131,0.024 0.259,0.037 0.386,0.054 0.128,0.007 0.255,0.012 0.383,0.012 0.731,0 1.27,-0.195 1.633,-0.579 C 0.587,3.597 0.757,3.042 0.757,2.304 0.757,1.159 0.462,0.437 0,0 m 3.154,5.612 c -0.689,0.758 -1.7,1.16 -2.962,1.16 l -5.695,0 C -5.507,4.123 -5.577,2.101 -5.672,0.534 -5.76,-0.935 -5.862,-1.998 -5.945,-2.798 l 5.43,0 c 1.46,0 2.625,0.511 3.431,1.383 0.836,0.913 1.294,2.223 1.294,3.766 0,1.415 -0.378,2.519 -1.056,3.261"
             style="fill:#ffffff;fill-opacity:1;fill-rule:evenodd;stroke:none"
             id="path4364" />
        </g>
        <g
           style="fill:#ffffff"
           id="g4366"
           transform="translate(111.0469,89.8631)">
          <path
             d="M 0,0 1.423,3.223 2.384,0 0,0 Z M 5.447,0.207 C 4.852,1.845 4.274,3.485 3.72,5.133 l -4.301,0 C -1.178,3.856 -2.05,2.141 -2.945,0.439 c -0.979,-1.867 -1.979,-3.7 -2.664,-4.876 l 3.717,0 0.959,2.183 0.056,0.118 0.129,0 3.48,0 0.136,0 0.048,-0.133 0,-0.003 0.003,-0.001 c 0.247,-0.719 0.497,-1.43 0.684,-2.164 l 3.582,0 C 6.59,-2.905 6.012,-1.355 5.447,0.207"
             style="fill:#ffffff;fill-opacity:1;fill-rule:evenodd;stroke:none"
             id="path4368" />
        </g>
        <g
           style="fill:#ffffff"
           id="g4370"
           transform="translate(125.1615,88.2242)">
          <path
             d="m 0,0 c -0.471,-0.445 -1.095,-0.588 -1.766,-0.588 -0.102,0 -0.21,0.005 -0.313,0.016 -0.097,0.004 -0.197,0.015 -0.308,0.036 l -0.172,0.023 0.007,0.18 0.208,4.638 0.005,0.161 0.156,0.026 c 0.129,0.024 0.257,0.037 0.389,0.054 0.13,0.007 0.252,0.012 0.379,0.012 0.733,0 1.274,-0.195 1.638,-0.579 C 0.581,3.597 0.755,3.042 0.755,2.304 0.755,1.159 0.461,0.437 0,0 M 3.147,5.612 C 2.46,6.37 1.449,6.772 0.192,6.772 l -5.697,0 C -5.512,4.123 -5.578,2.101 -5.672,0.534 -5.765,-0.935 -5.871,-1.998 -5.954,-2.798 l 5.437,0 c 1.461,0 2.622,0.511 3.431,1.383 0.835,0.913 1.29,2.223 1.29,3.766 0,1.415 -0.374,2.519 -1.057,3.261"
             style="fill:#ffffff;fill-opacity:1;fill-rule:evenodd;stroke:none"
             id="path4372" />
        </g>
        <g
           style="fill:#ffffff"
           id="g4374"
           transform="translate(16.5177,24.4024)">
          <path
             d="M 0,0 0.598,0 1.2,0 3.484,-6.814 3.49,-6.814 5.768,0 6.365,0 6.962,0 4.061,-7.97 l -0.58,0 -0.58,0 L 0,0 Z"
             style="fill:#ffffff;fill-opacity:1;fill-rule:nonzero;stroke:none"
             id="path4376" />
        </g>
        <g
           style="fill:#ffffff"
           id="g4378"
           transform="translate(24.4308,22.2339)">
          <path
             d="m 0,0 0.488,0 0.488,0 0,-5.802 -0.488,0 L 0,-5.802 0,0 Z m -0.011,2.168 0.998,0 0,-1.106 -0.998,0 0,1.106 z"
             style="fill:#ffffff;fill-opacity:1;fill-rule:nonzero;stroke:none"
             id="path4380" />
        </g>
        <g
           style="fill:#ffffff"
           id="g4382"
           transform="translate(29.1539,21.5181)">
          <path
             d="m 0,0 c -0.545,0 -0.944,-0.173 -1.195,-0.521 -0.252,-0.347 -0.377,-0.898 -0.377,-1.653 0,-0.712 0.136,-1.261 0.409,-1.646 0.273,-0.385 0.661,-0.577 1.163,-0.577 0.474,0 0.855,0.177 1.144,0.531 0.29,0.354 0.434,0.823 0.434,1.405 0,0.82 -0.131,1.435 -0.393,1.846 C 0.923,-0.205 0.528,0 0,0 m -0.189,-6.729 c 0.56,0 0.986,0.176 1.279,0.529 0.293,0.352 0.439,0.867 0.439,1.542 l 0,0.19 -0.005,-0.005 c -0.401,-0.513 -0.925,-0.77 -1.572,-0.77 -0.778,0 -1.396,0.29 -1.855,0.87 -0.459,0.58 -0.688,1.364 -0.688,2.351 0,0.871 0.225,1.574 0.677,2.109 0.452,0.535 1.043,0.802 1.773,0.802 0.698,0 1.251,-0.302 1.66,-0.905 l 0.07,-0.103 0,0.835 0.916,0 0,-5.374 C 2.501,-5.637 2.281,-6.362 1.844,-6.832 c -0.438,-0.47 -1.11,-0.705 -2.017,-0.705 -0.658,0 -1.181,0.152 -1.567,0.456 -0.387,0.303 -0.62,0.745 -0.7,1.323 l 0.998,0 c 0.058,-0.311 0.196,-0.551 0.415,-0.719 0.218,-0.168 0.498,-0.252 0.838,-0.252"
             style="fill:#ffffff;fill-opacity:1;fill-rule:nonzero;stroke:none"
             id="path4384" />
        </g>
        <g
           style="fill:#ffffff"
           id="g4386"
           transform="translate(33.0631,22.2339)">
          <path
             d="m 0,0 0.488,0 0.488,0 0,-5.802 -0.488,0 L 0,-5.802 0,0 Z m -0.011,2.168 0.998,0 0,-1.106 -0.998,0 0,1.106 z"
             style="fill:#ffffff;fill-opacity:1;fill-rule:nonzero;stroke:none"
             id="path4388" />
        </g>
        <g
           style="fill:#ffffff"
           id="g4390"
           transform="translate(35.483,24.4024)">
          <path
             d="m 0,0 0.488,0 0.488,0 0,-7.97 -0.488,0 L 0,-7.97 0,0 Z"
             style="fill:#ffffff;fill-opacity:1;fill-rule:nonzero;stroke:none"
             id="path4392" />
        </g>
        <g
           style="fill:#ffffff"
           id="g4394"
           transform="translate(41.4576,18.731)">
          <path
             d="M 0,0 0,0.629 C -0.181,0.542 -0.381,0.483 -0.602,0.45 L -1.497,0.32 C -1.966,0.255 -2.31,0.146 -2.526,-0.008 c -0.218,-0.154 -0.326,-0.363 -0.326,-0.626 0,-0.325 0.089,-0.576 0.266,-0.751 0.177,-0.176 0.428,-0.263 0.753,-0.263 0.514,0 0.947,0.139 1.302,0.418 0.242,0.194 0.403,0.415 0.482,0.661 0.015,0.047 0.026,0.121 0.033,0.222 C -0.005,-0.242 0,-0.126 0,0 m -2.022,-2.456 c -0.568,0 -1.018,0.152 -1.351,0.456 -0.332,0.303 -0.498,0.713 -0.498,1.23 0,0.52 0.156,0.935 0.469,1.242 0.312,0.307 0.769,0.499 1.369,0.574 l 1.328,0.169 c 0.109,0.011 0.212,0.029 0.309,0.054 0.127,0.032 0.225,0.098 0.293,0.195 C -0.034,1.562 0,1.685 0,1.833 l 0,0.048 c 0,0.311 -0.117,0.555 -0.353,0.73 -0.234,0.175 -0.562,0.263 -0.98,0.263 -0.402,0 -0.715,-0.093 -0.941,-0.279 C -2.5,2.408 -2.637,2.131 -2.684,1.762 l -0.9,0 c 0.047,0.636 0.271,1.114 0.672,1.434 0.402,0.32 0.976,0.48 1.725,0.48 0.705,0 1.241,-0.153 1.61,-0.458 C 0.792,2.913 0.976,2.467 0.976,1.881 l 0,-3.188 c 0,-0.097 0.03,-0.176 0.089,-0.235 0.06,-0.06 0.141,-0.09 0.242,-0.09 0.029,0 0.071,0.004 0.127,0.011 0.056,0.007 0.117,0.018 0.182,0.033 l 0,-0.705 C 1.522,-2.33 1.422,-2.358 1.318,-2.38 1.213,-2.402 1.124,-2.413 1.052,-2.413 c -0.369,0 -0.636,0.101 -0.802,0.304 -0.109,0.133 -0.187,0.323 -0.233,0.569 -0.073,-0.09 -0.156,-0.177 -0.25,-0.26 -0.488,-0.437 -1.084,-0.656 -1.789,-0.656"
             style="fill:#ffffff;fill-opacity:1;fill-rule:nonzero;stroke:none"
             id="path4396" />
        </g>
        <g
           style="fill:#ffffff"
           id="g4398"
           transform="translate(46.2477,21.5288)">
          <path
             d="m 0,0 c -0.546,0 -0.945,-0.174 -1.199,-0.523 -0.253,-0.349 -0.379,-0.903 -0.379,-1.662 0,-0.716 0.136,-1.267 0.41,-1.654 0.272,-0.387 0.662,-0.58 1.168,-0.58 0.473,0 0.854,0.178 1.144,0.534 0.289,0.356 0.434,0.827 0.434,1.413 0,0.791 -0.137,1.401 -0.41,1.829 C 0.895,-0.214 0.506,0 0,0 m -0.055,-5.254 c -0.777,0 -1.395,0.29 -1.854,0.87 -0.459,0.58 -0.688,1.364 -0.688,2.351 0,0.871 0.222,1.574 0.666,2.109 0.445,0.535 1.025,0.802 1.741,0.802 0.712,0 1.276,-0.301 1.691,-0.905 l 0.077,-0.109 0,3.01 0.487,0 0.489,0 0,-7.971 -0.45,0 -0.456,0 0,0.792 -0.125,-0.179 c -0.401,-0.513 -0.927,-0.77 -1.578,-0.77"
             style="fill:#ffffff;fill-opacity:1;fill-rule:nonzero;stroke:none"
             id="path4400" />
        </g>
        <g
           style="fill:#ffffff"
           id="g4402"
           transform="translate(53.7516,18.731)">
          <path
             d="M 0,0 0,0.629 C -0.181,0.542 -0.381,0.483 -0.602,0.45 L -1.497,0.32 C -1.966,0.255 -2.31,0.146 -2.526,-0.008 c -0.218,-0.154 -0.326,-0.363 -0.326,-0.626 0,-0.325 0.089,-0.576 0.266,-0.751 0.177,-0.176 0.428,-0.263 0.753,-0.263 0.514,0 0.947,0.139 1.302,0.418 0.242,0.194 0.403,0.415 0.482,0.661 0.015,0.047 0.026,0.121 0.033,0.222 C -0.005,-0.242 0,-0.126 0,0 m -2.022,-2.456 c -0.568,0 -1.018,0.152 -1.351,0.456 -0.332,0.303 -0.498,0.713 -0.498,1.23 0,0.52 0.156,0.935 0.469,1.242 0.312,0.307 0.769,0.499 1.369,0.574 l 1.328,0.169 c 0.109,0.011 0.212,0.029 0.309,0.054 0.127,0.032 0.225,0.098 0.293,0.195 C -0.034,1.562 0,1.685 0,1.833 l 0,0.048 c 0,0.311 -0.117,0.555 -0.353,0.73 -0.234,0.175 -0.562,0.263 -0.98,0.263 -0.402,0 -0.715,-0.093 -0.941,-0.279 C -2.5,2.408 -2.637,2.131 -2.684,1.762 l -0.9,0 c 0.047,0.636 0.271,1.114 0.672,1.434 0.402,0.32 0.976,0.48 1.725,0.48 0.705,0 1.241,-0.153 1.61,-0.458 C 0.792,2.913 0.976,2.467 0.976,1.881 l 0,-3.188 c 0,-0.097 0.03,-0.176 0.089,-0.235 0.06,-0.06 0.141,-0.09 0.242,-0.09 0.029,0 0.071,0.004 0.127,0.011 0.056,0.007 0.117,0.018 0.182,0.033 l 0,-0.705 C 1.522,-2.33 1.422,-2.358 1.318,-2.38 1.213,-2.402 1.124,-2.413 1.052,-2.413 c -0.369,0 -0.636,0.101 -0.802,0.304 -0.109,0.133 -0.187,0.323 -0.233,0.569 -0.073,-0.09 -0.156,-0.177 -0.25,-0.26 -0.488,-0.437 -1.084,-0.656 -1.789,-0.656"
             style="fill:#ffffff;fill-opacity:1;fill-rule:nonzero;stroke:none"
             id="path4404" />
        </g>
        <g
           style="fill:#ffffff"
           id="g4406"
           transform="translate(60.5997,16.4322)">
          <path
             d="m 0,0 -0.521,0 -0.525,0 0,7.97 0.775,0 0.775,0 2.28,-6.783 -10e-4,0 2.259,6.783 0.776,0 0.775,0 0,-7.97 -0.52,0 -0.526,0 0,6.745 -0.004,0 L 3.296,0 2.776,0 2.255,0 0.002,6.723 0,6.723 0,0 Z"
             style="fill:#ffffff;fill-opacity:1;fill-rule:nonzero;stroke:none"
             id="path4408" />
        </g>
        <g
           style="fill:#ffffff"
           id="g4410"
           transform="translate(68.7501,22.2339)">
          <path
             d="m 0,0 0.488,0 0.488,0 0,-5.802 -0.488,0 L 0,-5.802 0,0 Z m -0.011,2.168 0.998,0 0,-1.106 -0.998,0 0,1.106 z"
             style="fill:#ffffff;fill-opacity:1;fill-rule:nonzero;stroke:none"
             id="path4412" />
        </g>
        <g
           style="fill:#ffffff"
           id="g4414"
           transform="translate(71.1612,22.2339)">
          <path
             d="m 0,0 0.461,0 0.466,0 0,-0.857 0.217,0.288 c 0.423,0.495 0.952,0.742 1.588,0.742 0.64,0 1.134,-0.173 1.48,-0.52 0.348,-0.347 0.521,-0.84 0.521,-1.481 l 0,-3.974 -0.488,0 -0.488,0 0,3.644 c 0,0.51 -0.098,0.877 -0.295,1.103 -0.197,0.226 -0.516,0.339 -0.957,0.339 -0.47,0 -0.842,-0.178 -1.117,-0.534 C 1.113,-1.606 0.976,-2.088 0.976,-2.695 l 0,-3.107 -0.488,0 L 0,-5.802 0,0 Z"
             style="fill:#ffffff;fill-opacity:1;fill-rule:nonzero;stroke:none"
             id="path4416" />
        </g>
        <g
           style="fill:#ffffff"
           id="g4418"
           transform="translate(81.3058,19.7774)">
          <path
             d="M 0,0 C -0.029,0.539 -0.163,0.958 -0.401,1.258 -0.665,1.591 -1.052,1.757 -1.562,1.757 -2.075,1.757 -2.485,1.565 -2.793,1.182 -3.035,0.882 -3.182,0.488 -3.232,0 L 0,0 Z m -1.629,-3.502 c -0.82,0 -1.466,0.26 -1.935,0.78 -0.47,0.521 -0.706,1.24 -0.706,2.159 0,0.975 0.249,1.751 0.747,2.328 0.497,0.577 1.164,0.865 2.002,0.865 0.76,0 1.373,-0.282 1.838,-0.846 C 0.784,1.22 1.018,0.479 1.018,-0.439 l -0.012,-0.347 -4.238,0 c 0.04,-0.578 0.171,-1.019 0.396,-1.323 0.274,-0.369 0.708,-0.553 1.3,-0.553 0.372,0 0.697,0.105 0.975,0.314 0.279,0.21 0.449,0.477 0.51,0.803 l 0.965,0 C 0.77,-2.181 0.48,-2.667 0.047,-3.001 -0.387,-3.335 -0.945,-3.502 -1.629,-3.502"
             style="fill:#ffffff;fill-opacity:1;fill-rule:nonzero;stroke:none"
             id="path4420" />
        </g>
        <g
           style="fill:#ffffff"
           id="g4422"
           transform="translate(85.7735,21.5288)">
          <path
             d="m 0,0 c -0.546,0 -0.945,-0.174 -1.198,-0.523 -0.253,-0.349 -0.379,-0.903 -0.379,-1.662 0,-0.716 0.136,-1.267 0.409,-1.654 0.272,-0.387 0.662,-0.58 1.168,-0.58 0.474,0 0.855,0.178 1.145,0.534 0.289,0.356 0.433,0.827 0.433,1.413 0,0.791 -0.137,1.401 -0.409,1.829 C 0.896,-0.214 0.506,0 0,0 m -0.054,-5.254 c -0.777,0 -1.395,0.29 -1.854,0.87 -0.459,0.58 -0.689,1.364 -0.689,2.351 0,0.871 0.222,1.574 0.667,2.109 0.445,0.535 1.025,0.802 1.741,0.802 0.711,0 1.276,-0.301 1.691,-0.905 l 0.076,-0.109 0,3.01 0.488,0 0.488,0 0,-7.971 -0.45,0 -0.456,0 0,0.792 -0.125,-0.179 c -0.4,-0.513 -0.926,-0.77 -1.577,-0.77"
             style="fill:#ffffff;fill-opacity:1;fill-rule:nonzero;stroke:none"
             id="path4424" />
        </g>
        <g
           style="fill:#ffffff"
           id="g4426"
           transform="translate(90.7013,18.4927)">
          <path
             d="m 0,0 c 0,-0.488 0.094,-0.84 0.282,-1.055 0.188,-0.215 0.493,-0.322 0.916,-0.322 0.47,0 0.843,0.181 1.117,0.544 0.275,0.364 0.413,0.856 0.413,1.478 l 0,3.096 0.488,0 0.487,0 0,-5.802 -0.461,0 -0.466,0 0,0.884 C 2.711,-1.282 2.639,-1.381 2.56,-1.475 2.144,-1.97 1.623,-2.218 0.998,-2.218 c -0.658,0 -1.151,0.165 -1.48,0.493 -0.33,0.329 -0.494,0.823 -0.494,1.481 l 0,3.985 0.488,0 L 0,3.741 0,0 Z"
             style="fill:#ffffff;fill-opacity:1;fill-rule:nonzero;stroke:none"
             id="path4428" />
        </g>
        <g
           style="fill:#ffffff"
           id="g4430"
           transform="translate(100.4894,18.5196)">
          <path
             d="m 0,0 c -0.101,-0.73 -0.359,-1.287 -0.774,-1.67 -0.416,-0.383 -0.97,-0.575 -1.66,-0.575 -0.77,0 -1.384,0.277 -1.843,0.83 -0.459,0.553 -0.689,1.298 -0.689,2.234 0,0.936 0.237,1.681 0.713,2.236 0.475,0.555 1.114,0.833 1.916,0.833 0.698,0 1.255,-0.191 1.671,-0.573 C -0.251,2.934 -0.028,2.409 0,1.741 l -0.937,0 c -0.041,0.415 -0.185,0.737 -0.434,0.965 -0.25,0.228 -0.582,0.341 -0.998,0.341 -0.491,0 -0.877,-0.197 -1.157,-0.593 -0.281,-0.396 -0.42,-0.941 -0.42,-1.635 0,-0.737 0.13,-1.293 0.389,-1.665 0.261,-0.372 0.648,-0.558 1.161,-0.558 0.379,0 0.697,0.122 0.952,0.366 0.255,0.244 0.423,0.59 0.507,1.038 L 0,0 Z"
             style="fill:#ffffff;fill-opacity:1;fill-rule:nonzero;stroke:none"
             id="path4432" />
        </g>
        <g
           style="fill:#ffffff"
           id="g4434"
           transform="translate(105.1114,18.731)">
          <path
             d="M 0,0 0,0.629 C -0.181,0.542 -0.381,0.483 -0.602,0.45 L -1.496,0.32 c -0.471,-0.065 -0.814,-0.174 -1.03,-0.328 -0.217,-0.154 -0.326,-0.363 -0.326,-0.626 0,-0.325 0.088,-0.576 0.266,-0.751 0.177,-0.176 0.428,-0.263 0.753,-0.263 0.514,0 0.947,0.139 1.302,0.418 0.242,0.194 0.403,0.415 0.482,0.661 0.015,0.047 0.026,0.121 0.032,0.222 C -0.005,-0.242 0,-0.126 0,0 m -2.022,-2.456 c -0.568,0 -1.018,0.152 -1.35,0.456 -0.333,0.303 -0.499,0.713 -0.499,1.23 0,0.52 0.156,0.935 0.469,1.242 0.312,0.307 0.769,0.499 1.369,0.574 l 1.328,0.169 c 0.108,0.011 0.212,0.029 0.309,0.054 0.126,0.032 0.224,0.098 0.293,0.195 C -0.034,1.562 0,1.685 0,1.833 l 0,0.048 c 0,0.311 -0.117,0.555 -0.353,0.73 -0.234,0.175 -0.561,0.263 -0.981,0.263 -0.401,0 -0.715,-0.093 -0.94,-0.279 C -2.5,2.408 -2.637,2.131 -2.684,1.762 l -0.9,0 c 0.047,0.636 0.271,1.114 0.673,1.434 0.4,0.32 0.975,0.48 1.724,0.48 0.705,0 1.242,-0.153 1.61,-0.458 C 0.792,2.913 0.977,2.467 0.977,1.881 l 0,-3.188 c 0,-0.097 0.029,-0.176 0.088,-0.235 0.06,-0.06 0.141,-0.09 0.242,-0.09 0.029,0 0.071,0.004 0.128,0.011 0.055,0.007 0.116,0.018 0.181,0.033 l 0,-0.705 C 1.521,-2.33 1.423,-2.358 1.317,-2.38 1.213,-2.402 1.124,-2.413 1.052,-2.413 c -0.368,0 -0.636,0.101 -0.802,0.304 -0.109,0.133 -0.187,0.323 -0.233,0.569 -0.073,-0.09 -0.156,-0.177 -0.25,-0.26 -0.488,-0.437 -1.084,-0.656 -1.789,-0.656"
             style="fill:#ffffff;fill-opacity:1;fill-rule:nonzero;stroke:none"
             id="path4436" />
        </g>
        <g
           style="fill:#ffffff"
           id="g4438"
           transform="translate(112.2433,18.5196)">
          <path
             d="m 0,0 c -0.101,-0.73 -0.359,-1.287 -0.774,-1.67 -0.416,-0.383 -0.97,-0.575 -1.66,-0.575 -0.77,0 -1.384,0.277 -1.843,0.83 -0.459,0.553 -0.689,1.298 -0.689,2.234 0,0.936 0.237,1.681 0.713,2.236 0.475,0.555 1.114,0.833 1.916,0.833 0.698,0 1.255,-0.191 1.671,-0.573 C -0.251,2.934 -0.028,2.409 0,1.741 l -0.937,0 c -0.041,0.415 -0.185,0.737 -0.434,0.965 -0.25,0.228 -0.582,0.341 -0.998,0.341 -0.491,0 -0.877,-0.197 -1.157,-0.593 -0.281,-0.396 -0.42,-0.941 -0.42,-1.635 0,-0.737 0.13,-1.293 0.389,-1.665 0.261,-0.372 0.648,-0.558 1.161,-0.558 0.379,0 0.697,0.122 0.952,0.366 0.255,0.244 0.423,0.59 0.507,1.038 L 0,0 Z"
             style="fill:#ffffff;fill-opacity:1;fill-rule:nonzero;stroke:none"
             id="path4440" />
        </g>
        <g
           style="fill:#ffffff"
           id="g4442"
           transform="translate(113.2999,22.2339)">
          <path
             d="m 0,0 0.487,0 0.489,0 0,-5.802 -0.489,0 L 0,-5.802 0,0 Z m -0.011,2.168 0.997,0 0,-1.106 -0.997,0 0,1.106 z"
             style="fill:#ffffff;fill-opacity:1;fill-rule:nonzero;stroke:none"
             id="path4444" />
        </g>
        <g
           style="fill:#ffffff"
           id="g4446"
           transform="translate(117.6212,23.0147)">
          <path
             d="m 0,0 0.986,1.562 1.199,0 L 0.753,0 0,0 Z m 1.702,-5.297 c 0.304,0.401 0.455,0.941 0.455,1.621 0,0.679 -0.151,1.22 -0.455,1.624 -0.304,0.403 -0.712,0.604 -1.225,0.604 -0.513,0 -0.921,-0.201 -1.223,-0.604 -0.302,-0.404 -0.452,-0.945 -0.452,-1.624 0,-0.68 0.15,-1.22 0.452,-1.621 0.302,-0.402 0.71,-0.602 1.223,-0.602 0.513,0 0.921,0.2 1.225,0.602 m -3.175,-0.597 c -0.497,0.564 -0.745,1.303 -0.745,2.218 0,0.918 0.248,1.659 0.745,2.223 0.497,0.564 1.147,0.846 1.95,0.846 0.809,0 1.461,-0.282 1.958,-0.846 C 2.93,-2.017 3.177,-2.758 3.177,-3.676 3.177,-4.591 2.93,-5.33 2.435,-5.894 1.938,-6.458 1.286,-6.74 0.477,-6.74 c -0.803,0 -1.453,0.282 -1.95,0.846"
             style="fill:#ffffff;fill-opacity:1;fill-rule:nonzero;stroke:none"
             id="path4448" />
        </g>
        <g
           style="fill:#ffffff"
           id="g4450"
           transform="translate(121.9317,22.2339)">
          <path
             d="m 0,0 0.461,0 0.467,0 0,-0.857 0.217,0.288 c 0.422,0.495 0.952,0.742 1.588,0.742 0.64,0 1.133,-0.173 1.48,-0.52 0.348,-0.347 0.52,-0.84 0.52,-1.481 l 0,-3.974 -0.487,0 -0.488,0 0,3.644 c 0,0.51 -0.099,0.877 -0.295,1.103 -0.197,0.226 -0.517,0.339 -0.957,0.339 -0.471,0 -0.843,-0.178 -1.117,-0.534 C 1.113,-1.606 0.977,-2.088 0.977,-2.695 l 0,-3.107 -0.489,0 L 0,-5.802 0,0 Z"
             style="fill:#ffffff;fill-opacity:1;fill-rule:nonzero;stroke:none"
             id="path4452" />
        </g>
      </g>
    </g>
  </g>
</svg>
