<?xml version="1.0" encoding="utf-8"?>
<!-- Generator: Adobe Illustrator 19.2.1, SVG Export Plug-In . SVG Version: 6.00 Build 0)  -->
<svg version="1.1" id="Layer_1" xmlns="http://www.w3.org/2000/svg" xmlns:xlink="http://www.w3.org/1999/xlink" x="0px" y="0px"
	 viewBox="0 0 600 255.5" style="enable-background:new 0 0 600 255.5;" xml:space="preserve">
<style type="text/css">
	.st0{fill:#414141;}
	.st1{fill:#F36E21;}
</style>
<g>
	<g>
		<g>
			<path class="st0" d="M76.6,153.7c7.8,6.6,11.7,16.8,11.7,30.6s-4,23.8-12,30.2c-8,6.4-20.2,9.5-36.7,9.5H24.8v31H0V143.7h39.3
				C56.4,143.7,68.8,147,76.6,153.7z M58.4,197.4c3-3.3,4.5-8.2,4.5-14.6c0-6.4-1.9-11-5.8-13.7c-3.9-2.7-9.9-4.1-18.1-4.1H24.8
				v37.4h16.7C49.8,202.5,55.4,200.8,58.4,197.4z"/>
			<path class="st0" d="M107.7,143.6h24.8v111.3h-24.8V143.6z"/>
			<path class="st0" d="M240.2,143.6v22.1h-55.4v22.9h49.8v21.2h-49.8v23.1h57.1v22h-82V143.6H240.2z"/>
			<path class="st0" d="M345.6,143.6h24.8v111.3h-24.8l-56.7-69.7v69.7H264V143.6h23.2l58.3,71.6V143.6z"/>
			<path class="st0" d="M418.2,165.2c-2.4,2-3.6,4.6-3.6,7.8c0,3.2,1.5,5.8,4.4,7.7c2.9,1.9,9.7,4.2,20.2,6.8
				c10.6,2.6,18.8,6.5,24.6,11.7c5.8,5.2,8.8,12.8,8.8,22.8c0,10-3.7,18.1-11.2,24.3c-7.5,6.2-17.3,9.3-29.5,9.3
				c-17.6,0-33.5-6.5-47.6-19.6l14.8-18.1c12,10.5,23.1,15.8,33.3,15.8c4.6,0,8.1-1,10.7-2.9c2.6-2,3.9-4.6,3.9-8c0-3.3-1.4-6-4.1-8
				c-2.8-2-8.2-4-16.4-6c-12.9-3.1-22.4-7.1-28.4-12c-6-4.9-9-12.7-9-23.2c0-10.6,3.8-18.7,11.4-24.4c7.6-5.7,17.1-8.6,28.4-8.6
				c7.4,0,14.9,1.3,22.3,3.8c7.4,2.5,13.9,6.2,19.4,10.8l-12.6,18.1c-9.7-7.3-19.6-11-29.9-11C423.9,162.2,420.6,163.2,418.2,165.2z
				"/>
			<path class="st0" d="M573.6,254.8l-10.3-24h-46.6l-10.3,24h-26.4l48.1-111.3h24L600,254.8H573.6z M540,176.7L526,209h27.9
				L540,176.7z"/>
		</g>
		<g>
			<polygon class="st1" points="64.3,0 31.6,18.9 31.6,40.6 64.3,59.4 115.8,29.7 			"/>
			<polygon class="st1" points="118.1,93 118.1,33.6 66.6,63.3 66.6,101.1 85.3,111.9 			"/>
			<polygon class="st1" points="122.5,33.6 122.5,93 155.2,111.9 174,101.1 174,63.3 			"/>
			<polygon class="st1" points="209,40.6 209,18.9 176.3,0 124.8,29.7 176.2,59.5 			"/>
		</g>
	</g>
</g>
</svg>
