<?xml version="1.0" encoding="UTF-8" standalone="no"?>
<svg
   xmlns:dc="http://purl.org/dc/elements/1.1/"
   xmlns:cc="http://creativecommons.org/ns#"
   xmlns:rdf="http://www.w3.org/1999/02/22-rdf-syntax-ns#"
   xmlns:svg="http://www.w3.org/2000/svg"
   xmlns="http://www.w3.org/2000/svg"
   width="366"
   height="130"
   viewBox="0 0 366 130"
   id="svg2"
   version="1.1">
  <defs
     id="defs4" />
  <metadata
     id="metadata7">
    <rdf:RDF>
      <cc:Work
         rdf:about="">
        <dc:format>image/svg+xml</dc:format>
        <dc:type
           rdf:resource="http://purl.org/dc/dcmitype/StillImage" />
        <dc:title></dc:title>
      </cc:Work>
    </rdf:RDF>
  </metadata>
  <g
     id="layer1"
     transform="matrix(0.84615384,0,0,0.84615384,5.7692311,-770.46028)">
    <g
       id="g4201"
       transform="matrix(1.4782509,0,0,1.4782509,-95.09874,322.86925)"
       style="fill:#ffffff">
      <path
         style="fill:#ffffff;fill-opacity:1"
         d="m 133.93696,491.84415 c -6.63444,-3.27006 -10.20558,-10.03914 -10.21707,-19.3664 -0.005,-3.78237 0.48805,-4.96047 2.99442,-7.15977 2.95867,-2.59618 3,-2.77054 3,-12.65459 l 0,-10.02213 -3.12206,-2.22311 -3.12207,-2.2231 0.44014,-10.6826 c 0.52271,-12.68645 2.33606,-16.63426 9.15742,-19.93643 8.704,-4.21353 19.30297,-1.67235 24.367,5.84216 1.95063,2.89454 2.27957,4.67302 2.27957,12.325 0,8.68429 0.0866,9.01832 3,11.5748 l 3,2.63246 0,12.69391 c 0,12.63937 -0.0116,12.70236 -2.70065,14.6612 -2.35722,1.71711 -2.78446,2.88157 -3.35966,9.15695 -0.77743,8.48163 -2.64574,11.56608 -8.96012,14.79257 -5.22621,2.67046 -12.04761,2.91026 -16.75692,0.58908 z m 12.74217,-12.27334 c 0.56935,-1.06384 1.03518,-3.97847 1.03518,-6.47695 0,-3.74205 0.44062,-4.83139 2.5,-6.18075 2.44986,-1.60521 2.5,-1.89325 2.5,-14.36254 0,-12.60235 -0.024,-12.7354 -2.5,-13.86355 -2.38197,-1.08529 -2.5,-1.5414 -2.5,-9.66051 0,-7.18811 -0.31294,-8.83438 -2,-10.52144 -2.40692,-2.40692 -3.84018,-2.50067 -6.77749,-0.4433 -2.03058,1.42227 -2.22251,2.37436 -2.22251,11.02475 0,9.17912 0.0763,9.49706 2.5,10.41855 2.475,0.94099 2.5,1.07052 2.5,12.9522 0,11.69832 -0.0632,12.0431 -2.5,13.63976 -2.18141,1.42931 -2.5,2.36254 -2.5,7.32305 0,3.12674 0.54,6.22499 1.2,6.88499 1.95411,1.95411 7.5782,1.48296 8.76482,-0.73426 z m 79.51659,12.54069 c -4.75439,-2.07162 -9.25109,-7.88775 -10.00975,-12.94682 -0.91753,-6.11854 -0.38108,-7.93643 2.79057,-9.45656 l 2.73777,-1.31218 0,-16.7262 0,-16.7262 -3,-1.13237 c -2.93262,-1.10694 -3,-1.28679 -3,-8.00735 0,-5.15386 0.56328,-7.98103 2.25,-11.29311 4.27684,-8.39806 15.50982,-11.4667 24.72957,-6.75564 6.40033,3.27041 8.28721,6.4118 8.95534,14.9094 0.52676,6.69966 0.76855,7.29956 3.56509,8.84522 l 3,1.65812 0,18.33726 0,18.33726 -3,1.661 c -2.54138,1.40709 -3.09666,2.44077 -3.63229,6.76169 -0.34775,2.80537 -1.58839,6.44342 -2.75698,8.08454 -4.34576,6.10307 -15.39164,8.9156 -22.62932,5.76194 z m 13.09382,-15.60643 c 0.78957,-3.30446 1.78586,-4.84659 3.75,-5.80457 l 2.67477,-1.30456 0,-17.99746 0,-17.99745 -3,-1.04581 c -2.83405,-0.98795 -3,-1.34463 -3,-6.44798 0,-4.06884 -0.49363,-5.8958 -2,-7.40217 -2.18268,-2.18268 -2.46257,-2.2509 -5.6871,-1.38616 -2.42965,0.65157 -4.32142,4.95903 -4.29759,9.78538 0.0187,3.78754 0.69191,4.79307 4.25835,6.36048 l 2.77366,1.21898 -0.27366,17.18041 -0.27366,17.18041 -3,1.69154 c -2.51742,1.41944 -2.95521,2.22567 -2.72153,5.01208 0.39207,4.67527 1.92186,6.11069 6.13594,5.75744 3.35045,-0.28085 3.6561,-0.59567 4.66082,-4.80056 z m 70.33205,14.70625 c -3.13156,-1.62981 -5.05856,-3.57262 -6.65728,-6.71189 -3.26563,-6.41245 -2.98421,-8.78964 1.25,-10.55881 l 3.5,-1.46239 0,-21.84192 0,-21.84192 -3.25,-0.93209 -3.25,-0.93209 0,-9.96257 0,-9.96257 5.5,0 5.5,0 0.5,8.99637 0.5,8.99637 3.76909,1.77049 3.76908,1.77048 -0.26908,22.23315 -0.26909,22.23314 -3.25,1.43047 c -5.30297,2.33407 -3.74312,7.06953 2.32868,7.06953 2.55843,0 3.41108,-0.56106 4.36968,-2.87532 0.7842,-1.89325 2.27725,-3.18667 4.37132,-3.78687 l 3.18032,-0.91154 0.26849,-23.23743 c 0.24825,-21.48544 0.13516,-23.27873 -1.5,-23.78528 -4.60148,-1.4255 -4.76849,-1.81119 -4.76849,-11.01255 l 0,-8.89101 5.5,0 5.5,0 0.5,8.36141 0.5,8.36142 3.5,1.64732 3.5,1.64732 0.26909,22.86579 c 0.1739,14.77664 -0.0994,23.30976 -0.77242,24.12076 -0.57284,0.69022 -2.3272,1.51209 -3.89859,1.82636 -2.26563,0.45313 -2.98613,1.25437 -3.48049,3.87052 -2.17547,11.51266 -15.59206,17.29179 -26.71031,11.50535 z M 68.340349,490.97293 c -0.344322,-0.89729 -0.626039,-7.01612 -0.626039,-13.5974 0,-11.47918 0.101701,-12.06021 2.5,-14.28288 3.692591,-3.42218 3.692591,-14.11857 0,-17.58758 -2.478685,-2.3286 -2.499869,-2.49422 -2.484687,-19.42431 0.0084,-9.39163 0.386204,-17.6604 0.839516,-18.37504 0.578274,-0.91164 2.876502,-1.21003 7.702266,-1 l 6.878063,0.29935 3.255308,17 c 3.052969,15.94333 3.444024,17.15539 6.291436,19.5 1.707658,1.40611 3.032183,3.45867 3.027113,4.69098 -0.005,1.20504 0.440985,2.4691 0.990985,2.80902 1.436149,0.88759 1.258994,-6.11242 -0.214401,-8.4717 -0.98659,-1.57979 -0.67783,-4.71938 1.64593,-16.73643 4.009521,-20.73476 3.146131,-19.29187 11.543721,-19.29187 l 7.02475,0 0,16.00661 c 0,15.8274 0.028,16.03096 2.5,18.18034 2.36307,2.05466 2.5,2.73585 2.5,12.43668 0,9.51039 -0.16499,10.37829 -2.25,11.83576 -2.08182,1.45524 -2.28737,2.52464 -2.75,14.30671 l -0.5,12.7339 -4.5,0 -4.5,0 -0.27867,-13.19947 c -0.26156,-12.38866 -0.15406,-13.26617 1.75,-14.28518 1.83516,-0.98215 2.02867,-2.061 2.02867,-11.30999 0,-9.14126 -0.21185,-10.35657 -2,-11.47329 -1.55643,-0.972 -2.02593,-2.41152 -2.1169,-6.49054 l -0.11691,-5.24153 -0.89726,5.4056 c -0.75534,4.55057 -0.62418,5.70736 0.82918,7.31331 1.63561,1.80732 1.63279,2.36473 -0.0536,10.59439 -1.41757,6.91779 -2.34686,9.20755 -4.56352,11.24446 -2.450713,2.25198 -2.99299,3.91834 -4.53608,13.93884 -0.963935,6.2596 -1.979022,11.97111 -2.255747,12.69224 -0.556093,1.44916 -3.87547,1.78954 -4.684577,0.48038 -0.282399,-0.45693 -1.480917,-6.55711 -2.663375,-13.55595 -2.057226,-12.17649 -2.073771,-12.80931 -0.38372,-14.67679 1.68856,-1.86584 1.686768,-2.29944 -0.04077,-9.8633 -1.453336,-6.36328 -2.35371,-8.31588 -4.600565,-9.97705 -1.994649,-1.47471 -2.906039,-3.14226 -3.186771,-5.83076 -0.374794,-3.58931 -0.401039,-3.55052 -0.561282,0.82964 -0.126911,3.46905 0.32198,5.03853 1.831897,6.40499 1.674771,1.51565 2,3.07997 2,9.6198 0,6.74929 -0.267776,7.95314 -1.971912,8.86517 -1.79299,0.95958 -1.997144,2.30111 -2.25,14.78518 l -0.278088,13.72985 -4.623961,0.29964 c -3.540964,0.22947 -4.770588,-0.0825 -5.25,-1.33178 z m 10.063287,-62.21786 c -0.251528,-0.9625 -0.457323,-0.175 -0.457323,1.75 0,1.925 0.205795,2.7125 0.457323,1.75 0.251527,-0.9625 0.251527,-2.5375 0,-3.5 z m 89.935384,62.2144 c -0.34359,-0.89539 -0.62471,-6.06053 -0.62471,-11.47809 0,-9.8032 0.0143,-9.8603 3,-11.98631 l 3,-2.13619 0,-12.35012 c 0,-13.10524 -0.39926,-15.51369 -2.57181,-15.51369 -2.75109,0 -3.48687,-3.95469 -3.20729,-17.23864 l 0.2791,-13.26136 5.20081,-0.30055 5.2008,-0.30056 4.35241,13.80056 c 4.09427,12.98204 4.55074,13.89513 7.6963,15.39519 2.8651,1.36632 3.88828,2.94131 7.14608,11 l 3.8022,9.40536 0.0507,-9.77475 c 0.0496,-9.55568 -0.006,-9.7963 -2.47761,-10.73601 l -2.52831,-0.96127 0.27831,-13.76398 0.27831,-13.76399 5.5,0 5.5,0 0.28265,12.48338 c 0.28107,12.41331 0.29931,12.49858 3.25,15.19362 l 2.96735,2.71026 0,14.61274 0,14.61274 -2.9609,2.70437 c -2.85493,2.60757 -2.97125,3.06189 -3.25,12.69363 l -0.2891,9.98926 -5.96146,0 -5.96145,0 -3.36525,-10.8365 c -3.24717,-10.45628 -3.30248,-10.90586 -1.5763,-12.81327 1.71147,-1.89115 1.71298,-2.19068 0.035,-6.9152 -0.96468,-2.71613 -2.60341,-6.85016 -3.64161,-9.18673 l -1.88766,-4.2483 -0.0706,9.22695 c -0.0664,8.66951 -0.21975,9.32464 -2.53877,10.84412 -2.34758,1.5382 -2.4819,2.16208 -2.75,12.77306 l -0.2819,11.15587 -5.62529,0.29618 c -4.45707,0.23468 -5.75502,-0.0419 -6.25,-1.33178 z m 91.82006,0.25227 c -0.29207,-0.76112 -0.39912,-5.13612 -0.2379,-9.72223 0.28496,-8.106 0.37674,-8.38461 3.29313,-9.99681 l 3,-1.65842 0.27198,-18.647 0.27198,-18.647 -3.55508,-1.48541 -3.55508,-1.48541 0.2831,-11.28719 0.2831,-11.2872 6,0 6,0 0.28375,10.74177 0.28375,10.74177 2.96625,1.53391 c 2.69488,1.39358 2.97321,2.01186 3.04233,6.75823 l 0.0761,5.22432 1.34784,-3.5 c 1.81546,-4.71428 1.81546,-7.94172 0,-8.63837 -2.19173,-0.84105 -1.78674,-3.78488 1.90697,-13.86163 l 3.29901,-9 5.2898,-0.30721 c 2.90939,-0.16897 5.66603,0.069 6.12587,0.52886 0.45984,0.45984 -0.74374,5.08535 -2.67462,10.2789 l -3.51069,9.44283 2.24891,1.69636 c 2.50226,1.88745 2.46325,2.09839 -3.23965,17.51682 l -2.27716,6.15657 5.16578,9.08556 c 2.84118,4.99706 5.16578,9.39117 5.16578,9.76469 0,0.37353 -0.70357,1.45657 -1.56349,2.40677 -1.43069,1.5809 -1.26082,2.32865 2,8.80378 5.03211,9.99243 4.94484,10.27953 -3.0156,9.92176 l -6.5791,-0.29569 -4.544,-8.78524 c -4.41574,-8.53725 -4.49304,-8.84155 -2.73854,-10.78025 1.74397,-1.92706 1.73324,-2.13872 -0.31487,-6.21476 l -2.12033,-4.21975 -0.062,4.65217 c -0.0564,4.2335 -0.32856,4.74509 -3.02364,5.6846 l -2.96161,1.03242 -0.28839,9.31541 -0.28843,9.3154 -5.7621,0.30027 c -4.19875,0.21879 -5.90617,-0.0752 -6.29313,-1.0836 z"
         id="path4215" />
      <path
         style="fill:#ffffff;fill-opacity:1"
         d="m 134.74406,491.97701 c -7.27392,-3.27116 -9.89917,-7.52642 -10.7257,-17.38524 -0.56135,-6.69579 -0.53577,-6.78552 2.56447,-8.99308 l 3.13148,-2.22981 0,-10.36381 0,-10.36381 -3,-2.13619 c -2.89223,-2.05945 -2.99912,-2.41216 -2.97555,-9.81809 0.0447,-14.04674 2.31919,-19.24504 10.18571,-23.27923 4.98205,-2.55494 11.34757,-2.4231 16.76941,0.34732 6.94948,3.55101 8.47167,6.41559 8.80639,16.57258 0.3753,11.38804 0.70107,12.62267 3.69006,13.98454 2.51003,1.14365 2.52398,1.22178 2.52398,14.13626 0,12.44948 -0.093,13.03523 -2.25,14.17114 -3.26193,1.71779 -3.71765,2.78359 -3.73469,8.73435 -0.0197,6.8864 -2.34333,11.67806 -7.23179,14.91309 -4.85663,3.21397 -12.72436,3.97176 -17.75377,1.70998 z m 10.97025,-11.47194 c 1.4593,-1.4593 2,-3.33333 2,-6.93191 0,-4.33852 0.36095,-5.18892 3,-7.06809 l 3,-2.13619 0,-11.39248 c 0,-9.01436 -0.32036,-11.66164 -1.5347,-12.6819 -4.4123,-3.70712 -4.4653,-3.85357 -4.4653,-12.33781 0,-7.85585 -0.16301,-8.51232 -2.49272,-10.0388 -5.96991,-3.91164 -9.49015,0.86522 -9.5017,12.89355 -0.005,5.19402 0.31443,6.09865 3.02878,8.57783 l 3.03436,2.77146 -0.28436,11.42217 c -0.26805,10.7671 -0.41392,11.47901 -2.54348,12.41322 -2.88586,1.266 -3.60275,3.61014 -2.78065,9.09231 1.00137,6.6776 5.6432,9.31321 9.53977,5.41664 z m 80.5,11.10996 c -5.1677,-2.38505 -8.04076,-5.62842 -9.39857,-10.60996 -1.91125,-7.01199 -1.47439,-9.0824 2.39857,-11.3675 l 3.5,-2.06505 -0.0153,-15.28373 c -0.008,-8.40604 -0.34592,-15.74288 -0.75,-16.30407 -0.40408,-0.5612 -2.02907,-1.58997 -3.61108,-2.28615 l -2.8764,-1.2658 0.45236,-7.81422 c 0.55439,-9.57678 2.95174,-14.04013 9.15386,-17.04253 8.1548,-3.94767 18.94615,-1.67208 23.6946,4.9965 1.71875,2.41376 2.49818,5.17832 2.90107,10.28978 0.51114,6.48483 0.76742,7.10895 3.5509,8.64739 l 3,1.65812 0,18.33726 0,18.33726 -2.99922,1.66231 c -2.45161,1.3588 -3.12171,2.5186 -3.67007,6.35213 -0.93406,6.52986 -3.61159,10.60676 -8.75096,13.32453 -5.31285,2.8095 -11.10389,2.961 -16.57975,0.43373 z m 11.89915,-11.17151 c 0.49454,-0.46022 1.17549,-2.53682 1.51324,-4.61467 0.42371,-2.60674 1.34937,-4.14449 2.98594,-4.96041 1.30452,-0.65037 2.75417,-1.78569 3.22145,-2.52293 0.46728,-0.73724 0.84959,-8.31544 0.84959,-16.84044 0,-8.525 -0.38231,-16.1032 -0.84959,-16.84044 -0.46728,-0.73724 -1.92289,-1.8734 -3.23469,-2.52479 -1.99242,-0.98938 -2.47064,-2.14257 -2.90472,-7.00453 -0.53186,-5.95723 -2.38414,-8.63024 -5.98037,-8.63024 -3.5365,0 -5.14136,2.46739 -5.71426,8.78539 l -0.56229,6.20111 3.66179,1.53 3.66179,1.52999 -0.27352,17.1465 -0.27351,17.14651 -3,1.68891 c -2.48325,1.39799 -2.97033,2.26925 -2.82777,5.05806 0.28669,5.60838 5.90345,8.41013 9.72692,4.85198 z m 74.10085,11.73547 c -5.60244,-2.19227 -7.30193,-3.63332 -9.40259,-7.9727 -3.04529,-6.29072 -2.76513,-8.52428 1.2813,-10.21499 1.8583,-0.77645 3.6765,-2.18772 4.04045,-3.13616 0.75678,-1.97214 0.65551,-25.55069 -0.153,-35.62305 -0.52481,-6.53797 -0.63489,-6.76538 -3.65363,-7.54762 l -3.11253,-0.80654 0,-9.93643 0,-9.93643 5.5,0 5.5,0 0.5,9.42036 c 0.49983,9.41712 0.50103,9.42069 3.5,10.39994 1.65,0.53877 3.33061,1.47461 3.73469,2.07964 0.40408,0.60503 0.74158,10.57256 0.75,22.15006 0.0158,21.66845 -0.29286,23.45 -4.06225,23.45 -0.92265,0 -2.22204,0.65607 -2.88752,1.45793 -0.98011,1.18095 -0.70996,1.95794 1.42202,4.08992 1.56271,1.56271 3.25656,2.39233 4.16932,2.04207 0.84552,-0.32445 1.96165,-0.58992 2.48028,-0.58992 0.51863,0 1.37896,-1.14677 1.91185,-2.54837 0.56234,-1.47906 2.44018,-3.16311 4.47525,-4.01342 l 3.50636,-1.46505 0,-22.97316 0,-22.97316 -3.53944,-1.47887 -3.53943,-1.47887 0.28943,-8.78455 0.28944,-8.78455 5.5,0 5.5,0 0.5,8.36141 0.5,8.36142 3.5,1.64729 3.5,1.6473 0.26921,22.27113 c 0.16008,13.24303 -0.12955,23.01624 -0.71448,24.10919 -0.54104,1.01093 -2.24789,2.09089 -3.79302,2.39992 -2.32065,0.46413 -3.01683,1.33767 -4.00219,5.02185 -2.6111,9.76259 -13.96337,15.18772 -23.75952,11.35441 z M 69.380977,491.8384 c -0.366667,-0.36666 -0.666667,-6.78342 -0.666667,-14.25945 0,-12.50978 0.15935,-13.6923 2,-14.84181 1.683171,-1.05116 2,-2.33203 2,-8.08556 0,-5.56654 -0.371531,-7.17277 -2,-8.64651 -1.865217,-1.688 -2,-3.07997 -2,-20.65499 l 0,-18.84501 6.980948,0 c 6.411181,0 7.025477,0.18364 7.526529,2.25 0.30007,1.2375 1.856097,8.95394 3.457838,17.14764 2.656445,13.58905 3.18115,15.14324 5.97347,17.69363 1.887475,1.72394 3.061215,3.77616 3.061215,5.35236 0,1.406 0.42011,2.55637 0.933578,2.55637 1.595441,0 1.717979,-5.36442 0.186634,-8.17037 -1.323596,-2.42529 -1.143593,-4.21502 1.961217,-19.5 l 3.418571,-16.82963 7,0 7,0 0.2762,15.90961 c 0.26864,15.47404 0.34394,15.97239 2.75,18.20225 2.30057,2.1321 2.4738,2.96456 2.4738,11.88814 0,8.9174 -0.1744,9.75713 -2.4679,11.88267 -2.33321,2.16235 -2.48329,2.9647 -2.75,14.70225 l -0.2821,12.41508 -4.5,0 -4.5,0 -0.27867,-13.19947 c -0.26156,-12.38866 -0.15406,-13.26617 1.75,-14.28518 1.83915,-0.98429 2.02867,-2.06004 2.02867,-11.51535 0,-9.40618 -0.19626,-10.53467 -2,-11.5 -1.61586,-0.86478 -2.02319,-2.16802 -2.12074,-6.78518 l -0.12074,-5.71482 -0.94058,5.8535 c -0.80826,5.03004 -0.69339,6.12665 0.81658,7.79514 1.67624,1.85223 1.67609,2.34253 -0.003,10.6465 -1.41893,7.01576 -2.28161,9.13795 -4.44584,10.93681 -2.368676,1.96879 -2.921223,3.66565 -4.68634,14.39168 -1.461404,8.8805 -2.465279,12.45256 -3.72247,13.24557 -2.664304,1.6806 -3.496579,0.0259 -5.215582,-10.3692 -0.864038,-5.225 -1.8058,-10.91827 -2.092805,-12.6517 -0.3611,-2.18095 0.0062,-3.67975 1.192587,-4.86611 1.615569,-1.61557 1.617118,-2.18337 0.02687,-9.8483 -1.337512,-6.44676 -2.242664,-8.58568 -4.363863,-10.31205 -2.19414,-1.78573 -2.908304,-3.58738 -3.963934,-10 l -1.287612,-7.82184 0.482762,8.91904 c 0.401914,7.42537 0.814547,9.15142 2.463935,10.3067 1.673559,1.17221 1.981172,2.5449 1.981172,8.84075 0,6.2156 -0.332073,7.73741 -2,9.16554 -1.803227,1.54397 -2,2.94994 -2,14.29021 0,8.44937 -0.393875,12.97163 -1.2,13.77776 -1.275733,1.27573 -7.014614,1.65205 -8.133333,0.53333 z m 99.533333,-0.53333 c -0.77156,-0.77156 -1.2,-4.73116 -1.2,-11.09023 0,-9.73749 0.0463,-9.93088 3,-12.52268 l 3,-2.63246 0,-13.24213 c 0,-12.71484 -0.0896,-13.28931 -2.25,-14.42702 -1.2375,-0.65169 -2.58061,-1.68002 -2.98469,-2.28518 -0.88368,-1.32344 -1.02107,-24.77022 -0.15832,-27.01851 0.74494,-1.9413 8.85924,-2.21796 10.08399,-0.34382 0.44496,0.68088 2.6123,6.86838 4.81631,13.75 3.68463,11.50457 4.2661,12.63281 7.22144,14.01203 2.70465,1.26223 3.78809,2.92664 6.83488,10.5 1.9914,4.95 3.80426,9.1875 4.02856,9.41667 0.22431,0.22916 0.40783,-3.94298 0.40783,-9.27144 0,-9.39126 -0.0774,-9.72339 -2.52709,-10.83953 l -2.5271,-1.15142 0.2771,-13.57714 0.27709,-13.57714 5.5,0 5.5,0 0.27928,13.28588 c 0.2753,13.09724 0.31435,13.29922 2.75,14.22525 l 2.47072,0.93937 0,16.5495 0,16.5495 -2.46579,0.93749 c -2.38411,0.90644 -2.47519,1.2948 -2.75,11.72525 l -0.28421,10.78776 -5,0.25995 c -2.75,0.14298 -5.45093,-0.082 -6.00207,-0.5 -0.55113,-0.41797 -2.50593,-5.4121 -4.34399,-11.09805 l -3.34193,-10.3381 2.01511,-1.87736 c 2.01418,-1.8765 2.01342,-1.88161 -1.65601,-11.11317 l -3.67111,-9.2358 -0.28755,9.20282 c -0.26623,8.52081 -0.47003,9.32238 -2.75,10.81627 -2.36449,1.54927 -2.46245,2.04223 -2.46245,12.39146 0,11.94454 -0.0272,11.99198 -6.88179,11.99198 -2.04501,0 -4.25821,-0.54 -4.91821,-1.2 z m 92.05,0.53772 c -0.86907,-0.35068 -1.25,-3.22663 -1.25,-9.43723 l 0,-8.93285 3.5,-1.66903 3.5,-1.66904 0,-18.71601 0,-18.71601 -3.53397,-2.08509 -3.53397,-2.0851 0.28397,-10.76368 0.28397,-10.76368 5.40535,-0.30765 c 3.64725,-0.20758 5.6751,0.11767 6.23469,1 0.45613,0.71921 0.83623,5.68359 0.84465,11.03197 l 0.0153,9.72432 3,1.55136 c 2.73293,1.41325 3.0069,2.01644 3.0775,6.77568 l 0.0775,5.22432 1.82425,-5 c 1.77877,-4.87531 1.77683,-5.04141 -0.0775,-6.66029 -2.46437,-2.15147 -2.40435,-3.23947 0.63278,-11.47065 4.97254,-13.47648 4.08438,-12.36906 9.92012,-12.36906 2.86661,0 5.48615,0.27413 5.8212,0.60918 0.33505,0.33506 -0.96167,4.94756 -2.88159,10.25 l -3.49078,9.64082 2.26252,1.83379 2.26253,1.83379 -2.84072,7.66621 c -5.46613,14.75135 -5.47915,13.5489 0.25357,23.43094 4.57955,7.89422 5.57837,11.73527 3.05163,11.73527 -1.71662,0 -0.86506,2.98201 2.70772,9.48188 1.9804,3.6029 3.34453,7.21839 3.03139,8.03442 -0.40562,1.05702 -2.11548,1.4837 -5.94575,1.4837 -6.37513,0 -6.9891,-0.54884 -12.13881,-10.85111 -3.49787,-6.99766 -3.59201,-7.44229 -1.95814,-9.2477 1.62392,-1.79441 1.61387,-2.12542 -0.18651,-6.14345 l -1.90291,-4.24685 -0.5,4.4867 c -0.40846,3.66532 -1.00344,4.72697 -3.25,5.79912 -2.67154,1.27498 -2.75,1.54767 -2.75,9.55786 0,5.07978 -0.46071,8.70614 -1.2,9.44543 -1.1778,1.1778 -8.09055,1.53013 -10.55,0.53772 z"
         id="path4213" />
      <path
         style="fill:#ffffff;fill-opacity:1"
         d="m 135.39811,492.11345 c -7.4625,-2.77331 -10.11635,-6.76746 -11.19398,-16.84742 -0.7124,-6.66358 -0.68559,-6.76964 2.39486,-9.47268 3.10503,-2.72462 3.11532,-2.76736 3.11532,-12.93954 0,-10.41494 0.0122,-10.37625 -4.4653,-14.13817 -2.95971,-2.48669 -1.43744,-21.13089 2.12467,-26.02229 5.30291,-7.28182 17.25105,-9.16041 25.12415,-3.95024 5.56044,3.67973 7.21648,7.83141 7.21648,18.09166 0,8.61499 0.0477,8.74818 4.4653,12.45973 2.24186,1.88357 2.24186,24.53757 0,26.42114 -4.21623,3.54239 -4.4653,4.06675 -4.4653,9.4007 0,10.30625 -5.82505,16.9708 -15.68106,17.94098 -2.86536,0.28206 -6.36601,-0.10059 -8.63514,-0.94387 z m 10.09369,-11.16508 c 1.82796,-1.28035 2.22251,-2.51095 2.22251,-6.93191 0,-4.83107 0.30369,-5.59145 3,-7.51139 l 3,-2.13619 0,-11.86381 0,-11.86381 -3,-2.13619 c -2.91077,-2.07265 -3,-2.37721 -3,-10.23935 0,-8.77475 -1.38055,-11.77475 -5.40499,-11.74534 -4.76272,0.0348 -6.59501,3.91934 -6.59501,13.98169 0,6.48841 0.16532,6.98453 3,9.003 l 3,2.13619 0,11.39672 c 0,10.80108 -0.11759,11.45865 -2.25,12.58161 -3.02658,1.59385 -3.7166,2.80779 -3.73469,6.57038 -0.0408,8.49279 4.4233,12.4979 9.76218,8.7584 z m 81.25226,10.97323 c -6.68034,-2.89755 -9.49644,-6.9155 -10.58189,-15.09805 -0.65446,-4.93353 -0.61864,-5.02017 2.94481,-7.12265 l 3.60733,-2.12838 0,-16.08475 0,-16.08475 -3.5,-1.4624 c -3.36953,-1.40788 -3.49979,-1.6576 -3.49442,-6.69897 0.0114,-10.7066 3.02038,-16.39705 10.49442,-19.84654 5.47586,-2.52727 11.2669,-2.37577 16.57975,0.43373 5.67923,3.00325 8.14224,7.33103 8.85273,15.55523 0.48654,5.632 0.90783,6.73848 2.95261,7.75473 1.3118,0.65197 2.76741,1.78859 3.23469,2.52583 0.46728,0.73724 0.85649,8.8458 0.86491,18.01901 0.0162,17.66053 -0.26973,18.82496 -4.99061,20.32331 -1.52147,0.48289 -1.99408,1.51484 -1.99408,4.35407 0,12.11502 -13.50752,20.53244 -24.97025,15.56057 z m 10.97025,-11.41653 c 1.1,-1.1 2,-3.30555 2,-4.90122 0,-2.2594 0.77954,-3.36117 3.5237,-4.98026 l 3.5237,-2.07903 -0.2737,-17.1895 -0.2737,-17.18949 -3,-1.65623 c -2.64279,-1.45901 -3.05954,-2.31355 -3.5,-7.17666 -0.55969,-6.17946 -2.189,-8.82761 -5.43132,-8.82761 -4.20198,0 -5.89145,2.31418 -6.35357,8.70288 -0.43139,5.96397 -0.42732,5.97436 3.17647,8.10065 l 3.60842,2.12902 0,16.43495 0,16.43495 -3.5,2.06505 c -3.7224,2.19627 -4.38584,4.58103 -2.3503,8.44824 2.21877,4.21531 5.66367,4.87089 8.8503,1.68426 z m 74,11.40569 c -5.06938,-2.19579 -8.87934,-6.24387 -10.08272,-10.71288 -1.32003,-4.90224 -0.80111,-6.25417 2.74194,-7.14342 1.55141,-0.38938 3.15586,-1.23478 3.56545,-1.87867 0.87696,-1.37863 1.04775,-39.79722 0.1869,-42.04056 -0.32363,-0.84339 -2.13945,-2.04531 -4.03513,-2.67094 l -3.44671,-1.13752 0.28513,-9.66085 0.28514,-9.66085 5.5,0 5.5,0 0.5,9.42036 c 0.49983,9.41712 0.50103,9.42069 3.5,10.39994 1.65,0.53877 3.33061,1.47461 3.73469,2.07964 0.40408,0.60503 0.74158,10.40542 0.75,21.77863 0.0129,17.47934 -0.22781,20.92169 -1.55612,22.25 -0.86428,0.86429 -2.15918,1.57143 -2.87755,1.57143 -2.33652,0 -3.80016,2.66597 -2.64679,4.82105 2.18308,4.07912 9.2191,3.51644 10.60434,-0.84804 0.35421,-1.11601 2.29718,-2.80753 4.31772,-3.75893 l 3.67371,-1.72982 0,-22.48426 0,-22.48426 -3.78855,-1.78389 -3.78856,-1.7839 0.28856,-8.72397 0.28855,-8.72398 5.5,0 5.5,0 0.5,8.39628 c 0.50785,8.52816 0.80747,9.1274 5.25,10.50018 1.60291,0.49532 1.75,2.5541 1.75,24.4946 l 0,23.95384 -3.39182,1.1194 c -2.83679,0.93622 -3.56611,1.81156 -4.45689,5.34916 -2.44402,9.70609 -14.53306,15.25836 -24.15129,11.09223 z m -243,-13.69591 c 0,-12.12981 0.189554,-13.57135 2,-15.20978 2.922856,-2.64515 2.908099,-14.36821 -0.02142,-17.01939 -1.910482,-1.72896 -2.006528,-2.84885 -1.75,-20.40499 l 0.271424,-18.57562 5.895747,-0.30425 c 3.242661,-0.16734 6.365877,0.16587 6.940479,0.74048 0.574602,0.5746 2.528329,8.58462 4.341616,17.80004 1.813286,9.21542 3.808821,16.92595 4.434521,17.13452 2.33491,0.7783 4.887637,4.2098 4.887637,6.57019 0,3.95615 1.693219,3.83691 2.342635,-0.16496 0.436139,-2.68762 0.141765,-4.18827 -1.088195,-5.54736 -1.587353,-1.75401 -1.483154,-2.8691 1.779746,-19.04587 l 3.46581,-17.18279 7,0 7,0 0.2748,16.25702 c 0.25258,14.94211 0.43457,16.35678 2.25,17.49054 1.7728,1.10713 1.9752,2.36267 1.9752,12.25244 0,9.9359 -0.19657,11.14167 -2,12.26793 -1.8266,1.14073 -2,2.33202 -2,13.74054 l 0,12.49153 -5,0 -5,0 0,-12.34501 c 0,-11.07502 0.20575,-12.53122 2,-14.15499 1.75364,-1.58702 2,-3.07997 2,-12.1198 0,-9.28638 -0.19854,-10.41609 -2,-11.3802 -1.6142,-0.86389 -2.02476,-2.17276 -2.12836,-6.78518 l -0.12835,-5.71482 -0.99101,5.78937 c -0.85996,5.02385 -0.75624,6.04877 0.78441,7.75117 1.70088,1.87946 1.69866,2.32749 -0.053,10.67442 -1.42837,6.80639 -2.4239,9.26751 -4.55019,11.24883 -2.327941,2.16922 -2.964823,4.05554 -4.401454,13.03621 -2.211458,13.82427 -2.273627,14 -4.952973,14 -2.132602,0 -2.402187,-0.722 -4.013921,-10.75 -0.950276,-5.9125 -1.948733,-11.69781 -2.218794,-12.85624 -0.273148,-1.17168 0.20664,-2.80391 1.081308,-3.67858 1.970819,-1.97081 1.975391,-4.32759 0.02341,-12.07084 -1.021063,-4.05042 -2.399762,-6.85112 -4.045627,-8.21829 -1.961922,-1.62971 -2.794323,-3.77169 -3.88612,-10 l -1.389401,-7.92605 0.185033,8.73101 c 0.165496,7.80913 0.422601,8.89737 2.435033,10.3067 1.983394,1.38899 2.25,2.4393 2.25,8.86401 0,5.98366 -0.352975,7.60774 -1.971877,9.07283 -1.740455,1.57509 -2.004518,3.32436 -2.25,14.90499 l -0.278123,13.12046 -4.75,0.30479 -4.75,0.30479 0,-13.3998 z m 100,1.81537 c 0,-11.42616 0.0321,-11.58685 2.5,-12.52515 l 2.5,-0.9505 0,-14.04619 0,-14.04619 -2.52575,-1.15081 -2.52574,-1.1508 0.27574,-14.57776 0.27575,-14.57775 4.08647,-0.29951 c 2.49537,-0.18289 4.47286,0.20647 5.07885,1 0.54581,0.71473 2.74146,7.04632 4.87922,14.0702 3.68761,12.11611 4.06606,12.85932 7.38356,14.5 3.05602,1.51136 3.96619,2.92663 7.22164,11.22931 l 3.7249,9.5 0.0627,-10.13499 c 0.0604,-9.76958 -0.0285,-10.19473 -2.46605,-11.79188 -2.51957,-1.65088 -2.52773,-1.70479 -2.25,-14.86501 l 0.27871,-13.20812 5.5,0 5.5,0 0.27928,13.28588 c 0.2753,13.09724 0.31435,13.29922 2.75,14.22525 l 2.47072,0.93937 0,16.36423 0,16.36424 -2.5,1.13908 c -2.43609,1.10995 -2.5,1.40806 -2.5,11.66051 l 0,10.52144 -6.02475,0 c -6.85539,0 -6.06117,0.98637 -10.28798,-12.77713 -2.44068,-7.94743 -2.45552,-8.18406 -0.64425,-10.27248 1.80765,-2.08424 1.80335,-2.26651 -0.17218,-7.29402 -1.11438,-2.836 -2.85329,-6.95637 -3.86424,-9.15637 l -1.83808,-4 -0.0843,9.13499 c -0.079,8.56246 -0.23883,9.23627 -2.55044,10.75089 -2.33429,1.52949 -2.48135,2.19075 -2.75,12.36501 l -0.28378,10.74911 -5.75,0.2999 -5.75,0.29991 0,-11.57466 z m 91.66667,10.80818 c -0.91707,-0.91706 -0.81475,-15.55229 0.11899,-17.02077 0.41528,-0.65309 1.98339,-1.65445 3.48469,-2.22525 l 2.72965,-1.03781 0,-18.92597 0,-18.92598 -3.5,-2.06505 -3.5,-2.06505 0,-9.91128 c 0,-11.44682 0.59599,-12.44072 7.1761,-11.96728 l 4.3239,0.31111 0.2498,9 c 0.33115,11.931 0.67843,13.10503 4.24417,14.34805 2.86214,0.99775 3.00953,1.32564 3.0791,6.84993 l 0.0731,5.80202 1.92853,-5.43385 1.92853,-5.43385 -2.18363,-2.32436 -2.18362,-2.32437 2.33779,-6.74179 c 4.66762,-13.46064 4.85341,-13.7027 10.77905,-14.04404 6.41615,-0.36959 6.45906,-0.13286 2.11436,11.66298 l -3.13286,8.50569 2.13286,1.72709 c 1.17303,0.9499 2.13282,2.10611 2.13282,2.56937 0,0.46325 -1.73628,5.39777 -3.85839,10.9656 l -3.8584,10.12332 5.32009,9.33769 c 4.73161,8.30479 5.15841,9.51635 3.8584,10.95284 -2.10368,2.32455 -1.86873,3.53764 2.0383,10.52407 1.925,3.44222 3.5,6.76852 3.5,7.39179 0,0.7601 -2.18404,1.03584 -6.63348,0.83751 l -6.63349,-0.29569 -4.40059,-8.1445 c -3.95508,-7.31995 -4.24529,-8.2998 -2.86652,-9.67857 1.95009,-1.95008 1.9255,-2.78201 -0.21592,-7.30681 l -1.75,-3.69773 -0.5,4.33908 c -0.40712,3.53309 -1.05726,4.64614 -3.5,5.99208 -2.93383,1.61654 -3.00637,1.84426 -3.28893,10.32472 l -0.28894,8.67173 -5.2944,0 c -2.91192,0 -5.5944,-0.3 -5.96106,-0.66667 z"
         id="path4211" />
      <path
         style="fill:#ffffff;fill-opacity:1"
         d="m 136.50567,492.56794 c -4.47001,-1.43208 -8.93139,-5.15375 -10.4045,-8.67941 -0.76277,-1.82557 -1.38686,-6.4978 -1.38686,-10.38273 0,-5.81451 0.30944,-7.17767 1.75,-7.70917 2.91102,-1.07404 3.21877,-2.36442 3.23469,-13.563 0.015,-10.52568 -0.0417,-10.79743 -2.48469,-11.91051 -2.44989,-1.11625 -2.5,-1.36339 -2.5,-12.33068 0,-9.94811 0.25089,-11.56914 2.25807,-14.58949 7.06092,-10.62507 24.82424,-9.97147 30.49193,1.12195 1.82654,3.5751 2.25,6.05131 2.25,13.15688 0,8.05936 0.17828,8.84681 2.25,9.93781 1.2375,0.65169 2.58061,1.68002 2.98469,2.28518 0.95757,1.4341 0.95757,23.7665 0,25.2006 -0.40408,0.60516 -1.74719,1.63349 -2.98469,2.28518 -1.92797,1.0153 -2.25,1.99341 -2.25,6.83398 0,7.52977 -2.79823,13.23683 -7.89454,16.10111 -4.45397,2.50327 -11.34854,3.51278 -15.3141,2.2423 z m 9.3799,-11.71786 c 1.30106,-1.17744 1.82874,-3.07904 1.82874,-6.59023 0,-4.23194 0.42751,-5.31038 3,-7.56769 l 3,-2.63246 0,-11.70922 0,-11.70922 -3,-2.13619 c -2.92377,-2.08191 -3,-2.34862 -3,-10.49667 0,-9.05683 -1.14427,-11.50333 -5.3803,-11.50333 -4.90864,0 -6.09361,2.16008 -6.46415,11.78344 l -0.34444,8.94587 3.09444,2.20344 3.09445,2.20344 -0.0153,10.6819 c -0.008,5.87505 -0.34593,11.17704 -0.75,11.78221 -0.40408,0.60516 -1.79816,1.66077 -3.09795,2.34579 -2.1715,1.14444 -2.32782,1.7355 -1.92647,7.28409 0.31771,4.39227 0.94595,6.41089 2.30439,7.4042 2.50629,1.83264 5.43407,1.72199 7.6566,-0.28937 z m 81.51254,11.20618 c -6.79102,-2.42198 -9.93752,-6.56466 -11.05211,-14.55119 -0.72471,-5.1929 -0.13352,-6.47851 3.63866,-7.91269 l 2.72965,-1.03781 0,-16.42597 0,-16.42598 -3.63911,-2.14712 -3.6391,-2.14713 0.65324,-7.02865 c 0.73018,-7.85643 2.35103,-11.72741 6.16747,-14.72942 5.80576,-4.56681 13.38947,-5.16947 20.80003,-1.65293 5.21207,2.47329 7.83927,7.31632 8.42732,15.53511 0.45729,6.3912 0.67647,6.91482 3.35968,8.02624 l 2.87047,1.18899 0,18.78085 0,18.78086 -3,1.04581 c -2.36828,0.82558 -3.00117,1.63583 -3.00558,3.84782 -0.0163,8.21754 -5.11543,15.13089 -12.71709,17.24189 -4.85681,1.34875 -6.91544,1.27973 -11.59353,-0.38868 z m 10.3162,-11.55119 c 1.1,-1.1 2,-3.30555 2,-4.90122 0,-2.25568 0.77878,-3.36072 3.5,-4.96628 l 3.5,-2.06505 0,-17.06745 0,-17.06745 -3.5,-2.06505 c -3.2686,-1.92852 -3.5,-2.40042 -3.5,-7.13754 0,-5.93504 -1.95238,-8.72996 -6.09828,-8.72996 -3.88893,0 -5.90172,3.28218 -5.90172,9.62373 0,4.85852 0.2164,5.3064 3.5,7.24377 l 3.5,2.06505 -0.0153,15.78372 c -0.008,8.68105 -0.35508,16.31808 -0.77035,16.97117 -0.41528,0.65309 -2.04118,1.67643 -3.61313,2.27408 -2.66448,1.01303 -2.82001,1.37054 -2.29598,5.27747 0.86535,6.45176 5.6529,8.80287 9.69476,4.76101 z m 74.63726,11.53519 c -5.29487,-1.88757 -9.24375,-5.94333 -10.46279,-10.74597 -1.2697,-5.00221 -0.75326,-6.42714 2.63787,-7.27826 1.46719,-0.36824 3.00274,-1.19635 3.41233,-1.84024 0.40959,-0.6439 0.7516,-10.50468 0.76002,-21.91285 l 0.0153,-20.74213 -3.75,-1.76307 -3.75,-1.76307 -0.28753,-9.2448 -0.28752,-9.2448 6.03752,0 6.03753,0 0,8.98658 0,8.98658 3.5,1.46239 3.5,1.4624 0,22.47347 0,22.47348 -3.5,1.1551 c -3.96474,1.30848 -4.41009,3.08991 -1.5,6 3.26507,3.26507 7.21455,2.41958 9.5196,-2.03791 0.90668,-1.75333 2.57091,-3.0427 4.46396,-3.45848 1.95197,-0.42873 3.20629,-1.4297 3.55036,-2.83327 0.29262,-1.19369 0.4047,-11.62034 0.24906,-23.17034 l -0.28298,-21 -3.75,-1.83236 -3.75,-1.83236 0,-8.41764 0,-8.41764 6,0 6,0 0,8.42245 0,8.42245 3.5,1.1551 3.5,1.1551 0,23.89386 0,23.89386 -3.25,0.83323 c -2.75859,0.70726 -3.4829,1.56104 -4.79034,5.64667 -1.80305,5.63437 -6.22633,10.00211 -11.65636,11.50998 -4.89256,1.35862 -6.93508,1.28902 -11.66604,-0.39751 z M 68.71431,478.16006 c 0,-12.07502 0.190332,-13.51726 2,-15.15499 2.958392,-2.67731 2.958392,-15.91672 0,-17.5 -1.889145,-1.01104 -2,-2.09382 -2,-19.53518 l 0,-18.46482 6.932612,0 c 8.098275,0 6.983615,-1.8443 10.576681,17.5 3.274427,17.62881 3.063583,16.98436 5.993485,18.31931 1.81153,0.82539 2.634997,2.19009 3.108586,5.15176 0.798594,4.99413 1.952338,5.16813 2.84149,0.42855 0.503712,-2.68502 0.244602,-4.07645 -1.019159,-5.47289 -1.598361,-1.76617 -1.504744,-2.83945 1.648519,-18.89962 l 3.343116,-17.02711 7.28733,0 7.28734,0 0,15.84501 c 0,14.57502 0.1603,15.99009 2,17.65499 1.76048,1.59321 2,3.07997 2,12.41444 0,9.52146 -0.20426,10.73203 -2,11.85349 -1.8266,1.14073 -2,2.33202 -2,13.74054 l 0,12.49153 -5,0 -5,0 0,-12.34501 c 0,-11.07502 0.20575,-12.53122 2,-14.15499 1.75364,-1.58702 2,-3.07997 2,-12.1198 0,-9.49155 -0.16882,-10.40018 -2.12699,-11.44816 -1.94262,-1.03966 -2.08324,-1.74976 -1.62227,-8.19239 0.58517,-8.17854 -0.67252,-7.00897 -1.71084,1.59097 -0.56873,4.71059 -0.38663,6.18126 0.94798,7.65598 1.53639,1.6977 1.53124,2.43306 -0.0737,10.51419 -1.37389,6.91792 -2.29487,9.22999 -4.51876,11.34402 -2.347432,2.23146 -3.04474,4.17123 -4.36955,12.15519 -2.53637,15.28541 -2.443099,15 -4.902009,15 -2.06457,0 -2.360755,-0.87758 -4.303143,-12.75 -1.7821,-10.8927 -1.88456,-12.97998 -0.703366,-14.32874 1.725841,-1.97068 1.699966,-4.78561 -0.114177,-12.42126 -0.96626,-4.06695 -2.230512,-6.64611 -3.92411,-8.00546 -2.024903,-1.62526 -2.767438,-3.61583 -3.91678,-10.5 l -1.418201,-8.49454 -0.122067,8.79775 c -0.113468,8.17798 0.05405,8.96097 2.377933,11.11467 2.205343,2.04384 2.5,3.13737 2.5,9.27794 0,6.13211 -0.297694,7.24068 -2.5,9.30964 -2.41464,2.26844 -2.5,2.78655 -2.5,15.17431 l 0,12.82569 -4.5,0 -4.5,0 0,-13.34501 z m 100,2.00552 c 0,-11.12503 0.0473,-11.36102 2.5,-12.47856 2.49391,-1.1363 2.5,-1.1733 2.5,-15.18195 0,-14.00865 -0.006,-14.04565 -2.5,-15.18195 -2.49748,-1.13793 -2.5,-1.15354 -2.5,-15.47856 l 0,-14.33949 4.96751,0 4.96752,0 4.21177,13.50329 c 3.98566,12.77839 4.39806,13.59707 7.68194,15.25 2.99571,1.50789 3.96425,3.00181 7.08383,10.92649 1.98752,5.04889 3.94526,9.51139 4.35055,9.91667 0.40528,0.40529 0.73688,-3.65372 0.73688,-9.02001 0,-9.58934 -0.0515,-9.80211 -3,-12.38935 l -3,-2.63246 0,-12.77731 0,-12.77732 6,0 6,0 0,13.02144 c 0,12.91911 0.0197,13.03039 2.5,14.16051 l 2.5,1.13908 0,16.17897 0,16.17897 -2.5,1.13908 c -2.43713,1.11042 -2.5,1.40488 -2.5,11.70823 l 0,10.56915 -6.19961,-0.29771 -6.1996,-0.29772 -2.78502,-9 c -3.25385,-10.5151 -3.4026,-12.35041 -1.13534,-14.00828 1.53969,-1.12585 1.33315,-2.05637 -2.4661,-11.11024 l -4.14653,-9.88148 -0.0339,9.71482 c -0.0315,9.03964 -0.19027,9.79716 -2.2839,10.8997 -3.48405,1.83476 -3.71834,2.69015 -3.73469,13.63548 l -0.0153,10.25 -5.5,0 -5.5,0 0,-11.33949 z m 92,2.05873 0,-9.28077 3.02187,-1.14062 3.02187,-1.14063 -0.27187,-19.31602 -0.27187,-19.31601 -2.75,-1.31716 -2.75,-1.31716 0,-10.94544 0,-10.94543 5.5,0 5.5,0 0,10.55103 0,10.55102 3.5,1.4624 c 3.40812,1.424 3.50192,1.61299 3.57307,7.19897 l 0.0731,5.73658 1.92853,-5.43385 1.92853,-5.43385 -2.14833,-2.2868 -2.14833,-2.28679 3.49086,-9.77936 3.49083,-9.77935 5.65587,-0.2999 c 3.29538,-0.17474 5.65587,0.11646 5.65587,0.69773 0,0.54869 -1.40254,4.87373 -3.11675,9.61118 l -3.11674,8.61355 2.21908,2.3621 2.21909,2.36211 -4.0146,10.32662 -4.01461,10.32661 3.55375,6.41549 c 1.95457,3.52852 4.26269,7.65073 5.12916,9.16047 1.38382,2.41116 1.40105,3.07076 0.14174,5.42382 -1.33822,2.50048 -1.18621,3.15954 2.28311,9.89896 2.04422,3.97107 3.71677,7.53089 3.71677,7.9107 0,0.37981 -2.88433,0.69056 -6.40961,0.69056 l -6.40962,0 -4.09038,-7.4529 c -3.97705,-7.24638 -5.12806,-11.5471 -3.09039,-11.5471 1.60329,0 1.07766,-4.20503 -1,-8 l -1.91617,-3.5 -0.0419,4.65122 c -0.0382,4.23725 -0.35343,4.83503 -3.54192,6.71628 l -3.5,2.06505 0,8.53372 0,8.53373 -5.5,0 -5.5,0 0,-9.28076 z"
         id="path4209" />
      <path
         style="fill:#ffffff;fill-opacity:1"
         d="m 136.75084,492.35291 c -8.57531,-2.5147 -12.03653,-7.85998 -12.03653,-18.58845 0,-6.4305 0.18299,-7.02174 2.5,-8.07744 2.45649,-1.11925 2.5,-1.33997 2.5,-12.68195 0,-11.43657 -0.0238,-11.5537 -2.57926,-12.71807 l -2.57926,-1.17518 0.32926,-11.73395 c 0.27958,-9.96346 0.63958,-12.14901 2.38595,-14.48476 6.98258,-9.33915 24.27751,-8.92936 29.94331,0.70949 1.50794,2.56536 2.12301,5.86277 2.5,13.40247 0.45859,9.17178 0.68635,10.08176 2.75,10.98713 2.17468,0.95408 2.25,1.44248 2.25,14.58948 0,13.53876 -0.0117,13.60769 -2.5,14.74144 -2.15892,0.98366 -2.5,1.79096 -2.5,5.91711 0,8.87115 -2.90966,14.60694 -9,17.74161 -3.69758,1.90312 -10.02911,2.52482 -13.96347,1.37107 z m 9.37008,-11.74465 c 0.96443,-1.06567 1.9654,-4.30751 2.28441,-7.39846 0.46714,-4.5261 0.98817,-5.69316 2.9384,-6.58174 2.31005,-1.05253 2.37058,-1.39927 2.37058,-13.5785 0,-12.22813 -0.0541,-12.5338 -2.5,-14.13645 -2.21748,-1.45295 -2.5,-2.3321 -2.5,-7.77965 0,-6.89851 -1.33299,-12.5876 -3.23173,-13.79277 -0.69755,-0.44275 -2.48025,-0.81189 -3.96157,-0.82031 -4.33934,-0.0247 -5.8067,3.18062 -5.8067,12.68414 0,7.70126 0.16754,8.36422 2.5,9.89251 2.441,1.5994 2.5,1.92658 2.5,13.86253 0,12.21578 -0.002,12.22533 -2.61786,13.41726 -2.48873,1.13394 -2.59608,1.49376 -2.17647,7.29489 0.32198,4.45131 0.94663,6.47156 2.30899,7.46774 2.62192,1.91719 5.87431,1.69828 7.89195,-0.53119 z m 82.62993,11.74465 c -8.13092,-2.38438 -12.03654,-7.76961 -12.03654,-16.59648 0,-4.43802 0.23557,-4.9018 3.02453,-5.95452 l 3.02453,-1.14163 -0.27453,-16.74741 -0.27453,-16.74741 -3,-1.67809 c -2.97254,-1.66273 -2.9967,-1.74584 -2.63902,-9.0802 0.39811,-8.16343 1.76037,-11.67249 5.74959,-14.81041 5.84201,-4.59533 14.25877,-4.95274 21.4795,-0.91213 5.03391,2.8169 7.10983,6.88209 7.69568,15.07011 0.46984,6.56657 0.6564,7.0085 3.35587,7.94954 l 2.85838,0.99644 0,18.81884 0,18.81884 -2.67415,0.89139 c -2.30227,0.76742 -2.85409,1.77354 -3.96812,7.23495 -1.82829,8.96301 -6.17218,13.15957 -14.85773,14.35383 -2.2,0.3025 -5.55856,0.0929 -7.46346,-0.46566 z m 9.13472,-11.50283 c 1.00581,-0.91024 1.83563,-2.82274 1.84405,-4.25 0.0193,-3.26579 0.79117,-4.33102 4.23469,-5.84393 l 2.75,-1.2082 0,-17.55517 0,-17.55516 -3.5,-2.06505 c -3.30391,-1.94935 -3.5,-2.36366 -3.5,-7.39485 0,-6.15449 -1.65486,-8.47265 -6.04838,-8.47265 -4.18289,0 -6.14069,3.45195 -5.75703,10.1507 0.26874,4.6923 0.63562,5.49026 3.05541,6.64552 l 2.75,1.31291 0,17.34761 0,17.34761 -3,1.04581 c -2.57399,0.89729 -3,1.5502 -3,4.59782 0,6.27061 5.94795,9.71908 10.17126,5.89703 z m 74.99758,11.16963 c -7.10851,-2.21826 -11.16884,-7.24251 -11.16884,-13.82032 0,-2.98367 0.40215,-3.52033 3.25,-4.33709 l 3.25,-0.93209 0,-21.85358 c 0,-18.44706 -0.23382,-21.9629 -1.5,-22.55488 -5.69732,-2.66365 -5.48422,-2.22649 -5.78753,-11.87259 l -0.28752,-9.14409 6.03752,0 6.03753,0 0,9.05103 0,9.05102 3.5,1.4624 3.5,1.46239 0,22.34192 0,22.34192 -3.24313,0.93012 c -3.91567,1.12299 -4.60514,3.51093 -1.81835,6.29772 3.13198,3.13198 6.72396,2.66483 9.06118,-1.17842 1.1324,-1.86209 3.35879,-3.70712 5.2353,-4.33855 l 3.265,-1.09864 0.28276,-21.41146 c 0.15551,-11.7763 0.0514,-22.35645 -0.23141,-23.51146 -0.31946,-1.30477 -1.75193,-2.45402 -3.78276,-3.03487 l -3.26859,-0.93487 -0.28893,-8.71512 -0.28894,-8.71513 6.03894,0 6.03893,0 0,8.42245 0,8.42245 3.5,1.1551 3.5,1.1551 0,23.77779 0,23.77779 -3.21205,0.9212 c -2.64154,0.75759 -3.52053,1.78345 -4.94889,5.77581 -2.31205,6.46232 -5.20131,9.32544 -11.21185,11.11038 -5.86658,1.74218 -5.86448,1.74218 -11.45837,-0.003 z M 68.71431,478.16006 c 0,-12.07502 0.190332,-13.51726 2,-15.15499 2.958392,-2.67731 2.958392,-15.91672 0,-17.5 -1.889145,-1.01104 -2,-2.09382 -2,-19.53518 l 0,-18.46482 7,0 c 3.85,0 7,0.15479 7,0.34398 0,0.49043 5.864902,29.69486 6.514954,32.44139 0.297497,1.25695 1.609056,2.69148 2.914575,3.18784 1.756784,0.66792 2.551801,1.95681 3.059083,4.95939 0.930636,5.50838 2.1254,5.8827 2.919803,0.91478 0.488061,-3.05217 0.250952,-4.56629 -0.917214,-5.8571 -1.43952,-1.59066 -1.296379,-3.21818 1.659224,-18.86556 l 3.234655,-17.12472 7.30746,0 7.30746,0 0,15.84501 c 0,14.57502 0.1603,15.99009 2,17.65499 1.75074,1.5844 2,3.07997 2,12 0,8.92003 -0.24926,10.4156 -2,12 -1.79425,1.62377 -2,3.07997 -2,14.15499 l 0,12.34501 -5,0 -5,0 0,-12.32569 c 0,-11.85443 0.0956,-12.41548 2.5,-14.67431 2.2972,-2.15811 2.5,-3.05833 2.5,-11.09759 0,-7.94618 -0.23679,-9.03037 -2.58064,-11.81588 -2.39972,-2.85191 -2.53522,-3.54084 -1.93269,-9.82673 0.43589,-4.54748 0.32618,-6.29412 -0.33523,-5.33691 -0.54075,0.7826 -1.29447,4.52257 -1.67494,8.31107 -0.58923,5.86731 -0.43733,7.0742 1.02495,8.14344 1.6195,1.18421 1.62074,1.70446 0.0219,9.18894 -2.39363,11.20522 -2.31932,11.01965 -4.88049,12.1866 -2.032705,0.92616 -2.533698,2.39405 -4.06209,11.90176 -2.496033,15.52714 -2.487344,15.50056 -4.952653,15.14888 -1.912365,-0.2728 -2.325441,-1.54904 -4.074001,-12.58702 -1.781626,-11.24671 -1.813546,-12.51271 -0.378197,-15 1.438491,-2.49273 1.409671,-3.3848 -0.349779,-10.82684 -1.542706,-6.52526 -2.37488,-8.3187 -4.258119,-9.17676 -2.015956,-0.91853 -2.529869,-2.29055 -3.704367,-9.88972 l -1.363684,-8.82324 -0.291613,8.93375 c -0.27629,8.46434 -0.158066,9.05759 2.25,11.29047 2.240876,2.07786 2.541613,3.15958 2.541613,9.14193 0,5.9446 -0.309725,7.07619 -2.5,9.13385 -2.41464,2.26844 -2.5,2.78655 -2.5,15.17431 l 0,12.82569 -4.5,0 -4.5,0 0,-13.34501 z m 100,2.00552 c 0,-11.12503 0.0473,-11.36102 2.5,-12.47856 2.49221,-1.13552 2.5,-1.1824 2.5,-15.0455 0,-13.73004 -0.0317,-13.92721 -2.5,-15.54449 -2.46929,-1.61795 -2.5,-1.80975 -2.5,-15.61501 l 0,-13.97695 4.90723,0 4.90723,0 3.65272,11.75 c 2.009,6.4625 3.89411,12.57858 4.18913,13.59129 0.29503,1.01271 2.01424,2.45876 3.82048,3.21346 2.85933,1.1947 3.76253,2.57321 6.98357,10.65871 2.03473,5.1076 4.11354,9.71404 4.61957,10.23654 0.56206,0.58034 0.92007,-2.99244 0.92007,-9.18191 0,-10.11629 -0.005,-10.13519 -3,-12.26809 l -3,-2.13619 0,-12.9319 0,-12.93191 6,0 6,0 0,13.02144 c 0,12.91911 0.0197,13.03039 2.5,14.16051 l 2.5,1.13908 0,15.81643 c 0,15.76738 -0.008,15.82151 -2.5,17.4545 -2.40224,1.574 -2.5,2.04603 -2.5,12.07077 l 0,10.4327 -6.08442,-0.29771 -6.08441,-0.29772 -2.90353,-9 c -3.38308,-10.48642 -3.45757,-11.25695 -1.317,-13.62225 1.49206,-1.64871 1.32641,-2.49979 -2.25,-11.56033 l -3.86064,-9.7806 -0.5,9.90057 c -0.34018,6.736 -0.90525,10.03491 -1.76786,10.32087 -3.57753,1.186 -4.23214,3.32254 -4.23214,13.81317 l 0,10.42857 -5.5,0 -5.5,0 0,-11.33949 z m 92,2.36517 c 0,-8.97422 3e-5,-8.97434 3.02146,-10.53678 l 3.02147,-1.56246 -0.27147,-19.20062 -0.27146,-19.20063 -2.75,-1.31716 -2.75,-1.31716 0,-10.94544 0,-10.94543 5.5,0 5.5,0 0,10.40122 0,10.40123 3.44545,2.03287 c 3.15336,1.86052 3.47128,2.48354 3.75,7.34877 l 0.30455,5.31591 1.96011,-5.83721 1.96012,-5.83721 -2.38844,-1.8016 c -2.35974,-1.77995 -2.36882,-1.854 -0.75633,-6.16279 0.89765,-2.39865 2.58523,-6.94869 3.75017,-10.11119 l 2.11807,-5.75 5.42815,0 c 2.98548,0 5.43072,0.3375 5.43386,0.75 0.003,0.4125 -1.44775,4.87118 -3.22418,9.90818 l -3.22989,9.15817 2.26945,1.84183 2.26946,1.84182 -4.03513,10.73651 -4.03512,10.7365 4.98985,8.448 c 5.43376,9.19955 5.57448,9.66998 3.76117,12.57356 -1.04578,1.67455 -0.67361,3.08923 2.5,9.50298 2.05077,4.14455 3.72868,7.77365 3.72868,8.06468 0,0.29103 -2.95874,0.39609 -6.57497,0.23346 l -6.57497,-0.29569 -4.09765,-7.85877 c -3.41802,-6.55534 -3.90316,-8.1702 -2.92503,-9.73643 1.61884,-2.59218 1.41244,-4.81364 -0.82738,-8.9048 l -1.91617,-3.5 -0.0419,4.65122 c -0.0382,4.23725 -0.35343,4.83503 -3.54192,6.71628 l -3.5,2.06505 0,8.53372 0,8.53373 -5.5,0 -5.5,0 0,-8.97432 z"
         id="path4207" />
      <path
         style="fill:#ffffff;fill-opacity:1"
         d="m 132.30711,490.12974 c -5.51412,-3.33777 -7.49997,-7.60202 -7.55088,-16.21416 -0.0391,-6.61053 0.12698,-7.16643 2.45808,-8.22856 2.45397,-1.1181 2.5,-1.34906 2.5,-12.5455 0,-11.06338 -0.0752,-11.4557 -2.5,-13.04449 -2.39287,-1.56787 -2.5,-2.06983 -2.5,-11.71388 0,-14.63891 2.7946,-19.28675 13.16691,-21.89852 5.83416,-1.46906 11.59398,-0.006 16.32193,4.14479 4.20857,3.69517 5.49824,7.93568 5.50558,18.1026 0.005,7.13561 0.1969,7.8523 2.50558,9.36501 2.45064,1.60571 2.5,1.89021 2.5,14.40804 0,12.31697 -0.0838,12.82485 -2.36075,14.31681 -2.01642,1.3212 -2.43548,2.59111 -2.87303,8.70645 -0.56389,7.88119 -2.16519,10.92163 -7.75605,14.72674 -4.71658,3.21008 -14.00622,3.15012 -19.41737,-0.12533 z m 13.09464,-8.41034 c 1.76698,-1.12354 3.31256,-5.84485 3.31256,-10.11892 0,-3.05559 0.4761,-3.99131 2.5,-4.91346 2.47803,-1.12906 2.5,-1.2521 2.5,-14 0,-12.56573 -0.0545,-12.88575 -2.37391,-13.94255 -2.18916,-0.99744 -2.40736,-1.78127 -2.80372,-10.07155 -0.48705,-10.18698 -1.527,-12.16785 -6.38811,-12.16785 -5.1095,0 -6.43426,2.72681 -6.43426,13.24394 0,8.41511 0.10905,8.84863 2.5,9.93801 2.45974,1.12074 2.5,1.32787 2.5,12.86355 0,11.40263 -0.0686,11.76945 -2.5,13.36254 -2.14164,1.40326 -2.5,2.39125 -2.5,6.89251 0,6.3653 2.00298,9.70576 5.8067,9.68414 1.48132,-0.008 3.22765,-0.35508 3.88074,-0.77036 z m 79.53074,9.12259 c -4.95331,-2.44139 -7.55077,-6.78683 -8.03179,-13.43686 -0.40343,-5.57735 -0.33053,-5.77416 2.72355,-7.35349 l 3.13807,-1.62276 -0.274,-16.69954 -0.27401,-16.69953 -2.75,-1.31694 c -2.61143,-1.25057 -2.75,-1.66853 -2.75,-8.29449 0,-11.53371 3.44348,-16.48537 13.16691,-18.93375 9.46475,-2.38326 18.82098,3.07392 20.75837,12.10765 0.5911,2.75618 1.07472,6.60317 1.07472,8.54887 0,3.01241 0.44541,3.70577 3,4.67002 l 3,1.13237 0,18.56153 0,18.56152 -2.88842,1.09026 c -2.50473,0.94543 -2.98193,1.77015 -3.59235,6.20839 -1.34643,9.78971 -7.56234,15.1581 -17.50363,15.11706 -3.03358,-0.0125 -6.99242,-0.75066 -8.79742,-1.64031 z m 13.00017,-10.08692 c 0.84058,-0.9625 1.81235,-3.33961 2.15949,-5.28246 0.48807,-2.73158 1.31031,-3.78881 3.62666,-4.66314 l 2.9955,-1.13067 0,-18.13889 0,-18.13888 -2.87705,-1.00295 c -2.60867,-0.90938 -2.93954,-1.55523 -3.54688,-6.92343 -0.75898,-6.70846 -2.42892,-8.96958 -6.62445,-8.96958 -4.18289,0 -6.14069,3.45195 -5.75703,10.1507 0.26874,4.6923 0.63562,5.49026 3.05541,6.64552 l 2.75,1.31291 0,16.91976 0,16.91975 -3,1.55136 c -2.40024,1.24121 -3,2.20146 -3,4.80317 0,6.61065 6.39057,10.32981 10.21835,5.94683 z m 71.76605,9.89839 c -4.48905,-2.38548 -7.9844,-7.54369 -7.9844,-11.78285 0,-2.87398 0.4899,-3.54339 3.51962,-4.80929 l 3.51962,-1.47059 -0.26962,-21.78567 -0.26962,-21.78567 -3.78855,-1.78318 -3.78856,-1.78319 0.28856,-8.72397 0.28855,-8.72398 5.75,-0.2999 5.75,-0.29991 0,9.10093 0,9.10093 3.5,1.4624 3.5,1.46239 0,22.03761 0,22.0376 -3.5,1.4624 c -3.93221,1.64298 -4.55521,4.17062 -1.67126,6.78056 3.45798,3.12943 8.90486,1.42813 10.33514,-3.2281 0.23367,-0.76071 1.97989,-1.88571 3.88049,-2.5 l 3.45563,-1.11691 0,-23.41667 0,-23.41666 -3,-0.98328 c -1.65,-0.5408 -3.33061,-1.4783 -3.73469,-2.08333 -0.40408,-0.60504 -0.74158,-4.61002 -0.75,-8.89996 l -0.0153,-7.79991 5.75,0.29991 5.75,0.2999 0.5,8.44041 0.5,8.44041 3.25,0.83818 3.25,0.83818 0,23.46354 0,23.46354 -3.71287,1.75787 c -2.86775,1.35775 -3.8692,2.52658 -4.39971,5.13507 -1.52973,7.52159 -7.93935,12.1228 -16.88742,12.1228 -3.46223,0 -6.83456,-0.6926 -9.0156,-1.85161 z M 68.71431,478.04025 c 0,-12.44136 0.152019,-13.54617 2,-14.53518 1.741865,-0.93222 2,-2.09382 2,-9 0,-6.90618 -0.258135,-8.06778 -2,-9 -1.889145,-1.01104 -2,-2.09382 -2,-19.53518 l 0,-18.46482 6.917136,0 6.917136,0 0.96903,4.75 c 0.532966,2.6125 2.016242,10.30021 3.296169,17.08379 2.089308,11.07329 2.611831,12.53651 5.112786,14.31735 1.929199,1.37371 2.978989,3.19265 3.414503,5.91621 0.802939,5.0213 2.012708,5.0261 2.859947,0.0113 0.471138,-2.78864 0.209323,-4.61296 -0.906395,-6.31577 -1.453319,-2.21804 -1.326629,-3.60515 1.719695,-18.82868 l 3.288593,-16.43423 7.2057,-0.29381 7.2057,-0.29381 0,15.88882 c 0,14.61883 0.15986,16.0335 2,17.6988 1.75074,1.5844 2,3.07997 2,12 0,8.92003 -0.24926,10.4156 -2,12 -1.79516,1.6246 -2,3.07997 -2,14.20978 l 0,12.3998 -4.75,-0.30479 -4.75,-0.30479 -0.28339,-11.94138 c -0.27678,-11.66289 -0.22431,-11.99615 2.25,-14.29047 2.36063,-2.1889 2.53339,-2.98227 2.53339,-11.63431 0,-8.54257 -0.19456,-9.46799 -2.43252,-11.57045 -2.26338,-2.12633 -2.39145,-2.77514 -1.84182,-9.33109 0.41063,-4.89801 0.26346,-6.84361 -0.48279,-6.38241 -0.59041,0.3649 -1.39105,4.05235 -1.77918,8.19433 -0.57484,6.13439 -0.41555,7.85149 0.859,9.25985 1.42193,1.57122 1.38969,2.50303 -0.35332,10.21245 -1.05491,4.66591 -1.92958,8.74875 -1.9437,9.07297 -0.0141,0.32421 -1.09867,1.07837 -2.41011,1.6759 -1.952656,0.88969 -2.586457,2.27691 -3.500003,7.66052 -0.613556,3.61575 -1.61605,9.52377 -2.227763,13.12894 -0.988089,5.82335 -1.348182,6.52082 -3.226768,6.25 -1.853558,-0.26722 -2.325763,-1.53917 -3.825638,-10.30485 -2.157135,-12.60689 -2.207939,-15.43086 -0.315228,-17.52228 1.360384,-1.5032 1.358187,-2.40487 -0.02091,-8.57874 -2.005803,-8.97949 -2.958893,-11.0927 -5.344474,-11.84986 -1.553361,-0.49301 -2.114584,-1.89476 -2.668118,-6.66404 -1.288398,-11.10092 -2.308248,-12.07377 -2.400709,-2.29007 -0.07456,7.88991 0.179051,9.33484 1.914047,10.90499 1.66679,1.50842 2,3.07997 2,9.43275 0,6.38528 -0.324681,7.90077 -2,9.33522 -1.809761,1.54957 -2,2.94994 -2,14.72224 l 0,13.00979 -4.5,0 -4.5,0 0,-13.46482 z m 100,2.48787 c 0,-10.60526 0.0846,-11.03241 2.5,-12.61501 2.46765,-1.61687 2.5,-1.81741 2.5,-15.5 0,-13.68258 -0.0323,-13.88313 -2.5,-15.5 -2.46798,-1.61708 -2.5,-1.81588 -2.5,-15.52305 l 0,-13.88499 4.83243,0 4.83243,0 4.25285,13.58666 c 4.03685,12.89662 4.42104,13.65693 7.56461,14.9704 2.92986,1.22417 3.74893,2.51151 7.10268,11.16334 2.085,5.37878 4.15633,10.2071 4.60295,10.7296 1.01126,1.18305 1.05726,-19.53689 0.0467,-21.0503 -0.40404,-0.60516 -1.74715,-1.63349 -2.98465,-2.28518 -2.15738,-1.13612 -2.25,-1.72061 -2.25,-14.19961 l 0,-13.01472 5.75,0.29991 5.75,0.2999 0.27916,12.6541 c 0.2694,12.2117 0.36554,12.71069 2.75,14.27305 2.4503,1.6055 2.47084,1.74666 2.47084,16.98089 0,15.22445 -0.0221,15.3764 -2.46502,16.97708 -2.31847,1.51912 -2.48196,2.22451 -2.75,11.86501 l -0.28498,10.24987 -5.69962,0.2984 -5.69962,0.2984 -3.05038,-9.75864 c -3.56499,-11.40498 -3.53802,-11.14184 -1.38579,-13.52003 1.56398,-1.72818 1.42799,-2.42799 -2.25,-11.57874 l -3.91459,-9.73939 -0.25185,8 c -0.3312,10.52055 -0.72916,11.9425 -3.72417,13.30712 -2.47641,1.12833 -2.52398,1.35774 -2.52398,12.17144 l 0,11.02144 -5.5,0 -5.5,0 0,-10.97695 z m 92,2.00263 c 0,-8.96005 0.005,-8.97679 3,-10.52568 l 3,-1.55136 0,-19.37649 0,-19.3765 -3,-1.0458 -3,-1.04581 0,-11.05202 0,-11.05202 5.46617,0 5.46617,0 0.28383,10.67096 0.28383,10.67095 3,1.65374 c 2.62569,1.4474 3.06454,2.33066 3.51727,7.07904 l 0.51726,5.42531 1.94285,-5.83721 1.94285,-5.83721 -2.32952,-1.75716 -2.32952,-1.75716 3.73048,-10.15563 3.73047,-10.15563 5.38893,0 c 2.96391,0 5.3873,0.3375 5.3853,0.75 -0.002,0.4125 -1.35036,4.35 -2.99637,8.75 -3.5508,9.49174 -3.64963,10.82407 -0.93677,12.62803 2.04969,1.36297 2.03601,1.44217 -2.08581,12.07498 l -4.14902,10.70301 5.0858,8.64099 c 5.16723,8.77935 5.87424,10.84768 4.0858,11.95299 -1.80106,1.11311 -1.05683,4.32776 2.5,10.79862 1.925,3.50211 3.5,6.6676 3.5,7.03443 0,0.36682 -2.91998,0.66695 -6.48884,0.66695 l -6.48884,0 -4.11632,-8.18697 c -3.88762,-7.73207 -4.03252,-8.32937 -2.60799,-10.75 1.39101,-2.36366 1.32492,-2.91307 -0.84965,-7.06303 l -2.35799,-4.5 -0.0605,4 c -0.0736,4.86717 -0.77216,6.07132 -4.30022,7.41269 -2.69456,1.02447 -2.72965,1.15382 -2.72965,10.06256 l 0,9.02475 -5.5,0 -5.5,0 0,-8.97432 z"
         id="path4205" />
      <path
         style="fill:#ffffff;fill-opacity:1"
         d="m 134.21431,491.14761 c -6.57339,-3.04029 -9.5,-8.48827 -9.5,-17.68459 0,-5.20248 0.29997,-6.1084 2.5,-7.54991 2.42386,-1.58817 2.5,-1.98408 2.5,-13 0,-11.01591 -0.0761,-11.41182 -2.5,-13 -2.37838,-1.55837 -2.5,-2.10359 -2.5,-11.20733 0,-11.78377 1.94802,-16.67915 7.98796,-20.07379 6.92209,-3.89043 17.6296,-2.52196 22.51621,2.87768 2.89059,3.19408 4.40634,9.18117 4.45194,17.58489 0.0414,7.63887 0.18315,8.15293 2.54389,9.22856 2.48066,1.13026 2.5,1.23997 2.5,14.18195 0,12.7558 -0.0522,13.06667 -2.37298,14.12408 -2.06786,0.94218 -2.4342,1.93693 -2.84916,7.73653 -0.85941,12.01133 -5.70871,17.34897 -16.23532,17.87025 -3.65995,0.18124 -7.22545,-0.24788 -9.04254,-1.08832 z m 12.55031,-10.20316 c 0.71236,-0.85834 1.50047,-4.03598 1.75137,-7.06142 0.36458,-4.39638 0.93222,-5.81272 2.82724,-7.05439 2.29205,-1.50181 2.37108,-1.98378 2.37108,-14.46002 0,-12.79644 -0.0213,-12.91614 -2.5,-14.0455 -2.34484,-1.06838 -2.50092,-1.61012 -2.51474,-8.72856 -0.0184,-9.4777 -1.3785,-12.47833 -5.8516,-12.90983 -5.86142,-0.56542 -7.13366,1.66329 -7.13366,12.49677 0,9.02046 0.0923,9.40852 2.5,10.50552 2.46212,1.12182 2.5,1.31877 2.5,13 0,11.68124 -0.0379,11.87818 -2.5,13 -2.23475,1.01822 -2.5,1.73503 -2.5,6.75606 0,7.13447 1.87204,10.06199 6.43426,10.06199 1.82647,0 3.90369,-0.70228 4.61605,-1.56062 z m 77.93952,9.31062 c -5.1634,-3.51418 -7.26887,-7.06966 -7.77081,-13.1225 -0.43769,-5.27795 -0.35101,-5.50789 2.66428,-7.06715 l 3.1167,-1.61171 0,-16.8765 0,-16.87649 -3,-1.04581 c -2.95301,-1.02942 -3,-1.15689 -3,-8.13766 0,-12.58566 5.78533,-19.07856 17.07741,-19.16603 10.41173,-0.0806 16.3724,5.79928 17.50222,17.26516 0.6264,6.35699 0.94146,7.1068 3.55385,8.45772 l 2.86652,1.48233 0,17.94864 0,17.94864 -2.8729,1.48563 c -2.87481,1.48663 -4.08782,3.97775 -4.11345,8.4477 -0.0213,3.71978 -3.83576,8.98663 -8.07458,11.14912 -5.45743,2.78417 -13.63357,2.65613 -17.94924,-0.28109 z m 13.39946,-9.28215 c 0.84268,-0.84268 1.82788,-3.10856 2.18934,-5.03529 0.4662,-2.48506 1.49479,-3.93629 3.53928,-4.99354 l 2.88209,-1.49038 0,-17.94864 0,-17.94864 -2.85501,-1.47638 c -2.48681,-1.28598 -2.92979,-2.20097 -3.43487,-7.09475 -0.70259,-6.80737 -1.93769,-8.48023 -6.26114,-8.48023 -5.00822,0 -6.44898,2.11123 -6.44898,9.45011 0,6.06525 0.11511,6.35493 3,7.54989 l 3,1.24264 0,16.853 0,16.853 -3,1.55136 c -2.5559,1.32171 -3,2.12912 -3,5.45425 0,2.21475 0.6797,4.58259 1.57143,5.47432 2.00497,2.00497 6.83067,2.02647 8.81786,0.0393 z m 71.62333,9.25722 c -4.67632,-2.47289 -8.01262,-7.447 -8.01262,-11.94605 0,-2.203 0.70225,-3.0456 3.51925,-4.22262 l 3.51924,-1.47043 -0.26924,-22.23002 -0.26925,-22.23001 -3.25,-0.84156 -3.25,-0.84156 0,-9.52367 0,-9.52367 5.25,0.30226 5.25,0.30226 0.28728,9.23107 0.28727,9.23106 3.21273,0.83191 3.21272,0.8319 0.26907,22.16564 0.26908,22.16564 -3.51908,1.47036 c -5.58626,2.33409 -3.90236,8.59258 2.30236,8.55711 3.25489,-0.0186 4.51634,-0.79574 6.06493,-3.73634 0.65218,-1.23841 2.74454,-2.90295 4.64971,-3.69897 l 3.46393,-1.44733 0,-23.04315 0,-23.04316 -3.75,-1.76574 -3.75,-1.76574 0,-7.99213 0,-7.99213 5.25,-0.30226 5.25,-0.30226 0,6.97047 c 0,8.7455 0.45018,9.87748 4.62129,11.62028 l 3.37871,1.41172 0,22.96867 0,22.96866 -3.71108,1.83236 c -2.74655,1.35612 -3.93234,2.71095 -4.56238,5.21274 -1.28967,5.12109 -3.46146,7.81288 -8.1251,10.07051 -5.63088,2.72587 -12.16576,2.64197 -17.58882,-0.22582 z M 68.71431,478.04025 c 0,-12.44136 0.152019,-13.54617 2,-14.53518 1.737906,-0.9301 2,-2.09382 2,-8.8802 0,-6.53983 -0.325229,-8.10415 -2,-9.6198 -1.857664,-1.68116 -2,-3.07997 -2,-19.65499 l 0,-17.84501 6.891946,0 6.891947,0 3.285504,17.05826 c 3.019272,15.67599 3.507187,17.21612 6.021213,19.00626 1.87298,1.33368 2.948494,3.20746 3.410447,5.94174 0.89478,5.29615 2.216457,5.0603 3.057105,-0.54555 0.511809,-3.41299 0.298882,-4.96375 -0.858159,-6.25 -1.390893,-1.54621 -1.259482,-3.10499 1.366638,-16.21071 1.598029,-7.975 3.150429,-15.53275 3.449779,-16.795 0.50997,-2.15038 0.96771,-2.27641 7.26393,-2 l 6.71965,0.295 0.27467,16.22802 c 0.25361,14.98405 0.42608,16.30905 2.25,17.28518 1.77327,0.94903 1.97533,2.12403 1.97533,11.4868 0,9.35371 -0.20325,10.53841 -1.97027,11.48409 -1.77732,0.95119 -1.99766,2.30116 -2.25,13.78518 l -0.27973,12.73073 -4.5,0 -4.5,0 -0.28155,-11.72918 c -0.27522,-11.46504 -0.22455,-11.77874 2.25,-13.93033 2.38775,-2.07613 2.53155,-2.75952 2.53155,-12.03061 0,-8.59197 -0.25179,-10.04505 -2,-11.54191 -1.65993,-1.42127 -2,-2.94994 -2,-8.99021 0,-8.44658 -1.43267,-9.68173 -2.35202,-2.02776 -0.96263,8.01434 -0.7817,10.94476 0.78248,12.67316 2.19442,2.42481 -1.55518,17.79754 -5.01895,20.57684 -2.155604,1.72964 -2.778663,3.72354 -4.609111,14.75 -1.784773,10.75131 -2.394897,12.75 -3.892094,12.75 -2.15765,0 -2.34501,-0.6071 -4.540825,-14.71351 -1.672008,-10.74136 -1.670231,-11.29668 0.0422,-13.1889 1.717249,-1.89753 1.71551,-2.28321 -0.04411,-9.78649 -1.341227,-5.71918 -2.552917,-8.48063 -4.524382,-10.3111 -2.181799,-2.02576 -2.883593,-3.89396 -3.699557,-9.84834 -0.553843,-4.04159 -1.262732,-7.60409 -1.575309,-7.91667 -0.312577,-0.31258 -0.568322,3.48693 -0.568322,8.44336 0,7.74168 0.281855,9.26675 2,10.82165 1.665988,1.5077 2,3.07997 2,9.41444 0,6.52146 -0.284834,7.78235 -2,8.85349 -1.839454,1.14875 -2,2.33202 -2,14.74054 l 0,13.49153 -4.5,0 -4.5,0 0,-13.46482 z m 100,2.57983 c 0,-10.50717 0.0868,-10.94185 2.5,-12.52305 2.47397,-1.62101 2.5,-1.78712 2.5,-15.9545 0,-14.30044 -0.003,-14.3177 -2.5,-15.45551 -2.49364,-1.13618 -2.5,-1.17473 -2.5,-15.16051 l 0,-14.02144 4.80824,0 4.80825,0 4.33911,13.97108 c 4.15604,13.38164 4.47385,14.01555 7.53291,15.02513 2.85997,0.94387 3.59077,2.07056 6.99147,10.77892 2.08872,5.34868 4.18519,10.15237 4.65884,10.67487 0.48685,0.53706 0.86118,-3.92765 0.86118,-10.27144 0,-11.02754 -0.0436,-11.24131 -2.52398,-12.37144 -3.28327,-1.49596 -3.61479,-3.15077 -3.26689,-16.30712 l 0.29087,-11 5.25,-0.30226 5.25,-0.30226 0.0136,11.30226 c 0.0162,13.42724 0.39918,15.2137 3.5711,16.65892 2.40232,1.09457 2.41525,1.18338 2.41525,16.58672 0,15.04207 -0.0645,15.52024 -2.25,16.67114 -3.46996,1.82734 -3.7183,2.70079 -3.73469,13.13548 l -0.0153,9.75 -5.3662,0 -5.36619,0 -3.13381,-9.88565 c -3.58946,-11.32304 -3.6724,-11.97044 -1.6338,-12.75272 0.825,-0.31659 1.5,-1.38248 1.5,-2.36866 0,-2.54281 -7.01557,-18.99297 -8.10002,-18.99297 -0.49499,0 -0.89998,4.22325 -0.89998,9.38499 0,8.90717 -0.12728,9.46839 -2.5,11.02305 -2.41535,1.5826 -2.5,2.00975 -2.5,12.61501 l 0,10.97695 -5.5,0 -5.5,0 0,-10.88499 z m 92,1.83297 0,-9.05202 3,-1.0458 3,-1.04581 0,-19.95419 0,-19.9542 -3,-1.0458 -3,-1.04581 0,-10.90218 0,-10.90217 5.5,0 5.5,0 0,10.90217 0,10.90218 3,1.04581 c 2.84231,0.99083 3,1.33453 3,6.5388 0,3.02115 0.38321,5.72984 0.85158,6.01931 0.46837,0.28947 1.67862,-2.20523 2.68945,-5.54378 l 1.83787,-6.07008 -2.21651,-1.67192 -2.2165,-1.67191 3.6674,-10.22529 3.66741,-10.22529 5.35965,0 c 2.94781,0 5.35965,0.1943 5.35965,0.43178 0,0.23748 -1.35,4.09318 -3,8.56822 -3.36645,9.13031 -3.68337,11.80054 -1.5,12.63837 2.21645,0.85054 1.9017,2.8571 -2.11981,13.51382 l -3.64243,9.6522 5.13112,8.96648 c 2.82212,4.93156 5.13112,9.32764 5.13112,9.76906 0,0.44142 -0.72554,1.6043 -1.61231,2.58417 -1.49745,1.65466 -1.31936,2.32466 2.5,9.40552 2.26177,4.19317 4.11231,7.8144 4.11231,8.04716 0,0.23277 -2.8125,0.42056 -6.25,0.41731 l -6.25,-0.006 -4.4757,-8.41596 c -4.35186,-8.18312 -4.42567,-8.47123 -2.66768,-10.41379 1.74625,-1.92959 1.7388,-2.15428 -0.21807,-6.57813 -2.56848,-5.80647 -4.13855,-5.84668 -4.13855,-0.10599 0,3.96005 -0.34481,4.65263 -3,6.02568 -2.99523,1.54889 -3,1.56563 -3,10.52568 l 0,8.97432 -5.5,0 -5.5,0 0,-9.05202 z"
         id="path4203" />
    </g>
  </g>
</svg>
